<svg xmlns="http://www.w3.org/2000/svg" viewBox="0 0 215 215"><defs><style>.cls-1{fill:none;}.cls-2{opacity:0.41;}.cls-3{fill:#292a3c;}.cls-4{fill:#283358;}.cls-5{fill:#fdf4f0;}.cls-6{fill:#bdbdbd;}.cls-7{fill:#78d1d5;}.cls-11,.cls-8{fill:#e5720a;}.cls-9{fill:#3b2646;}.cls-10{fill:#f49549;}.cls-11,.cls-14{opacity:0.64;}.cls-12{fill:#f7d0b0;}.cls-13{fill:#ffb776;}.cls-15{fill:#584562;}.cls-16{fill:#1c042b;}.cls-17{fill:#332e5a;}.cls-18{fill:#4d4d4d;}</style></defs><g id="Layer_2" data-name="Layer 2"><g id="Layer_1-2" data-name="Layer 1"><rect class="cls-1" width="215" height="215"/><g class="cls-2"><path class="cls-3" d="M68.623,186.532h66.922c.032,0,.033-4.345,0-4.345H68.623c-.032,0-.033,4.345,0,4.345Z"/></g><g class="cls-2"><path class="cls-3" d="M83.194,182.258h61.515c.032,0,.033-4.345,0-4.345h-.482c-.032,0-.033,4.345,0,4.345h.482c.032,0,.033-4.345,0-4.345H83.194c-.032,0-.033,4.345,0,4.345Z"/></g><rect class="cls-4" x="122.093" y="137.301" width="11.14" height="27.043"/><rect class="cls-5" x="122.386" y="164.344" width="17.375" height="7.639" transform="translate(262.147 336.327) rotate(-180)"/><rect class="cls-5" x="122.386" y="168.164" width="24.246" height="7.639" transform="translate(269.017 343.967) rotate(-180)"/><rect class="cls-5" x="122.386" y="172.414" width="24.246" height="7.639" transform="translate(269.017 352.467) rotate(-180)"/><path class="cls-6" d="M122.6,170.153h8.691c.029,0,.03-3.979,0-3.979h-.153c-.03,0-.031,3.979,0,3.979h.153c.029,0,.03-3.979,0-3.979H122.6c-.03,0-.031,3.979,0,3.979Z"/><path class="cls-6" d="M139.9,165.95h-2.7c-.029,0-.03,3.978,0,3.978h2.7c.029,0,.031-3.978,0-3.978Z"/><rect class="cls-7" x="122.386" y="176.234" width="24.246" height="3.82" transform="translate(269.017 356.287) rotate(-180)"/><rect class="cls-4" x="92.341" y="137.301" width="11.14" height="27.043"/><rect class="cls-5" x="92.634" y="164.344" width="17.375" height="7.639" transform="translate(202.643 336.327) rotate(-180)"/><rect class="cls-5" x="92.634" y="168.164" width="24.246" height="7.639" transform="translate(209.514 343.967) rotate(-180)"/><rect class="cls-5" x="92.634" y="172.414" width="24.246" height="7.639" transform="translate(209.514 352.467) rotate(-180)"/><path class="cls-6" d="M92.844,170.153h8.691c.029,0,.03-3.979,0-3.979h-.153c-.029,0-.031,3.979,0,3.979h.153c.029,0,.03-3.979,0-3.979H92.844c-.029,0-.03,3.979,0,3.979Z"/><path class="cls-6" d="M110.144,165.95h-2.7c-.029,0-.03,3.978,0,3.978h2.7c.03,0,.031-3.978,0-3.978Z"/><rect class="cls-7" x="92.634" y="176.234" width="24.246" height="3.82" transform="translate(209.514 356.287) rotate(-180)"/><polyline class="cls-8" points="73.898 62.357 66.877 62.357 66.877 113.826 73.898 113.826 73.898 124.406 79.163 124.406 79.163 130.728 84.428 130.728 84.428 136.998 91.009 136.998 91.009 137.301 115.141 137.301 115.141 139.632 121.722 139.632 121.722 130.728 128.742 130.728 128.742 124.845 134.885 124.845 134.885 113.826 142.344 113.826 142.344 64.191 134.446 64.191"/><path d="M92.844,150.258h9.565c.058,0,.06-7.958,0-7.958H92.844c-.059,0-.061,7.958,0,7.958Z"/><path d="M92.844,145h9.565c.058,0,.06-7.958,0-7.958H92.844c-.059,0-.061,7.958,0,7.958Z"/><path d="M122.881,150.258h9.564c.059,0,.061-7.958,0-7.958h-9.564c-.059,0-.061,7.958,0,7.958Z"/><path d="M122.881,144h9.564c.059,0,.061-7.958,0-7.958h-9.564c-.059,0-.061,7.958,0,7.958Z"/><rect class="cls-9" x="38.177" y="75.924" width="9.658" height="9.658" transform="translate(86.012 161.506) rotate(-180)"/><polygon class="cls-8" points="121.722 30.607 98.907 30.607 98.907 37.076 91.009 37.076 91.009 42.199 85.744 42.199 85.744 48.683 80.479 48.683 80.479 60.358 73.459 60.358 73.459 111.827 80.479 111.827 80.479 122.407 85.744 122.407 85.744 128.729 91.009 128.729 91.009 134.999 97.59 134.999 97.59 142.59 121.722 142.59 121.722 137.632 128.304 137.632 128.304 128.729 135.324 128.729 135.324 122.846 141.466 122.846 141.466 111.827 148.925 111.827 148.925 62.191 141.028 62.191 141.028 50.237 134.446 50.237 134.446 42.199 128.742 42.199 128.742 34.6 121.759 34.6 121.722 30.607"/><polygon class="cls-10" points="129.62 30.607 106.804 30.607 106.804 37.076 98.907 37.076 98.907 42.199 93.642 42.199 93.642 48.683 88.377 48.683 88.377 60.358 81.356 60.358 81.356 111.827 88.377 111.827 88.377 122.407 93.642 122.407 93.642 128.729 98.907 128.729 98.907 134.999 105.488 134.999 105.488 142.59 129.62 142.59 129.62 137.632 136.201 137.632 136.201 128.729 143.221 128.729 143.221 122.846 149.364 122.846 149.364 111.827 156.823 111.827 156.823 62.191 148.925 62.191 148.925 50.237 142.344 50.237 142.344 42.199 136.64 42.199 136.64 34.6 129.656 34.6 129.62 30.607"/><rect class="cls-9" x="98.907" y="36.811" width="37.733" height="10.776" transform="translate(235.547 84.399) rotate(-180)"/><rect class="cls-11" x="91.581" y="75.749" width="6.651" height="36.279" transform="translate(189.814 187.778) rotate(-180)"/><rect class="cls-11" x="142.274" y="75.749" width="6.651" height="36.279" transform="translate(291.199 187.778) rotate(-180)"/><path class="cls-12" d="M127.264,124.4h-20.6c-.052,0-.054,7.138,0,7.138h.269c.052,0,.054-7.138,0-7.138h-.269v7.138h20.6c.053,0,.054-7.138,0-7.138Z"/><path class="cls-13" d="M134.417,118.379a7.76,7.76,0,0,0-3.6-.549c-1.269.024-2.533.168-3.8.173-.058,0-.051,7.138,0,7.138h.246c.053,0,.054-7.138,0-7.138h-.246v7.138c1.268-.005,2.532-.148,3.8-.173a7.748,7.748,0,0,1,3.6.55c-.016-.008.027-1.2.025-1.046.009-.841.011-1.682.011-2.524s0-1.682-.011-2.523a4.284,4.284,0,0,0-.025-1.046Z"/><path class="cls-13" d="M106.558,116.873H99.782c-.053,0-.055,7.139,0,7.139h6.776c.053,0,.055-7.139,0-7.139Z"/><g class="cls-14"><path class="cls-8" d="M129.652,136.45H113.208v7.138h.256c.053,0,.055-7.138,0-7.138h-.256c-.053,0-.055,7.138,0,7.138h16.444c.053,0,.055-7.138,0-7.138Z"/></g><g class="cls-14"><path class="cls-8" d="M132.911,60.4H86.734c-.053,0-.054,7.138,0,7.138h.248c.052,0,.054-7.138,0-7.138h-.248v7.138h46.177c.053,0,.055-7.138,0-7.138Z"/></g><rect class="cls-9" x="73.459" y="48.574" width="75.466" height="13.618" transform="translate(222.384 110.765) rotate(-180)"/><rect class="cls-9" x="82.371" y="42.199" width="59.973" height="10.776" transform="translate(224.715 95.175) rotate(-180)"/><rect class="cls-9" x="89.009" y="34.552" width="47.631" height="10.776" transform="translate(225.649 79.881) rotate(-180)"/><rect class="cls-9" x="94.907" y="30.607" width="35.094" height="10.776" transform="translate(224.908 71.991) rotate(-180)"/><rect class="cls-15" x="63.801" y="61.451" width="9.658" height="9.658" transform="translate(137.26 132.56) rotate(-180)"/><rect class="cls-9" x="54.143" y="61.451" width="9.658" height="9.658" transform="translate(117.944 132.56) rotate(-180)"/><rect class="cls-9" x="54.143" y="71.095" width="9.658" height="9.658" transform="translate(117.944 151.849) rotate(-180)"/><rect class="cls-9" x="46.031" y="75.924" width="9.658" height="9.658" transform="translate(101.72 161.506) rotate(-180)"/><rect class="cls-15" x="63.801" y="71.095" width="9.658" height="9.658" transform="translate(137.26 151.849) rotate(-180)"/><rect class="cls-15" x="54.143" y="80.327" width="9.658" height="9.658" transform="translate(117.944 170.312) rotate(-180)"/><rect class="cls-15" x="54.143" y="88.603" width="9.658" height="9.658" transform="translate(117.944 186.863) rotate(-180)"/><path class="cls-16" d="M151.735,56.5H135.642c-.038,0-.039,5.152,0,5.152h.657c.038,0,.04-5.152,0-5.152h-.657v5.152h16.093c.037,0,.039-5.152,0-5.152Z"/><path class="cls-16" d="M140.064,42.95h-25.6c-.038,0-.039,5.151,0,5.151h25.6c.038,0,.039-5.151,0-5.151Z"/><path class="cls-15" d="M146.088,50.855H132.642c-.037,0-.039,5.152,0,5.152h.269c.038,0,.039-5.152,0-5.152h-.269v5.152h13.446c.037,0,.039-5.152,0-5.152Z"/><path class="cls-15" d="M136.741,37.365H124.694c-.038,0-.04,5.151,0,5.151h12.047c.038,0,.039-5.151,0-5.151Z"/><polygon class="cls-16" points="82.371 48.574 82.371 42.199 89.009 42.199 89.009 34.552 94.907 34.552 94.907 30.607 110.226 30.607 110.226 34.552 104.328 34.552 104.328 42.199 97.69 42.199 97.69 48.574 88.778 48.574 88.778 62.191 73.459 62.191 73.459 48.574 82.371 48.574"/><rect class="cls-17" x="121.583" y="108.469" width="4.367" height="5.062" transform="translate(247.533 222) rotate(-180)"/><rect class="cls-17" x="117.215" y="108.469" width="4.367" height="5.062" transform="translate(238.798 222) rotate(-180)"/><rect class="cls-5" x="128.631" y="79.885" width="18.606" height="21.564" transform="translate(275.868 181.335) rotate(-180)"/><rect class="cls-5" x="131.579" y="101.449" width="15.658" height="3.203" transform="translate(278.816 206.101) rotate(-180)"/><rect class="cls-4" x="140.974" y="84.257" width="9.211" height="15.215" transform="translate(291.158 183.73) rotate(-180)"/><rect class="cls-4" x="137.842" y="86.931" width="4.974" height="10.889" transform="translate(280.658 184.751) rotate(-180)"/><polygon points="96.675 85.257 99.544 85.257 99.544 77.683 117.676 77.683 117.676 82.342 121.368 82.342 121.368 94.977 120.808 94.977 119.525 94.977 119.525 98.82 117.676 98.82 117.676 102.449 101.649 102.449 101.649 98.82 99.262 98.82 99.262 94.977 96.675 94.977 96.675 85.257"/><path class="cls-18" d="M108.33,77.679H99.022c-.038,0-.04,5.151,0,5.151h9.308c.038,0,.039-5.151,0-5.151Z"/><path class="cls-18" d="M103.1,80.652H96.891c-.038,0-.039,5.151,0,5.151H103.1c.038,0,.039-5.151,0-5.151Z"/><rect x="114.464" y="73.772" width="4.935" height="4.935" transform="translate(233.863 152.478) rotate(-180)"/><rect x="116.932" y="71.304" width="4.935" height="4.935" transform="translate(238.798 147.543) rotate(-180)"/><rect x="92.439" y="91.421" width="4.935" height="4.935" transform="translate(189.814 187.778) rotate(-180)"/><rect x="89.972" y="93.889" width="4.935" height="4.935" transform="translate(184.878 192.713) rotate(-180)"/><rect x="87.504" y="96.356" width="4.935" height="4.935" transform="translate(179.943 197.648) rotate(-180)"/><rect x="85.037" y="98.824" width="4.935" height="4.935" transform="translate(175.008 202.583) rotate(-180)"/><rect x="82.569" y="101.291" width="4.935" height="4.935" transform="translate(170.073 207.518) rotate(-180)"/><rect x="80.102" y="103.759" width="4.935" height="4.935" transform="translate(165.138 212.453) rotate(-180)"/><rect x="75.167" y="103.759" width="4.935" height="4.935" transform="translate(155.268 212.453) rotate(-180)"/><rect x="70.232" y="103.759" width="4.935" height="4.935" transform="translate(145.398 212.453) rotate(-180)"/><rect x="66.162" y="103.759" width="4.935" height="4.935" transform="translate(137.26 212.453) rotate(-180)"/><rect x="119.399" y="68.837" width="4.935" height="4.935" transform="translate(243.733 142.608) rotate(-180)"/><rect x="121.867" y="66.369" width="4.935" height="4.935" transform="translate(248.668 137.673) rotate(-180)"/><rect x="124.334" y="63.902" width="4.935" height="4.935" transform="translate(253.603 132.738) rotate(-180)"/><rect x="126.802" y="61.434" width="4.935" height="4.935" transform="translate(258.538 127.803) rotate(-180)"/></g></g></svg>