<svg xmlns="http://www.w3.org/2000/svg" viewBox="0 0 215 215"><defs><style>.cls-1{fill:none;}.cls-2{opacity:0.45;}.cls-3{fill:#292a3c;}.cls-4{fill:#82b3dc;}.cls-5{fill:#466e96;}.cls-6{fill:#fff;}.cls-7{fill:#e9e3d0;}.cls-8{fill:#c04952;}.cls-9{fill:#352e35;}.cls-10{fill:#7cacd4;opacity:0.41;}.cls-11{fill:#a06e43;}.cls-12{fill:#4d4037;}.cls-13{fill:#acd5e7;}.cls-14{fill:#e0fcff;}.cls-15{fill:#cdb668;}</style></defs><g id="Layer_2" data-name="Layer 2"><g id="Layer_1-2" data-name="Layer 1"><rect class="cls-1" width="215" height="215"/><g class="cls-2"><path class="cls-3" d="M95.974,195.376l49.443-8.607,14.021-2.441c.346-.06-.266-5.4,0-5.446L110,187.49l-14.021,2.441c-.346.06.266,5.4,0,5.445Z"/><path class="cls-3" d="M85.47,192.532l63.656-11.082,17.941-3.123c.346-.06-.266-5.4,0-5.446l-63.655,11.082L85.47,187.086c-.345.06.266,5.4,0,5.446Z"/><path class="cls-3" d="M93,185.964l52.356-9.115,14.994-2.61c.345-.06-.267-5.4,0-5.446L108,177.908,93,180.518c-.346.06.266,5.4,0,5.446Z"/><path class="cls-3" d="M100.1,180.747l50.455-9.136c.357-.064-.278-5.395,0-5.446L100.1,175.3c-.357.065.278,5.4,0,5.446Z"/></g><path class="cls-4" d="M101.93,182.142l46.133-8.032c.268-.046-.207-4.194,0-4.23l-46.133,8.031c-.269.047.207,4.195,0,4.231Z"/><path class="cls-4" d="M94.213,179.605l59.314-10.326c.268-.047-.207-4.195,0-4.231L94.213,175.374c-.268.047.207,4.195,0,4.231Z"/><path class="cls-4" d="M99.6,174.3l48.958-8.523c.268-.047-.207-4.195,0-4.231L99.6,170.072c-.268.047.207,4.195,0,4.231Z"/><path class="cls-4" d="M104.686,170.111l36.67-6.676c.279-.051-.217-4.191,0-4.231l-36.67,6.676c-.278.051.217,4.192,0,4.231Z"/><path class="cls-5" d="M101.673,166.733l39.508-7.091c.275-.049-.214-4.192,0-4.231L101.673,162.5c-.275.049.214,4.192,0,4.23Z"/><path class="cls-5" d="M93.475,175.368l5.649-.983a18.964,18.964,0,0,0,.021-2.116c0-.5,0-1-.006-1.5,0-.062-.017-.62-.015-.62l-5.649.983a18.964,18.964,0,0,0-.021,2.116c0,.5,0,1,.006,1.5,0,.061.018.619.015.619Z"/><path class="cls-5" d="M148.941,165.227l5.261-.431c.049,0,.021-1.954.021-2.115s-.028-2.115-.021-2.115l-5.261.43c-.049,0-.021,1.955-.021,2.116s.028,2.115.021,2.115Z"/><rect class="cls-6" x="108.241" y="89.183" width="3.702" height="40.551" transform="translate(3.398 -3.314) rotate(1.752)"/><rect class="cls-6" x="112.019" y="84.208" width="3.702" height="45.641" transform="translate(3.325 -3.431) rotate(1.752)"/><rect class="cls-6" x="115.72" y="84.321" width="3.702" height="45.641" transform="translate(3.33 -3.544) rotate(1.752)"/><rect class="cls-6" x="119.42" y="84.434" width="3.702" height="45.641" transform="translate(3.335 -3.657) rotate(1.752)"/><rect class="cls-6" x="123.15" y="84.548" width="3.702" height="45.641" transform="translate(3.341 -3.771) rotate(1.752)"/><rect class="cls-6" x="126.88" y="84.662" width="3.702" height="45.641" transform="translate(3.346 -3.885) rotate(1.752)"/><rect class="cls-6" x="125.579" y="79.801" width="3.702" height="45.641" transform="translate(3.197 -3.848) rotate(1.752)"/><rect class="cls-6" x="107.036" y="128.584" width="3.702" height="40.551" transform="translate(4.602 -3.259) rotate(1.752)"/><rect class="cls-6" x="110.737" y="128.697" width="3.702" height="40.551" transform="translate(4.607 -3.372) rotate(1.752)"/><rect class="cls-6" x="114.437" y="128.81" width="3.702" height="40.551" transform="translate(4.612 -3.485) rotate(1.752)"/><rect class="cls-6" x="118.215" y="123.835" width="3.702" height="45.641" transform="translate(4.539 -3.602) rotate(1.752)"/><rect class="cls-6" x="121.945" y="123.949" width="3.702" height="45.641" transform="translate(4.545 -3.716) rotate(1.752)"/><rect class="cls-6" x="125.675" y="124.063" width="3.702" height="45.641" transform="translate(4.55 -3.83) rotate(1.752)"/><rect class="cls-6" x="106.494" y="164.079" width="3.671" height="5.047" transform="translate(5.144 -3.234) rotate(1.752)"/><rect class="cls-6" x="106.337" y="169.294" width="14.838" height="5.047" transform="translate(5.306 -3.397) rotate(1.752)"/><rect class="cls-6" x="103.552" y="169.209" width="14.838" height="5.047" transform="translate(5.302 -3.312) rotate(1.752)"/><rect class="cls-6" x="105.217" y="89.091" width="3.702" height="40.551" transform="translate(3.393 -3.222) rotate(1.752)"/><rect class="cls-6" x="104.012" y="128.491" width="3.702" height="40.551" transform="translate(4.597 -3.167) rotate(1.752)"/><rect class="cls-6" x="103.469" y="163.986" width="3.671" height="5.047" transform="translate(5.139 -3.141) rotate(1.752)"/><rect class="cls-6" x="103.312" y="169.202" width="14.838" height="5.047" transform="matrix(1, 0.031, -0.031, 1, 5.301, -3.305)"/><rect class="cls-6" x="100.528" y="169.117" width="14.838" height="5.047" transform="translate(5.298 -3.22) rotate(1.752)"/><rect class="cls-6" x="102.193" y="88.998" width="3.702" height="40.551" transform="translate(3.389 -3.13) rotate(1.752)"/><rect class="cls-6" x="100.988" y="128.399" width="3.702" height="40.551" transform="translate(4.593 -3.074) rotate(1.752)"/><rect class="cls-6" x="97.656" y="92.603" width="4.119" height="76.243" transform="translate(4.043 -2.987) rotate(1.752)"/><rect class="cls-6" x="100.445" y="163.894" width="3.671" height="5.047" transform="translate(5.135 -3.049) rotate(1.752)"/><rect class="cls-6" x="100.288" y="169.109" width="14.838" height="5.047" transform="matrix(1, 0.031, -0.031, 1, 5.297, -3.212)"/><rect class="cls-6" x="97.504" y="169.024" width="14.838" height="5.047" transform="translate(5.293 -3.127) rotate(1.752)"/><rect class="cls-7" x="120.038" y="84.466" width="5.168" height="5.168" transform="translate(2.718 -3.708) rotate(1.752)"/><rect class="cls-7" x="119.902" y="88.901" width="5.168" height="5.168" transform="translate(2.854 -3.702) rotate(1.752)"/><rect class="cls-7" x="119.767" y="93.336" width="5.168" height="5.168" transform="translate(2.989 -3.695) rotate(1.752)"/><rect class="cls-7" x="119.645" y="97.315" width="5.168" height="5.168" transform="translate(3.111 -3.69) rotate(1.752)"/><rect class="cls-7" x="119.504" y="101.925" width="5.168" height="5.168" transform="translate(3.252 -3.683) rotate(1.752)"/><rect class="cls-7" x="114.556" y="107.09" width="5.168" height="5.168" transform="translate(3.408 -3.53) rotate(1.752)"/><rect class="cls-7" x="114.417" y="111.644" width="5.168" height="5.168" transform="translate(3.547 -3.523) rotate(1.752)"/><rect class="cls-7" x="114.278" y="116.197" width="5.168" height="5.168" transform="translate(3.686 -3.517) rotate(1.752)"/><rect class="cls-7" x="114.138" y="120.75" width="5.168" height="5.168" transform="translate(3.825 -3.511) rotate(1.752)"/><rect class="cls-7" x="113.999" y="125.304" width="5.168" height="5.168" transform="translate(3.964 -3.504) rotate(1.752)"/><rect class="cls-7" x="109.331" y="130.42" width="5.168" height="5.168" transform="translate(4.118 -3.359) rotate(1.752)"/><rect class="cls-8" x="97.656" y="128.161" width="5.49" height="5.168" transform="translate(4.044 -3.008) rotate(1.752)"/><rect class="cls-8" x="102.432" y="128.302" width="5.168" height="5.168" transform="translate(4.05 -3.149) rotate(1.752)"/><rect class="cls-8" x="106.886" y="128.439" width="5.168" height="5.168" transform="translate(4.057 -3.285) rotate(1.752)"/><rect class="cls-8" x="111.341" y="128.575" width="5.168" height="5.168" transform="translate(4.063 -3.421) rotate(1.752)"/><rect class="cls-8" x="116.32" y="133.933" width="5.168" height="5.168" transform="translate(4.229 -3.571) rotate(1.752)"/><rect class="cls-8" x="129.84" y="124.203" width="5.168" height="5.168" transform="translate(3.938 -3.989) rotate(1.752)"/><rect class="cls-8" x="129.524" y="134.549" width="5.168" height="5.168" transform="translate(4.254 -3.974) rotate(1.752)"/><rect class="cls-8" x="122.103" y="129.183" width="7.705" height="5.168" transform="translate(4.087 -3.789) rotate(1.752)"/><rect class="cls-7" x="109.187" y="135.147" width="5.168" height="5.168" transform="translate(4.263 -3.352) rotate(1.752)"/><rect class="cls-7" x="109.022" y="140.546" width="5.168" height="5.168" transform="translate(4.428 -3.345) rotate(1.752)"/><rect class="cls-7" x="108.857" y="145.945" width="5.168" height="5.168" transform="translate(4.593 -3.337) rotate(1.752)"/><rect class="cls-7" x="108.691" y="151.345" width="5.168" height="5.168" transform="translate(4.758 -3.33) rotate(1.752)"/><rect class="cls-7" x="108.526" y="156.744" width="5.168" height="5.168" transform="translate(4.923 -3.322) rotate(1.752)"/><rect class="cls-7" x="108.361" y="162.143" width="5.168" height="5.168" transform="translate(5.088 -3.315) rotate(1.752)"/><rect class="cls-7" x="102.93" y="167.227" width="5.168" height="6.862" transform="translate(5.266 -3.146) rotate(1.752)"/><rect class="cls-7" x="114.601" y="93.178" width="5.168" height="5.168" transform="translate(2.982 -3.538) rotate(1.752)"/><rect class="cls-7" x="109.435" y="93.02" width="5.168" height="5.168" transform="translate(2.975 -3.38) rotate(1.752)"/><rect class="cls-7" x="104.894" y="92.881" width="5.168" height="5.168" transform="translate(2.969 -3.241) rotate(1.752)"/><rect class="cls-7" x="105.029" y="88.446" width="5.168" height="5.168" transform="translate(2.833 -3.247) rotate(1.752)"/><path class="cls-9" d="M97.428,116.43l10.985.336c-.012,0,.076-4.228,0-4.23L97.428,112.2c.012,0-.075,4.228,0,4.23Z"/><path class="cls-9" d="M107.327,121.036l5.253.16c-.012,0,.076-4.228,0-4.23l-5.253-.161c.012,0-.076,4.228,0,4.231Z"/><path class="cls-9" d="M129.185,152.371l-7.641-.234c.012,0-.076,4.229,0,4.231l7.641.234c-.012,0,.076-4.229,0-4.231Z"/><path class="cls-9" d="M121.427,155.958l-1.433-.044c-.016,0-.021,1.958-.021,2.116,0,.5,0,1,.006,1.5,0,.062,0,.62.015.62l1.433.044c.015,0,.021-1.958.021-2.115,0-.5,0-1-.006-1.5,0-.062,0-.619-.015-.62Z"/><polyline class="cls-10" points="83.838 173.852 69.304 90.363 71.123 78.506 74.235 74.082 81.021 69.071 87.159 60.345 85.865 52.913 74.934 45.223 81.096 36.513 118.174 30.058 126.916 36.174 120.761 44.923 123.349 59.788 127.065 59.141 131.429 62.21 135.145 61.563 143.994 67.789 145.288 75.221 149.633 78.185 163.862 159.921 158.945 164.585 155.892 168.925 154.358 171.107 148.908 173.97 147.725 176.09 102.141 184.026 98.416 180.845 93.066 181.777 90.36 178.44"/><rect class="cls-5" x="72.827" y="90.059" width="3.772" height="84.744" transform="translate(-21.606 14.776) rotate(-9.876)"/><rect class="cls-5" x="68.952" y="86.296" width="3.772" height="3.772" transform="translate(-14.074 13.456) rotate(-9.876)"/><rect class="cls-5" x="84.134" y="173.501" width="3.772" height="3.772" transform="translate(-28.806 17.352) rotate(-9.876)"/><rect class="cls-5" x="88.474" y="176.553" width="3.772" height="3.772" transform="translate(-29.265 18.141) rotate(-9.876)"/><rect class="cls-5" x="92.813" y="179.606" width="3.772" height="3.772" transform="translate(-29.724 18.931) rotate(-9.876)"/><rect class="cls-5" x="96.529" y="178.959" width="3.772" height="3.772" transform="translate(-29.558 19.559) rotate(-9.876)"/><rect class="cls-5" x="158.577" y="160.541" width="3.772" height="3.772" transform="translate(346.407 294.927) rotate(170.124)"/><rect class="cls-5" x="155.525" y="164.881" width="3.772" height="3.772" transform="translate(341.091 304.065) rotate(170.124)"/><rect class="cls-5" x="152.472" y="169.22" width="3.772" height="3.772" transform="translate(335.775 313.204) rotate(170.124)"/><rect class="cls-5" x="148.756" y="169.867" width="3.772" height="3.772" transform="translate(328.508 315.126) rotate(170.124)"/><rect class="cls-5" x="100.893" y="182.029" width="3.772" height="3.772" transform="translate(-30.02 20.352) rotate(-9.876)"/><rect class="cls-5" x="104.609" y="181.382" width="3.772" height="3.772" transform="translate(-29.854 20.98) rotate(-9.876)"/><rect class="cls-5" x="108.325" y="180.735" width="3.772" height="3.772" transform="translate(-29.688 21.608) rotate(-9.876)"/><rect class="cls-5" x="112.041" y="180.088" width="3.772" height="3.772" transform="translate(-29.522 22.236) rotate(-9.876)"/><rect class="cls-5" x="115.757" y="179.441" width="3.772" height="3.772" transform="translate(-29.356 22.864) rotate(-9.876)"/><rect class="cls-5" x="119.474" y="178.794" width="3.772" height="3.772" transform="translate(-29.19 23.491) rotate(-9.876)"/><rect class="cls-5" x="123.19" y="178.147" width="3.772" height="3.772" transform="translate(-29.024 24.119) rotate(-9.876)"/><rect class="cls-5" x="126.906" y="177.5" width="3.772" height="3.772" transform="translate(-28.858 24.747) rotate(-9.876)"/><rect class="cls-5" x="130.622" y="176.853" width="3.772" height="3.772" transform="translate(-28.692 25.375) rotate(-9.876)"/><rect class="cls-5" x="134.339" y="176.206" width="3.772" height="3.772" transform="translate(-28.526 26.002) rotate(-9.876)"/><rect class="cls-5" x="138.055" y="175.559" width="3.772" height="3.772" transform="translate(-28.36 26.63) rotate(-9.876)"/><rect class="cls-5" x="141.771" y="174.912" width="3.772" height="3.772" transform="translate(-28.194 27.258) rotate(-9.876)"/><rect class="cls-5" x="145.487" y="174.265" width="3.772" height="3.772" transform="translate(-28.028 27.886) rotate(-9.876)"/><rect class="cls-5" x="68.306" y="82.58" width="3.772" height="3.772" transform="translate(-13.446 13.29) rotate(-9.876)"/><rect class="cls-5" x="67.659" y="78.863" width="3.772" height="3.772" transform="translate(-12.819 13.124) rotate(-9.876)"/><rect class="cls-5" x="70.771" y="74.439" width="3.772" height="3.772" transform="translate(-12.014 13.592) rotate(-9.876)"/><rect class="cls-5" x="73.884" y="70.014" width="3.772" height="3.772" transform="translate(-11.209 14.06) rotate(-9.876)"/><rect class="cls-5" x="77.6" y="69.367" width="3.772" height="3.772" transform="translate(-11.043 14.688) rotate(-9.876)"/><rect class="cls-5" x="80.669" y="65.004" width="3.772" height="3.772" transform="translate(-10.249 15.15) rotate(-9.876)"/><rect class="cls-5" x="84.385" y="64.357" width="3.772" height="3.772" transform="translate(-10.083 15.778) rotate(-9.876)"/><rect class="cls-5" x="83.738" y="60.641" width="3.772" height="3.772" transform="translate(-9.455 15.612) rotate(-9.876)"/><rect class="cls-5" x="83.092" y="56.924" width="3.772" height="3.772" transform="translate(-8.827 15.446) rotate(-9.876)"/><rect class="cls-5" x="82.445" y="53.208" width="3.772" height="3.772" transform="translate(-8.2 15.28) rotate(-9.876)"/><rect class="cls-5" x="81.798" y="49.492" width="3.772" height="3.772" transform="translate(-7.572 15.114) rotate(-9.876)"/><rect class="cls-5" x="77.434" y="46.423" width="3.772" height="3.772" transform="translate(-7.11 14.32) rotate(-9.876)"/><rect class="cls-5" x="73.048" y="43.337" width="3.772" height="3.772" transform="translate(-6.646 13.522) rotate(-9.876)"/><rect class="cls-5" x="72.398" y="39.601" width="3.772" height="3.772" transform="translate(-6.015 13.355) rotate(-9.876)"/><rect class="cls-5" x="124.309" y="30.564" width="3.772" height="3.772" transform="translate(-3.696 22.124) rotate(-9.876)"/><rect class="cls-5" x="125.606" y="38.016" width="3.772" height="3.772" transform="translate(-4.954 22.457) rotate(-9.876)"/><rect class="cls-5" x="73.695" y="47.053" width="3.772" height="3.772" transform="translate(-7.274 13.688) rotate(-9.876)"/><rect class="cls-5" x="76.141" y="38.99" width="3.772" height="3.772" transform="translate(-5.854 13.988) rotate(-9.876)"/><rect class="cls-5" x="79.21" y="34.627" width="3.772" height="3.772" transform="translate(-5.061 14.45) rotate(-9.876)"/><rect class="cls-5" x="82.926" y="33.98" width="3.772" height="3.772" transform="translate(-4.895 15.077) rotate(-9.876)"/><rect class="cls-5" x="86.642" y="33.333" width="3.772" height="3.772" transform="translate(-4.729 15.705) rotate(-9.876)"/><rect class="cls-5" x="154.709" y="75.804" width="3.772" height="84.744" transform="matrix(-0.985, 0.172, -0.172, -0.985, 331.138, 207.745)"/><rect class="cls-5" x="143.402" y="73.335" width="3.772" height="3.772" transform="translate(301.324 124.409) rotate(170.124)"/><rect class="cls-5" x="142.755" y="69.619" width="3.772" height="3.772" transform="translate(299.403 117.143) rotate(170.124)"/><rect class="cls-5" x="142.108" y="65.903" width="3.772" height="3.772" transform="translate(297.481 109.877) rotate(170.124)"/><rect class="cls-5" x="137.683" y="62.79" width="3.772" height="3.772" transform="translate(288.163 104.456) rotate(170.124)"/><rect class="cls-5" x="133.259" y="59.677" width="3.772" height="3.772" transform="translate(278.846 99.036) rotate(170.124)"/><rect class="cls-5" x="129.543" y="60.324" width="3.772" height="3.772" transform="translate(271.579 100.958) rotate(170.124)"/><rect class="cls-5" x="125.179" y="57.255" width="3.772" height="3.772" transform="translate(262.391 95.613) rotate(170.124)"/><rect class="cls-5" x="121.463" y="57.902" width="3.772" height="3.772" transform="translate(255.125 97.535) rotate(170.124)"/><rect class="cls-5" x="120.816" y="54.186" width="3.772" height="3.772" transform="translate(253.203 90.268) rotate(170.124)"/><rect class="cls-5" x="120.169" y="50.47" width="3.772" height="3.772" transform="translate(251.282 83.002) rotate(170.124)"/><rect class="cls-5" x="119.522" y="46.753" width="3.772" height="3.772" transform="translate(249.36 75.736) rotate(170.124)"/><rect class="cls-5" x="118.875" y="43.037" width="3.772" height="3.772" transform="translate(247.438 68.469) rotate(170.124)"/><rect class="cls-5" x="121.945" y="38.674" width="3.772" height="3.772" transform="translate(252.783 59.281) rotate(170.124)"/><rect class="cls-5" x="125.03" y="34.287" width="3.772" height="3.772" transform="translate(258.156 50.044) rotate(170.124)"/><rect class="cls-5" x="120.651" y="31.242" width="3.772" height="3.772" transform="translate(248.94 44.748) rotate(170.124)"/><rect class="cls-5" x="116.288" y="28.172" width="3.772" height="3.772" transform="translate(239.752 39.404) rotate(170.124)"/><rect class="cls-5" x="112.571" y="28.819" width="3.772" height="3.772" transform="matrix(-0.985, 0.172, -0.172, -0.985, 232.485, 41.325)"/><rect class="cls-5" x="108.855" y="29.466" width="3.772" height="3.772" transform="translate(225.219 43.247) rotate(170.124)"/><rect class="cls-5" x="89.712" y="28.97" width="3.772" height="3.772" transform="translate(-3.935 16.167) rotate(-9.876)"/><rect class="cls-5" x="92.465" y="66.779" width="3.772" height="3.772" transform="translate(-10.379 17.199) rotate(-9.876)"/><rect class="cls-5" x="96.774" y="69.81" width="3.772" height="3.772" transform="translate(-10.835 17.983) rotate(-9.876)"/><rect class="cls-5" x="100.468" y="69.167" width="3.772" height="3.772" transform="translate(-10.67 18.607) rotate(-9.876)"/><rect class="cls-5" x="104.162" y="68.524" width="3.772" height="3.772" transform="translate(-10.505 19.231) rotate(-9.876)"/><rect class="cls-5" x="107.856" y="67.881" width="3.772" height="3.772" transform="translate(-10.34 19.855) rotate(-9.876)"/><rect class="cls-5" x="111.55" y="67.238" width="3.772" height="3.772" transform="translate(-10.175 20.479) rotate(-9.876)"/><rect class="cls-5" x="114.596" y="62.908" width="3.772" height="3.772" transform="translate(-9.387 20.938) rotate(-9.876)"/><rect class="cls-5" x="88.589" y="44.514" width="3.772" height="3.772" transform="translate(-6.617 16.205) rotate(-9.876)"/><rect class="cls-11" x="87.933" y="40.746" width="3.772" height="3.772" transform="translate(-5.981 16.036) rotate(-9.876)"/><rect class="cls-11" x="91.603" y="40.107" width="3.772" height="3.772" transform="translate(-5.817 16.656) rotate(-9.876)"/><rect class="cls-11" x="92.25" y="43.823" width="3.772" height="3.772" transform="translate(-6.445 16.822) rotate(-9.876)"/><rect class="cls-11" x="96.012" y="43.168" width="3.772" height="3.772" transform="translate(-6.277 17.458) rotate(-9.876)"/><rect class="cls-11" x="99.774" y="42.513" width="3.772" height="3.772" transform="translate(-6.108 18.093) rotate(-9.876)"/><rect class="cls-11" x="103.537" y="41.858" width="3.772" height="3.772" transform="translate(-5.94 18.729) rotate(-9.876)"/><rect class="cls-11" x="107.299" y="41.203" width="3.772" height="3.772" transform="translate(-5.772 19.365) rotate(-9.876)"/><rect class="cls-12" x="89.018" y="25.262" width="3.772" height="3.772" transform="translate(-3.309 15.993) rotate(-9.876)"/><rect class="cls-12" x="92.781" y="24.607" width="3.772" height="3.772" transform="translate(-3.141 16.629) rotate(-9.876)"/><rect class="cls-12" x="96.543" y="23.952" width="3.772" height="3.772" transform="translate(-2.973 17.264) rotate(-9.876)"/><rect class="cls-12" x="100.306" y="23.297" width="3.772" height="3.772" transform="translate(-2.805 17.9) rotate(-9.876)"/><rect class="cls-12" x="104.068" y="22.642" width="3.772" height="3.772" transform="translate(-2.637 18.535) rotate(-9.876)"/><rect class="cls-11" x="95.213" y="38.156" width="18.968" height="3.852" transform="translate(-5.323 18.55) rotate(-9.876)"/><rect class="cls-11" x="87.282" y="37.01" width="3.772" height="3.772" transform="translate(-5.35 15.869) rotate(-9.876)"/><rect class="cls-11" x="90.952" y="36.371" width="3.772" height="3.772" transform="translate(-5.186 16.489) rotate(-9.876)"/><rect class="cls-11" x="94.563" y="34.42" width="18.968" height="3.852" transform="translate(-4.692 18.383) rotate(-9.876)"/><rect class="cls-11" x="86.632" y="33.274" width="3.772" height="3.772" transform="translate(-4.719 15.703) rotate(-9.876)"/><rect class="cls-11" x="90.302" y="32.635" width="3.772" height="3.772" transform="translate(-4.555 16.323) rotate(-9.876)"/><rect class="cls-11" x="93.913" y="30.685" width="18.968" height="3.852" transform="translate(-4.061 18.217) rotate(-9.876)"/><rect class="cls-5" x="92.898" y="47.545" width="3.772" height="3.772" transform="translate(-7.073 16.989) rotate(-9.876)"/><rect class="cls-5" x="96.592" y="46.902" width="3.772" height="3.772" transform="translate(-6.908 17.613) rotate(-9.876)"/><rect class="cls-5" x="100.286" y="46.259" width="3.772" height="3.772" transform="translate(-6.743 18.237) rotate(-9.876)"/><rect class="cls-5" x="103.98" y="45.616" width="3.772" height="3.772" transform="translate(-6.578 18.861) rotate(-9.876)"/><rect class="cls-5" x="107.674" y="44.973" width="3.772" height="3.772" transform="translate(-6.413 19.485) rotate(-9.876)"/><rect class="cls-5" x="110.72" y="40.643" width="3.772" height="3.772" transform="translate(-5.625 19.943) rotate(-9.876)"/><rect class="cls-5" x="93.428" y="28.323" width="3.772" height="3.772" transform="translate(-3.769 16.795) rotate(-9.876)"/><rect class="cls-5" x="97.144" y="27.676" width="3.772" height="3.772" transform="translate(-3.603 17.422) rotate(-9.876)"/><rect class="cls-5" x="100.86" y="27.029" width="3.772" height="3.772" transform="translate(-3.437 18.05) rotate(-9.876)"/><rect class="cls-5" x="104.576" y="26.382" width="3.772" height="3.772" transform="translate(-3.271 18.678) rotate(-9.876)"/><rect class="cls-11" x="85.982" y="29.539" width="3.772" height="3.772" transform="translate(-4.088 15.536) rotate(-9.876)"/><rect class="cls-12" x="89.652" y="28.9" width="3.772" height="3.772" transform="translate(-3.924 16.156) rotate(-9.876)"/><rect class="cls-12" x="93.262" y="26.949" width="18.968" height="3.852" transform="translate(-3.43 18.05) rotate(-9.876)"/><rect class="cls-13" x="76.402" y="98.602" width="3.497" height="60.938" transform="translate(-20.979 15.316) rotate(-9.876)"/><rect class="cls-13" x="152.116" y="94.113" width="3.497" height="60.938" transform="translate(-19.087 28.235) rotate(-9.876)"/><rect class="cls-14" x="145.829" y="91.158" width="3.971" height="45.128" transform="translate(-17.314 27.036) rotate(-9.876)"/><path class="cls-13" d="M129.136,87.678l5.649-.984a18.943,18.943,0,0,0,.021-2.115c0-.5,0-1-.006-1.5,0-.061-.018-.619-.015-.619l-5.649.983a18.964,18.964,0,0,0-.021,2.116c0,.5,0,1,.006,1.5,0,.062.018.619.015.62Z"/><path class="cls-14" d="M95.052,56.266l8.473-1.476a18.943,18.943,0,0,0,.021-2.115c0-.16-.062-2.108-.021-2.115l-8.473,1.475a18.691,18.691,0,0,0-.022,2.115c0,.16.063,2.108.022,2.116Z"/><path class="cls-14" d="M116.233,41.423l5.179-.9c.019,0,.015-.712.014-.619.006-.5.007-1,.007-1.5s0-1-.007-1.5c0-.061-.017-.619-.014-.619l-5.179.9c-.019,0-.016.712-.015.62-.005.5-.006,1-.006,1.5s0,1,.006,1.5c0,.062.018.619.015.62Z"/><path class="cls-15" d="M101.107,35.326l10.827-1.885a18.946,18.946,0,0,0,.021-2.115c0-.16-.063-2.109-.021-2.116L101.107,31.1a18.709,18.709,0,0,0-.022,2.116c0,.159.063,2.108.022,2.115Z"/><path class="cls-14" d="M74.364,85.088l8-1.393a18.964,18.964,0,0,0,.021-2.116c0-.16-.062-2.108-.021-2.115l-8,1.393a18.691,18.691,0,0,0-.022,2.115c0,.16.063,2.109.022,2.116Z"/><path class="cls-14" d="M83.9,89.732l9.415-1.639a18.946,18.946,0,0,0,.021-2.115c0-.16-.062-2.108-.021-2.115L83.9,85.5a18.943,18.943,0,0,0-.021,2.115c0,.16.063,2.108.021,2.115Z"/><path class="cls-14" d="M125.045,77.871l9.415-1.639a18.494,18.494,0,0,0,.021-2.116c0-.16-.062-2.108-.021-2.115l-9.415,1.639a18.946,18.946,0,0,0-.021,2.115c0,.16.063,2.108.021,2.116Z"/><path class="cls-14" d="M134.524,79.626l4.08-.71c.019,0,.016-.712.015-.62q.007-.747.006-1.5c0-.5,0-1-.006-1.5,0-.061-.018-.619-.015-.62l-4.08.711c-.019,0-.016.711-.015.619,0,.5-.006,1-.006,1.5s0,1,.006,1.5c0,.061.018.619.015.619Z"/><path class="cls-13" d="M83.957,173.63l2.825-.492c.019,0,.016-.712.015-.619.005-.5.006-1,.006-1.5s0-1-.006-1.5c0-.061-.018-.619-.015-.619l-2.825.491c-.019,0-.015.712-.014.62-.006.5-.007,1-.007,1.5s0,1,.007,1.5c0,.062.017.62.014.62Z"/><path class="cls-13" d="M160.054,155.182l-4.707.819c-.019,0-.016.712-.015.62,0,.5-.006,1-.006,1.5s0,1,.006,1.5c0,.062.018.619.015.62l4.707-.82c.02,0,.016-.711.015-.619.006-.5.007-1,.007-1.5s0-1-.007-1.5c0-.061-.017-.619-.015-.619Z"/><path class="cls-13" d="M80.579,42.78l5.178-.9c.019,0,.016-.712.015-.619,0-.5.006-1,.006-1.5s0-1-.006-1.5c0-.061-.018-.619-.015-.62l-5.178.9c-.02,0-.016.712-.015.619-.006.5-.007,1-.007,1.5s0,1,.007,1.5c0,.061.017.619.015.62Z"/><path class="cls-13" d="M113.441,36.5l6.2-.636c.056-.006.021-1.953.021-2.116s-.036-2.114-.021-2.115l-6.2.636c-.056.006-.021,1.953-.021,2.116s.036,2.113.021,2.115Z"/><path class="cls-6" d="M56.015,83.63c3.543-1.431,7.529-1.042,11.008-2.692a14.054,14.054,0,0,0,6.511-7.18c1.592-3.626,2.051-7.558,2.595-11.443l1.857-13.273c.263-1.874-2.6-2.683-2.869-.792L73.431,60.3c-.521,3.719-.869,7.562-2.145,11.119-1.027,2.864-2.914,5.666-5.765,6.954-3.239,1.464-7,1.061-10.3,2.393-1.754.708-.988,3.587.791,2.869Z"/><path class="cls-6" d="M73.426,47.141c-.2,4.727-.412,9.454-.6,14.182-.161,4.113-.215,8.353.978,12.336,1.918,6.4,8.573,12.576,15.669,10.01,1.787-.647,1.016-3.524-.791-2.87a8.153,8.153,0,0,1-7.842-1.578A13.517,13.517,0,0,1,76.17,70.77a48.472,48.472,0,0,1-.3-11.061L76.4,47.141c.081-1.915-2.9-1.911-2.976,0Z"/><path class="cls-6" d="M55.554,82.635a12.349,12.349,0,0,1,10.357,4.136c2.785,2.962,4.191,6.944,4.945,10.87.864,4.5.813,9.108,1.027,13.665.062,1.307.133,2.616.265,3.917a2.913,2.913,0,0,0,.975,2.357c1.637,1.155,3.189-.733,2.469-2.335a1.464,1.464,0,0,0-1.285-.737l-.126,0a1.489,1.489,0,0,0,0,2.976l.126,0-1.285-.737-.05-1.091.889-.684-.148.037,1.147.15c.492.311.162-1.138.142-1.4q-.052-.734-.093-1.469c-.064-1.144-.107-2.29-.148-3.435-.077-2.126-.143-4.253-.309-6.375a37.27,37.27,0,0,0-2.446-11.46C69.3,84.5,63.06,78.791,55.554,79.659c-1.881.217-1.9,3.2,0,2.976Z"/><path class="cls-6" d="M75.468,115.233a24.626,24.626,0,0,1-.221-10.682,57.729,57.729,0,0,1,2.31-10.143,13,13,0,0,1,13.265-8.539c1.909.151,1.9-2.826,0-2.976a15.894,15.894,0,0,0-15.67,9.55,49.659,49.659,0,0,0-2.774,11.317,28.142,28.142,0,0,0,.221,12.264,1.489,1.489,0,0,0,2.869-.791Z"/><path class="cls-6" d="M72.609,77.969a5.1,5.1,0,0,1,.731,3.081l1.884-1.435a2.027,2.027,0,0,1-.579-3.14h-2.1a7.12,7.12,0,0,1,2.435,5.76l2.239-1.285a5.137,5.137,0,0,1-2.657-4.667l-2.239,1.285a8.436,8.436,0,0,1,4.615,6.721,1.509,1.509,0,0,0,2.54,1.052A2.944,2.944,0,0,0,80.5,83.022l-2.239,1.285a2.224,2.224,0,0,1,.973,2.268l1.093-1.435a3.543,3.543,0,0,1-3.63-1.819l-2.337,1.8a6.363,6.363,0,0,1,1.115,1.357,1.427,1.427,0,0,1,.227.625c0,.191-.194.4-.194.534s.11-.108.142.056c.045.234.01-.213-.011-.121.081-.362-.061-.582.161-.959l-2.337.3a5.251,5.251,0,0,1,1.14,3.86c-.031.266-.121.51-.173.769-.092.105-.029.1.189,0a.5.5,0,0,1-.285-.142,8.035,8.035,0,0,1-.526-1.833l-2.869.792a13.781,13.781,0,0,1,1.026,5.326l2.773-.751a13.248,13.248,0,0,1-2-4.626,12.238,12.238,0,0,1-.271-2.652,9.682,9.682,0,0,1,.072-1.362c.018-.118.165-.475.121-.569q.181-.421-.8.007a1.084,1.084,0,0,1,.151.382q.072.258.12.52.285-.507.707-.412c-.047-.129-.533-.432-.641-.588a5.414,5.414,0,0,1-.5-1.066,16.272,16.272,0,0,1-1.14-5.583l-2.239,1.284a5.762,5.762,0,0,1,2.383,2.515c.112.232.609,1.212.415,1.423-.069.074-.641-.045-.786-.1-.35-.136-2.431-1.378-2.211-1.881.358-.817,1.792.814,1.975,1.081l1.285-2.239a25.371,25.371,0,0,1-8.3-.359v2.869a14.5,14.5,0,0,1,10.21.13c1.79.686,2.564-2.19.791-2.87A17.1,17.1,0,0,0,62.3,80.707c-1.279.455-1.545,2.538,0,2.869a27.8,27.8,0,0,0,9.091.466c1.014-.118,1.993-1.208,1.285-2.239-1.438-2.093-4.292-3.877-6.567-1.755-2.427,2.263.184,5.111,2.25,6.36a4.379,4.379,0,0,0,3.582.615A3.027,3.027,0,0,0,74.1,84.037c-.062-2.616-2.105-5.094-4.271-6.337a1.5,1.5,0,0,0-2.239,1.285,19.483,19.483,0,0,0,.816,5.148A8.673,8.673,0,0,0,70.6,88.264c1.049.9,2.674,1.354,3.779.263s.782-2.943.119-4.18a2.45,2.45,0,0,0-3.6-1.021c-1.2.844-1.332,2.482-1.386,3.819a15.669,15.669,0,0,0,2.665,9.291,1.5,1.5,0,0,0,2.773-.751,16.049,16.049,0,0,0-1.133-6.118,1.489,1.489,0,0,0-2.869.792,4.759,4.759,0,0,0,2.029,3.708,2.908,2.908,0,0,0,3.935-.873c1.624-2.575.422-6.235-1.336-8.38a1.5,1.5,0,0,0-2.337.3c-1.334,2.271-.082,6.406,3.17,5.376a3.534,3.534,0,0,0,2.278-3.384c-.013-1.639-1.143-2.97-2.214-4.087a1.5,1.5,0,0,0-2.337,1.8A6.6,6.6,0,0,0,81.12,88.01a1.517,1.517,0,0,0,1.093-1.435,5.143,5.143,0,0,0-2.448-4.838,1.5,1.5,0,0,0-2.239,1.285c.041.112-.012.184-.157.215l2.54,1.052A11.467,11.467,0,0,0,73.82,75a1.505,1.505,0,0,0-2.239,1.285,8.132,8.132,0,0,0,4.131,7.237,1.5,1.5,0,0,0,2.239-1.285,9.991,9.991,0,0,0-3.306-7.865,1.519,1.519,0,0,0-2.1,0,5.022,5.022,0,0,0,1.892,8.115,1.5,1.5,0,0,0,1.884-1.435,7.9,7.9,0,0,0-1.138-4.583,1.489,1.489,0,0,0-2.569,1.5Z"/><path class="cls-6" d="M48.27,82.817l.07-.01L48,82.852a7.179,7.179,0,0,1,1.9,0l-.337-.045a7.185,7.185,0,0,1,1.761.487l-.3-.128c.086.038.172.076.257.116a1.364,1.364,0,0,0,.978.128,1.3,1.3,0,0,0,.759-.583,1.286,1.286,0,0,0-.456-1.737,8.189,8.189,0,0,0-2.287-.726,9.132,9.132,0,0,0-1.321-.117,9.488,9.488,0,0,0-1.356.12,1.263,1.263,0,0,0-.758.583,1.27,1.27,0,0,0,.455,1.737,1.492,1.492,0,0,0,.978.128Z"/><path class="cls-6" d="M94.563,83.135c.069-.012.138-.023.207-.032l-.338.045a6.444,6.444,0,0,1,1.665,0L95.76,83.1a6.531,6.531,0,0,1,1.607.438l-.3-.128c.17.073.338.153.5.24a1.269,1.269,0,0,0,1.281-2.192,7.329,7.329,0,0,0-2.274-.785,8.2,8.2,0,0,0-2.684.013,1.269,1.269,0,0,0-.759.583,1.27,1.27,0,0,0,.455,1.737,1.455,1.455,0,0,0,.978.128Z"/><path class="cls-6" d="M72.893,122.272a11.5,11.5,0,0,0-.274,4.273,1.4,1.4,0,0,0,.372.9,1.269,1.269,0,0,0,1.8,0,1.219,1.219,0,0,0,.372-.9,10.669,10.669,0,0,1,0-2.76l-.045.337a11.174,11.174,0,0,1,.227-1.175,1.269,1.269,0,0,0-2.447-.675Z"/><path class="cls-6" d="M77.868,42.647l.9-2.405a1.27,1.27,0,0,0-1.865-1.433l-.257.2a1.265,1.265,0,0,0-.326.56l-.9,2.405a1.27,1.27,0,0,0,1.865,1.433l.257-.2a1.271,1.271,0,0,0,.326-.56Z"/></g></g></svg>