<svg xmlns="http://www.w3.org/2000/svg" viewBox="0 0 346.742 346.742"><defs><style>.cls-1{fill:#814d3f;}.cls-2{fill:#99b93e;}.cls-3{fill:#f6d865;}.cls-4{fill:#688403;}.cls-5{fill:#c3db6b;}.cls-6{fill:#5e3127;}.cls-7{fill:#dbbc65;}.cls-8{fill:#fdfd8e;}.cls-9{fill:none;}</style></defs><g id="Layer_2" data-name="Layer 2"><g id="Layer_1-2" data-name="Layer 1"><polygon class="cls-1" points="161.113 144.152 161.113 181.727 170.893 181.727 170.893 223.935 180.22 223.935 180.22 270.261 161.113 270.261 161.113 282.614 232.66 282.614 232.66 251.705 222.366 251.705 222.366 220.847 208.983 220.847 208.983 188.666 196.887 188.666 196.887 172.462 188.394 172.462 188.394 151.873 180.22 144.152 161.113 144.152"/><polygon class="cls-2" points="38.093 188.666 38.093 155.991 51.666 155.991 51.666 130.64 61.771 130.64 61.771 118.676 73.095 118.676 73.095 102.725 101.92 102.725 101.92 82.786 63.83 82.786 43.755 82.786 43.755 73.635 51.666 73.635 51.666 63.855 61.771 63.855 61.771 48.413 81.331 48.413 81.331 41.068 101.92 41.068 101.92 48.928 121.994 48.928 121.994 60.766 130.744 60.766 130.744 71.576 141.554 71.576 141.554 90.106 150.819 90.106 150.819 102.725 161.628 102.725 161.628 92.165 170.378 92.165 170.378 82.9 180.22 82.9 180.22 72.605 208.468 72.605 208.468 63.34 249.646 63.34 249.646 72.605 269.206 72.605 269.206 85.473 282.589 85.473 282.589 94.224 291.339 94.224 291.339 102.725 208.983 102.725 208.983 110.701 229.572 110.701 229.572 122.664 239.352 122.664 239.352 133.343 248.102 133.343 248.102 143.638 278.986 143.638 278.986 161.653 268.691 161.653 268.691 172.462 248.617 172.462 248.617 181.727 218.763 181.727 218.763 169.374 211.042 169.374 211.042 160.109 190.967 160.109 190.967 151.873 180.22 151.873 180.22 144.152 161.113 144.152 161.113 181.727 151.333 181.727 151.333 193.566 140.524 193.566 140.524 201.802 130.744 201.802 130.744 214.155 112.214 214.155 112.214 163.712 122.509 163.712 122.509 142.093 111.185 142.093 111.185 153.417 100.375 153.417 100.375 162.683 91.11 162.683 91.11 170.918 72.065 170.918 72.065 182.242 51.666 182.242 51.666 188.666 38.093 188.666"/><polyline class="cls-3" points="308.566 293.538 308.566 293.538 308.566 256.373 282.02 256.373 282.02 244.238 220.584 244.238 220.584 257.132 198.589 257.132 198.589 271.543 177.352 271.543 177.352 279.886 150.321 279.886 150.321 294.297 125.776 294.297 125.776 305.673 308.648 305.673 308.648 293.143"/><path class="cls-4" d="M75.99,167.131H96.319c.074,0,.077-10,0-10H75.99c-.073,0-.076,10,0,10Z"/><path class="cls-4" d="M88.413,159.225h16.942c.073,0,.076-10,0-10H88.413c-.073,0-.076,10,0,10Z"/><path class="cls-4" d="M100.837,150.19h12.424c.073,0,.076-10,0-10H100.837c-.073,0-.076,10,0,10Z"/><path class="cls-4" d="M138.108,201.013H151.66c.074,0,.077-10,0-10H138.108c-.074,0-.077,10,0,10Z"/><path class="cls-4" d="M143.755,190.849h12.423c.074,0,.076-10,0-10H143.755c-.074,0-.077,10,0,10Z"/><path class="cls-4" d="M150.531,179.555h6.776c.074,0,.077-10,0-10h-6.776c-.073,0-.076,10,0,10Z"/><path class="cls-4" d="M148.272,166h13.553c.074,0,.076-10,0-10H148.272c-.073,0-.076,10,0,10Z"/><path class="cls-4" d="M148.272,176.166h9.035c.074,0,.077-10,0-10h-9.035c-.073,0-.076,10,0,10Z"/><path class="cls-4" d="M129.072,190.849h24.847c.074,0,.076-10,0-10H129.072c-.073,0-.076,10,0,10Z"/><path class="cls-4" d="M136.978,181.813h16.941c.074,0,.076-10,0-10H136.978c-.073,0-.076,10,0,10Z"/><path class="cls-4" d="M175.378,149.06h16.941c.074,0,.076-10,0-10H175.378c-.073,0-.076,10,0,10Z"/><path class="cls-4" d="M187.8,156.966H199.1c.073,0,.076-10,0-10H187.8c-.074,0-.077,10,0,10Z"/><path class="cls-4" d="M196.837,162.613l3.388-2.258a4.143,4.143,0,0,0,.019-.431c.009-.345.015-.689.016-1.034.013-1.178.016-2.357.015-3.535s0-2.358-.015-3.536l-.01-.782a6.748,6.748,0,0,0-.025-.682l-3.388,2.258a4.143,4.143,0,0,0-.019.431c-.01.345-.015.689-.017,1.034q-.018,1.767-.014,3.535c0,1.179,0,2.358.014,3.536l.011.782a6.468,6.468,0,0,0,.025.682Z"/><path class="cls-4" d="M179.9,154.708h22.588c.073,0,.076-10,0-10H179.9c-.074,0-.077,10,0,10Z"/><path class="cls-4" d="M194.578,160.355h21.459c.073,0,.076-10,0-10H194.578c-.073,0-.076,10,0,10Z"/><path class="cls-4" d="M211.519,164.872h11.294c.074,0,.076-10,0-10H211.519c-.073,0-.076,10,0,10Z"/><path class="cls-4" d="M212.649,171.649H228.46c.074,0,.077-10,0-10H212.649c-.074,0-.077,10,0,10Z"/><path class="cls-4" d="M226.2,180.684h19.2c.074,0,.077-10,0-10H226.2c-.073,0-.076,10,0,10Z"/><path class="cls-4" d="M220.554,169.39h31.624c.073,0,.076-10,0-10H220.554c-.073,0-.076,10,0,10Z"/><path class="cls-4" d="M218.3,177.3h32.752c.074,0,.077-10,0-10H218.3c-.074,0-.077,10,0,10Z"/><path class="cls-4" d="M218.3,184.072H245.4c.074,0,.077-10,0-10H218.3c-.074,0-.077,10,0,10Z"/><path class="cls-4" d="M171.99,118.566h21.459c.073,0,.076-10,0-10H171.99c-.074,0-.076,10,0,10Z"/><path class="cls-4" d="M183.284,111.79h24.847c.073,0,.076-10,0-10H183.284c-.074,0-.076,10,0,10Z"/><path class="cls-4" d="M191.19,105.014h44.047c.073,0,.076-10,0-10H191.19c-.074,0-.076,10,0,10Z"/><path class="cls-4" d="M208.131,99.366h57.258c.074,0,.077-10,0-10h-1.917c-.074,0-.076,10,0,10h1.917c.074,0,.077-10,0-10H208.131c-.074,0-.076,10,0,10Z"/><path class="cls-4" d="M229.59,103.884h56.47c.074,0,.076-10,0-10H229.59c-.074,0-.077,10,0,10Z"/><path class="cls-4" d="M132.46,115.178h25.977c.073,0,.076-10,0-10H132.46c-.073,0-.076,10,0,10Z"/><path class="cls-4" d="M125.684,120.825h30.494c.074,0,.076-10,0-10H125.684c-.073,0-.076,10,0,10Z"/><path class="cls-4" d="M115.519,105.014h24.847c.074,0,.077-10,0-10H115.519c-.073,0-.076,10,0,10Z"/><path class="cls-4" d="M106.484,100.5H130.2c.073,0,.076-10,0-10H106.484c-.073,0-.076,10,0,10Z"/><path class="cls-4" d="M103.1,91.461h25.976c.074,0,.076-10,0-10H103.1c-.074,0-.076,10,0,10Z"/><path class="cls-4" d="M100.837,100.5h19.2c.073,0,.076-10,0-10h-19.2c-.073,0-.076,10,0,10Z"/><path class="cls-4" d="M57.919,171.649H98.192c.074,0,.077-10,0-10h-.743c-.074,0-.076,10,0,10h.743c.074,0,.077-10,0-10H57.919c-.073,0-.076,10,0,10Z"/><path class="cls-4" d="M113.261,142.284h23.717c.074,0,.076-10,0-10H113.261c-.074,0-.077,10,0,10Z"/><path class="cls-5" d="M80.508,51.931h21.458c.074,0,.077-10,0-10H80.508c-.074,0-.077,10,0,10Z"/><path class="cls-5" d="M100.837,63.225H122.3c.073,0,.076-10,0-10H100.837c-.073,0-.076,10,0,10Z"/><path class="cls-5" d="M209.26,74.519H237.5c.073,0,.076-10,0-10H209.26c-.073,0-.076,10,0,10Z"/><path class="cls-5" d="M230.719,71.131h21.459c.073,0,.076-10,0-10H230.719c-.073,0-.076,10,0,10Z"/><path class="cls-5" d="M249.919,81.3H264.6c.074,0,.077-10,0-10H249.919c-.073,0-.076,10,0,10Z"/><path class="cls-5" d="M186.672,79.037h25.977c.073,0,.076-10,0-10H186.672c-.073,0-.076,10,0,10Z"/><path class="cls-5" d="M214.907,123.084h18.071c.073,0,.076-10,0-10H214.907c-.073,0-.076,10,0,10Z"/><path class="cls-5" d="M221.684,129.861h19.2c.073,0,.076-10,0-10h-19.2c-.074,0-.076,10,0,10Z"/><path class="cls-5" d="M238.625,143.413h11.294c.074,0,.076-10,0-10H238.625c-.074,0-.076,10,0,10Z"/><path class="cls-5" d="M253.307,150.19h25.977c.073,0,.076-10,0-10H253.307c-.073,0-.076,10,0,10Z"/><path class="cls-5" d="M72.6,115.178h29.364c.074,0,.077-10,0-10H72.6c-.074,0-.076,10,0,10Z"/><path class="cls-5" d="M61.308,124.213h19.2c.073,0,.076-10,0-10h-19.2c-.074,0-.077,10,0,10Z"/><path class="cls-5" d="M56.79,134.378h19.2c.073,0,.076-10,0-10H56.79c-.073,0-.076,10,0,10Z"/><path class="cls-5" d="M94.061,112.919h23.717c.074,0,.076-10,0-10H94.061c-.074,0-.077,10,0,10Z"/><path class="cls-5" d="M162.955,142.284H179.9c.073,0,.076-10,0-10H162.955c-.074,0-.077,10,0,10Z"/><path class="cls-6" d="M187.8,185.2h12.423c.074,0,.076-10,0-10H187.8c-.074,0-.077,10,0,10Z"/><path class="cls-6" d="M192.319,197.625h13.553c.074,0,.076-10,0-10H192.319c-.073,0-.076,10,0,10Z"/><path class="cls-6" d="M178.766,213.437h32.753c.074,0,.076-10,0-10H178.766c-.073,0-.076,10,0,10Z"/><path class="cls-6" d="M186.672,221.343h27.106c.073,0,.076-10,0-10H186.672c-.073,0-.076,10,0,10Z"/><path class="cls-6" d="M205.872,230.378H226.2c.074,0,.077-10,0-10H205.872c-.073,0-.076,10,0,10Z"/><path class="cls-6" d="M202.484,240.543h19.2c.073,0,.076-10,0-10h-19.2c-.074,0-.076,10,0,10Z"/><path class="cls-6" d="M199.1,251.837h25.976c.074,0,.076-10,0-10H199.1c-.074,0-.077,10,0,10Z"/><path class="cls-7" d="M219.425,282.331H247.66c.074,0,.076-10,0-10H219.425c-.073,0-.076,10,0,10Z"/><path class="cls-7" d="M234.107,258.613h27.106c.074,0,.076-10,0-10H234.107c-.073,0-.076,10,0,10Z"/><path class="cls-7" d="M242.013,262h29.365c.073,0,.076-10,0-10H242.013c-.073,0-.076,10,0,10Z"/><path class="cls-7" d="M147.143,291.366h29.364c.074,0,.077-10,0-10H147.143c-.074,0-.076,10,0,10Z"/><path class="cls-7" d="M170.86,299.272h25.977c.073,0,.076-10,0-10H170.86c-.073,0-.076,10,0,10Z"/><path class="cls-7" d="M267.99,272.166h24.847c.073,0,.076-10,0-10H267.99c-.074,0-.077,10,0,10Z"/><path class="cls-7" d="M288.319,298.143h20.329c.074,0,.077-10,0-10H288.319c-.073,0-.076,10,0,10Z"/><path class="cls-8" d="M214.907,263.131H237.5c.073,0,.076-10,0-10H214.907c-.073,0-.076,10,0,10Z"/><path class="cls-8" d="M219.425,291.366h19.2c.073,0,.076-10,0-10h-19.2c-.073,0-.076,10,0,10Z"/><path class="cls-8" d="M201.354,281.2h18.071c.073,0,.076-10,0-10H201.354c-.073,0-.076,10,0,10Z"/><path class="cls-8" d="M283.8,265.39H305.26c.074,0,.076-10,0-10H283.8c-.073,0-.076,10,0,10Z"/><rect class="cls-9" width="346.742" height="346.742"/></g></g></svg>