<svg xmlns="http://www.w3.org/2000/svg" viewBox="0 0 215 215"><defs><style>.cls-1{fill:none;}.cls-2{fill:#814d3f;}.cls-3{fill:#ad6e60;}.cls-4{fill:#fff;}.cls-5{fill:#523c4e;}.cls-13,.cls-6{fill:#2a2a3a;}.cls-7,.cls-8{fill:#66353f;}.cls-8{opacity:0.52;}.cls-9{fill:#77b1d7;}.cls-10{fill:#456c93;}.cls-11{fill:#455093;}.cls-12{fill:#f49e49;}.cls-13{opacity:0.34;}</style></defs><g id="Layer_2" data-name="Layer 2"><g id="Layer_1-2" data-name="Layer 1"><rect class="cls-1" width="215" height="215"/><rect class="cls-2" x="40.735" y="31.275" width="38.033" height="4.149"/><rect class="cls-2" x="78.768" y="35.424" width="31.898" height="4.058"/><rect class="cls-3" x="46.87" y="27.217" width="31.898" height="4.058"/><rect class="cls-3" x="110.667" y="35.378" width="31.898" height="4.058"/><rect class="cls-2" x="110.667" y="39.482" width="31.898" height="4.058"/><rect class="cls-2" x="142.565" y="43.54" width="15.949" height="4.058"/><rect class="cls-2" x="103.584" y="2.5" width="7.083" height="30.849"/><rect class="cls-3" x="99.632" y="7.004" width="5.257" height="26.346"/><rect class="cls-3" x="78.768" y="31.32" width="31.898" height="4.058"/><rect class="cls-4" x="66.126" y="22.313" width="9.335" height="4.904"/><rect class="cls-4" x="133.54" y="30.429" width="9.335" height="4.904"/><rect class="cls-4" x="75.461" y="17.409" width="9.335" height="4.904"/><rect class="cls-4" x="123.993" y="25.333" width="9.335" height="4.904"/><rect class="cls-4" x="84.804" y="12.506" width="9.335" height="4.904"/><rect class="cls-4" x="94.481" y="7.592" width="4.904" height="4.904"/><rect class="cls-4" x="119.089" y="20.429" width="4.904" height="4.904"/><rect class="cls-4" x="113.839" y="15.715" width="4.904" height="4.904"/><rect class="cls-4" x="110.667" y="10.811" width="4.904" height="4.904"/><polygon class="cls-5" points="51.509 35.424 51.509 40.425 56.928 40.425 56.928 49.595 60.679 49.595 60.679 67.1 65.68 67.1 65.68 94.635 61.512 94.635 61.512 106.79 55.677 106.79 55.677 116.813 51.509 116.813 51.509 121.656 46.091 121.656 46.091 126.056 60.679 126.056 60.679 130.899 132.785 130.899 132.785 135.743 160.71 135.743 174.464 135.743 174.464 139.206 179.466 139.206 179.466 131.344 185.301 131.344 185.301 102.892 178.215 102.892 178.215 88.637 174.047 88.637 174.047 80.438 170.296 80.438 170.296 70.726 165.295 70.726 165.295 62.098 160.71 62.098 160.71 52.929 156.542 52.929 156.542 47.927 150.707 47.927 150.707 43.759 115.696 43.759 115.696 38.758 79.435 38.758 51.509 35.424"/><polygon class="cls-5" points="78.879 41.814 78.879 35.424 51.509 35.424 78.879 41.814"/><polygon class="cls-6" points="72.953 35.424 72.953 87.315 83.726 87.315 83.726 93.478 95.229 93.478 95.229 98.282 113.118 98.282 113.118 105.158 141.9 105.158 141.9 98.282 165.601 98.282 165.601 89.584 178.215 89.584 178.215 102.892 185.301 102.892 185.301 131.344 179.466 131.344 180.134 137.879 133.282 137.879 133.282 130.899 60.679 130.899 60.679 126.056 46.091 126.056 46.091 121.656 51.509 121.656 51.509 116.813 55.677 116.813 55.677 106.79 61.512 106.79 61.512 94.635 65.68 94.635 65.68 67.1 60.679 67.1 60.679 49.595 56.928 49.595 56.928 40.425 51.509 40.425 51.509 35.424 72.953 35.424"/><path class="cls-2" d="M41.929,130.425h17.8c.036,0,.037-4.925,0-4.925h-17.8c-.036,0-.037,4.925,0,4.925Z"/><path class="cls-2" d="M56.391,134.875h77.677c.036,0,.038-4.925,0-4.925H133.7c-.036,0-.038,4.925,0,4.925h.364c.036,0,.038-4.925,0-4.925H56.391c-.037,0-.038,4.925,0,4.925Z"/><path class="cls-2" d="M128.7,140.437h40.229c1.959,0,3.931-.066,5.888.034a17.272,17.272,0,0,0,5.319-.129,28.049,28.049,0,0,0,0-4.925,1.474,1.474,0,0,0-1.377-1.017c.187.025-.259,4.889,0,4.924a1.475,1.475,0,0,1,1.377,1.018v-4.925a17.272,17.272,0,0,1-5.319.129c-1.957-.1-3.929-.034-5.888-.034H128.7c-.036,0-.037,4.925,0,4.925Z"/><path class="cls-3" d="M74.746,130.981h56.177c.036,0,.037-4.925,0-4.925H74.746c-.037,0-.038,4.925,0,4.925Z"/><path class="cls-6" d="M135.373,134.637h41.159"/><path class="cls-3" d="M179.591,131.062H167.355c-.036,0-.038,4.925,0,4.925h12.236c.037,0,.038-4.925,0-4.925Z"/><path class="cls-3" d="M162.071,130.784h-5.562c-.037,0-.038,4.925,0,4.925h5.562c.036,0,.037-4.925,0-4.925Z"/><path class="cls-6" d="M142.047,94.352H137.6c-.036,0-.037,4.925,0,4.925h4.45c.036,0,.038-4.925,0-4.925Z"/><path class="cls-6" d="M138.154,91.015H133.7c-.036,0-.038,4.925,0,4.925h4.45c.036,0,.037-4.925,0-4.925Z"/><path class="cls-6" d="M133.7,87.122H128.7c-.036,0-.037,4.925,0,4.925H133.7c.036,0,.037-4.925,0-4.925Z"/><path class="cls-6" d="M166.52,86.009h-5.006c-.036,0-.037,4.925,0,4.925h5.006c.037,0,.038-4.925,0-4.925Z"/><path class="cls-6" d="M162.071,82.672H159.29c-.037,0-.038,4.925,0,4.925h2.781c.036,0,.037-4.925,0-4.925Z"/><path class="cls-6" d="M159.846,79.891H155.4c-.036,0-.037,4.925,0,4.925h4.45c.036,0,.037-4.925,0-4.925Z"/><path class="cls-6" d="M155.4,76.554H150.39c-.036,0-.037,4.925,0,4.925H155.4c.036,0,.038-4.925,0-4.925Z"/><path class="cls-6" d="M124.805,102.139h-3.894c-.036,0-.037,4.925,0,4.925h3.894c.036,0,.037-4.925,0-4.925Z"/><path class="cls-6" d="M150.946,72.66H146.5c-.036,0-.038,4.925,0,4.925h4.449c.037,0,.038-4.925,0-4.925Z"/><rect class="cls-7" x="101.684" y="134.749" width="23.121" height="5.513"/><rect class="cls-7" x="107.427" y="139.645" width="6.413" height="27.998"/><rect class="cls-7" x="101.684" y="139.645" width="6.413" height="27.998"/><polygon class="cls-2" points="30.439 146.262 38.226 146.262 38.226 152.726 59.918 152.726 59.918 161.344 113.871 161.344 113.871 146.262 128.889 146.262 128.889 139.332 158.368 139.332 158.368 133.77 166.155 133.77 166.155 127.451 171.161 127.451 171.161 115.82 177.835 115.82 177.835 102.176 183.953 102.176 183.953 96.305 189.516 96.305 189.516 102.769 183.397 102.769 183.397 115.415 177.835 115.82 177.835 127.466 171.161 127.451 171.161 133.77 171.161 144.107 179.318 144.107 179.318 169.739 171.902 169.739 171.902 182.717 165.969 182.717 165.969 196.811 160.036 196.811 160.036 203.275 67.705 203.275 67.705 194.657 55.098 194.657 55.098 190.348 47.682 190.348 47.682 176.784 41.378 176.784 41.378 170.109 33.962 170.109 33.962 159.189 25.804 159.189 25.804 146.262 30.439 146.262"/><path class="cls-3" d="M65.29,165.188h37.827c.037,0,.038-4.925,0-4.925H65.29c-.036,0-.038,4.925,0,4.925Z"/><path class="cls-3" d="M120.355,158.514h45.887c.036,0,.038-4.925,0-4.925H120.355c-.036,0-.038,4.925,0,4.925Z"/><path class="cls-3" d="M155.4,145.165h12.515c.036,0,.037-4.925,0-4.925H155.4c-.036,0-.037,4.925,0,4.925Z"/><path class="cls-3" d="M132.035,140.993H155.4c.036,0,.038-4.925,0-4.925H132.035c-.036,0-.037,4.925,0,4.925Z"/><path class="cls-3" d="M148.722,171.028h25.863c.037,0,.038-4.924,0-4.924H148.722c-.037,0-.038,4.924,0,4.924Z"/><path class="cls-3" d="M49.438,179.372h61.739c.037,0,.038-4.925,0-4.925H49.438c-.036,0-.038,4.925,0,4.925Z"/><path class="cls-3" d="M126.2,181.875h39.213c.036,0,.038-4.925,0-4.925H126.2c-.036,0-.037,4.925,0,4.925Z"/><path class="cls-7" d="M155.4,192.8H69.462c-.037,0-.038,4.925,0,4.925H155.4c.036,0,.038-4.925,0-4.925Z"/><path class="cls-7" d="M56.113,194.389H69.462c.036,0,.037-4.924,0-4.924H56.113c-.037,0-.038,4.924,0,4.924Z"/><path class="cls-3" d="M25.484,152.568H35.745c.045,0,.046-6.057,0-6.057H25.484c-.044,0-.046,6.057,0,6.057Z"/><path class="cls-7" d="M32.667,160.776h8.208c.045,0,.046-6.056,0-6.056H32.667c-.045,0-.046,6.056,0,6.056Z"/><path class="cls-7" d="M129.254,144.33h25.03c.036,0,.037-4.924,0-4.924h-25.03c-.036,0-.037,4.924,0,4.924Z"/><path class="cls-7" d="M147.053,164.435h-6.675c-.036,0-.037,4.925,0,4.925h6.675c.036,0,.038-4.925,0-4.925Z"/><path class="cls-7" d="M122.024,164.435h-6.675c-.036,0-.038,4.925,0,4.925h6.675c.036,0,.037-4.925,0-4.925Z"/><path class="cls-7" d="M58.616,167.772H49.438c-.036,0-.038,4.925,0,4.925h9.178c.036,0,.037-4.925,0-4.925Z"/><polygon class="cls-4" points="80.505 203.357 80.505 200.165 91.449 200.165 91.449 196.06 99.202 196.06 99.202 192.64 106.58 192.64 106.58 188.308 114.706 188.308 114.706 185.8 121.091 185.8 121.091 181.468 127.703 181.468 127.703 177.591 146.172 177.591 146.172 181.24 154.153 181.24 154.153 192.412 160.993 192.412 160.993 189.22 168.061 189.22 168.061 184.66 180.201 184.66 180.201 189.22 183.566 189.22 183.566 199.709 179.234 199.709 179.234 194.92 175.358 194.92 175.358 190.474 171.937 190.474 171.937 195.148 165.097 195.148 165.097 199.709 156.433 199.709 156.433 203.357 150.048 203.357 150.048 190.474 143.208 190.474 143.208 186.028 129.983 186.028 129.983 192.412 119.951 192.412 119.951 196.744 113.338 196.744 113.338 200.393 102.394 200.393 102.394 203.357 80.505 203.357"/><polygon class="cls-8" points="47.682 176.784 47.682 166.897 59.728 166.897 59.728 152.726 38.226 152.726 38.226 146.262 25.804 146.262 25.804 159.189 33.962 159.189 33.962 170.109 41.378 170.109 41.378 176.784 47.682 176.784"/><polyline class="cls-8" points="59.728 166.897 70.276 166.897 70.276 190.474 91.475 190.474 91.475 203.151 67.705 203.151 67.705 194.657 55.098 194.657 55.098 190.348 47.682 190.348 47.682 166.897"/><rect class="cls-9" x="75.576" y="203.723" width="26.108" height="4.445"/><rect class="cls-9" x="102.642" y="199.718" width="13.054" height="4.445"/><polygon class="cls-10" points="112.429 212.5 113.338 196.744 119.951 196.744 119.951 192.412 129.983 192.412 129.983 186.028 143.208 186.028 143.208 190.474 150.048 190.474 150.048 203.357 156.433 203.357 156.433 199.709 165.097 199.709 165.097 195.148 171.937 195.148 171.937 212.5 112.429 212.5"/><path class="cls-11" d="M130.966,195.235H142.6c.044,0,.046-6.056,0-6.056H130.966c-.044,0-.046,6.056,0,6.056Z"/><path class="cls-11" d="M136.438,199.339h9.919c.044,0,.046-6.056,0-6.056h-9.919c-.044,0-.046,6.056,0,6.056Z"/><path class="cls-11" d="M133.36,204.812c2.23-.009,4.72-.589,6.841.342-.011,0,.022-1.02.021-.887.008-.714.009-1.428.009-2.142s0-1.427-.009-2.141a3.921,3.921,0,0,0-.021-.887c-2.121-.931-4.611-.35-6.841-.342-.052,0-.038,6.057,0,6.057Z"/><path class="cls-11" d="M162.432,205.154h7.524c.045,0,.046-6.057,0-6.057h-7.524c-.045,0-.046,6.057,0,6.057Z"/><path class="cls-11" d="M168.93,201.392h8.893c.044,0,.046-6.057,0-6.057H168.93c-.044,0-.046,6.057,0,6.057Z"/><path class="cls-11" d="M129.6,197.045h-5.814c-.045,0-.046,6.057,0,6.057H129.6c.044,0,.046-6.057,0-6.057Z"/><path class="cls-11" d="M152.513,212.336h5.458c.857,0,1.717.025,2.572,0a5.7,5.7,0,0,1,1.21-.015,5.828,5.828,0,0,0,1.029.3c.032,0,.03-2.8.03-3.029,0-.714,0-1.427-.009-2.141a3.6,3.6,0,0,0-.021-.887,2.606,2.606,0,0,0-1.034-.282c.093.006-.184,6.043,0,6.056a2.617,2.617,0,0,1,1.034.283v-6.057a5.742,5.742,0,0,1-1.029-.3,5.629,5.629,0,0,0-1.21.015c-.855.028-1.715,0-2.572,0q-2.729,0-5.458,0c-.044,0-.046,6.056,0,6.056Z"/><path class="cls-11" d="M175.086,210.626h11.971c.045,0,.046-6.057,0-6.057H175.086c-.044,0-.046,6.057,0,6.057Z"/><path class="cls-11" d="M114.663,209.372H126.52c.044,0,.046-6.057,0-6.057H114.663c-.044,0-.046,6.057,0,6.057Z"/><path class="cls-11" d="M162.09,210.74h14.136c.045,0,.047-6.057,0-6.057H162.09c-.045,0-.046,6.057,0,6.057Z"/><path class="cls-11" d="M125.152,209.6c2.237,0,4.51.119,6.742-.027.717-.046,1.434-.109,2.153-.094.534.012,1.335,0,1.707.463a5.448,5.448,0,0,1,.022-.887q.01-1.071.009-2.141c0-.714,0-1.428-.009-2.142,0-.178.083-.758-.022-.887-.361-.444-1.126-.446-1.646-.461-.739-.021-1.477.045-2.214.093-2.232.145-4.505.026-6.742.026-.045,0-.046,6.057,0,6.057Z"/><path class="cls-11" d="M146.015,211.994h15.733c.044,0,.046-6.056,0-6.056H146.015c-.045,0-.046,6.056,0,6.056Z"/><path class="cls-12" d="M135.569,78.12V68.242H130.5V63.663H120.1V53.932h-4.3v9.731h-5.645V53.932h-4.305v9.731H96.716v4.579h9.126V98.317H96.716V102.9h9.126v9.976h4.305V102.9h5.645v10.068h4.3V102.9h10.4V98.317h5.069V83.08h-4.875V78.12Zm-9.878-9.878v9.33H114.452v-9.33ZM114.452,98.317V83.135h11.239V98.317Z"/><polygon class="cls-13" points="96.406 98.317 96.406 102.896 105.532 102.896 105.532 112.872 109.837 112.872 109.837 102.896 112.808 102.896 112.808 98.282 105.532 98.282 105.532 98.317 96.406 98.317"/><rect class="cls-13" x="115.482" y="105.158" width="4.305" height="7.806"/></g></g></svg>