<svg xmlns="http://www.w3.org/2000/svg" viewBox="0 0 430 430"><defs><style>.cls-1{fill:none;}.cls-2{fill:#523c4e;}.cls-3{fill:#2a2a3a;}.cls-4{fill:#814d3f;}.cls-5{fill:#ad6e60;}.cls-16,.cls-6{fill:#66353f;}.cls-11,.cls-7{fill:#e5720a;}.cls-8{fill:#f49549;}.cls-9{fill:#ffb776;}.cls-10,.cls-11{opacity:0.64;}.cls-12{fill:#f7d0b0;}.cls-13{fill:#3b2646;}.cls-14{fill:#584562;}.cls-15{fill:#1c042b;}.cls-16{opacity:0.52;}.cls-17{fill:#fff;}.cls-18{fill:#77b1d7;}.cls-19{fill:#456c93;}.cls-20{fill:#455093;}</style></defs><g id="Layer_2" data-name="Layer 2"><g id="Layer_1-2" data-name="Layer 1"><rect class="cls-1" width="430" height="430" transform="translate(430 430) rotate(-180)"/><polygon class="cls-2" points="297.166 83.482 297.166 92.609 287.279 92.609 287.279 109.34 280.434 109.34 280.434 141.282 271.308 141.282 271.308 191.525 278.913 191.525 278.913 213.705 289.561 213.705 289.561 231.993 297.166 231.993 297.166 240.831 307.053 240.831 307.053 248.859 280.434 248.859 280.434 257.697 184.863 257.697 184.863 266.535 133.908 266.535 108.811 266.535 108.811 272.853 99.684 272.853 99.684 258.507 89.037 258.507 89.037 206.591 101.966 206.591 101.966 180.58 109.571 180.58 109.571 165.619 116.416 165.619 116.416 147.899 125.542 147.899 125.542 132.156 133.908 132.156 133.908 115.424 141.513 115.424 141.513 106.298 152.161 106.298 152.161 98.693 200.045 98.693 200.045 89.567 246.211 89.567 297.166 83.482"/><polygon class="cls-2" points="247.225 95.144 247.225 83.482 297.166 83.482 247.225 95.144"/><polygon class="cls-3" points="258.038 83.482 258.038 178.168 238.38 178.168 238.38 189.413 217.39 189.413 217.39 198.181 204.748 198.181 204.748 210.727 168.23 210.727 168.23 198.181 124.984 198.181 124.984 182.309 101.966 182.309 101.966 206.591 89.037 206.591 89.037 258.507 99.684 258.507 98.466 270.433 183.956 270.433 183.956 257.697 280.434 257.697 280.434 248.859 307.053 248.859 307.053 240.831 297.166 240.831 297.166 231.993 289.561 231.993 289.561 213.705 278.913 213.705 278.913 191.525 271.308 191.525 271.308 141.282 280.434 141.282 280.434 109.34 287.279 109.34 287.279 92.609 297.166 92.609 297.166 83.482 258.038 83.482"/><path class="cls-4" d="M314.647,247.845H282.169c-.066,0-.068,8.986,0,8.986h32.478c.066,0,.068-8.986,0-8.986Z"/><path class="cls-4" d="M314.579,299.209a7.584,7.584,0,0,0,.971-3.2c.058-.571.068-1.143.079-1.717.092-4.708.187-9.459-.02-14.165a11.712,11.712,0,0,0-.234-2,11.5,11.5,0,0,0-1.854-4.1c-3.064-4.39-8.214-7.12-13.013-9.167-10.132-4.321-21.228-6.394-32.073-7.962-19.59-2.833-39.467-3.654-59.238-3.882q-4.737-.054-9.474-.054v15h0v-15H183.184c-.11,0-.114,15,0,15h0c.11,0,.114-15,0-15h0v15h16.541c.11,0,.114-15,0-15h0c-.109,0-.115,15,0,15,16.66,0,33.342.43,49.947,1.832a253.18,253.18,0,0,1,33.117,4.673,92.021,92.021,0,0,1,19.875,6.364,29.923,29.923,0,0,1,9.77,6.815,12.091,12.091,0,0,1,3.062,6.134c.032.214.055.43.072.646l-.02-.268c.007.091.013.181.017.271l.006.143v.041q-.168-6.652-.016-13.31c.008-.372.04-.861-.007-.224l.02-.268a11.6,11.6,0,0,1-.883,3.217,1.137,1.137,0,0,1-.105.186,8.689,8.689,0,0,0-.053,2.2c-.019,1.768-.023,3.536-.022,5.3s0,3.536.022,5.3c0,.452.265,1.859.053,2.2Z"/><path class="cls-5" d="M254.767,248.86H188.26c-.066,0-.068,8.986,0,8.986h66.507c.066,0,.068-8.986,0-8.986Z"/><path class="cls-3" d="M180.141,264.517h-75.1"/><path class="cls-3" d="M167.962,200h8.119c.066,0,.069-8.986,0-8.986h-8.119c-.066,0-.068,8.986,0,8.986Z"/><path class="cls-3" d="M175.066,193.907h8.12c.066,0,.068-8.987,0-8.987h-8.12c-.066,0-.068,8.987,0,8.987Z"/><path class="cls-3" d="M183.186,186.8h9.134c.066,0,.069-8.986,0-8.986h-9.134c-.066,0-.069,8.986,0,8.986Z"/><path class="cls-3" d="M123.306,184.772h9.134c.066,0,.068-8.986,0-8.986h-9.134c-.066,0-.069,8.986,0,8.986Z"/><path class="cls-3" d="M131.425,178.683H136.5c.066,0,.068-8.986,0-8.986h-5.075c-.066,0-.068,8.986,0,8.986Z"/><path class="cls-3" d="M135.485,173.608H143.6c.066,0,.069-8.986,0-8.986h-8.119c-.066,0-.069,8.986,0,8.986Z"/><path class="cls-3" d="M143.6,167.519h9.134c.066,0,.069-8.987,0-8.987H143.6c-.066,0-.068,8.987,0,8.987Z"/><path class="cls-3" d="M199.424,214.205h.278v-8.986h-9.451c-.066,0-.068,8.986,0,8.986h.278c.066,0,.068-8.986,0-8.986h-.278v8.986H199.7c.066,0,.068-8.986,0-8.986h-.278c-.066,0-.068,8.986,0,8.986Z"/><path class="cls-3" d="M151.723,160.414h8.12c.066,0,.068-8.986,0-8.986h-8.12c-.066,0-.068,8.986,0,8.986Z"/><rect class="cls-6" x="199.424" y="264.722" width="26.189" height="10.06" transform="translate(425.038 539.503) rotate(-180)"/><rect class="cls-6" x="203.433" y="273.654" width="11.701" height="51.089" transform="translate(418.567 598.397) rotate(-180)"/><rect class="cls-6" x="213.912" y="273.654" width="11.701" height="51.089" transform="translate(439.525 598.397) rotate(-180)"/><path class="cls-5" d="M186.231,267.128H143.6c-.066,0-.068,8.987,0,8.987h42.627c.066,0,.068-8.987,0-8.987Z"/><path class="cls-6" d="M335.955,273.218H116.062c-.066,0-.069,8.986,0,8.986H335.955c.066,0,.069-8.986,0-8.986Z"/><line class="cls-5" x1="267.106" y1="90.804" x2="228.901" y2="90.804"/><polygon class="cls-2" points="136.957 83.482 136.957 92.609 146.844 92.609 146.844 109.34 153.689 109.34 153.689 141.282 162.815 141.282 162.815 191.525 155.21 191.525 155.21 213.705 144.563 213.705 144.563 231.993 136.957 231.993 136.957 240.831 127.07 240.831 127.07 248.859 153.689 248.859 153.689 257.697 249.26 257.697 249.26 266.535 300.215 266.535 325.313 266.535 325.313 272.853 334.439 272.853 334.439 258.507 345.086 258.507 345.086 206.591 332.157 206.591 332.157 180.58 324.552 180.58 324.552 165.619 317.707 165.619 317.707 147.899 308.581 147.899 308.581 132.156 300.215 132.156 300.215 115.424 292.61 115.424 292.61 106.298 281.963 106.298 281.963 98.693 218.078 98.693 218.078 89.567 187.913 89.567 136.957 83.482"/><polygon class="cls-2" points="186.899 95.144 186.899 83.482 136.957 83.482 186.899 95.144"/><polyline class="cls-3" points="195.743 191.681 200.733 191.681 200.733 198.181 233.375 198.181 233.375 210.727 265.893 210.727 265.893 198.181 309.14 198.181 309.14 182.309 332.157 182.309 332.157 206.591 345.086 206.591 345.086 258.507 334.439 258.507 335.658 270.433 250.167 270.433 250.167 257.697 153.689 257.697 153.689 248.859 127.07 248.859 127.07 240.831 136.957 240.831 136.957 231.993 144.563 231.993 144.563 213.705 155.21 213.705 155.21 191.525 162.815 191.525"/><path class="cls-3" d="M253.982,264.517h75.1"/><path class="cls-3" d="M266.161,191.01h-8.119c-.066,0-.069,8.986,0,8.986h8.119c.066,0,.069-8.986,0-8.986Z"/><path class="cls-3" d="M259.057,184.92h-8.119c-.066,0-.069,8.987,0,8.987h8.119c.066,0,.068-8.987,0-8.987Z"/><path class="cls-3" d="M250.938,177.816H241.8c-.066,0-.068,8.986,0,8.986h9.135c.066,0,.068-8.986,0-8.986Z"/><path class="cls-3" d="M310.818,175.786h-9.135c-.066,0-.068,8.986,0,8.986h9.135c.066,0,.068-8.986,0-8.986Z"/><path class="cls-3" d="M302.7,169.7h-5.074c-.066,0-.069,8.986,0,8.986H302.7c.066,0,.069-8.986,0-8.986Z"/><path class="cls-3" d="M298.639,164.622h-8.12c-.066,0-.068,8.986,0,8.986h8.12c.066,0,.068-8.986,0-8.986Z"/><path class="cls-3" d="M290.519,158.532h-9.134c-.066,0-.068,8.987,0,8.987h9.134c.066,0,.069-8.987,0-8.987Z"/><path class="cls-3" d="M234.7,205.219h-7.105c-.066,0-.068,8.986,0,8.986H234.7c.066,0,.068-8.986,0-8.986Z"/><path class="cls-3" d="M282.4,151.428h-8.119c-.066,0-.069,8.986,0,8.986H282.4c.066,0,.068-8.986,0-8.986Z"/><rect class="cls-6" x="212.51" y="264.722" width="22.189" height="10.06"/><rect class="cls-6" x="222.989" y="273.654" width="11.701" height="51.089"/><rect class="cls-6" x="212.51" y="273.654" width="11.701" height="51.089"/><path class="cls-5" d="M310.519,283.727h22.836c.066,0,.068-8.987,0-8.987H310.519c-.066,0-.068,8.987,0,8.987Z"/><path class="cls-5" d="M247.893,276.115h42.626c.066,0,.069-8.987,0-8.987H247.893c-.066,0-.069,8.987,0,8.987Z"/><path class="cls-6" d="M242.818,282.2h45.671c.066,0,.069-8.986,0-8.986H242.818c-.066,0-.068,8.986,0,8.986Z"/><rect class="cls-2" x="274.281" y="98.693" width="34.3" height="33.463"/><rect class="cls-2" x="300.209" y="109.705" width="17.498" height="38.194"/><rect class="cls-2" x="312.358" y="128.802" width="12.194" height="40.313"/><rect class="cls-2" x="302.717" y="98.457" width="14.99" height="11.248"/><path class="cls-4" d="M335.658,266.114H125.493c-5.762,0-11.58-.247-17.334.063-3.2.172-6.562.643-9.693-.237v8.986a2.621,2.621,0,0,1,2.512-1.856c.369-.038-.237-8.962,0-8.986a2.618,2.618,0,0,0-2.512,1.856,5.975,5.975,0,0,0-.032,1.316c-.012,1.059-.014,2.118-.013,3.177,0,.388-.228,4.417.045,4.493,3.191.9,6.623.393,9.879.227,3.895-.2,7.826-.053,11.726-.053H335.658c.066,0,.068-8.986,0-8.986Z"/><polygon class="cls-7" points="207.462 233.574 214.471 233.574 214.471 226.565 221.479 226.565 221.479 219.556 228.488 219.556 228.488 212.547 236.669 212.547 236.669 205.538 299.448 205.538 299.448 212.547 306.457 212.547 306.457 219.556 313.466 219.556 313.466 226.565 320.475 226.565 320.475 233.574 327.484 233.574 327.484 297.441 320.475 297.441 320.475 301.9 313.466 301.9 313.466 308.908 306.457 308.908 306.457 315.917 298.277 315.917 298.277 322.926 235.497 322.926 235.497 315.917 228.488 315.917 228.488 308.908 221.479 308.908 221.479 301.9 214.471 301.9 214.471 297.441 207.462 297.441 207.462 233.574"/><polygon class="cls-8" points="207.462 246.912 214.471 246.912 214.471 239.903 221.479 239.903 221.479 232.894 228.488 232.894 228.488 225.885 236.669 225.885 236.669 218.877 299.448 218.877 299.448 225.885 306.457 225.885 306.457 232.894 313.466 232.894 313.466 239.903 320.475 239.903 320.475 246.912 327.484 246.912 327.484 310.779 320.475 310.779 320.475 315.238 313.466 315.238 313.466 322.247 306.457 322.247 306.457 329.255 298.277 329.255 298.277 336.264 235.497 336.264 235.497 329.255 228.488 329.255 228.488 322.247 221.479 322.247 221.479 315.238 214.471 315.238 214.471 310.779 207.462 310.779 207.462 246.912"/><path class="cls-9" d="M290.544,218.7h-48.8v4.355H243c.032,0,.033-4.355,0-4.355h-1.253c-.032,0-.033,4.355,0,4.355h48.8c.032,0,.033-4.355,0-4.355Z"/><path class="cls-9" d="M292.757,221.647h-53.2c-.032,0-.033,4.355,0,4.355h.486c.032,0,.033-4.355,0-4.355h-.486V226h53.2c.032,0,.034-4.355,0-4.355Z"/><path class="cls-9" d="M294.971,217.994H240.047c-.064,0-.067,8.71,0,8.71h54.924c.064,0,.066-8.71,0-8.71Z"/><path class="cls-9" d="M310.464,232.749H294.971c-.064,0-.067,8.71,0,8.71h15.493c.064,0,.066-8.71,0-8.71Z"/><path class="cls-9" d="M317.842,237.914H301.611c-.064,0-.067,8.71,0,8.71h16.231c.064,0,.066-8.71,0-8.71Z"/><path class="cls-9" d="M238.571,231.274h-13.28c-.064,0-.066,8.71,0,8.71h13.28c.064,0,.066-8.71,0-8.71Z"/><path class="cls-9" d="M231.931,238.651H217.176c-.064,0-.067,8.71,0,8.71h14.755c.064,0,.066-8.71,0-8.71Z"/><path class="cls-9" d="M286.117,308.74H245.949c-.064,0-.067,8.71,0,8.71h40.168c.064,0,.067-8.71,0-8.71Z"/><path class="cls-9" d="M248.162,300.624h-8.115c-.064,0-.067,8.71,0,8.71h8.115c.064,0,.066-8.71,0-8.71Z"/><path class="cls-9" d="M293.5,300.624h-13.28c-.064,0-.066,8.71,0,8.71H293.5c.064,0,.067-8.71,0-8.71Z"/><g class="cls-10"><path class="cls-7" d="M296.979,327.922H238.085c-.064,0-.066,8.71,0,8.71h.486c.064,0,.066-8.71,0-8.71h-.486v8.71h58.894c.064,0,.066-8.71,0-8.71Z"/></g><g class="cls-10"><path class="cls-7" d="M237.833,321.282H228.98c-.064,0-.066,8.71,0,8.71h8.853c.064,0,.067-8.71,0-8.71Z"/></g><g class="cls-10"><path class="cls-7" d="M228.242,314.642H221.6c-.064,0-.066,8.71,0,8.71h6.64c.064,0,.067-8.71,0-8.71Z"/></g><g class="cls-10"><path class="cls-7" d="M305.3,323.5H292.02c-.064,0-.067,8.71,0,8.71H305.3c.064,0,.067-8.71,0-8.71Z"/></g><g class="cls-10"><path class="cls-7" d="M315.628,313.9h-11.8c-.064,0-.066,8.71,0,8.71h11.8c.064,0,.067-8.71,0-8.71Z"/></g><g class="cls-10"><path class="cls-7" d="M286.855,226.847H246.2v8.71h.486c.063,0,.066-8.71,0-8.71H246.2c-.064,0-.067,8.71,0,8.71h40.654c.064,0,.067-8.71,0-8.71Z"/></g><rect class="cls-11" x="301.611" y="255.437" width="8.115" height="44.266" transform="translate(611.337 555.141) rotate(-180)"/><rect class="cls-11" x="225.865" y="255.437" width="8.115" height="44.266" transform="translate(459.845 555.141) rotate(-180)"/><path class="cls-12" d="M278.74,217.994h-27.4c-.064,0-.067,8.71,0,8.71h1.25c.064,0,.066-8.71,0-8.71h-1.25v8.71h27.4c.064,0,.066-8.71,0-8.71Z"/><path class="cls-12" d="M313.415,234.225h-6.64c-.064,0-.066,8.71,0,8.71h6.64c.064,0,.066-8.71,0-8.71Z"/><path class="cls-12" d="M234.882,231.274H224.553c-.064,0-.066,8.71,0,8.71h10.329c.064,0,.067-8.71,0-8.71Z"/><rect class="cls-7" x="322.108" y="247.416" width="7.099" height="65.679" transform="translate(651.315 560.511) rotate(-180)"/><rect class="cls-7" x="206.132" y="246.159" width="7.099" height="65.679" transform="translate(419.363 557.997) rotate(-180)"/><rect class="cls-13" x="206.132" y="239.544" width="121.352" height="6.925" transform="translate(533.616 486.013) rotate(-180)"/><rect class="cls-13" x="206.132" y="231.202" width="121.352" height="9.146"/><rect class="cls-13" x="211.507" y="222.349" width="110.601" height="9.146"/><rect class="cls-13" x="218.913" y="214.988" width="95.79" height="9.146"/><rect class="cls-13" x="221.479" y="205.842" width="90.657" height="9.146"/><rect class="cls-13" x="233.407" y="200.258" width="66.803" height="9.146"/><rect class="cls-14" x="199.723" y="244.566" width="11.784" height="11.784" transform="translate(411.231 500.915) rotate(-180)"/><rect class="cls-13" x="187.939" y="244.566" width="11.784" height="11.784" transform="translate(387.663 500.915) rotate(-180)"/><rect class="cls-13" x="187.939" y="256.333" width="11.784" height="11.784" transform="translate(387.663 524.45) rotate(-180)"/><rect class="cls-13" x="178.042" y="262.225" width="11.784" height="11.784" transform="translate(367.867 536.234) rotate(-180)"/><rect class="cls-13" x="168.459" y="262.225" width="11.784" height="11.784" transform="translate(348.701 536.234) rotate(-180)"/><rect class="cls-14" x="199.723" y="256.333" width="11.784" height="11.784" transform="translate(411.231 524.45) rotate(-180)"/><rect class="cls-14" x="187.939" y="267.597" width="11.784" height="11.784" transform="translate(387.663 546.978) rotate(-180)"/><rect class="cls-14" x="187.939" y="277.694" width="11.784" height="11.784" transform="translate(387.663 567.173) rotate(-180)"/><path class="cls-14" d="M282.776,238.583H218.147v6.286h1.807c.046,0,.048-6.286,0-6.286h-1.807c-.047,0-.048,6.286,0,6.286h64.629c.046,0,.048-6.286,0-6.286Z"/><path class="cls-14" d="M294.489,232.2H241.617c-.046,0-.048,6.285,0,6.285h.7c.046,0,.048-6.285,0-6.285h-.7v6.285h52.872c.046,0,.048-6.285,0-6.285Z"/><path class="cls-15" d="M294.492,201.689h-54.3c-.046,0-.048,6.285,0,6.285h54.3c.046,0,.048-6.285,0-6.285Z"/><path class="cls-15" d="M318.979,218.353H277.452c-.046,0-.048,6.285,0,6.285h41.527c.046,0,.048-6.285,0-6.285Z"/><path class="cls-15" d="M255.092,205.575H225.278c-.046,0-.048,6.285,0,6.285h29.814c.046,0,.048-6.285,0-6.285Z"/><path class="cls-15" d="M323.238,238.583H280.647c-.046,0-.048,6.286,0,6.286h42.591c.046,0,.048-6.286,0-6.286Z"/><polyline class="cls-4" points="326.624 328.566 313.092 328.566 313.092 352.248 302.266 352.248 302.266 377.966 291.44 377.966 291.44 389.761 152.964 389.761 152.964 374.035 129.959 374.035 129.959 366.172 116.427 366.172 116.427 341.422 104.925 341.422 104.925 329.243 91.393 329.243 91.393 309.317 76.507 309.317 76.507 285.728 84.965 285.728 99.174 285.728 99.174 297.523 138.755 297.523 138.755 313.249 207.202 313.249"/><path class="cls-5" d="M99.455,266.98h22.328c.066,0,.069-8.986,0-8.986H99.455c-.066,0-.068,8.986,0,8.986Z"/><path class="cls-5" d="M131.425,266.473h10.149c.066,0,.069-8.986,0-8.986H131.425c-.066,0-.068,8.986,0,8.986Z"/><polyline class="cls-4" points="83.953 299.198 83.953 328.566 97.486 328.566 97.486 352.248 108.311 352.248 108.311 377.966 119.137 377.966 119.137 389.761 267.613 389.761 267.613 374.035 290.618 374.035 290.618 366.172 304.15 366.172 304.15 341.422 315.652 341.422 315.652 329.243 329.185 329.243 329.185 309.317 344.07 309.317 344.07 285.728 335.612 285.728 321.404 285.728 321.404 297.523 281.822 297.523 281.822 313.249 203.375 313.249 203.375 285.728 203.375 303.591"/><path class="cls-5" d="M292.02,311.277H223c-.066,0-.069,8.987,0,8.987H292.02c.066,0,.069-8.987,0-8.987Z"/><path class="cls-5" d="M191.544,299.1H107.813c-.066,0-.068,8.987,0,8.987h83.731c.066,0,.068-8.987,0-8.987Z"/><path class="cls-5" d="M139.783,321.934H92.589c-.066,0-.068,8.986,0,8.986h47.194c.066,0,.069-8.986,0-8.986Z"/><path class="cls-5" d="M315.652,337.158H208.29c-.066,0-.069,8.986,0,8.986H315.652c.066,0,.069-8.986,0-8.986Z"/><path class="cls-5" d="M180.887,341.725H109.336c-.066,0-.069,8.986,0,8.986h71.551c.066,0,.069-8.986,0-8.986Z"/><path class="cls-6" d="M127.6,379.636h156.8c.066,0,.069-8.986,0-8.986H127.6c-.066,0-.068,8.986,0,8.986Z"/><path class="cls-6" d="M308.766,364.56H284.408c-.066,0-.068,8.987,0,8.987h24.358c.066,0,.069-8.987,0-8.987Z"/><path class="cls-6" d="M142.828,327.875h12.179c.066,0,.068-8.986,0-8.986H142.828c-.066,0-.069,8.986,0,8.986Z"/><path class="cls-6" d="M188.5,327.875h12.179c.066,0,.068-8.986,0-8.986H188.5c-.066,0-.069,8.986,0,8.986Z"/><path class="cls-6" d="M304.2,333.965h16.746c.066,0,.069-8.986,0-8.986H304.2c-.066,0-.068,8.986,0,8.986Z"/><polygon class="cls-16" points="303.388 341.422 303.388 323.382 281.408 323.382 281.408 297.523 320.642 297.523 320.642 285.728 343.308 285.728 343.308 309.317 328.423 309.317 328.423 329.243 314.891 329.243 314.891 341.422 303.388 341.422"/><polyline class="cls-16" points="282.591 323.382 263.343 323.382 263.343 366.402 224.663 366.402 224.663 389.535 268.035 389.535 268.035 374.035 291.04 374.035 291.04 366.172 304.572 366.172 304.572 323.382"/><polygon class="cls-17" points="273.274 389.909 273.274 384.085 253.303 384.085 253.303 376.596 239.158 376.596 239.158 370.355 225.694 370.355 225.694 362.45 210.866 362.45 210.866 357.873 199.216 357.873 199.216 349.968 187.151 349.968 187.151 342.895 153.451 342.895 153.451 349.552 138.889 349.552 138.889 369.939 126.407 369.939 126.407 364.114 113.51 364.114 113.51 355.793 91.359 355.793 91.359 364.114 85.218 364.114 85.218 383.253 93.123 383.253 93.123 374.515 100.196 374.515 100.196 366.402 106.437 366.402 106.437 374.932 118.918 374.932 118.918 383.253 134.728 383.253 134.728 389.909 146.378 389.909 146.378 366.402 158.859 366.402 158.859 358.289 182.99 358.289 182.99 369.939 201.297 369.939 201.297 377.844 213.362 377.844 213.362 384.501 233.333 384.501 233.333 389.909 273.274 389.909"/><rect class="cls-18" x="234.629" y="390.577" width="47.638" height="8.111" transform="translate(516.896 789.265) rotate(-180)"/><rect class="cls-18" x="209.06" y="383.269" width="23.819" height="8.111" transform="translate(441.94 774.649) rotate(-180)"/><polygon class="cls-19" points="215.022 406.593 213.362 377.844 201.297 377.844 201.297 369.939 182.99 369.939 182.99 358.289 158.859 358.289 158.859 366.402 146.378 366.402 146.378 389.909 134.728 389.909 134.728 383.253 118.918 383.253 118.918 374.932 106.437 374.932 106.437 406.593 215.022 406.593"/><path class="cls-20" d="M181.2,364.039H159.978c-.081,0-.084,11.051,0,11.051H181.2c.081,0,.084-11.051,0-11.051Z"/><path class="cls-20" d="M171.212,371.528h-18.1c-.081,0-.084,11.051,0,11.051h18.1c.081,0,.084-11.051,0-11.051Z"/><path class="cls-20" d="M176.828,381.513c-4.069-.015-8.612-1.075-12.481.624a11.627,11.627,0,0,0-.039,1.618c-.014,1.3-.017,2.605-.016,3.908s0,2.6.016,3.907a14.651,14.651,0,0,1,.039,1.618c3.869-1.7,8.412-.639,12.481-.624.068,0,.1-11.051,0-11.051Z"/><path class="cls-20" d="M123.782,382.137h-13.73c-.081,0-.084,11.051,0,11.051h13.73c.081,0,.084-11.051,0-11.051Z"/><path class="cls-20" d="M111.924,375.272H95.7c-.081,0-.084,11.051,0,11.051h16.226c.081,0,.084-11.051,0-11.051Z"/><path class="cls-20" d="M183.693,389.444H194.3c.081,0,.084-11.052,0-11.052h-10.61c-.081,0-.084,11.052,0,11.052Z"/><path class="cls-20" d="M141.88,395.243h-9.96c-1.562,0-3.131.045-4.693-.007a10.3,10.3,0,0,0-2.206-.028,10.538,10.538,0,0,1-1.878.55v11.051a4.778,4.778,0,0,1,1.887-.515c.332-.023-.168-11.04,0-11.051a4.754,4.754,0,0,0-1.887.515,10.754,10.754,0,0,0-.039,1.618c-.014,1.3-.017,2.605-.016,3.908,0,.4,0,5.526.055,5.525a10.534,10.534,0,0,0,1.878-.549,10.367,10.367,0,0,1,2.206.027c1.562.052,3.131.007,4.693.007h9.96c.081,0,.084-11.051,0-11.051Z"/><path class="cls-20" d="M100.691,392.122H78.848c-.081,0-.084,11.052,0,11.052h21.843c.081,0,.084-11.052,0-11.052Z"/><path class="cls-20" d="M210.945,389.834H189.31c-.081,0-.084,11.051,0,11.051h21.635c.081,0,.084-11.051,0-11.051Z"/><path class="cls-20" d="M124.406,392.33H98.61c-.081,0-.084,11.052,0,11.052h25.8c.081,0,.084-11.052,0-11.052Z"/><path class="cls-20" d="M191.806,390.25c-4.081,0-8.229.217-12.3-.049-1.308-.085-2.617-.2-3.929-.171-.974.021-2.435.009-3.115.844a6.867,6.867,0,0,0-.039,1.618c-.014,1.3-.017,2.6-.016,3.908s0,2.605.016,3.907c0,.287.187,1.436.039,1.618.66-.81,2.056-.813,3-.841,1.349-.039,2.695.081,4.04.169,4.073.266,8.221.048,12.3.048.082,0,.085-11.051,0-11.051Z"/><path class="cls-20" d="M153.737,394.619H125.03c-.081,0-.084,11.051,0,11.051h28.707c.082,0,.085-11.051,0-11.051Z"/><polyline class="cls-17" points="188.136 377.596 188.136 368.434 201.6 368.434 201.6 362.45 216.428 362.45 216.428 357.873 228.077 357.873 228.077 349.968 240.143 349.968 240.143 342.895 273.843 342.895 273.843 349.552 288.405 349.552 288.405 369.939 300.887 369.939 300.887 364.114 313.784 364.114 313.784 355.793 335.935 355.793 335.935 364.114 342.076 364.114 342.076 383.253 334.171 383.253 334.171 374.515 327.098 374.515 327.098 366.402 320.857 366.402 320.857 374.932 308.376 374.932 308.376 383.253 292.566 383.253 292.566 389.909 280.916 389.909 280.916 366.402 268.434 366.402 268.434 358.289 244.303 358.289 244.303 369.939 225.997 369.939 225.997 377.844 213.932 377.844"/><rect class="cls-18" x="145.027" y="390.577" width="47.638" height="8.111"/><rect class="cls-18" x="194.414" y="383.269" width="23.819" height="8.111"/><polygon class="cls-19" points="212.272 406.593 213.932 377.844 225.997 377.844 225.997 369.939 244.303 369.939 244.303 358.289 268.434 358.289 268.434 366.402 280.916 366.402 280.916 389.909 292.566 389.909 292.566 383.253 308.376 383.253 308.376 374.932 320.857 374.932 320.857 406.593 212.272 406.593"/><path class="cls-20" d="M246.1,375.09h21.219c.081,0,.084-11.051,0-11.051H246.1c-.081,0-.084,11.051,0,11.051Z"/><path class="cls-20" d="M256.082,382.579h18.1c.082,0,.085-11.051,0-11.051h-18.1c-.081,0-.084,11.051,0,11.051Z"/><path class="cls-20" d="M250.465,392.564c4.069-.015,8.612-1.075,12.482.624-.019-.008.042-1.86.039-1.618.014-1.3.017-2.605.016-3.907s0-2.605-.016-3.908a7.122,7.122,0,0,0-.039-1.618c-3.87-1.7-8.413-.639-12.482-.624-.094,0-.07,11.052,0,11.051Z"/><path class="cls-20" d="M303.512,393.188h13.73c.081,0,.084-11.051,0-11.051h-13.73c-.081,0-.084,11.051,0,11.051Z"/><path class="cls-20" d="M315.37,386.323H331.6c.081,0,.084-11.051,0-11.051H315.37c-.082,0-.085,11.051,0,11.051Z"/><path class="cls-20" d="M243.6,378.392h-10.61c-.081,0-.084,11.052,0,11.052H243.6c.081,0,.084-11.052,0-11.052Z"/><path class="cls-20" d="M285.414,406.294h9.959c1.563,0,3.132.045,4.693-.007a10.313,10.313,0,0,1,2.207-.027,10.534,10.534,0,0,0,1.878.549c.058,0,.055-5.113.055-5.525,0-1.3,0-2.605-.016-3.908a6.645,6.645,0,0,0-.039-1.618,4.778,4.778,0,0,0-1.887-.515c.171.011-.336,11.028,0,11.051a4.792,4.792,0,0,1,1.887.515V395.758a10.538,10.538,0,0,1-1.878-.55,10.312,10.312,0,0,0-2.207.028c-1.561.052-3.13.007-4.693.007h-9.959c-.081,0-.084,11.051,0,11.051Z"/><path class="cls-20" d="M326.6,403.174h21.843c.081,0,.084-11.052,0-11.052H326.6c-.081,0-.084,11.052,0,11.052Z"/><path class="cls-20" d="M216.349,400.885h21.635c.081,0,.084-11.051,0-11.051H216.349c-.081,0-.084,11.051,0,11.051Z"/><path class="cls-20" d="M302.888,403.382h25.8c.082,0,.085-11.052,0-11.052h-25.8c-.081,0-.084,11.052,0,11.052Z"/><path class="cls-20" d="M235.487,401.3c4.082,0,8.23.218,12.3-.048,1.308-.086,2.617-.2,3.929-.172.974.021,2.435.009,3.115.844a9.966,9.966,0,0,1,.039-1.618c.014-1.3.017-2.605.016-3.907s0-2.6-.016-3.908c0-.326.152-1.384-.039-1.618-.66-.811-2.056-.814-3-.841-1.349-.039-2.7.081-4.04.168-4.073.266-8.221.049-12.3.049-.081,0-.084,11.051,0,11.051Z"/><path class="cls-20" d="M273.556,405.67h28.708c.081,0,.084-11.051,0-11.051H273.556c-.081,0-.084,11.051,0,11.051Z"/><rect class="cls-4" x="267.427" y="90.887" width="59.399" height="7.57" transform="translate(594.253 189.344) rotate(-180)"/><rect class="cls-4" x="209.222" y="83.482" width="58.205" height="15.211" transform="translate(476.649 182.175) rotate(-180)"/><rect class="cls-5" x="267.427" y="83.482" width="48.205" height="7.405" transform="translate(583.059 174.369) rotate(-180)"/><rect class="cls-5" x="130.957" y="83.401" width="78.265" height="7.405" transform="translate(340.179 174.207) rotate(-180)"/><rect class="cls-4" x="130.957" y="90.889" width="78.265" height="7.405" transform="translate(340.179 189.182) rotate(-180)"/><rect class="cls-4" x="131.914" y="98.292" width="19.102" height="7.405" transform="translate(282.931 203.988) rotate(-180)"/><rect class="cls-4" x="217.843" y="23.407" width="12.924" height="56.29" transform="translate(448.61 103.104) rotate(-180)"/><rect class="cls-5" x="228.384" y="31.625" width="9.593" height="48.073" transform="translate(466.361 111.322) rotate(-180)"/><rect class="cls-5" x="209.222" y="75.995" width="58.205" height="7.405" transform="translate(476.649 159.395) rotate(-180)"/><rect class="cls-17" x="150.451" y="74.369" width="17.034" height="8.948" transform="translate(317.936 157.686) rotate(-180)"/><rect class="cls-17" x="167.872" y="65.069" width="17.034" height="8.948" transform="translate(352.778 139.087) rotate(-180)"/><rect class="cls-17" x="184.906" y="56.122" width="8.948" height="8.948" transform="translate(378.759 121.191) rotate(-180)"/><rect class="cls-17" x="194.485" y="47.519" width="8.948" height="8.948" transform="translate(397.918 103.987) rotate(-180)"/><rect class="cls-17" x="200.274" y="38.572" width="8.948" height="8.948" transform="translate(409.496 86.091) rotate(-180)"/><rect class="cls-17" x="209.393" y="29.452" width="8.948" height="8.948" transform="translate(427.734 67.853) rotate(-180)"/><rect class="cls-17" x="287.849" y="74.369" width="17.034" height="8.948"/><rect class="cls-17" x="270.428" y="65.069" width="17.034" height="8.948"/><rect class="cls-17" x="261.48" y="56.122" width="8.948" height="8.948"/><rect class="cls-17" x="251.901" y="47.519" width="8.948" height="8.948"/><rect class="cls-17" x="246.112" y="38.572" width="8.948" height="8.948"/><rect class="cls-17" x="236.993" y="29.452" width="8.948" height="8.948"/><rect class="cls-2" x="310.818" y="115.424" width="13.734" height="13.734"/><rect class="cls-2" x="316.371" y="132.156" width="13.734" height="13.734"/><rect class="cls-2" x="318.79" y="145.891" width="13.734" height="13.734"/><rect class="cls-2" x="318.79" y="159.625" width="13.734" height="13.734"/><rect class="cls-2" x="323.29" y="171.09" width="13.734" height="13.734"/><rect class="cls-3" x="327.484" y="184.825" width="13.734" height="13.734"/><rect class="cls-3" x="329.088" y="197.964" width="13.734" height="13.734"/></g></g></svg>