<svg xmlns="http://www.w3.org/2000/svg" viewBox="0 0 430 430"><defs><style>.cls-1{fill:none;}.cls-2{fill:#523c4e;}.cls-3{fill:#2a2a3a;}.cls-4{fill:#814d3f;}.cls-5{fill:#ad6e60;}.cls-6{fill:#fff;}.cls-7,.cls-8{fill:#66353f;}.cls-8{opacity:0.52;}</style></defs><g id="Layer_2" data-name="Layer 2"><g id="Layer_1-2" data-name="Layer 1"><rect class="cls-1" width="430" height="430"/><polygon class="cls-2" points="210.829 249.605 210.829 90.887 220.573 90.887 220.573 105.696 230.429 105.696 230.429 120.57 230.429 141.402 242.534 141.402 242.534 169.115 242.534 195.503 248.807 195.503 248.807 209.711 254.93 209.711 254.93 260.457 210.829 249.605"/><polygon class="cls-3" points="220.778 142.489 230.429 142.489 230.429 192.665 238.12 192.665 238.12 226.17 246.576 226.17 246.576 248.759 216.088 248.759 220.778 142.489"/><polygon class="cls-2" points="200.849 249.606 200.849 90.887 190.771 90.887 190.771 105.696 180.576 105.696 180.576 120.571 180.576 141.402 168.055 141.402 168.055 169.115 168.055 195.503 161.567 195.503 161.567 209.712 155.233 209.712 155.233 260.457 200.849 249.606"/><polygon class="cls-3" points="162.573 254.362 162.573 234.076 173.586 234.076 173.586 217.849 190.62 217.849 190.62 198.244 190.62 178.168 200.849 178.168 200.849 261.98 162.573 254.362"/><rect class="cls-4" x="93.174" y="75.912" width="69.399" height="7.57"/><rect class="cls-4" x="162.573" y="83.482" width="58.205" height="7.405"/><rect class="cls-5" x="104.368" y="68.508" width="58.205" height="7.405"/><rect class="cls-5" x="220.778" y="83.4" width="58.205" height="7.405"/><rect class="cls-4" x="220.778" y="90.887" width="58.205" height="7.405"/><rect class="cls-4" x="278.983" y="98.292" width="29.102" height="7.405"/><rect class="cls-4" x="207.854" y="23.407" width="12.924" height="238.573"/><rect class="cls-5" x="200.644" y="31.625" width="9.593" height="221.728"/><rect class="cls-5" x="162.573" y="75.995" width="58.205" height="7.405"/><rect class="cls-6" x="139.506" y="59.56" width="17.034" height="8.948"/><rect class="cls-6" x="262.515" y="74.369" width="17.034" height="8.948"/><rect class="cls-6" x="156.539" y="50.612" width="17.034" height="8.948"/><rect class="cls-6" x="245.094" y="65.069" width="17.034" height="8.948"/><rect class="cls-6" x="173.586" y="41.664" width="17.034" height="8.948"/><rect class="cls-6" x="191.245" y="32.698" width="8.948" height="8.948"/><rect class="cls-6" x="236.146" y="56.122" width="8.948" height="8.948"/><rect class="cls-6" x="226.567" y="47.519" width="8.948" height="8.948"/><rect class="cls-6" x="220.778" y="38.572" width="8.948" height="8.948"/><path class="cls-4" d="M95.353,256.831h32.478c.066,0,.068-8.986,0-8.986H95.353c-.066,0-.068,8.986,0,8.986Z"/><path class="cls-4" d="M121.741,264.951H263.479c.066,0,.068-8.987,0-8.987h-.665c-.066,0-.068,8.987,0,8.987h.665c.066,0,.068-8.987,0-8.987H121.741c-.066,0-.068,8.987,0,8.987Z"/><path class="cls-4" d="M253.68,275.1h76.143c3.12,0,6.237-.052,9.351.143,2.765.174,5.657.443,8.36-.317.228-.064.046-4.107.045-4.493,0-1.059,0-2.118-.013-3.177a5.348,5.348,0,0,0-.032-1.316,2.62,2.62,0,0,0-2.512-1.856c.239.024-.372,8.948,0,8.986a2.618,2.618,0,0,1,2.512,1.856V265.94a22.354,22.354,0,0,1-7.376.379c-2.639-.158-5.256-.205-7.9-.205H253.68c-.066,0-.069,8.986,0,8.986Z"/><path class="cls-5" d="M155.233,257.846H257.74c.066,0,.068-8.986,0-8.986H155.233c-.066,0-.068,8.986,0,8.986Z"/><path class="cls-3" d="M265.859,264.517h75.1"/><path class="cls-5" d="M346.545,257.994H324.217c-.066,0-.069,8.986,0,8.986h22.328c.066,0,.068-8.986,0-8.986Z"/><path class="cls-5" d="M314.575,257.487H304.426c-.066,0-.069,8.986,0,8.986h10.149c.066,0,.068-8.986,0-8.986Z"/><rect class="cls-7" x="204.387" y="264.722" width="42.189" height="10.06"/><rect class="cls-7" x="214.866" y="273.654" width="11.701" height="51.089"/><rect class="cls-7" x="204.387" y="273.654" width="11.701" height="51.089"/><polygon class="cls-4" points="74.388 285.728 88.596 285.728 88.596 297.523 128.178 297.523 128.178 313.249 226.625 313.249 226.625 285.728 254.028 285.728 254.028 273.084 307.818 273.084 307.818 262.935 322.027 262.935 322.027 251.404 331.161 251.404 331.161 230.181 343.34 230.181 343.34 205.285 354.504 205.285 354.504 194.572 364.653 194.572 364.653 206.367 353.489 206.367 353.489 229.443 343.34 230.181 343.34 251.433 331.161 251.404 331.161 262.935 331.161 281.797 346.047 281.797 346.047 328.566 332.514 328.566 332.514 352.248 321.689 352.248 321.689 377.966 310.863 377.966 310.863 389.761 142.387 389.761 142.387 374.035 119.382 374.035 119.382 366.172 105.85 366.172 105.85 341.422 94.348 341.422 94.348 329.243 80.815 329.243 80.815 309.317 65.93 309.317 65.93 285.728 74.388 285.728"/><path class="cls-5" d="M137.98,320.264H207c.066,0,.069-8.987,0-8.987H137.98c-.066,0-.069,8.987,0,8.987Z"/><path class="cls-5" d="M238.456,308.085h83.731c.066,0,.068-8.987,0-8.987H238.456c-.066,0-.068,8.987,0,8.987Z"/><path class="cls-5" d="M302.4,283.727h22.836c.066,0,.068-8.987,0-8.987H302.4c-.066,0-.069,8.987,0,8.987Z"/><path class="cls-5" d="M259.769,276.115H302.4c.066,0,.068-8.987,0-8.987H259.769c-.066,0-.068,8.987,0,8.987Z"/><path class="cls-5" d="M290.217,330.92h47.194c.066,0,.068-8.986,0-8.986H290.217c-.066,0-.069,8.986,0,8.986Z"/><path class="cls-5" d="M109.055,346.144H221.71c.066,0,.069-8.986,0-8.986H109.055c-.066,0-.069,8.986,0,8.986Z"/><path class="cls-5" d="M249.113,350.711h71.551c.066,0,.069-8.986,0-8.986H249.113c-.066,0-.069,8.986,0,8.986Z"/><path class="cls-7" d="M302.4,370.65h-156.8c-.066,0-.069,8.986,0,8.986H302.4c.066,0,.068-8.986,0-8.986Z"/><path class="cls-7" d="M121.234,373.547h24.358c.066,0,.068-8.987,0-8.987H121.234c-.066,0-.069,8.987,0,8.987Z"/><path class="cls-5" d="M65.347,297.235H84.069c.081,0,.084-11.051,0-11.051H65.347c-.082,0-.085,11.051,0,11.051Z"/><path class="cls-7" d="M78.452,312.213H93.43c.081,0,.084-11.051,0-11.051H78.452c-.081,0-.084,11.051,0,11.051Z"/><path class="cls-7" d="M254.7,282.2h45.671c.066,0,.069-8.986,0-8.986H254.7c-.066,0-.069,8.986,0,8.986Z"/><path class="cls-7" d="M287.172,318.889H274.993c-.066,0-.068,8.986,0,8.986h12.179c.066,0,.069-8.986,0-8.986Z"/><path class="cls-7" d="M241.5,318.889H229.322c-.066,0-.068,8.986,0,8.986H241.5c.066,0,.069-8.986,0-8.986Z"/><path class="cls-7" d="M125.8,324.979H109.055c-.066,0-.069,8.986,0,8.986H125.8c.066,0,.068-8.986,0-8.986Z"/><polygon class="cls-8" points="105.85 341.422 105.85 323.382 127.831 323.382 127.831 297.523 88.596 297.523 88.596 285.728 65.93 285.728 65.93 309.317 80.815 309.317 80.815 329.243 94.348 329.243 94.348 341.422 105.85 341.422"/><polyline class="cls-8" points="127.831 323.382 147.078 323.382 147.078 366.402 185.758 366.402 185.758 389.535 142.387 389.535 142.387 374.035 119.382 374.035 119.382 366.172 105.85 366.172 105.85 323.382"/></g></g></svg>