<svg xmlns="http://www.w3.org/2000/svg" viewBox="0 0 430 430"><defs><style>.cls-1{fill:none;}.cls-2{fill:#814d3f;}.cls-3{fill:#ad6e60;}.cls-4{fill:#fff;}.cls-5{fill:#523c4e;}.cls-26,.cls-6{fill:#2a2a3a;}.cls-21,.cls-7{fill:#66353f;}.cls-12,.cls-8{fill:#e5720a;}.cls-9{fill:#f49549;}.cls-10{fill:#ffb776;}.cls-11,.cls-12{opacity:0.64;}.cls-13{fill:#f7d0b0;}.cls-14{fill:#332e5a;}.cls-15{fill:#fdf4f0;}.cls-16{fill:#3b2646;}.cls-17{fill:#584562;}.cls-18{fill:#1c042b;}.cls-19{fill:#4d4d4d;}.cls-20{fill:#283358;}.cls-21{opacity:0.52;}.cls-22{fill:#77b1d7;}.cls-23{fill:#456c93;}.cls-24{fill:#455093;}.cls-25{fill:#ffae49;}.cls-26{opacity:0.34;}</style></defs><g id="Layer_2" data-name="Layer 2"><g id="Layer_1-2" data-name="Layer 1"><rect class="cls-1" width="430" height="430" transform="translate(430 430) rotate(-180)"/><rect class="cls-2" x="267.427" y="75.912" width="69.399" height="7.57" transform="translate(604.253 159.395) rotate(-180)"/><rect class="cls-2" x="209.222" y="83.482" width="58.205" height="7.405" transform="translate(476.649 174.369) rotate(-180)"/><rect class="cls-3" x="267.427" y="68.508" width="58.205" height="7.405" transform="translate(593.059 144.42) rotate(-180)"/><rect class="cls-3" x="151.017" y="83.4" width="58.205" height="7.405" transform="translate(360.239 174.204) rotate(-180)"/><rect class="cls-2" x="151.017" y="90.887" width="58.205" height="7.405" transform="translate(360.239 189.179) rotate(-180)"/><rect class="cls-2" x="121.914" y="98.292" width="29.102" height="7.405" transform="translate(272.931 203.988) rotate(-180)"/><rect class="cls-2" x="209.222" y="23.407" width="12.924" height="56.29" transform="translate(431.368 103.104) rotate(-180)"/><rect class="cls-3" x="219.763" y="31.625" width="9.593" height="48.073" transform="translate(449.119 111.322) rotate(-180)"/><rect class="cls-3" x="209.222" y="75.995" width="58.205" height="7.405" transform="translate(476.649 159.395) rotate(-180)"/><rect class="cls-4" x="273.461" y="59.56" width="17.034" height="8.948" transform="translate(563.955 128.068) rotate(-180)"/><rect class="cls-4" x="150.451" y="74.369" width="17.034" height="8.948" transform="translate(317.936 157.686) rotate(-180)"/><rect class="cls-4" x="256.427" y="50.612" width="17.034" height="8.948" transform="translate(529.887 110.172) rotate(-180)"/><rect class="cls-4" x="167.872" y="65.069" width="17.034" height="8.948" transform="translate(352.778 139.087) rotate(-180)"/><rect class="cls-4" x="239.38" y="41.664" width="17.034" height="8.948" transform="translate(495.794 92.277) rotate(-180)"/><rect class="cls-4" x="229.807" y="32.698" width="8.948" height="8.948" transform="translate(468.563 74.344) rotate(-180)"/><rect class="cls-4" x="184.906" y="56.122" width="8.948" height="8.948" transform="translate(378.759 121.191) rotate(-180)"/><rect class="cls-4" x="194.485" y="47.519" width="8.948" height="8.948" transform="translate(397.918 103.987) rotate(-180)"/><rect class="cls-4" x="200.274" y="38.572" width="8.948" height="8.948" transform="translate(409.496 86.091) rotate(-180)"/><polygon class="cls-5" points="317.166 83.482 317.166 92.609 307.279 92.609 307.279 109.34 300.434 109.34 300.434 141.282 291.308 141.282 291.308 191.525 298.913 191.525 298.913 213.705 309.561 213.705 309.561 231.993 317.166 231.993 317.166 240.831 327.053 240.831 327.053 248.859 300.434 248.859 300.434 257.697 168.863 257.697 168.863 266.535 117.908 266.535 92.811 266.535 92.811 272.853 83.684 272.853 83.684 258.507 73.037 258.507 73.037 206.591 85.966 206.591 85.966 180.58 93.571 180.58 93.571 165.619 100.416 165.619 100.416 147.899 109.542 147.899 109.542 132.156 117.908 132.156 117.908 115.424 125.513 115.424 125.513 106.298 136.161 106.298 136.161 98.693 200.045 98.693 200.045 89.567 266.211 89.567 317.166 83.482"/><polygon class="cls-5" points="267.225 95.144 267.225 83.482 317.166 83.482 267.225 95.144"/><polygon class="cls-6" points="278.038 83.482 278.038 178.168 258.38 178.168 258.38 189.413 237.39 189.413 237.39 198.181 204.748 198.181 204.748 210.727 152.23 210.727 152.23 198.181 108.984 198.181 108.984 182.309 85.966 182.309 85.966 206.591 73.037 206.591 73.037 258.507 83.684 258.507 82.466 270.433 167.956 270.433 167.956 257.697 300.434 257.697 300.434 248.859 327.053 248.859 327.053 240.831 317.166 240.831 317.166 231.993 309.561 231.993 309.561 213.705 298.913 213.705 298.913 191.525 291.308 191.525 291.308 141.282 300.434 141.282 300.434 109.34 307.279 109.34 307.279 92.609 317.166 92.609 317.166 83.482 278.038 83.482"/><path class="cls-2" d="M334.647,247.845H302.169c-.066,0-.068,8.986,0,8.986h32.478c.066,0,.068-8.986,0-8.986Z"/><path class="cls-2" d="M308.259,255.964H166.521c-.066,0-.068,8.987,0,8.987h.665c.066,0,.068-8.987,0-8.987h-.665v8.987H308.259c.066,0,.068-8.987,0-8.987Z"/><path class="cls-3" d="M274.767,248.86H172.26c-.066,0-.068,8.986,0,8.986H274.767c.066,0,.068-8.986,0-8.986Z"/><path class="cls-6" d="M164.141,264.517h-75.1"/><path class="cls-6" d="M151.962,200h8.119c.066,0,.069-8.986,0-8.986h-8.119c-.066,0-.068,8.986,0,8.986Z"/><path class="cls-6" d="M159.066,193.907h8.12c.066,0,.068-8.987,0-8.987h-8.12c-.066,0-.068,8.987,0,8.987Z"/><path class="cls-6" d="M167.186,186.8h9.134c.066,0,.069-8.986,0-8.986h-9.134c-.066,0-.069,8.986,0,8.986Z"/><path class="cls-6" d="M107.306,184.772h9.134c.066,0,.068-8.986,0-8.986h-9.134c-.066,0-.069,8.986,0,8.986Z"/><path class="cls-6" d="M115.425,178.683H120.5c.066,0,.068-8.986,0-8.986h-5.075c-.066,0-.068,8.986,0,8.986Z"/><path class="cls-6" d="M119.485,173.608H127.6c.066,0,.069-8.986,0-8.986h-8.119c-.066,0-.069,8.986,0,8.986Z"/><path class="cls-6" d="M127.6,167.519h9.134c.066,0,.069-8.987,0-8.987H127.6c-.066,0-.068,8.987,0,8.987Z"/><path class="cls-6" d="M183.424,214.205h7.1c.066,0,.068-8.986,0-8.986h-7.1c-.066,0-.068,8.986,0,8.986Z"/><path class="cls-6" d="M135.723,160.414h8.12c.066,0,.068-8.986,0-8.986h-8.12c-.066,0-.068,8.986,0,8.986Z"/><rect class="cls-7" x="183.424" y="264.722" width="42.189" height="10.06" transform="translate(409.038 539.503) rotate(-180)"/><rect class="cls-7" x="203.433" y="273.654" width="11.701" height="51.089" transform="translate(418.567 598.397) rotate(-180)"/><rect class="cls-7" x="213.912" y="273.654" width="11.701" height="51.089" transform="translate(439.525 598.397) rotate(-180)"/><path class="cls-3" d="M127.6,274.74H104.768c-.066,0-.068,8.987,0,8.987H127.6c.066,0,.069-8.987,0-8.987Z"/><path class="cls-3" d="M170.231,267.128H127.6c-.066,0-.068,8.987,0,8.987h42.627c.066,0,.068-8.987,0-8.987Z"/><path class="cls-7" d="M175.305,273.218H129.634c-.066,0-.069,8.986,0,8.986h45.671c.066,0,.069-8.986,0-8.986Z"/><polygon class="cls-8" points="317.055 233.574 310.046 233.574 310.046 226.565 303.037 226.565 303.037 219.556 296.028 219.556 296.028 212.547 287.847 212.547 287.847 205.538 225.068 205.538 225.068 212.547 218.059 212.547 218.059 219.556 211.05 219.556 211.05 226.565 204.041 226.565 204.041 233.574 197.033 233.574 197.033 297.441 204.041 297.441 204.041 301.9 211.05 301.9 211.05 308.908 218.059 308.908 218.059 315.917 226.24 315.917 226.24 322.926 289.019 322.926 289.019 315.917 296.028 315.917 296.028 308.908 303.037 308.908 303.037 301.9 310.046 301.9 310.046 297.441 317.055 297.441 317.055 233.574"/><polygon class="cls-9" points="317.055 246.912 310.046 246.912 310.046 239.903 303.037 239.903 303.037 232.894 296.028 232.894 296.028 225.885 287.847 225.885 287.847 218.877 225.068 218.877 225.068 225.885 218.059 225.885 218.059 232.894 211.05 232.894 211.05 239.903 204.041 239.903 204.041 246.912 197.033 246.912 197.033 310.779 204.041 310.779 204.041 315.238 211.05 315.238 211.05 322.247 218.059 322.247 218.059 329.255 226.24 329.255 226.24 336.264 289.019 336.264 289.019 329.255 296.028 329.255 296.028 322.247 303.037 322.247 303.037 315.238 310.046 315.238 310.046 310.779 317.055 310.779 317.055 246.912"/><path class="cls-10" d="M233.972,223.051h48.8c.032,0,.033-4.355,0-4.355h-1.252c-.032,0-.033,4.355,0,4.355h1.252V218.7h-48.8c-.032,0-.033,4.355,0,4.355Z"/><path class="cls-10" d="M231.759,226h53.2c.032,0,.033-4.355,0-4.355h-.486c-.032,0-.033,4.355,0,4.355h.486c.032,0,.033-4.355,0-4.355h-53.2c-.032,0-.033,4.355,0,4.355Z"/><path class="cls-10" d="M229.546,226.7H284.47c.064,0,.066-8.71,0-8.71H229.546c-.064,0-.067,8.71,0,8.71Z"/><path class="cls-10" d="M214.053,241.459h15.493c.064,0,.066-8.71,0-8.71H214.053c-.064,0-.067,8.71,0,8.71Z"/><path class="cls-10" d="M206.675,246.624h16.231c.064,0,.066-8.71,0-8.71H206.675c-.064,0-.067,8.71,0,8.71Z"/><path class="cls-10" d="M285.945,239.984h13.28c.064,0,.067-8.71,0-8.71h-13.28c-.064,0-.066,8.71,0,8.71Z"/><path class="cls-10" d="M292.585,247.361h14.756c.064,0,.066-8.71,0-8.71H292.585c-.064,0-.066,8.71,0,8.71Z"/><path class="cls-10" d="M238.4,317.45h40.169c.064,0,.066-8.71,0-8.71H238.4c-.064,0-.066,8.71,0,8.71Z"/><path class="cls-10" d="M276.354,309.334h8.116c.064,0,.066-8.71,0-8.71h-8.116c-.064,0-.066,8.71,0,8.71Z"/><path class="cls-10" d="M231.021,309.334H244.3c.064,0,.067-8.71,0-8.71h-13.28c-.064,0-.066,8.71,0,8.71Z"/><g class="cls-11"><path class="cls-8" d="M227.537,336.632h58.894v-8.71h-.486c-.064,0-.066,8.71,0,8.71h.486c.064,0,.067-8.71,0-8.71H227.537c-.064,0-.066,8.71,0,8.71Z"/></g><g class="cls-11"><path class="cls-8" d="M286.683,329.992h8.853c.064,0,.067-8.71,0-8.71h-8.853c-.064,0-.066,8.71,0,8.71Z"/></g><g class="cls-11"><path class="cls-8" d="M296.274,323.352h6.64c.064,0,.067-8.71,0-8.71h-6.64c-.064,0-.066,8.71,0,8.71Z"/></g><g class="cls-11"><path class="cls-8" d="M219.217,332.205H232.5c.064,0,.066-8.71,0-8.71h-13.28c-.064,0-.066,8.71,0,8.71Z"/></g><g class="cls-11"><path class="cls-8" d="M208.888,322.614h11.8c.064,0,.067-8.71,0-8.71h-11.8c-.064,0-.066,8.71,0,8.71Z"/></g><g class="cls-11"><path class="cls-8" d="M237.661,235.557h40.655c.064,0,.066-8.71,0-8.71h-.486c-.064,0-.067,8.71,0,8.71h.486v-8.71H237.661c-.064,0-.066,8.71,0,8.71Z"/></g><rect class="cls-12" x="214.79" y="255.437" width="8.115" height="44.266"/><rect class="cls-12" x="290.536" y="255.437" width="8.115" height="44.266"/><path class="cls-13" d="M245.777,226.7h27.4v-8.71h-1.25c-.064,0-.067,8.71,0,8.71h1.25c.064,0,.066-8.71,0-8.71h-27.4c-.064,0-.067,8.71,0,8.71Z"/><path class="cls-13" d="M211.1,242.935h6.64c.064,0,.067-8.71,0-8.71H211.1c-.064,0-.066,8.71,0,8.71Z"/><path class="cls-13" d="M289.634,239.984h10.329c.064,0,.066-8.71,0-8.71H289.634c-.064,0-.066,8.71,0,8.71Z"/><path class="cls-13" d="M244.3,317.45h31.316c.064,0,.066-8.71,0-8.71H244.3c-.064,0-.066,8.71,0,8.71Z"/><rect class="cls-14" x="251.596" y="297.101" width="6.176" height="6.176"/><rect class="cls-14" x="257.772" y="297.101" width="6.176" height="6.176"/><rect class="cls-14" x="262.778" y="294.013" width="6.176" height="6.176"/><rect class="cls-15" x="221.493" y="262.225" width="26.311" height="26.311"/><rect class="cls-15" x="221.493" y="288.536" width="22.143" height="3.908"/><rect class="cls-15" x="217.325" y="267.559" width="13.025" height="18.565"/><rect class="cls-15" x="227.746" y="270.822" width="7.034" height="13.286"/><rect x="268.954" y="258.317" width="25.64" height="9.242"/><rect x="264.525" y="267.559" width="34.126" height="11.859"/><rect x="266.338" y="278.048" width="28.656" height="6.06"/><rect x="268.954" y="279.418" width="22.664" height="9.118"/><rect x="263.733" y="264.002" width="16.933" height="15.417"/><rect x="269.084" y="276.944" width="8.336" height="6.643"/><rect class="cls-8" x="195.309" y="247.416" width="7.099" height="65.679"/><rect class="cls-8" x="311.286" y="246.159" width="7.099" height="65.679"/><rect class="cls-16" x="197.033" y="239.544" width="121.352" height="6.925"/><rect class="cls-16" x="197.033" y="231.202" width="121.352" height="9.146" transform="translate(515.417 471.55) rotate(-180)"/><rect class="cls-16" x="202.408" y="222.349" width="110.601" height="9.146" transform="translate(515.417 453.843) rotate(180)"/><rect class="cls-16" x="209.813" y="214.988" width="95.79" height="9.146" transform="translate(515.417 439.122) rotate(180)"/><rect class="cls-16" x="212.38" y="205.842" width="90.657" height="9.146" transform="translate(515.417 420.83) rotate(180)"/><rect class="cls-16" x="224.307" y="200.258" width="66.803" height="9.146" transform="translate(515.417 409.662) rotate(180)"/><rect class="cls-17" x="313.009" y="244.566" width="11.784" height="11.784"/><rect class="cls-16" x="324.793" y="244.566" width="11.784" height="11.784"/><rect class="cls-16" x="324.793" y="256.333" width="11.784" height="11.784"/><rect class="cls-16" x="334.691" y="262.225" width="11.784" height="11.784"/><rect class="cls-16" x="344.274" y="262.225" width="11.784" height="11.784"/><rect class="cls-17" x="313.009" y="256.333" width="11.784" height="11.784"/><rect class="cls-17" x="324.793" y="267.597" width="11.784" height="11.784"/><rect class="cls-17" x="324.793" y="277.694" width="11.784" height="11.784"/><path class="cls-17" d="M241.74,244.869h64.63c.046,0,.048-6.286,0-6.286h-1.808c-.046,0-.048,6.286,0,6.286h1.808v-6.286H241.74c-.046,0-.048,6.286,0,6.286Z"/><path class="cls-17" d="M230.028,238.48H282.9V232.2h-.7c-.046,0-.048,6.285,0,6.285h.7c.046,0,.048-6.285,0-6.285H230.028c-.047,0-.048,6.285,0,6.285Z"/><path class="cls-18" d="M230.024,207.974h54.3c.046,0,.048-6.285,0-6.285h-54.3c-.046,0-.048,6.285,0,6.285Z"/><path class="cls-18" d="M205.538,224.638h41.526c.046,0,.048-6.285,0-6.285H205.538c-.047,0-.048,6.285,0,6.285Z"/><path class="cls-18" d="M269.424,211.86h29.814c.046,0,.048-6.285,0-6.285H269.424c-.046,0-.047,6.285,0,6.285Z"/><path class="cls-18" d="M201.278,244.869H243.87c.046,0,.048-6.286,0-6.286H201.278c-.046,0-.047,6.286,0,6.286Z"/><rect x="263.345" y="255.437" width="8.564" height="8.564"/><rect x="258.107" y="250.2" width="8.564" height="8.564"/><rect x="298.632" y="277.465" width="8.564" height="8.564"/><rect x="305.604" y="279.825" width="8.564" height="8.564"/><rect x="309.886" y="284.107" width="8.564" height="8.564"/><rect x="253.099" y="245.192" width="8.564" height="8.564"/><path class="cls-19" d="M282.4,265.368h11.357c.047,0,.048-6.286,0-6.286H282.4c-.046,0-.048,6.286,0,6.286Z"/><path class="cls-19" d="M288.79,269h7.572c.046,0,.048-6.285,0-6.285H288.79c-.046,0-.048,6.285,0,6.285Z"/><rect class="cls-20" x="237.173" y="267.559" width="13.025" height="18.565" transform="translate(487.371 553.684) rotate(180)"/><rect class="cls-20" x="232.744" y="269.576" width="7.034" height="13.286" transform="translate(472.522 552.438) rotate(180)"/><path class="cls-2" d="M176.32,266.114H100.177c-3.12,0-6.237-.053-9.351.143-2.765.174-5.657.443-8.36-.317v8.986a2.621,2.621,0,0,1,2.512-1.856c.369-.038-.237-8.962,0-8.986a2.618,2.618,0,0,0-2.512,1.856,5.975,5.975,0,0,0-.032,1.316c-.012,1.059-.014,2.118-.013,3.177,0,.388-.228,4.417.045,4.493a22.327,22.327,0,0,0,7.376.379c2.639-.158,5.256-.2,7.9-.2H176.32c.066,0,.069-8.986,0-8.986Z"/><path class="cls-3" d="M83.455,266.98h22.328c.066,0,.069-8.986,0-8.986H83.455c-.066,0-.068,8.986,0,8.986Z"/><path class="cls-3" d="M115.425,266.473h10.149c.066,0,.069-8.986,0-8.986H115.425c-.066,0-.068,8.986,0,8.986Z"/><polygon class="cls-2" points="355.612 285.728 341.404 285.728 341.404 297.523 301.822 297.523 301.822 313.249 203.375 313.249 203.375 285.728 175.972 285.728 175.972 273.084 122.182 273.084 122.182 262.935 107.973 262.935 107.973 251.404 98.839 251.404 98.839 230.181 86.66 230.181 86.66 205.285 75.496 205.285 75.496 194.572 65.347 194.572 65.347 206.367 76.511 206.367 76.511 229.443 86.66 230.181 86.66 251.433 98.839 251.404 98.839 262.935 98.839 281.797 83.953 281.797 83.953 328.566 97.486 328.566 97.486 352.248 108.311 352.248 108.311 377.966 119.137 377.966 119.137 389.761 287.613 389.761 287.613 374.035 310.618 374.035 310.618 366.172 324.15 366.172 324.15 341.422 335.652 341.422 335.652 329.243 349.185 329.243 349.185 309.317 364.07 309.317 364.07 285.728 355.612 285.728"/><path class="cls-3" d="M292.02,311.277H223c-.066,0-.069,8.987,0,8.987H292.02c.066,0,.069-8.987,0-8.987Z"/><path class="cls-3" d="M191.544,299.1H107.813c-.066,0-.068,8.987,0,8.987h83.731c.066,0,.068-8.987,0-8.987Z"/><path class="cls-3" d="M139.783,321.934H92.589c-.066,0-.068,8.986,0,8.986h47.194c.066,0,.069-8.986,0-8.986Z"/><path class="cls-3" d="M320.945,337.158H208.29c-.066,0-.069,8.986,0,8.986H320.945c.066,0,.069-8.986,0-8.986Z"/><path class="cls-3" d="M180.887,341.725H109.336c-.066,0-.069,8.986,0,8.986h71.551c.066,0,.069-8.986,0-8.986Z"/><path class="cls-7" d="M127.6,379.636h156.8c.066,0,.069-8.986,0-8.986H127.6c-.066,0-.068,8.986,0,8.986Z"/><path class="cls-7" d="M308.766,364.56H284.408c-.066,0-.068,8.987,0,8.987h24.358c.066,0,.069-8.987,0-8.987Z"/><path class="cls-3" d="M364.653,286.184H345.931c-.081,0-.084,11.051,0,11.051h18.722c.082,0,.085-11.051,0-11.051Z"/><path class="cls-7" d="M351.548,301.162H336.57c-.081,0-.084,11.051,0,11.051h14.978c.081,0,.084-11.051,0-11.051Z"/><path class="cls-7" d="M142.828,327.875h12.179c.066,0,.068-8.986,0-8.986H142.828c-.066,0-.069,8.986,0,8.986Z"/><path class="cls-7" d="M188.5,327.875h12.179c.066,0,.068-8.986,0-8.986H188.5c-.066,0-.069,8.986,0,8.986Z"/><path class="cls-7" d="M304.2,333.965h16.746c.066,0,.069-8.986,0-8.986H304.2c-.066,0-.068,8.986,0,8.986Z"/><polygon class="cls-4" points="264.258 389.909 264.258 384.085 244.288 384.085 244.288 376.596 230.142 376.596 230.142 370.355 216.678 370.355 216.678 362.45 201.851 362.45 201.851 357.873 190.201 357.873 190.201 349.968 178.136 349.968 178.136 342.895 144.435 342.895 144.435 349.552 129.873 349.552 129.873 369.939 117.392 369.939 117.392 364.114 104.494 364.114 104.494 355.793 82.344 355.793 82.344 364.114 76.203 364.114 76.203 383.253 84.108 383.253 84.108 374.515 91.18 374.515 91.18 366.402 97.421 366.402 97.421 374.932 109.903 374.932 109.903 383.253 125.713 383.253 125.713 389.909 137.362 389.909 137.362 366.402 149.844 366.402 149.844 358.289 173.975 358.289 173.975 369.939 192.281 369.939 192.281 377.844 204.347 377.844 204.347 384.501 224.317 384.501 224.317 389.909 264.258 389.909"/><polygon class="cls-21" points="324.15 341.422 324.15 323.382 302.169 323.382 302.169 297.523 341.404 297.523 341.404 285.728 364.07 285.728 364.07 309.317 349.185 309.317 349.185 329.243 335.652 329.243 335.652 341.422 324.15 341.422"/><polyline class="cls-21" points="302.169 323.382 282.922 323.382 282.922 366.402 244.242 366.402 244.242 389.535 287.613 389.535 287.613 374.035 310.618 374.035 310.618 366.172 324.15 366.172 324.15 323.382"/><rect class="cls-22" x="225.613" y="390.577" width="47.638" height="8.111" transform="translate(498.865 789.265) rotate(-180)"/><rect class="cls-22" x="200.045" y="383.269" width="23.819" height="8.111" transform="translate(423.909 774.649) rotate(-180)"/><polygon class="cls-23" points="206.006 406.593 204.347 377.844 192.281 377.844 192.281 369.939 173.975 369.939 173.975 358.289 149.844 358.289 149.844 366.402 137.362 366.402 137.362 389.909 125.713 389.909 125.713 383.253 109.903 383.253 109.903 374.932 97.421 374.932 97.421 406.593 206.006 406.593"/><path class="cls-24" d="M172.182,364.039H150.963c-.081,0-.084,11.051,0,11.051h21.219c.081,0,.084-11.051,0-11.051Z"/><path class="cls-24" d="M162.2,371.528H144.1c-.081,0-.084,11.051,0,11.051h18.1c.082,0,.085-11.051,0-11.051Z"/><path class="cls-24" d="M167.813,381.513c-4.069-.015-8.612-1.075-12.482.624a11.786,11.786,0,0,0-.039,1.618c-.014,1.3-.016,2.605-.016,3.908s0,2.6.016,3.907a14.409,14.409,0,0,1,.039,1.618c3.87-1.7,8.413-.639,12.482-.624.068,0,.1-11.051,0-11.051Z"/><path class="cls-24" d="M114.766,382.137H101.037c-.082,0-.085,11.051,0,11.051h13.729c.081,0,.085-11.051,0-11.051Z"/><path class="cls-24" d="M102.909,375.272H86.683c-.081,0-.085,11.051,0,11.051h16.226c.081,0,.084-11.051,0-11.051Z"/><path class="cls-24" d="M174.678,389.444h10.609c.081,0,.084-11.052,0-11.052H174.678c-.081,0-.084,11.052,0,11.052Z"/><path class="cls-24" d="M132.865,395.243h-9.96c-1.562,0-3.132.045-4.693-.007a10.312,10.312,0,0,0-2.207-.028,10.5,10.5,0,0,1-1.877.55v11.051a4.769,4.769,0,0,1,1.886-.515c.333-.023-.167-11.04,0-11.051a4.749,4.749,0,0,0-1.886.515,10.754,10.754,0,0,0-.039,1.618c-.014,1.3-.017,2.605-.017,3.908,0,.4,0,5.526.056,5.525a10.5,10.5,0,0,0,1.877-.549,10.376,10.376,0,0,1,2.207.027c1.561.052,3.131.007,4.693.007h9.96c.081,0,.084-11.051,0-11.051Z"/><path class="cls-24" d="M91.675,392.122H69.833c-.082,0-.085,11.052,0,11.052H91.675c.082,0,.085-11.052,0-11.052Z"/><path class="cls-24" d="M201.929,389.834H180.3c-.082,0-.085,11.051,0,11.051h21.634c.082,0,.085-11.051,0-11.051Z"/><path class="cls-24" d="M115.39,392.33H89.6c-.081,0-.084,11.052,0,11.052h25.8c.082,0,.085-11.052,0-11.052Z"/><path class="cls-24" d="M182.791,390.25c-4.082,0-8.229.217-12.3-.049-1.308-.085-2.617-.2-3.929-.171-.974.021-2.436.009-3.116.844a6.867,6.867,0,0,0-.039,1.618c-.013,1.3-.016,2.6-.016,3.908s0,2.605.016,3.907c0,.287.188,1.436.039,1.618.66-.81,2.056-.813,3-.841,1.349-.039,2.7.081,4.041.169,4.073.266,8.221.048,12.3.048.081,0,.084-11.051,0-11.051Z"/><path class="cls-24" d="M144.722,394.619H116.014c-.081,0-.084,11.051,0,11.051h28.708c.081,0,.084-11.051,0-11.051Z"/><path class="cls-25" d="M236.861,162.5V144.478h-9.249v-8.355H208.629V118.368h-7.854v17.755h-10.3V118.368h-7.855v17.755H165.966v8.355h16.653v54.878H165.966v8.355h16.653v18.2h7.855v-18.2h10.3v18.372h7.854V207.711h18.983v-8.355h9.249v-27.8h-8.9V162.5Zm-18.024-18.025V161.5H198.33V144.478ZM198.33,199.356v-27.7h20.507v27.7Z"/><polygon class="cls-26" points="165.4 199.356 165.4 207.711 182.053 207.711 182.053 225.916 189.908 225.916 189.908 207.711 195.33 207.711 195.33 199.293 182.053 199.293 182.053 199.356 165.4 199.356"/><rect class="cls-26" x="200.209" y="211.839" width="7.855" height="14.244"/></g></g></svg>