<svg xmlns="http://www.w3.org/2000/svg" viewBox="0 0 430 430"><defs><style>.cls-1{fill:none;}.cls-2{fill:#814d3f;}.cls-3{fill:#ad6e60;}.cls-4{fill:#fff;}.cls-5{fill:#523c4e;}.cls-6,.cls-9{fill:#2a2a3a;}.cls-23,.cls-7{fill:#66353f;}.cls-8{fill:#ffae49;}.cls-9{opacity:0.34;}.cls-10,.cls-14{fill:#e5720a;}.cls-11{fill:#f49549;}.cls-12{fill:#ffb776;}.cls-13,.cls-14{opacity:0.64;}.cls-15{fill:#f7d0b0;}.cls-16{fill:#332e5a;}.cls-17{fill:#fdf4f0;}.cls-18{fill:#3b2646;}.cls-19{fill:#584562;}.cls-20{fill:#1c042b;}.cls-21{fill:#4d4d4d;}.cls-22{fill:#283358;}.cls-23{opacity:0.52;}.cls-24{fill:#77b1d7;}.cls-25{fill:#456c93;}.cls-26{fill:#455093;}</style></defs><g id="Layer_2" data-name="Layer 2"><g id="Layer_1-2" data-name="Layer 1"><rect class="cls-1" width="430" height="430"/><rect class="cls-2" x="93.174" y="75.912" width="69.399" height="7.57"/><rect class="cls-2" x="162.573" y="83.482" width="58.205" height="7.405"/><rect class="cls-3" x="104.368" y="68.508" width="58.205" height="7.405"/><rect class="cls-3" x="220.778" y="83.4" width="58.205" height="7.405"/><rect class="cls-2" x="220.778" y="90.887" width="58.205" height="7.405"/><rect class="cls-2" x="278.983" y="98.292" width="29.102" height="7.405"/><rect class="cls-2" x="207.854" y="23.407" width="12.924" height="56.29"/><rect class="cls-3" x="200.644" y="31.625" width="9.593" height="48.073"/><rect class="cls-3" x="162.573" y="75.995" width="58.205" height="7.405"/><rect class="cls-4" x="139.506" y="59.56" width="17.034" height="8.948"/><rect class="cls-4" x="262.515" y="74.369" width="17.034" height="8.948"/><rect class="cls-4" x="156.539" y="50.612" width="17.034" height="8.948"/><rect class="cls-4" x="245.094" y="65.069" width="17.034" height="8.948"/><rect class="cls-4" x="173.586" y="41.664" width="17.034" height="8.948"/><rect class="cls-4" x="191.245" y="32.698" width="8.948" height="8.948"/><rect class="cls-4" x="236.146" y="56.122" width="8.948" height="8.948"/><rect class="cls-4" x="226.567" y="47.519" width="8.948" height="8.948"/><rect class="cls-4" x="220.778" y="38.572" width="8.948" height="8.948"/><polygon class="cls-5" points="112.834 83.482 112.834 92.609 122.721 92.609 122.721 109.34 129.566 109.34 129.566 141.282 138.692 141.282 138.692 191.525 131.087 191.525 131.087 213.705 120.439 213.705 120.439 231.993 112.834 231.993 112.834 240.831 102.947 240.831 102.947 248.859 129.566 248.859 129.566 257.697 261.137 257.697 261.137 266.535 312.092 266.535 337.189 266.535 337.189 272.853 346.316 272.853 346.316 258.507 356.963 258.507 356.963 206.591 344.034 206.591 344.034 180.58 336.429 180.58 336.429 165.619 329.584 165.619 329.584 147.899 320.458 147.899 320.458 132.156 312.092 132.156 312.092 115.424 304.487 115.424 304.487 106.298 293.839 106.298 293.839 98.693 229.955 98.693 229.955 89.567 163.789 89.567 112.834 83.482"/><polygon class="cls-5" points="162.775 95.144 162.775 83.482 112.834 83.482 162.775 95.144"/><polygon class="cls-6" points="151.962 83.482 151.962 178.168 171.62 178.168 171.62 189.413 192.61 189.413 192.61 198.181 225.252 198.181 225.252 210.727 277.77 210.727 277.77 198.181 321.016 198.181 321.016 182.309 344.034 182.309 344.034 206.591 356.963 206.591 356.963 258.507 346.316 258.507 347.534 270.433 262.044 270.433 262.044 257.697 129.566 257.697 129.566 248.859 102.947 248.859 102.947 240.831 112.834 240.831 112.834 231.993 120.439 231.993 120.439 213.705 131.087 213.705 131.087 191.525 138.692 191.525 138.692 141.282 129.566 141.282 129.566 109.34 122.721 109.34 122.721 92.609 112.834 92.609 112.834 83.482 151.962 83.482"/><path class="cls-2" d="M95.353,256.831h32.478c.066,0,.068-8.986,0-8.986H95.353c-.066,0-.068,8.986,0,8.986Z"/><path class="cls-2" d="M121.741,264.951H263.479c.066,0,.068-8.987,0-8.987h-.665c-.066,0-.068,8.987,0,8.987h.665c.066,0,.068-8.987,0-8.987H121.741c-.066,0-.068,8.987,0,8.987Z"/><path class="cls-3" d="M155.233,257.846H257.74c.066,0,.068-8.986,0-8.986H155.233c-.066,0-.068,8.986,0,8.986Z"/><path class="cls-6" d="M265.859,264.517h75.1"/><path class="cls-6" d="M278.038,191.01h-8.119c-.066,0-.069,8.986,0,8.986h8.119c.066,0,.068-8.986,0-8.986Z"/><path class="cls-6" d="M270.934,184.92h-8.12c-.066,0-.068,8.987,0,8.987h8.12c.066,0,.068-8.987,0-8.987Z"/><path class="cls-6" d="M262.814,177.816H253.68c-.066,0-.069,8.986,0,8.986h9.134c.066,0,.069-8.986,0-8.986Z"/><path class="cls-6" d="M322.694,175.786H313.56c-.066,0-.068,8.986,0,8.986h9.134c.066,0,.069-8.986,0-8.986Z"/><path class="cls-6" d="M314.575,169.7H309.5c-.066,0-.068,8.986,0,8.986h5.075c.066,0,.068-8.986,0-8.986Z"/><path class="cls-6" d="M310.515,164.622H302.4c-.066,0-.069,8.986,0,8.986h8.119c.066,0,.069-8.986,0-8.986Z"/><path class="cls-6" d="M302.4,158.532h-9.134c-.066,0-.069,8.987,0,8.987H302.4c.066,0,.068-8.987,0-8.987Z"/><path class="cls-6" d="M246.576,205.219h-7.1c-.066,0-.068,8.986,0,8.986h7.1c.066,0,.068-8.986,0-8.986Z"/><path class="cls-6" d="M294.277,151.428h-8.12c-.066,0-.068,8.986,0,8.986h8.12c.066,0,.068-8.986,0-8.986Z"/><rect class="cls-7" x="204.387" y="264.722" width="42.189" height="10.06"/><rect class="cls-7" x="214.866" y="273.654" width="11.701" height="51.089"/><rect class="cls-7" x="204.387" y="273.654" width="11.701" height="51.089"/><path class="cls-3" d="M302.4,283.727h22.836c.066,0,.068-8.987,0-8.987H302.4c-.066,0-.069,8.987,0,8.987Z"/><path class="cls-3" d="M259.769,276.115H302.4c.066,0,.068-8.987,0-8.987H259.769c-.066,0-.068,8.987,0,8.987Z"/><path class="cls-7" d="M254.7,282.2h45.671c.066,0,.069-8.986,0-8.986H254.7c-.066,0-.069,8.986,0,8.986Z"/><path class="cls-8" d="M266.217,161.39V143.365h-9.249V135.01H237.985V117.255h-7.854V135.01h-10.3V117.255h-7.856V135.01H195.322v8.355h16.653v54.879H195.322V206.6h16.653v18.2h7.856V206.6h10.3v18.372h7.854V206.6h18.983v-8.355h9.249v-27.8h-8.9V161.39Zm-18.024-18.025V160.39H227.686V143.365Zm-20.507,54.879v-27.7h20.507v27.7Z"/><polygon class="cls-9" points="194.756 198.244 194.756 206.599 211.409 206.599 211.409 224.803 219.265 224.803 219.265 206.599 224.686 206.599 224.686 198.181 211.409 198.181 211.409 198.244 194.756 198.244"/><rect class="cls-9" x="229.565" y="210.727" width="7.855" height="14.244"/><polygon class="cls-10" points="219.906 233.574 212.897 233.574 212.897 226.565 205.889 226.565 205.889 219.556 198.88 219.556 198.88 212.547 190.699 212.547 190.699 205.538 127.92 205.538 127.92 212.547 120.911 212.547 120.911 219.556 113.902 219.556 113.902 226.565 106.893 226.565 106.893 233.574 99.884 233.574 99.884 297.441 106.893 297.441 106.893 301.9 113.902 301.9 113.902 308.908 120.911 308.908 120.911 315.917 129.091 315.917 129.091 322.926 191.871 322.926 191.871 315.917 198.88 315.917 198.88 308.908 205.889 308.908 205.889 301.9 212.897 301.9 212.897 297.441 219.906 297.441 219.906 233.574"/><polygon class="cls-11" points="219.906 246.912 212.897 246.912 212.897 239.903 205.889 239.903 205.889 232.894 198.88 232.894 198.88 225.885 190.699 225.885 190.699 218.877 127.92 218.877 127.92 225.885 120.911 225.885 120.911 232.894 113.902 232.894 113.902 239.903 106.893 239.903 106.893 246.912 99.884 246.912 99.884 310.779 106.893 310.779 106.893 315.238 113.902 315.238 113.902 322.247 120.911 322.247 120.911 329.255 129.091 329.255 129.091 336.264 191.871 336.264 191.871 329.255 198.88 329.255 198.88 322.247 205.889 322.247 205.889 315.238 212.897 315.238 212.897 310.779 219.906 310.779 219.906 246.912"/><path class="cls-12" d="M136.824,223.051h48.8c.032,0,.033-4.355,0-4.355H184.37c-.032,0-.033,4.355,0,4.355h1.253c.032,0,.033-4.355,0-4.355h-48.8c-.032,0-.033,4.355,0,4.355Z"/><path class="cls-12" d="M134.611,226h53.2c.032,0,.033-4.355,0-4.355h-.486c-.032,0-.033,4.355,0,4.355h.486c.032,0,.033-4.355,0-4.355h-53.2c-.032,0-.034,4.355,0,4.355Z"/><path class="cls-12" d="M132.4,226.7h54.924c.064,0,.067-8.71,0-8.71H132.4c-.064,0-.066,8.71,0,8.71Z"/><path class="cls-12" d="M116.9,241.459H132.4c.064,0,.067-8.71,0-8.71H116.9c-.064,0-.066,8.71,0,8.71Z"/><path class="cls-12" d="M109.526,246.624h16.231c.064,0,.067-8.71,0-8.71H109.526c-.064,0-.066,8.71,0,8.71Z"/><path class="cls-12" d="M188.8,239.984h13.28c.064,0,.066-8.71,0-8.71H188.8c-.064,0-.066,8.71,0,8.71Z"/><path class="cls-12" d="M195.437,247.361h14.755c.064,0,.067-8.71,0-8.71H195.437c-.064,0-.066,8.71,0,8.71Z"/><path class="cls-12" d="M141.251,317.45h40.168c.064,0,.067-8.71,0-8.71H141.251c-.064,0-.067,8.71,0,8.71Z"/><path class="cls-12" d="M179.206,309.334h8.115c.064,0,.067-8.71,0-8.71h-8.115c-.064,0-.066,8.71,0,8.71Z"/><path class="cls-12" d="M133.873,309.334h13.28c.064,0,.066-8.71,0-8.71h-13.28c-.064,0-.067,8.71,0,8.71Z"/><g class="cls-13"><path class="cls-10" d="M130.389,336.632h58.894v-8.71H188.8c-.064,0-.066,8.71,0,8.71h.486c.064,0,.066-8.71,0-8.71H130.389c-.064,0-.066,8.71,0,8.71Z"/></g><g class="cls-13"><path class="cls-10" d="M189.535,329.992h8.853c.064,0,.066-8.71,0-8.71h-8.853c-.064,0-.067,8.71,0,8.71Z"/></g><g class="cls-13"><path class="cls-10" d="M199.126,323.352h6.64c.064,0,.066-8.71,0-8.71h-6.64c-.064,0-.067,8.71,0,8.71Z"/></g><g class="cls-13"><path class="cls-10" d="M122.069,332.205h13.279c.064,0,.067-8.71,0-8.71H122.069c-.064,0-.067,8.71,0,8.71Z"/></g><g class="cls-13"><path class="cls-10" d="M111.74,322.614h11.8c.064,0,.066-8.71,0-8.71h-11.8c-.064,0-.067,8.71,0,8.71Z"/></g><g class="cls-13"><path class="cls-10" d="M140.513,235.557h40.654v-8.71h-.486c-.064,0-.066,8.71,0,8.71h.486c.064,0,.067-8.71,0-8.71H140.513c-.064,0-.067,8.71,0,8.71Z"/></g><rect class="cls-14" x="117.642" y="255.437" width="8.115" height="44.266"/><rect class="cls-14" x="193.388" y="255.437" width="8.115" height="44.266"/><path class="cls-15" d="M148.628,226.7h27.4v-8.71h-1.25c-.064,0-.066,8.71,0,8.71h1.25c.064,0,.067-8.71,0-8.71h-27.4c-.064,0-.066,8.71,0,8.71Z"/><path class="cls-15" d="M113.953,242.935h6.64c.064,0,.066-8.71,0-8.71h-6.64c-.064,0-.066,8.71,0,8.71Z"/><path class="cls-15" d="M192.486,239.984h10.329c.064,0,.066-8.71,0-8.71H192.486c-.064,0-.067,8.71,0,8.71Z"/><path class="cls-15" d="M147.153,317.45h31.315c.064,0,.067-8.71,0-8.71H147.153c-.064,0-.067,8.71,0,8.71Z"/><rect class="cls-16" x="154.448" y="297.101" width="6.176" height="6.176"/><rect class="cls-16" x="160.624" y="297.101" width="6.176" height="6.176"/><rect class="cls-16" x="165.629" y="294.013" width="6.176" height="6.176"/><rect class="cls-17" x="124.345" y="262.225" width="26.311" height="26.311"/><rect class="cls-17" x="124.345" y="288.536" width="22.143" height="3.908"/><rect class="cls-17" x="120.177" y="267.559" width="13.025" height="18.565"/><rect class="cls-17" x="130.597" y="270.822" width="7.034" height="13.286"/><rect x="171.805" y="258.317" width="25.64" height="9.242"/><rect x="167.377" y="267.559" width="34.126" height="11.859"/><rect x="169.189" y="278.048" width="28.656" height="6.06"/><rect x="171.805" y="279.418" width="22.664" height="9.118"/><rect x="166.584" y="264.002" width="16.933" height="15.417"/><rect x="171.936" y="276.944" width="8.336" height="6.643"/><rect class="cls-10" x="98.161" y="247.416" width="7.099" height="65.679"/><rect class="cls-10" x="214.137" y="246.159" width="7.099" height="65.679"/><rect class="cls-18" x="99.884" y="239.544" width="121.352" height="6.925"/><rect class="cls-18" x="99.884" y="231.202" width="121.352" height="9.146" transform="translate(321.12 471.55) rotate(180)"/><rect class="cls-18" x="105.259" y="222.349" width="110.601" height="9.146" transform="translate(321.12 453.843) rotate(180)"/><rect class="cls-18" x="112.665" y="214.988" width="95.79" height="9.146" transform="translate(321.12 439.122) rotate(180)"/><rect class="cls-18" x="115.231" y="205.842" width="90.657" height="9.146" transform="translate(321.12 420.83) rotate(180)"/><rect class="cls-18" x="127.159" y="200.258" width="66.803" height="9.146" transform="translate(321.12 409.662) rotate(180)"/><rect class="cls-19" x="215.861" y="244.566" width="11.784" height="11.784"/><rect class="cls-18" x="227.645" y="244.566" width="11.784" height="11.784"/><rect class="cls-18" x="227.645" y="256.333" width="11.784" height="11.784"/><rect class="cls-18" x="237.542" y="262.225" width="11.784" height="11.784"/><rect class="cls-18" x="247.125" y="262.225" width="11.784" height="11.784"/><rect class="cls-19" x="215.861" y="256.333" width="11.784" height="11.784"/><rect class="cls-19" x="227.645" y="267.597" width="11.784" height="11.784"/><rect class="cls-19" x="227.645" y="277.694" width="11.784" height="11.784"/><path class="cls-19" d="M144.592,244.869h64.629c.047,0,.048-6.286,0-6.286h-1.807c-.046,0-.048,6.286,0,6.286h1.807v-6.286H144.592c-.046,0-.048,6.286,0,6.286Z"/><path class="cls-19" d="M132.879,238.48h52.872c.046,0,.048-6.285,0-6.285h-.7c-.046,0-.048,6.285,0,6.285h.7V232.2H132.879c-.046,0-.048,6.285,0,6.285Z"/><path class="cls-20" d="M132.876,207.974h54.3c.046,0,.048-6.285,0-6.285h-54.3c-.046,0-.048,6.285,0,6.285Z"/><path class="cls-20" d="M108.389,224.638h41.527c.046,0,.048-6.285,0-6.285H108.389c-.046,0-.048,6.285,0,6.285Z"/><path class="cls-20" d="M172.276,211.86H202.09c.046,0,.048-6.285,0-6.285H172.276c-.046,0-.048,6.285,0,6.285Z"/><path class="cls-20" d="M104.13,244.869h42.591c.046,0,.048-6.286,0-6.286H104.13c-.046,0-.048,6.286,0,6.286Z"/><rect x="166.196" y="255.437" width="8.564" height="8.564"/><rect x="160.959" y="250.2" width="8.564" height="8.564"/><rect x="201.484" y="277.465" width="8.564" height="8.564"/><rect x="208.455" y="279.825" width="8.564" height="8.564"/><rect x="212.737" y="284.107" width="8.564" height="8.564"/><rect x="155.951" y="245.192" width="8.564" height="8.564"/><path class="cls-21" d="M185.256,265.368h11.358c.046,0,.048-6.286,0-6.286H185.256c-.046,0-.048,6.286,0,6.286Z"/><path class="cls-21" d="M191.642,269h7.572c.046,0,.047-6.285,0-6.285h-7.572c-.046,0-.048,6.285,0,6.285Z"/><rect class="cls-22" x="140.024" y="267.559" width="13.025" height="18.565" transform="translate(293.074 553.684) rotate(180)"/><rect class="cls-22" x="135.596" y="269.576" width="7.034" height="13.286" transform="translate(278.225 552.438) rotate(180)"/><path class="cls-2" d="M253.68,275.1h76.143c3.12,0,6.237-.052,9.351.143,2.765.174,5.657.443,8.36-.317.228-.064.046-4.107.045-4.493,0-1.059,0-2.118-.013-3.177a5.348,5.348,0,0,0-.032-1.316,2.62,2.62,0,0,0-2.512-1.856c.239.024-.372,8.948,0,8.986a2.618,2.618,0,0,1,2.512,1.856V265.94a22.354,22.354,0,0,1-7.376.379c-2.639-.158-5.256-.205-7.9-.205H253.68c-.066,0-.069,8.986,0,8.986Z"/><path class="cls-3" d="M346.545,257.994H324.217c-.066,0-.069,8.986,0,8.986h22.328c.066,0,.068-8.986,0-8.986Z"/><path class="cls-3" d="M314.575,257.487H304.426c-.066,0-.069,8.986,0,8.986h10.149c.066,0,.068-8.986,0-8.986Z"/><polygon class="cls-2" points="74.388 285.728 88.596 285.728 88.596 297.523 128.178 297.523 128.178 313.249 226.625 313.249 226.625 285.728 254.028 285.728 254.028 273.084 307.818 273.084 307.818 262.935 322.027 262.935 322.027 251.404 331.161 251.404 331.161 230.181 343.34 230.181 343.34 205.285 354.504 205.285 354.504 194.572 364.653 194.572 364.653 206.367 353.489 206.367 353.489 229.443 343.34 230.181 343.34 251.433 331.161 251.404 331.161 262.935 331.161 281.797 346.047 281.797 346.047 328.566 332.514 328.566 332.514 352.248 321.689 352.248 321.689 377.966 310.863 377.966 310.863 389.761 142.387 389.761 142.387 374.035 119.382 374.035 119.382 366.172 105.85 366.172 105.85 341.422 94.348 341.422 94.348 329.243 80.815 329.243 80.815 309.317 65.93 309.317 65.93 285.728 74.388 285.728"/><path class="cls-3" d="M137.98,320.264H207c.066,0,.069-8.987,0-8.987H137.98c-.066,0-.069,8.987,0,8.987Z"/><path class="cls-3" d="M238.456,308.085h83.731c.066,0,.068-8.987,0-8.987H238.456c-.066,0-.068,8.987,0,8.987Z"/><path class="cls-3" d="M290.217,330.92h47.194c.066,0,.068-8.986,0-8.986H290.217c-.066,0-.069,8.986,0,8.986Z"/><path class="cls-3" d="M109.055,346.144H221.71c.066,0,.069-8.986,0-8.986H109.055c-.066,0-.069,8.986,0,8.986Z"/><path class="cls-3" d="M249.113,350.711h71.551c.066,0,.069-8.986,0-8.986H249.113c-.066,0-.069,8.986,0,8.986Z"/><path class="cls-7" d="M302.4,370.65h-156.8c-.066,0-.069,8.986,0,8.986H302.4c.066,0,.068-8.986,0-8.986Z"/><path class="cls-7" d="M121.234,373.547h24.358c.066,0,.068-8.987,0-8.987H121.234c-.066,0-.069,8.987,0,8.987Z"/><path class="cls-3" d="M65.347,297.235H84.069c.081,0,.084-11.051,0-11.051H65.347c-.082,0-.085,11.051,0,11.051Z"/><path class="cls-7" d="M78.452,312.213H93.43c.081,0,.084-11.051,0-11.051H78.452c-.081,0-.084,11.051,0,11.051Z"/><path class="cls-7" d="M287.172,318.889H274.993c-.066,0-.068,8.986,0,8.986h12.179c.066,0,.069-8.986,0-8.986Z"/><path class="cls-7" d="M241.5,318.889H229.322c-.066,0-.068,8.986,0,8.986H241.5c.066,0,.069-8.986,0-8.986Z"/><path class="cls-7" d="M125.8,324.979H109.055c-.066,0-.069,8.986,0,8.986H125.8c.066,0,.068-8.986,0-8.986Z"/><polygon class="cls-4" points="165.742 389.909 165.742 384.085 185.712 384.085 185.712 376.596 199.858 376.596 199.858 370.355 213.322 370.355 213.322 362.45 228.149 362.45 228.149 357.873 239.799 357.873 239.799 349.968 251.864 349.968 251.864 342.895 285.565 342.895 285.565 349.552 300.127 349.552 300.127 369.939 312.608 369.939 312.608 364.114 325.506 364.114 325.506 355.793 347.656 355.793 347.656 364.114 353.797 364.114 353.797 383.253 345.892 383.253 345.892 374.515 338.82 374.515 338.82 366.402 332.579 366.402 332.579 374.932 320.097 374.932 320.097 383.253 304.287 383.253 304.287 389.909 292.638 389.909 292.638 366.402 280.156 366.402 280.156 358.289 256.025 358.289 256.025 369.939 237.719 369.939 237.719 377.844 225.653 377.844 225.653 384.501 205.683 384.501 205.683 389.909 165.742 389.909"/><polygon class="cls-23" points="105.85 341.422 105.85 323.382 127.831 323.382 127.831 297.523 88.596 297.523 88.596 285.728 65.93 285.728 65.93 309.317 80.815 309.317 80.815 329.243 94.348 329.243 94.348 341.422 105.85 341.422"/><polyline class="cls-23" points="127.831 323.382 147.078 323.382 147.078 366.402 185.758 366.402 185.758 389.535 142.387 389.535 142.387 374.035 119.382 374.035 119.382 366.172 105.85 366.172 105.85 323.382"/><rect class="cls-24" x="156.748" y="390.577" width="47.638" height="8.111"/><rect class="cls-24" x="206.136" y="383.269" width="23.819" height="8.111"/><polygon class="cls-25" points="223.994 406.593 225.653 377.844 237.719 377.844 237.719 369.939 256.025 369.939 256.025 358.289 280.156 358.289 280.156 366.402 292.638 366.402 292.638 389.909 304.287 389.909 304.287 383.253 320.097 383.253 320.097 374.932 332.579 374.932 332.579 406.593 223.994 406.593"/><path class="cls-26" d="M257.818,375.09h21.219c.081,0,.084-11.051,0-11.051H257.818c-.081,0-.084,11.051,0,11.051Z"/><path class="cls-26" d="M267.8,382.579h18.1c.081,0,.084-11.051,0-11.051H267.8c-.082,0-.085,11.051,0,11.051Z"/><path class="cls-26" d="M262.187,392.564c4.069-.015,8.612-1.075,12.482.624-.02-.008.041-1.86.039-1.618.014-1.3.016-2.605.016-3.907s0-2.605-.016-3.908a7.181,7.181,0,0,0-.039-1.618c-3.87-1.7-8.413-.639-12.482-.624-.1,0-.071,11.052,0,11.051Z"/><path class="cls-26" d="M315.234,393.188h13.729c.082,0,.085-11.051,0-11.051H315.234c-.081,0-.085,11.051,0,11.051Z"/><path class="cls-26" d="M327.091,386.323h16.226c.081,0,.085-11.051,0-11.051H327.091c-.081,0-.084,11.051,0,11.051Z"/><path class="cls-26" d="M255.322,378.392H244.713c-.081,0-.084,11.052,0,11.052h10.609c.081,0,.084-11.052,0-11.052Z"/><path class="cls-26" d="M297.135,406.294h9.96c1.562,0,3.132.045,4.693-.007A10.312,10.312,0,0,1,314,406.26a10.5,10.5,0,0,0,1.877.549c.059,0,.056-5.113.056-5.525,0-1.3,0-2.605-.017-3.908a6.546,6.546,0,0,0-.039-1.618,4.769,4.769,0,0,0-1.886-.515c.171.011-.336,11.028,0,11.051a4.782,4.782,0,0,1,1.886.515V395.758a10.5,10.5,0,0,1-1.877-.55,10.311,10.311,0,0,0-2.207.028c-1.561.052-3.131.007-4.693.007h-9.96c-.081,0-.084,11.051,0,11.051Z"/><path class="cls-26" d="M338.325,403.174h21.842c.082,0,.085-11.052,0-11.052H338.325c-.082,0-.085,11.052,0,11.052Z"/><path class="cls-26" d="M228.071,400.885h21.634c.082,0,.085-11.051,0-11.051H228.071c-.082,0-.085,11.051,0,11.051Z"/><path class="cls-26" d="M314.61,403.382h25.795c.081,0,.084-11.052,0-11.052H314.61c-.082,0-.085,11.052,0,11.052Z"/><path class="cls-26" d="M247.209,401.3c4.082,0,8.229.218,12.3-.048,1.308-.086,2.617-.2,3.929-.172.974.021,2.436.009,3.116.844a9.966,9.966,0,0,1,.039-1.618c.013-1.3.016-2.605.016-3.907s0-2.6-.016-3.908c0-.326.151-1.384-.039-1.618-.66-.811-2.056-.814-3-.841-1.349-.039-2.7.081-4.041.168-4.073.266-8.221.049-12.3.049-.081,0-.084,11.051,0,11.051Z"/><path class="cls-26" d="M285.278,405.67h28.708c.081,0,.084-11.051,0-11.051H285.278c-.081,0-.084,11.051,0,11.051Z"/></g></g></svg>