<svg xmlns="http://www.w3.org/2000/svg" viewBox="0 0 430 430"><defs><style>.cls-1{fill:none;}.cls-2{fill:#523c4e;}.cls-3{fill:#2a2a3a;}.cls-4{fill:#814d3f;}.cls-5{fill:#ad6e60;}.cls-16,.cls-6{fill:#66353f;}.cls-11,.cls-7{fill:#e5720a;}.cls-8{fill:#f49549;}.cls-9{fill:#ffb776;}.cls-10,.cls-11{opacity:0.64;}.cls-12{fill:#f7d0b0;}.cls-13{fill:#3b2646;}.cls-14{fill:#584562;}.cls-15{fill:#1c042b;}.cls-16{opacity:0.52;}.cls-17{fill:#fff;}.cls-18{fill:#77b1d7;}.cls-19{fill:#456c93;}.cls-20{fill:#455093;}</style></defs><g id="Layer_2" data-name="Layer 2"><g id="Layer_1-2" data-name="Layer 1"><rect class="cls-1" width="430" height="430" transform="translate(430 430) rotate(-180)"/><polygon class="cls-2" points="317.166 83.482 317.166 92.609 307.279 92.609 307.279 109.34 300.434 109.34 300.434 141.282 291.308 141.282 291.308 191.525 298.913 191.525 298.913 213.705 309.561 213.705 309.561 231.993 317.166 231.993 317.166 240.831 327.053 240.831 327.053 248.859 300.434 248.859 300.434 257.697 168.863 257.697 168.863 266.535 117.908 266.535 92.811 266.535 92.811 272.853 83.684 272.853 83.684 258.507 73.037 258.507 73.037 206.591 85.966 206.591 85.966 180.58 93.571 180.58 93.571 165.619 100.416 165.619 100.416 147.899 109.542 147.899 109.542 132.156 117.908 132.156 117.908 115.424 125.513 115.424 125.513 106.298 136.161 106.298 136.161 98.693 200.045 98.693 200.045 89.567 266.211 89.567 317.166 83.482"/><polygon class="cls-2" points="267.225 95.144 267.225 83.482 317.166 83.482 267.225 95.144"/><polygon class="cls-3" points="278.038 83.482 278.038 178.168 258.38 178.168 258.38 189.413 237.39 189.413 237.39 198.181 204.748 198.181 204.748 210.727 152.23 210.727 152.23 198.181 108.984 198.181 108.984 182.309 85.966 182.309 85.966 206.591 73.037 206.591 73.037 258.507 83.684 258.507 82.466 270.433 167.956 270.433 167.956 257.697 300.434 257.697 300.434 248.859 327.053 248.859 327.053 240.831 317.166 240.831 317.166 231.993 309.561 231.993 309.561 213.705 298.913 213.705 298.913 191.525 291.308 191.525 291.308 141.282 300.434 141.282 300.434 109.34 307.279 109.34 307.279 92.609 317.166 92.609 317.166 83.482 278.038 83.482"/><path class="cls-4" d="M334.647,247.845H302.169c-.066,0-.068,8.986,0,8.986h32.478c.066,0,.068-8.986,0-8.986Z"/><path class="cls-4" d="M314.579,299.209a8.365,8.365,0,0,0,.91-.856,10.812,10.812,0,0,0,1.689-2.313,9.165,9.165,0,0,0,.973-4.369c.077-4.2.064-8.4.009-12.605-.008-.67,0-1.343-.063-2.01a7.23,7.23,0,0,0-.157-1,7.546,7.546,0,0,0-.885-2.132,14.729,14.729,0,0,0-4.732-4.537,44.648,44.648,0,0,0-9.917-4.58,124.009,124.009,0,0,0-16.643-4.284c-8.278-1.621-16.65-2.744-25.034-3.646-11.547-1.241-23.14-2.04-34.738-2.615-15.421-.764-30.86-1.119-46.3-1.247q-6.587-.054-13.172-.054v15h.665c.11,0,.114-15,0-15h-.665c-.11,0-.115,15,0,15,21.408,0,42.828.364,64.206,1.55,14.479.8,28.969,1.947,43.325,4.035a166.611,166.611,0,0,1,26.371,5.605c4.636,1.469,9.454,3.256,13.344,6.258,1.945,1.5,3.794,3.491,4.245,5.992a6.4,6.4,0,0,1,.086.676l-.02-.268c0,.058.009.117.011.175l0,.087c-.147-3.685.107-18.879-.016-13.382.008-.346.042-.949,0-.384l.02-.268a8,8,0,0,1-1.306,3.664,11.149,11.149,0,0,1-1.81,2.161c-.13.121-.262.241-.4.351a11.333,11.333,0,0,0-.053,2.2c-.019,1.768-.023,3.536-.022,5.3s0,3.536.022,5.3a10.525,10.525,0,0,1,.053,2.2Z"/><path class="cls-5" d="M274.767,248.86H172.26c-.066,0-.068,8.986,0,8.986H274.767c.066,0,.068-8.986,0-8.986Z"/><path class="cls-3" d="M164.141,264.517h-75.1"/><path class="cls-3" d="M151.962,200h8.119c.066,0,.069-8.986,0-8.986h-8.119c-.066,0-.068,8.986,0,8.986Z"/><path class="cls-3" d="M159.066,193.907h8.12c.066,0,.068-8.987,0-8.987h-8.12c-.066,0-.068,8.987,0,8.987Z"/><path class="cls-3" d="M167.186,186.8h9.134c.066,0,.069-8.986,0-8.986h-9.134c-.066,0-.069,8.986,0,8.986Z"/><path class="cls-3" d="M107.306,184.772h9.134c.066,0,.068-8.986,0-8.986h-9.134c-.066,0-.069,8.986,0,8.986Z"/><path class="cls-3" d="M115.425,178.683H120.5c.066,0,.068-8.986,0-8.986h-5.075c-.066,0-.068,8.986,0,8.986Z"/><path class="cls-3" d="M119.485,173.608H127.6c.066,0,.069-8.986,0-8.986h-8.119c-.066,0-.069,8.986,0,8.986Z"/><path class="cls-3" d="M127.6,167.519h9.134c.066,0,.069-8.987,0-8.987H127.6c-.066,0-.068,8.987,0,8.987Z"/><path class="cls-3" d="M183.424,214.205h7.1c.066,0,.068-8.986,0-8.986h-7.1c-.066,0-.068,8.986,0,8.986Z"/><path class="cls-3" d="M135.723,160.414h8.12c.066,0,.068-8.986,0-8.986h-8.12c-.066,0-.068,8.986,0,8.986Z"/><rect class="cls-6" x="183.424" y="264.722" width="42.189" height="10.06" transform="translate(409.038 539.503) rotate(-180)"/><rect class="cls-6" x="203.433" y="273.654" width="11.701" height="51.089" transform="translate(418.567 598.397) rotate(-180)"/><rect class="cls-6" x="213.912" y="273.654" width="11.701" height="51.089" transform="translate(439.525 598.397) rotate(-180)"/><path class="cls-5" d="M170.231,267.128H127.6c-.066,0-.068,8.987,0,8.987h42.627c.066,0,.068-8.987,0-8.987Z"/><path class="cls-6" d="M355.955,273.218H100.062c-.066,0-.069,8.986,0,8.986H355.955c.066,0,.069-8.986,0-8.986Z"/><line class="cls-5" x1="287.106" y1="90.804" x2="228.901" y2="90.804"/><polygon class="cls-2" points="120.957 83.482 120.957 92.609 130.844 92.609 130.844 109.34 137.689 109.34 137.689 141.282 146.815 141.282 146.815 191.525 139.21 191.525 139.21 213.705 128.563 213.705 128.563 231.993 120.957 231.993 120.957 240.831 111.07 240.831 111.07 248.859 137.689 248.859 137.689 257.697 269.26 257.697 269.26 266.535 320.215 266.535 345.313 266.535 345.313 272.853 354.439 272.853 354.439 258.507 365.086 258.507 365.086 206.591 352.157 206.591 352.157 180.58 344.552 180.58 344.552 165.619 337.707 165.619 337.707 147.899 328.581 147.899 328.581 132.156 320.215 132.156 320.215 115.424 312.61 115.424 312.61 106.298 301.963 106.298 301.963 98.693 238.078 98.693 238.078 89.567 171.913 89.567 120.957 83.482"/><polygon class="cls-2" points="170.899 95.144 170.899 83.482 120.957 83.482 170.899 95.144"/><polyline class="cls-3" points="179.743 191.681 200.733 191.681 200.733 198.181 233.375 198.181 233.375 210.727 285.893 210.727 285.893 198.181 329.14 198.181 329.14 182.309 352.157 182.309 352.157 206.591 365.086 206.591 365.086 258.507 354.439 258.507 355.658 270.433 270.167 270.433 270.167 257.697 137.689 257.697 137.689 248.859 111.07 248.859 111.07 240.831 120.957 240.831 120.957 231.993 128.563 231.993 128.563 213.705 139.21 213.705 139.21 191.525 146.815 191.525"/><path class="cls-3" d="M273.982,264.517h75.1"/><path class="cls-3" d="M286.161,191.01h-8.119c-.066,0-.069,8.986,0,8.986h8.119c.066,0,.069-8.986,0-8.986Z"/><path class="cls-3" d="M279.057,184.92h-8.119c-.066,0-.069,8.987,0,8.987h8.119c.066,0,.068-8.987,0-8.987Z"/><path class="cls-3" d="M270.938,177.816H261.8c-.066,0-.068,8.986,0,8.986h9.135c.066,0,.068-8.986,0-8.986Z"/><path class="cls-3" d="M330.818,175.786h-9.135c-.066,0-.068,8.986,0,8.986h9.135c.066,0,.068-8.986,0-8.986Z"/><path class="cls-3" d="M322.7,169.7h-5.074c-.066,0-.069,8.986,0,8.986H322.7c.066,0,.069-8.986,0-8.986Z"/><path class="cls-3" d="M318.639,164.622h-8.12c-.066,0-.068,8.986,0,8.986h8.12c.066,0,.068-8.986,0-8.986Z"/><path class="cls-3" d="M310.519,158.532h-9.134c-.066,0-.068,8.987,0,8.987h9.134c.066,0,.069-8.987,0-8.987Z"/><path class="cls-3" d="M254.7,205.219h-7.105c-.066,0-.068,8.986,0,8.986H254.7c.066,0,.068-8.986,0-8.986Z"/><path class="cls-3" d="M302.4,151.428h-8.119c-.066,0-.069,8.986,0,8.986H302.4c.066,0,.068-8.986,0-8.986Z"/><rect class="cls-6" x="212.51" y="264.722" width="42.189" height="10.06"/><rect class="cls-6" x="222.989" y="273.654" width="11.701" height="51.089"/><rect class="cls-6" x="212.51" y="273.654" width="11.701" height="51.089"/><path class="cls-5" d="M310.519,283.727h22.836c.066,0,.068-8.987,0-8.987H310.519c-.066,0-.068,8.987,0,8.987Z"/><path class="cls-5" d="M267.893,276.115h42.626c.066,0,.069-8.987,0-8.987H267.893c-.066,0-.069,8.987,0,8.987Z"/><path class="cls-6" d="M262.818,282.2h45.671c.066,0,.069-8.986,0-8.986H262.818c-.066,0-.068,8.986,0,8.986Z"/><path class="cls-4" d="M355.658,266.114H116.745c-7.55,0-15.1-.057-22.653,0-3.84.028-7.858.877-11.626-.174v8.986a2.631,2.631,0,0,1,2.512-1.856c.381-.041-.249-8.96,0-8.986a2.631,2.631,0,0,0-2.512,1.856,5.918,5.918,0,0,0-.032,1.316c-.012,1.059-.014,2.118-.013,3.177,0,.387-.227,4.418.045,4.493,3.85,1.074,7.973.184,11.9.174,4.678-.013,9.356,0,14.033,0H355.658c.066,0,.068-8.986,0-8.986Z"/><polygon class="cls-7" points="210.094 233.574 217.103 233.574 217.103 226.565 224.111 226.565 224.111 219.556 231.12 219.556 231.12 212.547 239.301 212.547 239.301 205.538 302.08 205.538 302.08 212.547 309.089 212.547 309.089 219.556 316.098 219.556 316.098 226.565 323.107 226.565 323.107 233.574 330.116 233.574 330.116 297.441 323.107 297.441 323.107 301.9 316.098 301.9 316.098 308.908 309.089 308.908 309.089 315.917 300.909 315.917 300.909 322.926 238.129 322.926 238.129 315.917 231.12 315.917 231.12 308.908 224.111 308.908 224.111 301.9 217.103 301.9 217.103 297.441 210.094 297.441 210.094 233.574"/><polygon class="cls-8" points="210.094 246.912 217.103 246.912 217.103 239.903 224.111 239.903 224.111 232.894 231.12 232.894 231.12 225.885 239.301 225.885 239.301 218.877 302.08 218.877 302.08 225.885 309.089 225.885 309.089 232.894 316.098 232.894 316.098 239.903 323.107 239.903 323.107 246.912 330.116 246.912 330.116 310.779 323.107 310.779 323.107 315.238 316.098 315.238 316.098 322.247 309.089 322.247 309.089 329.255 300.909 329.255 300.909 336.264 238.129 336.264 238.129 329.255 231.12 329.255 231.12 322.247 224.111 322.247 224.111 315.238 217.103 315.238 217.103 310.779 210.094 310.779 210.094 246.912"/><path class="cls-9" d="M293.176,218.7h-48.8v4.355h1.253c.032,0,.033-4.355,0-4.355h-1.253c-.032,0-.033,4.355,0,4.355h48.8c.032,0,.033-4.355,0-4.355Z"/><path class="cls-9" d="M295.389,221.647h-53.2c-.032,0-.033,4.355,0,4.355h.486c.032,0,.033-4.355,0-4.355h-.486V226h53.2c.032,0,.034-4.355,0-4.355Z"/><path class="cls-9" d="M297.6,217.994H242.679c-.064,0-.067,8.71,0,8.71H297.6c.064,0,.066-8.71,0-8.71Z"/><path class="cls-9" d="M313.1,232.749H297.6c-.064,0-.067,8.71,0,8.71H313.1c.064,0,.066-8.71,0-8.71Z"/><path class="cls-9" d="M320.474,237.914H304.243c-.064,0-.067,8.71,0,8.71h16.231c.064,0,.066-8.71,0-8.71Z"/><path class="cls-9" d="M241.2,231.274h-13.28c-.064,0-.066,8.71,0,8.71H241.2c.064,0,.066-8.71,0-8.71Z"/><path class="cls-9" d="M234.563,238.651H219.808c-.064,0-.067,8.71,0,8.71h14.755c.064,0,.066-8.71,0-8.71Z"/><path class="cls-9" d="M288.749,308.74H248.581c-.064,0-.067,8.71,0,8.71h40.168c.064,0,.067-8.71,0-8.71Z"/><path class="cls-9" d="M250.794,300.624h-8.115c-.064,0-.067,8.71,0,8.71h8.115c.064,0,.066-8.71,0-8.71Z"/><path class="cls-9" d="M296.127,300.624h-13.28c-.064,0-.066,8.71,0,8.71h13.28c.064,0,.067-8.71,0-8.71Z"/><g class="cls-10"><path class="cls-7" d="M299.611,327.922H240.717c-.064,0-.066,8.71,0,8.71h.486c.064,0,.066-8.71,0-8.71h-.486v8.71h58.894c.064,0,.066-8.71,0-8.71Z"/></g><g class="cls-10"><path class="cls-7" d="M240.465,321.282h-8.853c-.064,0-.066,8.71,0,8.71h8.853c.064,0,.067-8.71,0-8.71Z"/></g><g class="cls-10"><path class="cls-7" d="M230.874,314.642h-6.64c-.064,0-.066,8.71,0,8.71h6.64c.064,0,.067-8.71,0-8.71Z"/></g><g class="cls-10"><path class="cls-7" d="M307.931,323.5H294.652c-.064,0-.067,8.71,0,8.71h13.279c.064,0,.067-8.71,0-8.71Z"/></g><g class="cls-10"><path class="cls-7" d="M318.26,313.9h-11.8c-.064,0-.066,8.71,0,8.71h11.8c.064,0,.067-8.71,0-8.71Z"/></g><g class="cls-10"><path class="cls-7" d="M289.487,226.847H248.833v8.71h.486c.064,0,.066-8.71,0-8.71h-.486c-.064,0-.067,8.71,0,8.71h40.654c.064,0,.067-8.71,0-8.71Z"/></g><rect class="cls-11" x="304.243" y="255.437" width="8.115" height="44.266" transform="translate(616.601 555.141) rotate(-180)"/><rect class="cls-11" x="228.497" y="255.437" width="8.115" height="44.266" transform="translate(465.109 555.141) rotate(-180)"/><path class="cls-12" d="M281.372,217.994h-27.4c-.064,0-.067,8.71,0,8.71h1.25c.064,0,.066-8.71,0-8.71h-1.25v8.71h27.4c.064,0,.066-8.71,0-8.71Z"/><path class="cls-12" d="M316.047,234.225h-6.64c-.064,0-.066,8.71,0,8.71h6.64c.064,0,.066-8.71,0-8.71Z"/><path class="cls-12" d="M237.514,231.274H227.185c-.064,0-.066,8.71,0,8.71h10.329c.064,0,.067-8.71,0-8.71Z"/><path class="cls-12" d="M282.847,308.74H251.532c-.064,0-.067,8.71,0,8.71h31.315c.064,0,.067-8.71,0-8.71Z"/><rect class="cls-7" x="324.74" y="247.416" width="7.099" height="65.679" transform="translate(656.579 560.511) rotate(-180)"/><rect class="cls-7" x="208.764" y="246.159" width="7.099" height="65.679" transform="translate(424.627 557.997) rotate(-180)"/><rect class="cls-13" x="208.764" y="239.544" width="121.352" height="6.925" transform="translate(538.88 486.013) rotate(-180)"/><rect class="cls-13" x="208.764" y="231.202" width="121.352" height="9.146"/><rect class="cls-13" x="214.139" y="222.349" width="110.601" height="9.146"/><rect class="cls-13" x="221.545" y="214.988" width="95.79" height="9.146"/><rect class="cls-13" x="224.111" y="205.842" width="90.657" height="9.146"/><rect class="cls-13" x="236.039" y="200.258" width="66.803" height="9.146"/><rect class="cls-14" x="202.355" y="244.566" width="11.784" height="11.784" transform="translate(416.495 500.915) rotate(-180)"/><rect class="cls-13" x="190.571" y="244.566" width="11.784" height="11.784" transform="translate(392.927 500.915) rotate(-180)"/><rect class="cls-13" x="190.571" y="256.333" width="11.784" height="11.784" transform="translate(392.927 524.45) rotate(-180)"/><rect class="cls-13" x="180.674" y="262.225" width="11.784" height="11.784" transform="translate(373.131 536.234) rotate(-180)"/><rect class="cls-13" x="171.091" y="262.225" width="11.784" height="11.784" transform="translate(353.965 536.234) rotate(-180)"/><rect class="cls-14" x="202.355" y="256.333" width="11.784" height="11.784" transform="translate(416.495 524.45) rotate(-180)"/><rect class="cls-14" x="190.571" y="267.597" width="11.784" height="11.784" transform="translate(392.927 546.978) rotate(-180)"/><rect class="cls-14" x="190.571" y="277.694" width="11.784" height="11.784" transform="translate(392.927 567.173) rotate(-180)"/><path class="cls-14" d="M285.408,238.583H220.779v6.286h1.807c.046,0,.048-6.286,0-6.286h-1.807c-.047,0-.048,6.286,0,6.286h64.629c.046,0,.048-6.286,0-6.286Z"/><path class="cls-14" d="M297.121,232.2H244.249c-.046,0-.048,6.285,0,6.285h.7c.046,0,.048-6.285,0-6.285h-.7v6.285h52.872c.046,0,.048-6.285,0-6.285Z"/><path class="cls-15" d="M297.124,201.689h-54.3c-.046,0-.048,6.285,0,6.285h54.3c.046,0,.048-6.285,0-6.285Z"/><path class="cls-15" d="M321.611,218.353H280.084c-.046,0-.048,6.285,0,6.285h41.527c.046,0,.048-6.285,0-6.285Z"/><path class="cls-15" d="M257.724,205.575H227.91c-.046,0-.048,6.285,0,6.285h29.814c.046,0,.048-6.285,0-6.285Z"/><path class="cls-15" d="M325.87,238.583H283.279c-.046,0-.048,6.286,0,6.286H325.87c.046,0,.048-6.286,0-6.286Z"/><polyline class="cls-4" points="326.624 328.566 313.092 328.566 313.092 352.248 302.266 352.248 302.266 377.966 291.44 377.966 291.44 389.761 122.964 389.761 122.964 374.035 99.959 374.035 99.959 366.172 86.427 366.172 86.427 341.422 74.925 341.422 74.925 329.243 61.393 329.243 61.393 309.317 46.507 309.317 46.507 285.728 54.965 285.728 69.174 285.728 69.174 297.523 108.755 297.523 108.755 313.249 207.202 313.249"/><path class="cls-5" d="M83.455,266.98h22.328c.066,0,.069-8.986,0-8.986H83.455c-.066,0-.068,8.986,0,8.986Z"/><path class="cls-5" d="M115.425,266.473h10.149c.066,0,.069-8.986,0-8.986H115.425c-.066,0-.068,8.986,0,8.986Z"/><polyline class="cls-4" points="83.953 299.198 83.953 328.566 97.486 328.566 97.486 352.248 108.311 352.248 108.311 377.966 119.137 377.966 119.137 389.761 287.613 389.761 287.613 374.035 310.618 374.035 310.618 366.172 324.15 366.172 324.15 341.422 335.652 341.422 335.652 329.243 349.185 329.243 349.185 309.317 364.07 309.317 364.07 285.728 355.612 285.728 341.404 285.728 341.404 297.523 301.822 297.523 301.822 313.249 203.375 313.249 203.375 285.728 203.375 303.591"/><path class="cls-5" d="M292.02,311.277H223c-.066,0-.069,8.987,0,8.987H292.02c.066,0,.069-8.987,0-8.987Z"/><path class="cls-5" d="M191.544,299.1H107.813c-.066,0-.068,8.987,0,8.987h83.731c.066,0,.068-8.987,0-8.987Z"/><path class="cls-5" d="M139.783,321.934H92.589c-.066,0-.068,8.986,0,8.986h47.194c.066,0,.069-8.986,0-8.986Z"/><path class="cls-5" d="M320.945,337.158H208.29c-.066,0-.069,8.986,0,8.986H320.945c.066,0,.069-8.986,0-8.986Z"/><path class="cls-5" d="M180.887,341.725H109.336c-.066,0-.069,8.986,0,8.986h71.551c.066,0,.069-8.986,0-8.986Z"/><path class="cls-6" d="M127.6,379.636h156.8c.066,0,.069-8.986,0-8.986H127.6c-.066,0-.068,8.986,0,8.986Z"/><path class="cls-6" d="M308.766,364.56H284.408c-.066,0-.068,8.987,0,8.987h24.358c.066,0,.069-8.987,0-8.987Z"/><path class="cls-5" d="M364.653,286.184H345.931c-.081,0-.084,11.051,0,11.051h18.722c.082,0,.085-11.051,0-11.051Z"/><path class="cls-6" d="M351.548,301.162H336.57c-.081,0-.084,11.051,0,11.051h14.978c.081,0,.084-11.051,0-11.051Z"/><path class="cls-6" d="M142.828,327.875h12.179c.066,0,.068-8.986,0-8.986H142.828c-.066,0-.069,8.986,0,8.986Z"/><path class="cls-6" d="M188.5,327.875h12.179c.066,0,.068-8.986,0-8.986H188.5c-.066,0-.069,8.986,0,8.986Z"/><path class="cls-6" d="M304.2,333.965h16.746c.066,0,.069-8.986,0-8.986H304.2c-.066,0-.068,8.986,0,8.986Z"/><polygon class="cls-16" points="324.15 341.422 324.15 323.382 302.169 323.382 302.169 297.523 341.404 297.523 341.404 285.728 364.07 285.728 364.07 309.317 349.185 309.317 349.185 329.243 335.652 329.243 335.652 341.422 324.15 341.422"/><polyline class="cls-16" points="302.169 323.382 282.922 323.382 282.922 366.402 244.242 366.402 244.242 389.535 287.613 389.535 287.613 374.035 310.618 374.035 310.618 366.172 324.15 366.172 324.15 323.382"/><polygon class="cls-17" points="224.258 389.909 224.258 384.085 204.288 384.085 204.288 376.596 190.142 376.596 190.142 370.355 176.678 370.355 176.678 362.45 161.851 362.45 161.851 357.873 150.201 357.873 150.201 349.968 138.136 349.968 138.136 342.895 104.435 342.895 104.435 349.552 89.873 349.552 89.873 369.939 77.392 369.939 77.392 364.114 64.494 364.114 64.494 355.793 42.344 355.793 42.344 364.114 36.203 364.114 36.203 383.253 44.108 383.253 44.108 374.515 51.18 374.515 51.18 366.402 57.421 366.402 57.421 374.932 69.903 374.932 69.903 383.253 85.713 383.253 85.713 389.909 97.362 389.909 97.362 366.402 109.844 366.402 109.844 358.289 133.975 358.289 133.975 369.939 152.281 369.939 152.281 377.844 164.347 377.844 164.347 384.501 184.317 384.501 184.317 389.909 224.258 389.909"/><rect class="cls-18" x="185.613" y="390.577" width="47.638" height="8.111" transform="translate(418.865 789.265) rotate(-180)"/><rect class="cls-18" x="160.045" y="383.269" width="23.819" height="8.111" transform="translate(343.909 774.649) rotate(-180)"/><polygon class="cls-19" points="166.006 406.593 164.347 377.844 152.281 377.844 152.281 369.939 133.975 369.939 133.975 358.289 109.844 358.289 109.844 366.402 97.362 366.402 97.362 389.909 85.713 389.909 85.713 383.253 69.903 383.253 69.903 374.932 57.421 374.932 57.421 406.593 166.006 406.593"/><path class="cls-20" d="M132.182,364.039H110.963c-.081,0-.084,11.051,0,11.051h21.219c.081,0,.084-11.051,0-11.051Z"/><path class="cls-20" d="M122.2,371.528H104.1c-.081,0-.084,11.051,0,11.051h18.1c.082,0,.085-11.051,0-11.051Z"/><path class="cls-20" d="M127.813,381.513c-4.069-.015-8.612-1.075-12.482.624a11.786,11.786,0,0,0-.039,1.618c-.014,1.3-.016,2.605-.016,3.908s0,2.6.016,3.907a14.409,14.409,0,0,1,.039,1.618c3.87-1.7,8.413-.639,12.482-.624.068,0,.1-11.051,0-11.051Z"/><path class="cls-20" d="M74.766,382.137H61.037c-.082,0-.085,11.051,0,11.051H74.766c.081,0,.085-11.051,0-11.051Z"/><path class="cls-20" d="M62.909,375.272H46.683c-.081,0-.085,11.051,0,11.051H62.909c.081,0,.084-11.051,0-11.051Z"/><path class="cls-20" d="M134.678,389.444h10.609c.081,0,.084-11.052,0-11.052H134.678c-.081,0-.084,11.052,0,11.052Z"/><path class="cls-20" d="M92.865,395.243h-9.96c-1.562,0-3.132.045-4.693-.007a10.312,10.312,0,0,0-2.207-.028,10.5,10.5,0,0,1-1.877.55v11.051a4.769,4.769,0,0,1,1.886-.515c.333-.023-.167-11.04,0-11.051a4.749,4.749,0,0,0-1.886.515,10.754,10.754,0,0,0-.039,1.618c-.014,1.3-.017,2.605-.017,3.908,0,.4,0,5.526.056,5.525a10.5,10.5,0,0,0,1.877-.549,10.376,10.376,0,0,1,2.207.027c1.561.052,3.131.007,4.693.007h9.96c.081,0,.084-11.051,0-11.051Z"/><path class="cls-20" d="M51.675,392.122H29.833c-.082,0-.085,11.052,0,11.052H51.675c.082,0,.085-11.052,0-11.052Z"/><path class="cls-20" d="M161.929,389.834H140.295c-.082,0-.085,11.051,0,11.051h21.634c.082,0,.085-11.051,0-11.051Z"/><path class="cls-20" d="M75.39,392.33H49.6c-.081,0-.084,11.052,0,11.052h25.8c.082,0,.085-11.052,0-11.052Z"/><path class="cls-20" d="M142.791,390.25c-4.082,0-8.229.217-12.3-.049-1.308-.085-2.617-.2-3.929-.171-.974.021-2.436.009-3.116.844a6.867,6.867,0,0,0-.039,1.618c-.013,1.3-.016,2.6-.016,3.908s0,2.605.016,3.907c0,.287.188,1.436.039,1.618.66-.81,2.056-.813,3-.841,1.349-.039,2.7.081,4.041.169,4.073.266,8.221.048,12.3.048.081,0,.084-11.051,0-11.051Z"/><path class="cls-20" d="M104.722,394.619H76.014c-.081,0-.084,11.051,0,11.051h28.708c.081,0,.084-11.051,0-11.051Z"/><polygon class="cls-17" points="182.692 389.909 182.692 384.085 202.662 384.085 202.662 376.596 216.808 376.596 216.808 370.355 230.272 370.355 230.272 362.45 245.1 362.45 245.1 357.873 256.749 357.873 256.749 349.968 268.815 349.968 268.815 342.895 302.515 342.895 302.515 349.552 317.077 349.552 317.077 369.939 329.559 369.939 329.559 364.114 342.456 364.114 342.456 355.793 364.607 355.793 364.607 364.114 370.748 364.114 370.748 383.253 362.843 383.253 362.843 374.515 355.77 374.515 355.77 366.402 349.529 366.402 349.529 374.932 337.048 374.932 337.048 383.253 321.238 383.253 321.238 389.909 309.588 389.909 309.588 366.402 297.106 366.402 297.106 358.289 272.975 358.289 272.975 369.939 254.669 369.939 254.669 377.844 242.604 377.844 242.604 384.501 222.633 384.501 222.633 389.909 182.692 389.909"/><rect class="cls-18" x="173.699" y="390.577" width="47.638" height="8.111"/><rect class="cls-18" x="223.086" y="383.269" width="23.819" height="8.111"/><polygon class="cls-19" points="240.944 406.593 242.604 377.844 254.669 377.844 254.669 369.939 272.975 369.939 272.975 358.289 297.106 358.289 297.106 366.402 309.588 366.402 309.588 389.909 321.238 389.909 321.238 383.253 337.048 383.253 337.048 374.932 349.529 374.932 349.529 406.593 240.944 406.593"/><path class="cls-20" d="M274.769,375.09h21.218c.082,0,.085-11.051,0-11.051H274.769c-.081,0-.084,11.051,0,11.051Z"/><path class="cls-20" d="M284.754,382.579h18.1c.082,0,.085-11.051,0-11.051h-18.1c-.081,0-.084,11.051,0,11.051Z"/><path class="cls-20" d="M279.137,392.564c4.069-.015,8.612-1.075,12.482.624-.02-.008.042-1.86.039-1.618.014-1.3.017-2.605.016-3.907s0-2.605-.016-3.908a7.122,7.122,0,0,0-.039-1.618c-3.87-1.7-8.413-.639-12.482-.624-.1,0-.07,11.052,0,11.051Z"/><path class="cls-20" d="M332.184,393.188h13.73c.081,0,.084-11.051,0-11.051h-13.73c-.081,0-.084,11.051,0,11.051Z"/><path class="cls-20" d="M344.042,386.323h16.226c.081,0,.084-11.051,0-11.051H344.042c-.082,0-.085,11.051,0,11.051Z"/><path class="cls-20" d="M272.272,378.392H261.663c-.081,0-.084,11.052,0,11.052h10.609c.082,0,.085-11.052,0-11.052Z"/><path class="cls-20" d="M314.086,406.294h9.959c1.563,0,3.132.045,4.693-.007a10.313,10.313,0,0,1,2.207-.027,10.51,10.51,0,0,0,1.878.549c.058,0,.055-5.113.055-5.525,0-1.3,0-2.605-.016-3.908a6.645,6.645,0,0,0-.039-1.618,4.778,4.778,0,0,0-1.887-.515c.171.011-.336,11.028,0,11.051a4.792,4.792,0,0,1,1.887.515V395.758a10.514,10.514,0,0,1-1.878-.55,10.311,10.311,0,0,0-2.207.028c-1.561.052-3.13.007-4.693.007h-9.959c-.081,0-.084,11.051,0,11.051Z"/><path class="cls-20" d="M355.275,403.174h21.843c.081,0,.084-11.052,0-11.052H355.275c-.081,0-.084,11.052,0,11.052Z"/><path class="cls-20" d="M245.021,400.885h21.635c.081,0,.084-11.051,0-11.051H245.021c-.081,0-.084,11.051,0,11.051Z"/><path class="cls-20" d="M331.56,403.382h25.8c.081,0,.085-11.052,0-11.052h-25.8c-.081,0-.084,11.052,0,11.052Z"/><path class="cls-20" d="M264.159,401.3c4.082,0,8.23.218,12.3-.048,1.308-.086,2.617-.2,3.929-.172.974.021,2.435.009,3.115.844a9.966,9.966,0,0,1,.039-1.618c.014-1.3.017-2.605.016-3.907s0-2.6-.016-3.908c0-.326.152-1.384-.039-1.618-.66-.811-2.056-.814-3-.841-1.349-.039-2.7.081-4.04.168-4.073.266-8.221.049-12.3.049-.081,0-.084,11.051,0,11.051Z"/><path class="cls-20" d="M302.228,405.67h28.708c.081,0,.084-11.051,0-11.051H302.228c-.081,0-.084,11.051,0,11.051Z"/><rect class="cls-4" x="267.427" y="90.887" width="69.399" height="7.57" transform="translate(604.253 189.344) rotate(-180)"/><rect class="cls-4" x="209.222" y="83.482" width="58.205" height="15.211" transform="translate(476.649 182.175) rotate(-180)"/><rect class="cls-5" x="267.427" y="83.482" width="58.205" height="7.405" transform="translate(593.059 174.369) rotate(-180)"/><rect class="cls-5" x="120.957" y="83.401" width="88.265" height="7.405" transform="translate(330.179 174.207) rotate(-180)"/><rect class="cls-4" x="120.957" y="90.889" width="88.265" height="7.405" transform="translate(330.179 189.182) rotate(-180)"/><rect class="cls-4" x="121.914" y="98.292" width="29.102" height="7.405" transform="translate(272.931 203.988) rotate(-180)"/><rect class="cls-4" x="217.843" y="23.407" width="12.924" height="56.29" transform="translate(448.61 103.104) rotate(-180)"/><rect class="cls-5" x="228.384" y="31.625" width="9.593" height="48.073" transform="translate(466.361 111.322) rotate(-180)"/><rect class="cls-5" x="209.222" y="75.995" width="58.205" height="7.405" transform="translate(476.649 159.395) rotate(-180)"/><rect class="cls-17" x="150.451" y="74.369" width="17.034" height="8.948" transform="translate(317.936 157.686) rotate(-180)"/><rect class="cls-17" x="167.872" y="65.069" width="17.034" height="8.948" transform="translate(352.778 139.087) rotate(-180)"/><rect class="cls-17" x="184.906" y="56.122" width="8.948" height="8.948" transform="translate(378.759 121.191) rotate(-180)"/><rect class="cls-17" x="194.485" y="47.519" width="8.948" height="8.948" transform="translate(397.918 103.987) rotate(-180)"/><rect class="cls-17" x="200.274" y="38.572" width="8.948" height="8.948" transform="translate(409.496 86.091) rotate(-180)"/><rect class="cls-17" x="209.393" y="29.452" width="8.948" height="8.948" transform="translate(427.734 67.853) rotate(-180)"/><rect class="cls-17" x="287.849" y="74.369" width="17.034" height="8.948"/><rect class="cls-17" x="270.428" y="65.069" width="17.034" height="8.948"/><rect class="cls-17" x="261.48" y="56.122" width="8.948" height="8.948"/><rect class="cls-17" x="251.901" y="47.519" width="8.948" height="8.948"/><rect class="cls-17" x="246.112" y="38.572" width="8.948" height="8.948"/><rect class="cls-17" x="236.993" y="29.452" width="8.948" height="8.948"/></g></g></svg>