<svg xmlns="http://www.w3.org/2000/svg" viewBox="0 0 2160 2160"><defs><style>.cls-1{fill:#77b1d7;}.cls-2{fill:#2a2a3a;}.cls-3{opacity:0.41;}.cls-4{fill:#292a3c;}.cls-5{fill:#283358;}.cls-6{fill:#fdf4f0;}.cls-7{fill:#bdbdbd;}.cls-12,.cls-8{fill:#e5720a;}.cls-9{fill:#f49549;}.cls-10{fill:#ffb776;}.cls-11,.cls-12{opacity:0.64;}.cls-13{fill:#f7d0b0;}.cls-14{fill:#332e5a;}.cls-15{fill:#78d1d5;}.cls-16{fill:#3b2646;}.cls-17{fill:#584562;}.cls-18{fill:#1c042b;}.cls-19{fill:#4d4d4d;}.cls-20{fill:#fffeff;}.cls-21{fill:#c19d29;}.cls-22{fill:#f6d865;}</style></defs><g id="Layer_2" data-name="Layer 2"><g id="Layer_1-2" data-name="Layer 1"><rect class="cls-1" width="2160" height="2160" rx="52.419"/><path class="cls-2" d="M390.288,850.27l37.954,18.977,9.49,18.977L418.755,907.2H399.776V878.736L380.8,859.758H361.822l-28.466,18.978L314.379,907.2v75.91l18.977,28.466,37.955,18.978,28.465-9.489,18.979-18.978,9.487-18.977,9.49,9.489-18.977,28.466-28.467,18.977H342.845l-37.956-18.977L285.912,992.6l-9.488-47.444,9.488-47.443,18.977-28.466,37.956-18.977h47.443m1.014-4.294h-49.47l-.907.454L302.97,865.407l-1.021.51-.632.948L282.34,895.332l-.471.706-.166.833-9.489,47.443-.168.842.168.842,9.489,47.444.166.832.471.707,18.977,28.466.632.949,1.021.51,37.955,18.977.907.453h49.756l1.082-.721,28.466-18.977.715-.476.476-.715L441.3,994.981l1.952-2.928-2.489-2.489-9.489-9.489-4.212-4.211-2.664,5.327-9.176,18.354-17.769,17.769-25.816,8.605L336.3,1008.247l-17.624-26.436V908.5l17.78-26.669,26.67-17.781h15.9l16.463,16.463V911.5h25.05l1.257-1.258,18.978-18.977,2.187-2.188-1.384-2.768-9.489-18.977-.64-1.28-1.28-.64L392.208,846.43l-.906-.454Z"/><path class="cls-2" d="M499.406,840.781v180.285l18.977,18.977h-66.42l18.977-18.977V869.247l-18.977-9.489,47.443-18.977m4.293-6.341-5.887,2.355-47.444,18.977-8.876,3.551,8.551,4.275,16.6,8.3v147.388l-17.72,17.719-7.329,7.329h87.15l-7.329-7.329-17.72-17.719V834.44Z"/><path class="cls-2" d="M599.036,907.2,627.5,916.69l18.977,28.466-9.49,18.977-75.91,18.978,9.49,37.955,28.466,9.489,18.977-9.489,18.977-18.978,9.49,9.489L627.5,1030.555l-18.979,9.488H580.059l-28.466-9.488L532.616,992.6V954.645l18.977-37.955,28.466-9.489h18.977M561.08,973.623l47.444-18.978V926.179l-18.977-9.489-18.977,9.489-9.49,47.444m38.653-70.715h-20.37l-.661.22-28.467,9.489-1.687.562-.795,1.591-18.977,37.955-.453.906v39.982l.453.907,18.977,37.955.795,1.59,1.687.563,28.467,9.488.661.22h30.174l.907-.453,18.979-9.488.623-.312.493-.493,18.977-18.978,3.035-3.035-3.036-3.036-9.489-9.489-3.036-3.035-3.036,3.036-18.484,18.485-16.763,8.381-24.544-8.181-7.876-31.5L638.031,968.3l1.916-.479.883-1.766,9.49-18.977,1.114-2.229-1.382-2.073-18.977-28.466-.817-1.226-1.4-.466-28.466-9.489-.661-.22ZM574.368,929.08l15.179-7.59,14.684,7.342v22.906l-37.386,14.955,7.523-37.613Z"/><path class="cls-2" d="M712.9,907.2l37.956,9.489,9.488,18.978v85.4l18.978-9.489v9.489l-18.978,18.977h-9.488l-9.489-18.977L712.9,1040.043H693.92l-18.977-9.488-18.977-28.467,9.488-28.465,18.978-9.49,47.444-9.488V935.668l-9.489-9.489H703.409l-9.489,18.977-18.977-18.977L712.9,907.2m-9.488,123.354,18.978-9.489,9.489-18.978V964.133L693.92,983.111l-9.488,18.977,18.977,28.467m8.989-127.9-1.421.711-37.954,18.977L667.7,925l4.211,4.212,18.977,18.977L695.1,952.4l2.664-5.328,8.3-16.6h14.546l6.974,6.974v13.679l-43.992,8.8-.564.112-.514.258-18.978,9.489-1.59.795-.563,1.687-9.488,28.466-.664,1.992,1.165,1.747,18.977,28.466.632.949,1.02.51L692,1043.883l.907.453H714.2l1.082-.721,24.42-16.279,7.314,14.627,1.186,2.373h13.92l1.257-1.257,18.979-18.977,1.257-1.258V1004.63l-6.213,3.107-12.765,6.382V934.654l-.453-.906-9.489-18.978L753.81,913l-1.916-.479-37.956-9.489-1.54-.385Zm-15.277,83.66,30.461-15.231v30l-8.395,16.791-14.308,7.154-15.493-23.24,7.735-15.469Z"/><path class="cls-2" d="M881.32,907.2,900.3,916.69v18.978L881.32,964.133h-9.487V935.668h-9.49l-18.977,18.977v66.421l18.977,18.977h-66.42l18.977-18.977v-85.4l-28.466-9.489L843.366,907.2l-9.488,37.955v9.489l28.465-37.955L881.32,907.2m-31.892-6.546-7.419,2.473-56.933,18.978-12.218,4.073,12.218,4.073,25.531,8.51v80.526l-17.72,17.719-7.328,7.329h87.149l-7.329-7.329-17.72-17.719V956.423l16.463-16.462h3.418v28.466h16.078l1.274-1.912,18.978-28.466.721-1.081V914.037l-2.373-1.187-18.978-9.489-1.92-.96-1.919.96-18.977,9.489-.907.453-.608.811-19.268,25.691,7.89-31.562,1.9-7.588Z"/><path class="cls-2" d="M1298.144,869.576,1279.167,850.6H1336.1l-18.978,18.978-56.932,170.8-9.489,9.489-37.954-132.842-37.955,123.353-9.488,9.489L1108.37,869.576,1089.393,850.6h66.42l-18.977,18.978,37.955,123.353,28.466-123.353,28.466-9.489,28.466,132.842Z"/><path class="cls-2" d="M1421.379,936v85.4l18.978-9.489v9.489l-18.978,18.977h-9.488L1402.4,1021.4l-28.467,18.977h-18.977l-18.977-9.488L1317,1002.417l9.488-28.465,18.978-9.49,47.444-9.488V936l-9.489-9.489h-18.978l-9.489,18.977-18.977-18.977,37.954-18.978,37.956,9.489Zm-75.909,66.42,18.977,28.467,18.978-9.489,9.489-18.978V964.462l-37.956,18.978Z"/><path class="cls-2" d="M1521.01,917.019v9.489L1492.544,936v75.909l9.488,9.489,18.978-18.978,9.488,9.489-18.977,18.978-18.977,9.488h-9.489l-18.978-28.466V936l-18.977-9.489v-9.489l18.977-9.489,9.49-9.488,9.488-18.977h9.489v37.954Z"/><path class="cls-2" d="M1634.871,917.019l18.977,28.466-9.489,18.977-75.91,18.978,9.49,37.955,28.466,9.489,18.977-9.489,18.977-18.978,9.489,9.489-18.977,18.978-18.978,9.488h-28.465l-28.467-9.488-18.977-37.955V954.974l18.977-37.955,28.467-9.489h18.977Zm-66.422,56.933,47.444-18.978V926.508l-18.977-9.489-18.977,9.489Z"/><path class="cls-2" d="M1713.151,954.974l28.466-37.955,18.977-9.489,18.978,9.489V936l-18.978,28.465h-9.487V936h-9.49l-18.977,18.977V1021.4l18.977,18.977H1675.2l18.977-18.977V936l-28.466-9.489,56.932-18.978-9.489,37.955Z"/><path class="cls-2" d="M1853.11,926.508h-18.979L1824.643,936v9.488l56.932,37.955,9.489,18.977-9.489,28.467-18.978,9.488h-28.466l-18.977-9.488-9.488,9.488-9.489-47.443h9.489l18.977,28.466,18.977,9.489,18.977-9.489v-18.978l-56.931-37.955-9.489-18.977,9.489-28.466,37.954-9.489,18.977,9.489,9.49-9.489,9.488,47.444h-9.488Z"/><g class="cls-3"><path class="cls-4" d="M932.827,1076.967h127.238c.061,0,.063-8.261,0-8.261H932.827c-.06,0-.063,8.261,0,8.261Z"/></g><g class="cls-3"><path class="cls-4" d="M960.531,1068.841h116.958c.061,0,.063-8.261,0-8.261h-.916c-.061,0-.063,8.261,0,8.261h.916c.061,0,.063-8.261,0-8.261H960.531c-.061,0-.063,8.261,0,8.261Z"/></g><rect class="cls-5" x="956.279" y="983.364" width="20.423" height="51.418"/><rect class="cls-5" x="1004.518" y="983.364" width="21.18" height="51.418"/><rect class="cls-6" x="943.666" y="1034.781" width="33.036" height="14.524"/><rect class="cls-6" x="930.63" y="1042.043" width="46.072" height="14.524"/><rect class="cls-6" x="930.63" y="1050.124" width="46.072" height="14.524"/><rect class="cls-6" x="1005.074" y="1034.781" width="33.036" height="14.524" transform="translate(2043.184 2084.087) rotate(-180)"/><rect class="cls-6" x="1005.074" y="1042.044" width="46.099" height="14.524" transform="translate(2056.247 2098.611) rotate(-180)"/><rect class="cls-6" x="1005.074" y="1050.124" width="46.099" height="14.524" transform="translate(2056.247 2114.773) rotate(-180)"/><path class="cls-7" d="M943.322,1046.68H960.7c.056,0,.058-7.565,0-7.565h-.291c-.055,0-.057,7.565,0,7.565h.291c.056,0,.058-7.565,0-7.565H943.322c-.056,0-.058,7.565,0,7.565Z"/><path class="cls-7" d="M1005.473,1045.826H1022v-7.565h-.291c-.056,0-.058,7.565,0,7.565H1022c.055,0,.057-7.565,0-7.565h-16.525c-.055,0-.057,7.565,0,7.565Z"/><path class="cls-7" d="M1038.367,1037.834h-5.126c-.056,0-.058,7.565,0,7.565h5.126c.055,0,.057-7.565,0-7.565Z"/><path d="M956.279,1006.361h19.3c.111,0,.115-15.129,0-15.129h-.844c-.111,0-.115,15.129,0,15.129h.844c.111,0,.115-15.129,0-15.129h-19.3c-.111,0-.115,15.129,0,15.129Z"/><path d="M1008.615,1002.583h18.129V989.011c-.387.247-.114,1.11-.5,1.357a11.629,11.629,0,0,0-.048,1.988c-.017,1.6-.02,3.2-.019,4.8s0,3.2.019,4.8a11.345,11.345,0,0,1,.048,1.987c.388-.247.115-1.109.5-1.357a11.414,11.414,0,0,0,.048-1.987q.026-2.4.02-4.8c0-.5.013-6.786-.068-6.786h-18.129c-.1,0-.1,13.572,0,13.572Z"/><path d="M1004.619,1008h11.961c.111,0,.116-15.13,0-15.13h-11.961c-.111,0-.115,15.13,0,15.13Z"/><polygon class="cls-8" points="1080.948 833.403 1070.026 833.403 1070.026 822.481 1059.105 822.481 1059.105 811.56 1048.183 811.56 1048.183 800.638 1035.436 800.638 1035.436 789.717 937.61 789.717 937.61 800.638 926.688 800.638 926.688 811.56 915.767 811.56 915.767 822.481 904.846 822.481 904.846 833.403 893.924 833.403 893.924 932.923 904.846 932.923 904.846 939.871 915.767 939.871 915.767 950.793 926.688 950.793 926.688 961.714 939.436 961.714 939.436 972.636 1037.262 972.636 1037.262 961.714 1048.183 961.714 1048.183 950.793 1059.105 950.793 1059.105 939.871 1070.026 939.871 1070.026 932.923 1080.948 932.923 1080.948 833.403"/><polygon class="cls-9" points="1080.948 854.187 1070.026 854.187 1070.026 843.266 1059.105 843.266 1059.105 832.344 1048.183 832.344 1048.183 821.423 1035.436 821.423 1035.436 810.501 937.61 810.501 937.61 821.423 926.688 821.423 926.688 832.344 915.767 832.344 915.767 843.266 904.846 843.266 904.846 854.187 893.924 854.187 893.924 953.708 904.846 953.708 904.846 960.655 915.767 960.655 915.767 971.577 926.688 971.577 926.688 982.498 939.436 982.498 939.436 993.42 1037.262 993.42 1037.262 982.498 1048.183 982.498 1048.183 971.577 1059.105 971.577 1059.105 960.655 1070.026 960.655 1070.026 953.708 1080.948 953.708 1080.948 854.187"/><path class="cls-10" d="M951.485,817.005h76.041c.05,0,.052-6.786,0-6.786h-1.952c-.05,0-.052,6.786,0,6.786h1.952c.05,0,.052-6.786,0-6.786H951.485c-.05,0-.052,6.786,0,6.786Z"/><path class="cls-10" d="M948.036,821.6h82.894c.049,0,.051-6.786,0-6.786h-.757c-.05,0-.052,6.786,0,6.786h.757c.049,0,.051-6.786,0-6.786H948.036c-.05,0-.051,6.786,0,6.786Z"/><path class="cls-10" d="M944.587,822.7h85.586c.1,0,.1-13.572,0-13.572H944.587c-.1,0-.1,13.572,0,13.572Z"/><path class="cls-10" d="M920.445,845.69h24.142c.1,0,.1-13.572,0-13.572H920.445c-.1,0-.1,13.572,0,13.572Z"/><path class="cls-10" d="M908.949,853.738h25.292c.1,0,.1-13.573,0-13.573H908.949c-.1,0-.1,13.573,0,13.573Z"/><path class="cls-10" d="M1032.472,843.391h20.693c.1,0,.1-13.572,0-13.572h-20.693c-.1,0-.1,13.572,0,13.572Z"/><path class="cls-10" d="M1042.819,854.887h22.992c.1,0,.1-13.572,0-13.572h-22.992c-.1,0-.1,13.572,0,13.572Z"/><path class="cls-10" d="M958.383,964.1h62.593c.1,0,.1-13.572,0-13.572H958.383c-.1,0-.1,13.572,0,13.572Z"/><path class="cls-10" d="M1017.527,951.456h12.646c.1,0,.1-13.572,0-13.572h-12.646c-.1,0-.1,13.572,0,13.572Z"/><path class="cls-10" d="M946.887,951.456H967.58c.1,0,.1-13.572,0-13.572H946.887c-.1,0-.1,13.572,0,13.572Z"/><g class="cls-11"><path class="cls-8" d="M941.458,993.992h91.771c.1,0,.1-13.572,0-13.572h-.757c-.1,0-.1,13.572,0,13.572h.757c.1,0,.1-13.572,0-13.572H941.458c-.1,0-.1,13.572,0,13.572Z"/></g><g class="cls-11"><path class="cls-8" d="M1033.621,983.645h13.8c.1,0,.1-13.572,0-13.572h-13.8c-.1,0-.1,13.572,0,13.572Z"/></g><g class="cls-11"><path class="cls-8" d="M1048.567,973.3h10.346c.1,0,.1-13.572,0-13.572h-10.346c-.1,0-.1,13.572,0,13.572Z"/></g><g class="cls-11"><path class="cls-8" d="M928.493,987.094h20.693c.1,0,.1-13.572,0-13.572H928.493c-.1,0-.1,13.572,0,13.572Z"/></g><g class="cls-11"><path class="cls-8" d="M912.4,972.149h18.394c.1,0,.1-13.572,0-13.572H912.4c-.1,0-.1,13.572,0,13.572Z"/></g><g class="cls-11"><path class="cls-8" d="M957.233,836.493h63.35c.1,0,.1-13.572,0-13.572h-.757c-.1,0-.1,13.572,0,13.572h.757c.1,0,.1-13.572,0-13.572h-63.35c-.1,0-.1,13.572,0,13.572Z"/></g><rect class="cls-12" x="921.595" y="867.472" width="12.646" height="68.978"/><rect class="cls-12" x="1039.625" y="867.472" width="12.646" height="68.978"/><path class="cls-13" d="M969.879,822.7h42.7c.1,0,.1-13.572,0-13.572h-1.948c-.1,0-.1,13.572,0,13.572h1.948c.1,0,.1-13.572,0-13.572h-42.7c-.1,0-.1,13.572,0,13.572Z"/><path class="cls-13" d="M915.847,847.989h10.346c.1,0,.1-13.572,0-13.572H915.847c-.1,0-.1,13.572,0,13.572Z"/><path class="cls-13" d="M1038.22,843.391h16.1c.1,0,.1-13.572,0-13.572h-16.1c-.1,0-.1,13.572,0,13.572Z"/><path class="cls-13" d="M967.58,964.1h48.8c.1,0,.1-13.572,0-13.572h-48.8c-.1,0-.1,13.572,0,13.572Z"/><rect class="cls-14" x="978.947" y="932.394" width="9.624" height="9.624"/><rect class="cls-14" x="988.571" y="932.394" width="9.624" height="9.624"/><rect class="cls-14" x="996.371" y="927.582" width="9.624" height="9.624"/><rect class="cls-6" x="932.04" y="878.048" width="40.999" height="40.999"/><rect class="cls-6" x="932.04" y="919.048" width="34.504" height="6.089"/><rect class="cls-5" x="925.545" y="886.361" width="20.297" height="28.929"/><rect class="cls-5" x="941.782" y="891.444" width="10.96" height="20.703"/><rect x="1005.995" y="871.959" width="39.953" height="14.401"/><rect x="999.094" y="886.361" width="53.177" height="18.479"/><rect x="1001.919" y="902.704" width="44.653" height="9.443"/><rect x="1005.995" y="904.84" width="35.316" height="14.208"/><rect x="997.859" y="880.817" width="26.386" height="24.023"/><rect x="1006.198" y="900.984" width="12.99" height="10.351"/><rect class="cls-15" x="930.63" y="1057.387" width="46.072" height="7.262"/><rect class="cls-15" x="1005.074" y="1057.387" width="46.099" height="7.262" transform="translate(2056.247 2122.036) rotate(-180)"/><rect class="cls-8" x="891.239" y="854.972" width="11.061" height="102.343"/><rect class="cls-8" x="1071.959" y="853.014" width="11.061" height="102.343"/><rect class="cls-16" x="893.924" y="842.706" width="189.096" height="10.79"/><rect class="cls-16" x="893.924" y="829.707" width="189.096" height="14.252" transform="translate(1976.944 1673.666) rotate(180)"/><rect class="cls-16" x="902.3" y="815.911" width="172.344" height="14.252" transform="translate(1976.944 1646.075) rotate(180)"/><rect class="cls-16" x="913.84" y="804.442" width="149.264" height="14.252" transform="translate(1976.944 1623.135) rotate(180)"/><rect class="cls-16" x="917.839" y="790.19" width="141.266" height="14.252" transform="translate(1976.944 1594.632) rotate(180)"/><rect class="cls-16" x="936.424" y="781.489" width="104.095" height="14.252" transform="translate(1976.944 1577.23) rotate(180)"/><rect class="cls-17" x="1074.644" y="850.531" width="18.362" height="18.362"/><rect class="cls-16" x="1093.006" y="850.531" width="18.362" height="18.362"/><rect class="cls-16" x="1093.006" y="868.867" width="18.362" height="18.362"/><rect class="cls-16" x="1108.429" y="878.048" width="18.362" height="18.362"/><rect class="cls-16" x="1123.362" y="878.048" width="18.362" height="18.362"/><rect class="cls-17" x="1074.644" y="868.867" width="18.362" height="18.362"/><rect class="cls-17" x="1093.006" y="886.419" width="18.362" height="18.362"/><rect class="cls-17" x="1093.006" y="902.154" width="18.362" height="18.362"/><path class="cls-17" d="M963.589,851H1064.3c.072,0,.075-9.794,0-9.794h-2.817c-.072,0-.074,9.794,0,9.794h2.817c.072,0,.075-9.794,0-9.794H963.589c-.072,0-.074,9.794,0,9.794Z"/><path class="cls-17" d="M945.338,841.048h82.387c.072,0,.075-9.794,0-9.794h-1.087c-.071,0-.074,9.794,0,9.794h1.087c.072,0,.075-9.794,0-9.794H945.338c-.072,0-.075,9.794,0,9.794Z"/><path class="cls-18" d="M945.333,793.512h84.619c.072,0,.074-9.794,0-9.794H945.333c-.072,0-.075,9.794,0,9.794Z"/><path class="cls-18" d="M907.177,819.478h64.708c.072,0,.075-9.793,0-9.793H907.177c-.072,0-.075,9.793,0,9.793Z"/><path class="cls-18" d="M1006.728,799.568h46.458c.071,0,.074-9.794,0-9.794h-46.458c-.072,0-.074,9.794,0,9.794Z"/><path class="cls-18" d="M900.54,851h66.368c.072,0,.074-9.794,0-9.794H900.54c-.072,0-.075,9.794,0,9.794Z"/><rect x="997.255" y="867.472" width="13.345" height="13.345"/><rect x="989.093" y="859.31" width="13.345" height="13.345"/><rect x="1052.241" y="901.795" width="13.345" height="13.345"/><rect x="1063.104" y="905.474" width="13.345" height="13.345"/><rect x="1069.777" y="912.147" width="13.345" height="13.345"/><rect x="981.289" y="851.506" width="13.345" height="13.345"/><path class="cls-19" d="M1026.955,882.945h17.7c.072,0,.074-9.793,0-9.793h-17.7c-.072,0-.075,9.793,0,9.793Z"/><path class="cls-19" d="M1036.905,888.6h11.8c.072,0,.075-9.794,0-9.794h-11.8c-.072,0-.075,9.794,0,9.794Z"/><rect class="cls-2" x="205.633" y="807.982" width="14.586" height="14.586"/><rect class="cls-2" x="205.633" y="822.568" width="14.586" height="14.586"/><rect class="cls-2" x="220.219" y="822.568" width="14.586" height="14.586"/><rect class="cls-2" x="212.926" y="815.275" width="14.586" height="14.586"/><rect class="cls-2" x="212.926" y="829.861" width="14.586" height="14.586"/><rect class="cls-2" x="198.34" y="815.275" width="14.586" height="14.586"/><rect class="cls-2" x="198.34" y="829.861" width="14.586" height="14.586"/><rect class="cls-2" x="191.047" y="822.568" width="14.586" height="14.586"/><rect class="cls-2" x="205.633" y="837.154" width="14.586" height="14.586"/><rect class="cls-2" x="1983.204" y="845.898" width="7.293" height="7.293"/><rect class="cls-2" x="1983.204" y="853.191" width="7.293" height="7.293"/><rect class="cls-2" x="1983.204" y="860.484" width="7.293" height="7.293"/><rect class="cls-2" x="2012.376" y="845.898" width="7.293" height="7.293"/><rect class="cls-2" x="2012.376" y="853.191" width="7.293" height="7.293"/><rect class="cls-2" x="2012.376" y="860.484" width="7.293" height="7.293"/><rect class="cls-2" x="2005.083" y="838.605" width="7.293" height="7.293" transform="translate(2850.981 -1166.478) rotate(90)"/><rect class="cls-2" x="1997.79" y="838.605" width="7.293" height="7.293" transform="translate(2843.688 -1159.185) rotate(90)"/><rect class="cls-2" x="1990.497" y="838.605" width="7.293" height="7.293" transform="translate(2836.395 -1151.892) rotate(90)"/><rect class="cls-2" x="2005.083" y="867.777" width="7.293" height="7.293" transform="translate(2880.152 -1137.306) rotate(90)"/><rect class="cls-2" x="1997.79" y="867.777" width="7.293" height="7.293" transform="translate(2872.86 -1130.013) rotate(90)"/><rect class="cls-2" x="1990.497" y="867.777" width="7.293" height="7.293" transform="translate(2865.567 -1122.72) rotate(90)"/><rect class="cls-2" x="196.571" y="1053.904" width="7.293" height="7.293" transform="translate(1257.768 857.333) rotate(90)"/><rect class="cls-2" x="196.571" y="1061.197" width="7.293" height="7.293" transform="translate(1265.061 864.626) rotate(90)"/><rect class="cls-2" x="203.864" y="1068.49" width="7.293" height="7.293" transform="translate(1279.647 864.626) rotate(90)"/><rect class="cls-2" x="211.048" y="1068.49" width="7.293" height="7.293" transform="translate(1286.83 857.442) rotate(90)"/><rect class="cls-2" x="218.341" y="1075.783" width="7.293" height="7.293" transform="translate(1301.416 857.442) rotate(90)"/><rect class="cls-2" x="225.634" y="1075.783" width="7.293" height="7.293" transform="translate(1308.709 850.149) rotate(90)"/><rect class="cls-2" x="236.573" y="1064.843" width="7.293" height="7.293" transform="translate(1308.709 828.27) rotate(90)"/><rect class="cls-2" x="136.917" y="925.846" width="7.293" height="7.293" transform="translate(1070.056 788.929) rotate(90)"/><rect class="cls-2" x="144.21" y="925.846" width="7.293" height="7.293" transform="translate(1077.349 781.636) rotate(90)"/><rect class="cls-2" x="151.503" y="933.139" width="7.293" height="7.293" transform="translate(1091.935 781.636) rotate(90)"/><rect class="cls-2" x="158.796" y="933.139" width="7.293" height="7.293" transform="translate(1099.228 774.343) rotate(90)"/><rect class="cls-2" x="166.089" y="940.432" width="7.293" height="7.293" transform="translate(1113.813 774.343) rotate(90)"/><rect class="cls-2" x="166.089" y="947.725" width="7.293" height="7.293" transform="translate(1121.106 781.636) rotate(90)"/><rect class="cls-2" x="166.089" y="955.018" width="7.293" height="7.293" transform="translate(1128.399 788.929) rotate(90)"/><rect class="cls-2" x="158.796" y="962.31" width="7.293" height="7.293" transform="translate(1128.399 803.514) rotate(90)"/><rect class="cls-2" x="151.503" y="969.603" width="7.293" height="7.293" transform="translate(1128.399 818.1) rotate(90)"/><rect class="cls-2" x="144.21" y="969.603" width="7.293" height="7.293" transform="translate(1121.106 825.393) rotate(90)"/><rect class="cls-2" x="136.917" y="969.603" width="7.293" height="7.293" transform="translate(1113.813 832.686) rotate(90)"/><rect class="cls-2" x="129.624" y="962.31" width="7.293" height="7.293" transform="translate(1099.228 832.686) rotate(90)"/><rect class="cls-2" x="122.331" y="955.018" width="7.293" height="7.293" transform="translate(1084.642 832.686) rotate(90)"/><rect class="cls-2" x="122.331" y="947.725" width="7.293" height="7.293" transform="translate(1077.349 825.393) rotate(90)"/><rect class="cls-2" x="122.331" y="940.432" width="7.293" height="7.293" transform="translate(1070.056 818.1) rotate(90)"/><rect class="cls-2" x="129.624" y="933.139" width="7.293" height="7.293" transform="translate(1070.056 803.514) rotate(90)"/><rect class="cls-2" x="1831.984" y="769.322" width="7.293" height="7.293" transform="translate(2608.599 -1062.662) rotate(90)"/><rect class="cls-2" x="1839.277" y="769.322" width="7.293" height="7.293" transform="translate(2615.892 -1069.955) rotate(90)"/><rect class="cls-2" x="1846.57" y="776.615" width="7.293" height="7.293" transform="translate(2630.478 -1069.955) rotate(90)"/><rect class="cls-2" x="1853.863" y="776.615" width="7.293" height="7.293" transform="translate(2637.771 -1077.248) rotate(90)"/><rect class="cls-2" x="1861.156" y="783.908" width="7.293" height="7.293" transform="translate(2652.357 -1077.248) rotate(90)"/><rect class="cls-2" x="1861.156" y="791.201" width="7.293" height="7.293" transform="translate(2659.65 -1069.955) rotate(90)"/><rect class="cls-2" x="1861.156" y="798.494" width="7.293" height="7.293" transform="translate(2666.942 -1062.662) rotate(90)"/><rect class="cls-2" x="1853.863" y="805.787" width="7.293" height="7.293" transform="translate(2666.942 -1048.076) rotate(90)"/><rect class="cls-2" x="1846.57" y="813.08" width="7.293" height="7.293" transform="translate(2666.942 -1033.49) rotate(90)"/><rect class="cls-2" x="1839.277" y="813.08" width="7.293" height="7.293" transform="translate(2659.65 -1026.197) rotate(90)"/><rect class="cls-2" x="1831.984" y="813.08" width="7.293" height="7.293" transform="translate(2652.357 -1018.904) rotate(90)"/><rect class="cls-2" x="1824.691" y="805.787" width="7.293" height="7.293" transform="translate(2637.771 -1018.904) rotate(90)"/><rect class="cls-2" x="1817.398" y="798.494" width="7.293" height="7.293" transform="translate(2623.185 -1018.904) rotate(90)"/><rect class="cls-2" x="1817.398" y="791.201" width="7.293" height="7.293" transform="translate(2615.892 -1026.197) rotate(90)"/><rect class="cls-2" x="1817.398" y="783.908" width="7.293" height="7.293" transform="translate(2608.599 -1033.49) rotate(90)"/><rect class="cls-2" x="1824.691" y="776.615" width="7.293" height="7.293" transform="translate(2608.599 -1048.076) rotate(90)"/><rect class="cls-2" x="1946.739" y="1022.536" width="7.293" height="7.293" transform="translate(2976.569 -924.203) rotate(90)"/><rect class="cls-2" x="1954.032" y="1022.536" width="7.293" height="7.293" transform="translate(2983.862 -931.496) rotate(90)"/><rect class="cls-2" x="1961.325" y="1022.536" width="7.293" height="7.293" transform="translate(2991.155 -938.789) rotate(90)"/><rect class="cls-2" x="1968.618" y="1029.829" width="7.293" height="7.293" transform="translate(3005.741 -938.789) rotate(90)"/><rect class="cls-2" x="1975.911" y="1037.122" width="7.293" height="7.293" transform="translate(3020.326 -938.789) rotate(90)"/><rect class="cls-2" x="1975.911" y="1044.415" width="7.293" height="7.293" transform="translate(3027.619 -931.496) rotate(90)"/><rect class="cls-2" x="1975.911" y="1051.708" width="7.293" height="7.293" transform="translate(3034.912 -924.203) rotate(90)"/><rect class="cls-2" x="1968.618" y="1059.001" width="7.293" height="7.293" transform="translate(3034.912 -909.617) rotate(90)"/><rect class="cls-2" x="1961.325" y="1059.001" width="7.293" height="7.293" transform="translate(3027.619 -902.324) rotate(90)"/><rect class="cls-2" x="1954.032" y="1059.001" width="7.293" height="7.293" transform="translate(3020.326 -895.031) rotate(90)"/><rect class="cls-2" x="1946.739" y="1059.001" width="7.293" height="7.293" transform="translate(3013.033 -887.738) rotate(90)"/><rect class="cls-2" x="1939.447" y="1051.708" width="7.293" height="7.293" transform="translate(2998.448 -887.738) rotate(90)"/><rect class="cls-2" x="1939.447" y="1044.415" width="7.293" height="7.293" transform="translate(2991.155 -895.031) rotate(90)"/><rect class="cls-2" x="1939.447" y="1037.122" width="7.293" height="7.293" transform="translate(2983.862 -902.324) rotate(90)"/><rect class="cls-2" x="1939.447" y="1029.829" width="7.293" height="7.293" transform="translate(2976.569 -909.617) rotate(90)"/><path class="cls-20" d="M312.146,1176.569v20.872h-9.074v-14.7H281.293v14.7h-9.075v-20.872l15.427-42.651h9.074Zm-29.22-2.9h18.512l-9.166-25.409h-.18Z"/><path class="cls-20" d="M411.975,1150.253a7.167,7.167,0,0,0-7.259-7.26h-7.26a7.223,7.223,0,0,0-7.26,7.26v30.763a7.28,7.28,0,0,0,7.26,7.259h7.26a7.281,7.281,0,0,0,7.259-7.259v-4.991h9.074v4.991a16.4,16.4,0,0,1-16.333,16.425h-7.26a16.461,16.461,0,0,1-16.335-16.425v-30.763a16.324,16.324,0,0,1,16.335-16.335h7.26a16.266,16.266,0,0,1,16.333,16.335v4.991h-9.074Z"/><path class="cls-20" d="M475.5,1188.366v9.075H435.572v-9.075h14.973v-46.281H435.572v-9.074H459.62v55.355Z"/><path class="cls-20" d="M529.952,1151.161v46.28h-9.074v-5.082l-7.532,5.082h-6.987a16.383,16.383,0,0,1-16.335-16.335v-13.612a16.324,16.324,0,0,1,16.335-16.333h6.987l7.532,5.081v-5.081Zm-9.074,30.218v-14.157l-10.345-6.988h-4.174a7.281,7.281,0,0,0-7.26,7.26v13.612a7.281,7.281,0,0,0,7.26,7.26h4.174Z"/><path class="cls-20" d="M584.4,1167.494v3.63h-9.076v-3.63a7.281,7.281,0,0,0-7.259-7.26h-.907l-13.613,9.166v28.041h-9.074v-46.28h9.074v7.259l10.8-7.259h3.72A16.324,16.324,0,0,1,584.4,1167.494Z"/><path class="cls-20" d="M638.854,1188.366v9.075H598.926v-9.075H613.9v-28.132H598.926v-9.073h24.048v37.2Zm-15.88-45.373h-9.982v-9.075h9.982Z"/><path class="cls-20" d="M676.517,1160.234v20.872a7.167,7.167,0,0,0,7.26,7.26h9.529v9.075h-9.529a16.267,16.267,0,0,1-16.334-16.335v-20.872H653.377v-9.073h14.066v-11.8h9.074v11.8h16.789v9.073Z"/><path class="cls-20" d="M747.757,1151.161,723.8,1216.5h-9.71l8.349-22.687-14.61-42.65h9.619l9.891,29.129,10.708-29.129Z"/><path class="cls-20" d="M825.806,1176.932v3.63a7.863,7.863,0,0,0,7.8,7.8h6.079c4.629,0,7.895-2.9,7.895-6.9,0-12.523-29.945-15.245-29.945-32.486,0-8.894,6.987-15.065,16.877-15.065h4.267a16.924,16.924,0,0,1,16.968,16.879v2.723h-9.074V1150.8a7.823,7.823,0,0,0-7.894-7.8h-4.267c-4.9,0-7.8,2.269-7.8,5.99,0,9.618,29.946,13.339,29.946,32.486,0,9.075-7.35,15.972-16.97,15.972h-6.079a16.847,16.847,0,0,1-16.879-16.879v-3.63Z"/><path class="cls-20" d="M912.927,1165.68v31.761h-9.075V1165.68a26.855,26.855,0,0,0-.182-4.175l-7.985,7.623v28.313h-9.074V1165.68a26.855,26.855,0,0,0-.182-4.175l-7.986,7.623v28.313h-9.074v-46.28h9.074v5.262l5.446-5.262h.724c4.811,0,8.168,2.087,9.892,6.442l6.625-6.442h.726C909.025,1151.161,912.927,1155.7,912.927,1165.68Zm-29.311-6.9h0Zm17.241,0h0Z"/><path class="cls-20" d="M965.562,1151.161v46.28h-9.074v-5.082l-7.532,5.082h-6.987a16.383,16.383,0,0,1-16.335-16.335v-13.612a16.323,16.323,0,0,1,16.335-16.333h6.987l7.532,5.081v-5.081Zm-9.074,30.218v-14.157l-10.345-6.988h-4.174a7.281,7.281,0,0,0-7.26,7.26v13.612a7.281,7.281,0,0,0,7.26,7.26h4.174Z"/><path class="cls-20" d="M1020.013,1167.494v3.63h-9.073v-3.63a7.283,7.283,0,0,0-7.26-7.26h-.908L989.16,1169.4v28.041h-9.075v-46.28h9.075v7.259l10.8-7.259h3.721A16.323,16.323,0,0,1,1020.013,1167.494Z"/><path class="cls-20" d="M1057.677,1160.234v20.872a7.167,7.167,0,0,0,7.26,7.26h9.528v9.075h-9.528a16.267,16.267,0,0,1-16.334-16.335v-20.872h-14.066v-9.073H1048.6v-11.8h9.074v11.8h16.788v9.073Z"/><path class="cls-20" d="M1174.294,1150.253a7.167,7.167,0,0,0-7.26-7.26h-7.259a7.223,7.223,0,0,0-7.26,7.26v30.763a7.28,7.28,0,0,0,7.26,7.259h7.259a7.281,7.281,0,0,0,7.26-7.259v-4.991h9.074v4.991a16.4,16.4,0,0,1-16.334,16.425h-7.259a16.461,16.461,0,0,1-16.335-16.425v-30.763a16.324,16.324,0,0,1,16.335-16.335h7.259a16.267,16.267,0,0,1,16.334,16.335v4.991h-9.074Z"/><path class="cls-20" d="M1214.226,1197.441a16.19,16.19,0,0,1-16.335-16.244v-13.7a16.266,16.266,0,0,1,16.335-16.333h7.26a16.266,16.266,0,0,1,16.334,16.333v13.7a16.19,16.19,0,0,1-16.334,16.244Zm14.52-16.244v-13.7a7.168,7.168,0,0,0-7.26-7.26h-7.26a7.167,7.167,0,0,0-7.259,7.26v13.7a7.146,7.146,0,0,0,7.259,7.169h7.26A7.092,7.092,0,0,0,1228.746,1181.2Z"/><path class="cls-20" d="M1292.271,1167.494v29.947H1283.2v-29.947a7.282,7.282,0,0,0-7.26-7.26h-4.175l-10.344,6.988v30.219h-9.075v-46.28h9.075v5.081l7.531-5.081h6.988A16.323,16.323,0,0,1,1292.271,1167.494Z"/><path class="cls-20" d="M1329.934,1160.234v20.872a7.167,7.167,0,0,0,7.26,7.26h9.529v9.075h-9.529a16.266,16.266,0,0,1-16.333-16.335v-20.872h-14.067v-9.073h14.067v-11.8h9.073v11.8h16.789v9.073Z"/><path class="cls-20" d="M1401.174,1167.494v3.63H1392.1v-3.63a7.282,7.282,0,0,0-7.259-7.26h-.908l-13.612,9.166v28.041h-9.075v-46.28h9.075v7.259l10.8-7.259h3.721A16.323,16.323,0,0,1,1401.174,1167.494Z"/><path class="cls-20" d="M1455.624,1151.161v46.28h-9.075v-5.082l-7.531,5.082h-6.988a16.383,16.383,0,0,1-16.334-16.335v-13.612a16.324,16.324,0,0,1,16.334-16.333h6.988l7.531,5.081v-5.081Zm-9.075,30.218v-14.157l-10.344-6.988h-4.175a7.283,7.283,0,0,0-7.26,7.26v13.612a7.282,7.282,0,0,0,7.26,7.26h4.175Z"/><path class="cls-20" d="M1493.741,1160.234h-7.26a7.224,7.224,0,0,0-7.259,7.26v13.522a7.281,7.281,0,0,0,7.259,7.259h7.26a7.28,7.28,0,0,0,7.26-7.259v-.908h9.075v.908a16.4,16.4,0,0,1-16.335,16.425h-7.26a16.46,16.46,0,0,1-16.333-16.425v-13.522a16.323,16.323,0,0,1,16.333-16.333h7.26a16.266,16.266,0,0,1,16.335,16.333v.908H1501v-.908A7.167,7.167,0,0,0,1493.741,1160.234Z"/><path class="cls-20" d="M1547.739,1160.234v20.872a7.167,7.167,0,0,0,7.26,7.26h9.529v9.075H1555a16.267,16.267,0,0,1-16.334-16.335v-20.872H1524.6v-9.073h14.066v-11.8h9.074v11.8h16.789v9.073Z"/><path class="cls-20" d="M1588.125,1182.2v1.815c0,2.541,2.359,4.356,6.262,4.356h9.165c4.265,0,6.352-1.452,6.352-3.721,0-10.253-30.218-3.629-30.218-21.234,0-7.351,5.9-12.25,14.519-12.25h8.712c8.167,0,14.519,5.9,14.519,13.52v.817h-9.074v-.817c0-2.541-2.269-4.447-5.445-4.447h-8.712c-3.811,0-5.444,1.271-5.444,3.177,0,7.351,30.218,2.722,30.218,21.234,0,7.623-6.261,12.8-15.427,12.8h-9.165c-8.8,0-15.336-5.717-15.336-13.431V1182.2Z"/><path class="cls-20" d="M1718.807,1155.244v-4.991a7.166,7.166,0,0,0-7.26-7.26h-7.26a7.223,7.223,0,0,0-7.259,7.26v30.763a7.281,7.281,0,0,0,7.259,7.259h7.26a7.28,7.28,0,0,0,7.26-7.259V1172.3H1705.2v-9.075h22.687v17.787a16.4,16.4,0,0,1-16.335,16.425h-7.26a16.46,16.46,0,0,1-16.333-16.425v-30.763a16.324,16.324,0,0,1,16.333-16.335h7.26a16.267,16.267,0,0,1,16.335,16.335v4.991Z"/><path class="cls-20" d="M1782.334,1151.161v46.28h-9.076v-5.082l-7.531,5.082h-6.988a16.383,16.383,0,0,1-16.334-16.335v-13.612a16.324,16.324,0,0,1,16.334-16.333h6.988l7.531,5.081v-5.081Zm-9.076,30.218v-14.157l-10.344-6.988h-4.175a7.283,7.283,0,0,0-7.26,7.26v13.612a7.282,7.282,0,0,0,7.26,7.26h4.175Z"/><path class="cls-20" d="M1838.6,1165.68v31.761h-9.074V1165.68a26.855,26.855,0,0,0-.182-4.175l-7.985,7.623v28.313h-9.074V1165.68a26.855,26.855,0,0,0-.182-4.175l-7.986,7.623v28.313h-9.075v-46.28h9.075v5.262l5.444-5.262h.728c4.809,0,8.166,2.087,9.891,6.442l6.624-6.442h.726C1834.7,1151.161,1838.6,1155.7,1838.6,1165.68Zm-29.31-6.9h0Zm17.241,0h0Z"/><path class="cls-20" d="M1891.235,1168.4v7.986h-30.853v4.628a7.281,7.281,0,0,0,7.26,7.259h7.26a7.281,7.281,0,0,0,7.259-7.259v-.908h9.074v.908a16.4,16.4,0,0,1-16.333,16.425h-7.26a16.461,16.461,0,0,1-16.335-16.425v-13.522a16.324,16.324,0,0,1,16.335-16.333h7.26a16.27,16.27,0,0,1,16.333,15.426Zm-9.074-.908a7.167,7.167,0,0,0-7.259-7.26h-7.26a7.224,7.224,0,0,0-7.26,7.26v1.634h21.779Z"/><path class="cls-2" d="M759.654,1915.1v38.848h-5.549v-17.759h-13.32v17.759h-5.55V1915.1h5.55v15.539h13.32V1915.1Z"/><path class="cls-2" d="M792.95,1948.4v5.55H768.531v-5.55h9.158v-17.2h-9.158v-5.55h14.707V1948.4Zm-9.712-27.748h-6.1v-5.55h6.1Z"/><path class="cls-2" d="M826.246,1935.637v2.22H820.7v-2.22a4.453,4.453,0,0,0-4.439-4.44H815.7l-8.324,5.605v17.149h-5.55v-28.3h5.55v4.44l6.605-4.44h2.275A9.983,9.983,0,0,1,826.246,1935.637Z"/><path class="cls-2" d="M845.112,1953.951a9.9,9.9,0,0,1-9.989-9.934v-8.38a9.949,9.949,0,0,1,9.989-9.99h4.441a9.948,9.948,0,0,1,9.989,9.99v8.38a9.9,9.9,0,0,1-9.989,9.934Zm8.88-9.934v-8.38a4.382,4.382,0,0,0-4.439-4.44h-4.441a4.382,4.382,0,0,0-4.439,4.44v8.38a4.37,4.37,0,0,0,4.439,4.384h4.441A4.336,4.336,0,0,0,853.992,1944.017Z"/><path class="cls-2" d="M926.134,1915.1v38.848h-5.55v-17.759H907.265v17.759h-5.55V1915.1h5.55v15.539h13.319V1915.1Z"/><path class="cls-2" d="M959.43,1925.647v28.3h-5.55v-3.108l-4.606,3.108H945a10.019,10.019,0,0,1-9.989-9.99v-8.324a9.983,9.983,0,0,1,9.989-9.99h4.274l4.606,3.108v-3.108Zm-5.55,18.481v-8.658l-6.327-4.273H945a4.453,4.453,0,0,0-4.439,4.44v8.324A4.453,4.453,0,0,0,945,1948.4h2.553Z"/><path class="cls-2" d="M982.736,1931.2H978.3a4.417,4.417,0,0,0-4.439,4.44v8.269a4.453,4.453,0,0,0,4.439,4.44h4.44a4.454,4.454,0,0,0,4.44-4.44v-.555h5.55v.555a10.032,10.032,0,0,1-9.99,10.045H978.3a10.066,10.066,0,0,1-9.989-10.045v-8.269a9.983,9.983,0,0,1,9.989-9.99h4.44a9.949,9.949,0,0,1,9.99,9.99v.555h-5.55v-.555A4.383,4.383,0,0,0,982.736,1931.2Z"/><path class="cls-2" d="M1017.142,1939.8l8.88,14.152h-6.549l-7.159-11.377h-5.162v11.377H1001.6v-39.4h5.549v22.476h5.162l7.159-11.377h6.549Z"/><path class="cls-2" d="M1059.317,1925.647v28.3h-5.55v-3.108l-4.607,3.108h-4.273a10.019,10.019,0,0,1-9.989-9.99v-8.324a9.983,9.983,0,0,1,9.989-9.99h4.273l4.607,3.108v-3.108Zm-5.55,18.481v-8.658l-6.327-4.273h-2.553a4.453,4.453,0,0,0-4.44,4.44v8.324a4.453,4.453,0,0,0,4.44,4.44h2.553Z"/><path class="cls-2" d="M1082.345,1931.2v12.764a4.383,4.383,0,0,0,4.44,4.44h5.827v5.55h-5.827a9.948,9.948,0,0,1-9.989-9.99V1931.2h-8.6v-5.55h8.6v-7.214h5.549v7.214h10.267v5.55Z"/><path class="cls-2" d="M1125.908,1935.637v18.314h-5.55v-18.314a4.453,4.453,0,0,0-4.439-4.44h-2.554l-6.326,4.273v18.481h-5.55v-39.4h5.55v14.207l4.607-3.108h4.273A9.983,9.983,0,0,1,1125.908,1935.637Z"/><path class="cls-2" d="M1144.775,1953.951a9.9,9.9,0,0,1-9.99-9.934v-8.38a9.949,9.949,0,0,1,9.99-9.99h4.44a9.948,9.948,0,0,1,9.989,9.99v8.38a9.9,9.9,0,0,1-9.989,9.934Zm8.879-9.934v-8.38a4.382,4.382,0,0,0-4.439-4.44h-4.44a4.383,4.383,0,0,0-4.44,4.44v8.38a4.37,4.37,0,0,0,4.44,4.384h4.44A4.336,4.336,0,0,0,1153.654,1944.017Z"/><path class="cls-2" d="M1192.5,1935.637v18.314h-5.55v-18.314a4.453,4.453,0,0,0-4.439-4.44h-2.554l-6.326,4.273v18.481h-5.55v-28.3h5.55v3.108l4.606-3.108h4.274A9.983,9.983,0,0,1,1192.5,1935.637Z"/><path class="cls-2" d="M1246.882,1919.931c7.881,0,13.264,5.217,13.264,12.376v9.268c0,7.159-5.383,12.376-13.264,12.376-7.936,0-13.318-5.217-13.318-12.376v-9.268C1233.564,1925.148,1239,1919.931,1246.882,1919.931Zm-9.434,21.644c0,4.883,3.5,8.491,9.434,8.491,5.883,0,9.379-3.608,9.379-8.491v-9.268c0-4.884-3.5-8.491-9.379-8.491s-9.434,3.607-9.434,8.491Zm11.932-3.274h3.885v.055a6.394,6.394,0,1,1-12.765,0v-2.886a6.394,6.394,0,1,1,12.765,0v.056h-3.885v-.056a2.524,2.524,0,1,0-5,0v2.886a2.524,2.524,0,1,0,5,0Z"/><path class="cls-2" d="M1325.684,1953.951h-24.419v-12.82l18.869-10.6v-5.438a4.383,4.383,0,0,0-4.44-4.44h-4.44a4.453,4.453,0,0,0-4.439,4.44v1.942h-5.55v-1.942a9.983,9.983,0,0,1,9.989-9.99h4.44a9.949,9.949,0,0,1,9.99,9.99v8.713l-18.869,10.6v4h18.869Z"/><path class="cls-2" d="M1358.98,1925.093v18.813a10.032,10.032,0,0,1-9.99,10.045h-4.44a10.066,10.066,0,0,1-9.989-10.045v-18.813a9.983,9.983,0,0,1,9.989-9.99h4.44A9.949,9.949,0,0,1,1358.98,1925.093Zm-9.99,23.253a4.3,4.3,0,0,0,2.5-.777l-11.377-18.536v14.873a4.454,4.454,0,0,0,4.44,4.44Zm-4.44-27.693a4.482,4.482,0,0,0-2.553.777l11.433,18.591v-14.928a4.383,4.383,0,0,0-4.44-4.44Z"/><path class="cls-2" d="M1392.275,1953.951h-24.418v-12.82l18.869-10.6v-5.438a4.383,4.383,0,0,0-4.44-4.44h-4.44a4.453,4.453,0,0,0-4.44,4.44v1.942h-5.549v-1.942a9.983,9.983,0,0,1,9.989-9.99h4.44a9.948,9.948,0,0,1,9.989,9.99v8.713l-18.869,10.6v4h18.869Z"/><path class="cls-2" d="M1425.571,1953.951h-24.419v-12.82l18.87-10.6v-5.438a4.383,4.383,0,0,0-4.44-4.44h-4.44a4.453,4.453,0,0,0-4.44,4.44v1.942h-5.55v-1.942a9.984,9.984,0,0,1,9.99-9.99h4.44a9.948,9.948,0,0,1,9.989,9.99v8.713l-18.869,10.6v4h18.869Z"/><path class="cls-2" d="M621.271,2018.606v1.735a7.779,7.779,0,0,1-7.811,7.812H602.177v-30.377h10.415a7.778,7.778,0,0,1,7.811,7.811v1.736a7.625,7.625,0,0,1-2,5.207A7.84,7.84,0,0,1,621.271,2018.606Zm-14.754-16.491v8.679h6.075a3.427,3.427,0,0,0,3.472-3.471v-1.736a3.428,3.428,0,0,0-3.472-3.472Zm10.415,16.491a3.428,3.428,0,0,0-3.472-3.472h-6.943v8.679h6.943a3.428,3.428,0,0,0,3.472-3.472Z"/><path class="cls-2" d="M647.31,2013.832v1.736h-4.34v-1.736a3.483,3.483,0,0,0-3.472-3.472h-.434l-6.509,4.383v13.41h-4.34v-22.132h4.34v3.472l5.164-3.472H639.5A7.807,7.807,0,0,1,647.31,2013.832Z"/><path class="cls-2" d="M673.347,2023.813v4.34h-19.1v-4.34h7.16V2010.36h-7.16v-4.339h11.5v17.792Zm-7.6-21.7h-4.773v-4.339h4.773Z"/><path class="cls-2" d="M691.573,2010.36H688.1a3.455,3.455,0,0,0-3.472,3.472v6.466a3.482,3.482,0,0,0,3.472,3.472h3.471a3.482,3.482,0,0,0,3.472-3.472v-.434h4.339v.434a7.843,7.843,0,0,1-7.811,7.855H688.1a7.872,7.872,0,0,1-7.812-7.855v-6.466a7.807,7.807,0,0,1,7.812-7.811h3.471a7.778,7.778,0,0,1,7.811,7.811v.434h-4.339v-.434A3.428,3.428,0,0,0,691.573,2010.36Z"/><path class="cls-2" d="M725.421,2014.266v3.819H710.667v2.213a3.483,3.483,0,0,0,3.472,3.472h3.471a3.482,3.482,0,0,0,3.472-3.472v-.434h4.339v.434a7.843,7.843,0,0,1-7.811,7.855h-3.471a7.872,7.872,0,0,1-7.812-7.855v-6.466a7.807,7.807,0,0,1,7.812-7.811h3.471a7.781,7.781,0,0,1,7.811,7.377Zm-4.339-.434a3.428,3.428,0,0,0-3.472-3.472h-3.471a3.455,3.455,0,0,0-3.472,3.472v.781h10.415Z"/><path class="cls-2" d="M775.762,2018.736H770.12v5.641h-4.34v-5.641h-5.64v-4.34h5.64v-5.641h4.34v5.641h5.642Z"/><path class="cls-2" d="M814.818,2002.115v7.941h13.019v4.34H814.818v9.417h14.755v4.34H810.479v-30.377h19.094v4.339Z"/><path class="cls-2" d="M855.61,2023.813v4.34H836.516v-4.34h7.16v-22.132h-7.16v-4.339h11.5v26.471Z"/><path class="cls-2" d="M881.648,2014.266v3.819H866.894v2.213a3.482,3.482,0,0,0,3.471,3.472h3.472a3.483,3.483,0,0,0,3.472-3.472v-.434h4.339v.434a7.843,7.843,0,0,1-7.811,7.855h-3.472a7.871,7.871,0,0,1-7.811-7.855v-6.466a7.806,7.806,0,0,1,7.811-7.811h3.472a7.781,7.781,0,0,1,7.811,7.377Zm-4.339-.434a3.428,3.428,0,0,0-3.472-3.472h-3.472a3.454,3.454,0,0,0-3.471,3.472v.781h10.415Z"/><path class="cls-2" d="M907.687,2013.832v14.321h-4.34v-14.321a3.483,3.483,0,0,0-3.472-3.472h-2l-4.947,3.342v14.451h-4.34v-22.132h4.34v2.43l3.6-2.43h3.342A7.807,7.807,0,0,1,907.687,2013.832Z"/><path class="cls-2" d="M933.724,2006.021v22.132h-4.34v-2.431l-3.6,2.431h-3.34a7.834,7.834,0,0,1-7.812-7.812v-6.509a7.807,7.807,0,0,1,7.812-7.811h3.34l3.6,2.43v-2.43Zm-4.34,14.451v-6.77l-4.947-3.342h-2a3.482,3.482,0,0,0-3.472,3.472v6.509a3.481,3.481,0,0,0,3.472,3.472h2Z"/><path class="cls-2" d="M984.064,2018.736h-5.642v5.641h-4.34v-5.641h-5.641v-4.34h5.641v-5.641h4.34v5.641h5.642Z"/><path class="cls-2" d="M1033.535,2007.973v-2.386a3.427,3.427,0,0,0-3.471-3.472h-3.472a3.454,3.454,0,0,0-3.472,3.472V2020.3a3.483,3.483,0,0,0,3.472,3.472h3.472a3.482,3.482,0,0,0,3.471-3.472v-4.166h-6.51v-4.34h10.849v8.506a7.843,7.843,0,0,1-7.81,7.855h-3.472a7.872,7.872,0,0,1-7.812-7.855v-14.711a7.806,7.806,0,0,1,7.812-7.811h3.472a7.778,7.778,0,0,1,7.81,7.811v2.386Z"/><path class="cls-2" d="M1063.911,2023.813v4.34h-19.094v-4.34h7.161V2010.36h-7.161v-4.339h11.5v17.792Zm-7.594-21.7h-4.773v-4.339h4.773Z"/><path class="cls-2" d="M1089.95,2013.832v14.321h-4.34v-14.321a3.482,3.482,0,0,0-3.471-3.472h-2l-4.948,3.342v14.451h-4.339v-22.132h4.339v2.43l3.6-2.43h3.342A7.806,7.806,0,0,1,1089.95,2013.832Z"/><path class="cls-2" d="M1115.987,2013.832v14.321h-4.338v-14.321a3.483,3.483,0,0,0-3.472-3.472h-2l-4.948,3.342v14.451h-4.339v-22.132h4.339v2.43l3.6-2.43h3.342A7.806,7.806,0,0,1,1115.987,2013.832Z"/><path class="cls-2" d="M1142.025,2006.021l-11.457,31.245h-4.643l3.992-10.849-6.986-20.4h4.6l4.731,13.93,5.121-13.93Z"/><path class="cls-2" d="M1192.365,2018.736h-5.641v5.641h-4.34v-5.641h-5.641v-4.34h5.641v-5.641h4.34v5.641h5.641Z"/><path class="cls-2" d="M1246.177,1997.776v30.377h-4.34v-13.887h-10.415v13.887h-4.34v-30.377h4.34v12.15h10.415v-12.15Z"/><path class="cls-2" d="M1272.214,2006.021v22.132h-4.34v-2.431l-3.6,2.431h-3.341a7.807,7.807,0,0,1-7.812-7.812v-14.32h4.34v14.32a3.482,3.482,0,0,0,3.472,3.472h2l4.947-3.341v-14.451Z"/><path class="cls-2" d="M1298.251,2006.021v23.39a7.843,7.843,0,0,1-7.81,7.855h-3.472a7.872,7.872,0,0,1-7.812-7.855h4.34a3.482,3.482,0,0,0,3.472,3.472h3.472a3.481,3.481,0,0,0,3.471-3.472v-3.689l-3.6,2.431h-3.341a7.834,7.834,0,0,1-7.812-7.812v-6.509a7.807,7.807,0,0,1,7.812-7.811h3.341l3.6,2.43v-2.43Zm-4.339,14.451v-6.77l-4.947-3.342h-2a3.483,3.483,0,0,0-3.472,3.472v6.509a3.482,3.482,0,0,0,3.472,3.472h2Z"/><path class="cls-2" d="M1313.007,2028.153a7.743,7.743,0,0,1-7.812-7.768v-6.553a7.779,7.779,0,0,1,7.812-7.811h3.472a7.78,7.78,0,0,1,7.811,7.811v6.553a7.743,7.743,0,0,1-7.811,7.768Zm6.943-7.768v-6.553a3.427,3.427,0,0,0-3.471-3.472h-3.472a3.428,3.428,0,0,0-3.472,3.472v6.553a3.417,3.417,0,0,0,3.472,3.428h3.472A3.391,3.391,0,0,0,1319.95,2020.385Z"/><path class="cls-2" d="M1374.629,2018.736h-5.642v5.641h-4.339v-5.641h-5.641v-4.34h5.641v-5.641h4.339v5.641h5.642Z"/><path class="cls-2" d="M1428.441,1997.776v30.377h-4.34v-20.83l-4.036,8.592h-2.344l-4.035-8.592v20.83h-4.34v-30.377h4.34l5.207,11.326,5.208-11.326Z"/><path class="cls-2" d="M1454.478,2006.021v22.132h-4.339v-2.431l-3.6,2.431H1443.2a7.834,7.834,0,0,1-7.811-7.812v-6.509a7.806,7.806,0,0,1,7.811-7.811h3.341l3.6,2.43v-2.43Zm-4.339,14.451v-6.77l-4.947-3.342h-2a3.482,3.482,0,0,0-3.471,3.472v6.509a3.481,3.481,0,0,0,3.471,3.472h2Z"/><path class="cls-2" d="M1473.528,2017.087l6.987,11.066h-5.12l-4.427-7.031-4.426,7.031h-5.121l6.986-11.066-6.986-11.066h5.121l4.426,7.03,4.427-7.03h5.12Z"/><path class="cls-2" d="M1517.837,2002.115v7.941h13.019v4.34h-13.019v9.417h14.754v4.34H1513.5v-30.377h19.094v4.339Z"/><path class="cls-2" d="M1551.468,2023.813v4.34h-4.774v-4.34Z"/><rect class="cls-21" x="871.49" y="1350.665" width="417.824" height="132.368" rx="14.206"/><rect class="cls-22" x="871.49" y="1335.79" width="417.824" height="132.368" rx="14.206"/><path class="cls-2" d="M947.306,1395.639v2.864a8.556,8.556,0,0,1-8.592,8.591h-7.637v13.364h-4.772v-33.41h12.409A8.556,8.556,0,0,1,947.306,1395.639Zm-4.774,0a3.769,3.769,0,0,0-3.818-3.818h-7.637v10.5h7.637a3.769,3.769,0,0,0,3.818-3.818Z"/><path class="cls-2" d="M975.945,1404.707v1.91h-4.772v-1.91a3.83,3.83,0,0,0-3.818-3.818h-.478l-7.159,4.821v14.748h-4.774v-24.341h4.774v3.818l5.68-3.818h1.957A8.585,8.585,0,0,1,975.945,1404.707Z"/><path class="cls-2" d="M1004.586,1405.185v4.2H988.358v2.434a3.83,3.83,0,0,0,3.819,3.819H996a3.831,3.831,0,0,0,3.819-3.819v-.477h4.772v.477a8.626,8.626,0,0,1-8.591,8.639h-3.818a8.658,8.658,0,0,1-8.592-8.639v-7.112a8.585,8.585,0,0,1,8.592-8.59H996a8.558,8.558,0,0,1,8.591,8.113Zm-4.772-.478a3.77,3.77,0,0,0-3.819-3.818h-3.818a3.8,3.8,0,0,0-3.819,3.818v.86h11.456Z"/><path class="cls-2" d="M1017,1412.44v.954c0,1.337,1.241,2.291,3.294,2.291h4.82c2.244,0,3.341-.763,3.341-1.957,0-5.393-15.893-1.909-15.893-11.168,0-3.866,3.1-6.443,7.636-6.443h4.582c4.3,0,7.637,3.1,7.637,7.111v.43h-4.772v-.43c0-1.337-1.194-2.339-2.865-2.339H1020.2c-2,0-2.863.668-2.863,1.671,0,3.866,15.894,1.432,15.894,11.168,0,4.01-3.293,6.73-8.115,6.73h-4.82c-4.63,0-8.066-3.006-8.066-7.064v-.954Z"/><path class="cls-2" d="M1045.638,1412.44v.954c0,1.337,1.241,2.291,3.294,2.291h4.82c2.243,0,3.341-.763,3.341-1.957,0-5.393-15.894-1.909-15.894-11.168,0-3.866,3.1-6.443,7.637-6.443h4.582c4.3,0,7.637,3.1,7.637,7.111v.43h-4.773v-.43c0-1.337-1.193-2.339-2.864-2.339h-4.582c-2.005,0-2.863.668-2.863,1.671,0,3.866,15.893,1.432,15.893,11.168,0,4.01-3.293,6.73-8.114,6.73h-4.82c-4.63,0-8.067-3.006-8.067-7.064v-.954Z"/><path class="cls-2" d="M1102.919,1409.671v1.909a4.135,4.135,0,0,0,4.1,4.105h3.2c2.434,0,4.153-1.527,4.153-3.627,0-6.587-15.751-8.019-15.751-17.087,0-4.678,3.675-7.923,8.878-7.923h2.243a8.9,8.9,0,0,1,8.925,8.877v1.432H1113.9v-1.432a4.115,4.115,0,0,0-4.153-4.1H1107.5c-2.578,0-4.105,1.193-4.105,3.15,0,5.059,15.751,7.016,15.751,17.087,0,4.773-3.867,8.4-8.926,8.4h-3.2a8.861,8.861,0,0,1-8.878-8.878v-1.909Z"/><path class="cls-2" d="M1138.956,1400.889v10.978a3.77,3.77,0,0,0,3.819,3.818h5.011v4.773h-5.011a8.555,8.555,0,0,1-8.591-8.591v-10.978h-7.4v-4.772h7.4v-6.206h4.772v6.206h8.83v4.772Z"/><path class="cls-2" d="M1176.427,1396.117v24.341h-4.774v-2.673l-3.961,2.673h-3.675a8.616,8.616,0,0,1-8.591-8.591v-7.16a8.585,8.585,0,0,1,8.591-8.59h3.675l3.961,2.672v-2.672Zm-4.774,15.893v-7.446l-5.44-3.675h-2.2a3.831,3.831,0,0,0-3.819,3.818v7.16a3.83,3.83,0,0,0,3.819,3.818h2.2Z"/><path class="cls-2" d="M1205.067,1404.707v1.91h-4.773v-1.91a3.83,3.83,0,0,0-3.818-3.818H1196l-7.159,4.821v14.748h-4.773v-24.341h4.773v3.818l5.68-3.818h1.957A8.586,8.586,0,0,1,1205.067,1404.707Z"/><path class="cls-2" d="M1224.877,1400.889v10.978a3.769,3.769,0,0,0,3.818,3.818h5.012v4.773H1228.7a8.555,8.555,0,0,1-8.59-8.591v-10.978h-7.4v-4.772h7.4v-6.206h4.772v6.206h8.83v4.772Z"/></g></g></svg>