<svg xmlns="http://www.w3.org/2000/svg" viewBox="0 0 215 215"><defs><style>.cls-1{fill:none;}.cls-2{opacity:0.41;}.cls-3{fill:#292a3c;}.cls-4{fill:#283358;}.cls-5{fill:#fdf4f0;}.cls-6{fill:#bdbdbd;}.cls-7{fill:#78d1d5;}.cls-11,.cls-8{fill:#e5720a;}.cls-9{fill:#3b2646;}.cls-10{fill:#f49549;}.cls-11,.cls-14{opacity:0.64;}.cls-12{fill:#f7d0b0;}.cls-13{fill:#ffb776;}.cls-15{fill:#584562;}.cls-16{fill:#1c042b;}.cls-17{fill:#332e5a;}.cls-18{fill:#4d4d4d;}</style></defs><g id="Layer_2" data-name="Layer 2"><g id="Layer_1-2" data-name="Layer 1"><rect class="cls-1" width="215" height="215"/><g class="cls-2"><path class="cls-3" d="M142.377,182.187H75.455c-.032,0-.033,4.345,0,4.345h66.922c.032,0,.033-4.345,0-4.345Z"/></g><g class="cls-2"><path class="cls-3" d="M127.806,177.913H66.291c-.032,0-.033,4.345,0,4.345h.482c.032,0,.033-4.345,0-4.345h-.482v4.345h61.515c.032,0,.033-4.345,0-4.345Z"/></g><rect class="cls-4" x="77.767" y="137.301" width="11.14" height="27.043" transform="translate(166.674 301.645) rotate(-180)"/><rect class="cls-5" x="71.239" y="164.344" width="17.375" height="7.639"/><rect class="cls-5" x="64.368" y="168.164" width="24.246" height="7.639"/><rect class="cls-5" x="64.368" y="172.414" width="24.246" height="7.639"/><path class="cls-6" d="M88.4,166.174H79.713c-.029,0-.03,3.979,0,3.979h.153c.03,0,.031-3.979,0-3.979h-.153v3.979H88.4c.03,0,.031-3.979,0-3.979Z"/><path class="cls-6" d="M71.1,169.928h2.7c.029,0,.03-3.978,0-3.978H71.1c-.029,0-.031,3.978,0,3.978Z"/><rect class="cls-7" x="64.368" y="176.234" width="24.246" height="3.82"/><rect class="cls-4" x="107.519" y="137.301" width="11.14" height="27.043" transform="translate(226.177 301.645) rotate(-180)"/><rect class="cls-5" x="100.991" y="164.344" width="17.375" height="7.639"/><rect class="cls-5" x="94.12" y="168.164" width="24.246" height="7.639"/><rect class="cls-5" x="94.12" y="172.414" width="24.246" height="7.639"/><path class="cls-6" d="M118.156,166.174h-8.691c-.029,0-.03,3.979,0,3.979h.153c.029,0,.031-3.979,0-3.979h-.153v3.979h8.691c.029,0,.03-3.979,0-3.979Z"/><path class="cls-6" d="M100.856,169.928h2.7c.029,0,.03-3.978,0-3.978h-2.7c-.03,0-.031,3.978,0,3.978Z"/><rect class="cls-7" x="94.12" y="176.234" width="24.246" height="3.82"/><polyline class="cls-8" points="137.102 62.357 144.123 62.357 144.123 113.826 137.102 113.826 137.102 124.406 131.837 124.406 131.837 130.728 126.572 130.728 126.572 136.998 119.991 136.998 119.991 137.301 95.859 137.301 95.859 139.632 89.278 139.632 89.278 130.728 82.258 130.728 82.258 124.845 76.115 124.845 76.115 113.826 68.656 113.826 68.656 64.191 76.554 64.191"/><path d="M118.156,142.3h-9.565c-.058,0-.06,7.958,0,7.958h9.565c.059,0,.061-7.958,0-7.958Z"/><path d="M118.156,137.04h-9.565c-.058,0-.06,7.958,0,7.958h9.565c.059,0,.061-7.958,0-7.958Z"/><path d="M88.119,142.3H78.555c-.059,0-.061,7.958,0,7.958h9.564c.059,0,.061-7.958,0-7.958Z"/><path d="M88.119,136.04H78.555c-.059,0-.061,7.958,0,7.958h9.564c.059,0,.061-7.958,0-7.958Z"/><rect class="cls-9" x="163.165" y="75.924" width="9.658" height="9.658"/><polygon class="cls-8" points="89.278 30.607 112.093 30.607 112.093 37.076 119.991 37.076 119.991 42.199 125.256 42.199 125.256 48.683 130.521 48.683 130.521 60.358 137.541 60.358 137.541 111.827 130.521 111.827 130.521 122.407 125.256 122.407 125.256 128.729 119.991 128.729 119.991 134.999 113.41 134.999 113.41 142.59 89.278 142.59 89.278 137.632 82.696 137.632 82.696 128.729 75.676 128.729 75.676 122.846 69.534 122.846 69.534 111.827 62.075 111.827 62.075 62.191 69.972 62.191 69.972 50.237 76.554 50.237 76.554 42.199 82.258 42.199 82.258 34.6 89.241 34.6 89.278 30.607"/><polygon class="cls-10" points="81.38 30.607 104.196 30.607 104.196 37.076 112.093 37.076 112.093 42.199 117.358 42.199 117.358 48.683 122.623 48.683 122.623 60.358 129.644 60.358 129.644 111.827 122.623 111.827 122.623 122.407 117.358 122.407 117.358 128.729 112.093 128.729 112.093 134.999 105.512 134.999 105.512 142.59 81.38 142.59 81.38 137.632 74.799 137.632 74.799 128.729 67.779 128.729 67.779 122.846 61.636 122.846 61.636 111.827 54.177 111.827 54.177 62.191 62.075 62.191 62.075 50.237 68.656 50.237 68.656 42.199 74.36 42.199 74.36 34.6 81.344 34.6 81.38 30.607"/><rect class="cls-9" x="74.36" y="36.811" width="37.733" height="10.776"/><rect class="cls-11" x="112.768" y="75.749" width="6.651" height="36.279"/><rect class="cls-11" x="62.075" y="75.749" width="6.651" height="36.279"/><path class="cls-12" d="M83.736,131.541h20.6c.052,0,.054-7.138,0-7.138h-.269c-.052,0-.054,7.138,0,7.138h.269c.052,0,.054-7.138,0-7.138h-20.6c-.053,0-.054,7.138,0,7.138Z"/><path class="cls-13" d="M76.583,125.518a7.748,7.748,0,0,1,3.6-.55c1.269.025,2.533.168,3.8.173V118h-.246c-.053,0-.054,7.138,0,7.138h.246c.049,0,.06-7.138,0-7.138-1.268,0-2.532-.149-3.8-.173a7.76,7.76,0,0,0-3.6.549,6.894,6.894,0,0,0-.025,1.046c-.009.841-.011,1.682-.011,2.523s0,1.683.011,2.524a8.134,8.134,0,0,1,.025,1.046Z"/><path class="cls-13" d="M104.442,124.012h6.776c.053,0,.055-7.139,0-7.139h-6.776c-.053,0-.055,7.139,0,7.139Z"/><g class="cls-14"><path class="cls-8" d="M81.348,143.588H97.792c.053,0,.055-7.138,0-7.138h-.256c-.053,0-.055,7.138,0,7.138h.256c.053,0,.055-7.138,0-7.138H81.348c-.053,0-.055,7.138,0,7.138Z"/></g><g class="cls-14"><path class="cls-8" d="M78.089,67.541h46.177V60.4h-.248c-.052,0-.054,7.138,0,7.138h.248c.053,0,.054-7.138,0-7.138H78.089c-.053,0-.055,7.138,0,7.138Z"/></g><rect class="cls-9" x="62.075" y="48.574" width="75.466" height="13.618"/><rect class="cls-9" x="68.656" y="42.199" width="59.973" height="10.776"/><rect class="cls-9" x="74.36" y="34.552" width="47.631" height="10.776"/><rect class="cls-9" x="80.999" y="30.607" width="35.094" height="10.776"/><rect class="cls-15" x="137.541" y="61.451" width="9.658" height="9.658"/><rect class="cls-9" x="147.199" y="61.451" width="9.658" height="9.658"/><rect class="cls-9" x="147.199" y="71.095" width="9.658" height="9.658"/><rect class="cls-9" x="155.311" y="75.924" width="9.658" height="9.658"/><rect class="cls-15" x="137.541" y="71.095" width="9.658" height="9.658"/><rect class="cls-15" x="147.199" y="80.327" width="9.658" height="9.658"/><rect class="cls-15" x="147.199" y="88.603" width="9.658" height="9.658"/><path class="cls-16" d="M59.265,61.654H75.358c.038,0,.039-5.152,0-5.152H74.7c-.038,0-.04,5.152,0,5.152h.657V56.5H59.265c-.037,0-.039,5.152,0,5.152Z"/><path class="cls-16" d="M70.936,48.1h25.6c.038,0,.039-5.151,0-5.151h-25.6c-.038,0-.039,5.151,0,5.151Z"/><path class="cls-15" d="M64.912,56.007H78.358c.037,0,.039-5.152,0-5.152h-.269c-.038,0-.039,5.152,0,5.152h.269c.037,0,.039-5.152,0-5.152H64.912c-.037,0-.039,5.152,0,5.152Z"/><path class="cls-15" d="M74.259,42.516H86.306c.038,0,.04-5.151,0-5.151H74.259c-.038,0-.039,5.151,0,5.151Z"/><polygon class="cls-16" points="128.629 48.574 128.629 42.199 121.991 42.199 121.991 34.552 116.093 34.552 116.093 30.607 100.774 30.607 100.774 34.552 106.672 34.552 106.672 42.199 113.31 42.199 113.31 48.574 122.222 48.574 122.222 62.191 137.541 62.191 137.541 48.574 128.629 48.574"/><rect class="cls-17" x="85.05" y="108.469" width="4.367" height="5.062"/><rect class="cls-17" x="89.417" y="108.469" width="4.367" height="5.062"/><rect class="cls-5" x="63.763" y="79.885" width="18.606" height="21.564"/><rect class="cls-5" x="63.763" y="101.449" width="15.658" height="3.203"/><rect class="cls-4" x="60.816" y="84.257" width="9.211" height="15.215"/><rect class="cls-4" x="68.184" y="86.931" width="4.974" height="10.889"/><polygon points="114.325 85.257 111.456 85.257 111.456 77.683 93.324 77.683 93.324 82.342 89.632 82.342 89.632 94.977 90.192 94.977 91.475 94.977 91.475 98.82 93.324 98.82 93.324 102.449 109.351 102.449 109.351 98.82 111.738 98.82 111.738 94.977 114.325 94.977 114.325 85.257"/><path class="cls-18" d="M102.67,82.83h9.308c.038,0,.04-5.151,0-5.151H102.67c-.038,0-.039,5.151,0,5.151Z"/><path class="cls-18" d="M107.9,85.8h6.206c.038,0,.039-5.151,0-5.151H107.9c-.038,0-.039,5.151,0,5.151Z"/><rect x="91.601" y="73.772" width="4.935" height="4.935"/><rect x="89.133" y="71.304" width="4.935" height="4.935"/><rect x="113.626" y="91.421" width="4.935" height="4.935"/><rect x="116.093" y="93.889" width="4.935" height="4.935"/><rect x="118.561" y="96.356" width="4.935" height="4.935"/><rect x="121.028" y="98.824" width="4.935" height="4.935"/><rect x="123.496" y="101.291" width="4.935" height="4.935"/><rect x="125.963" y="103.759" width="4.935" height="4.935"/><rect x="130.898" y="103.759" width="4.935" height="4.935"/><rect x="135.833" y="103.759" width="4.935" height="4.935"/><rect x="139.903" y="103.759" width="4.935" height="4.935"/><rect x="86.666" y="68.837" width="4.935" height="4.935"/><rect x="84.198" y="66.369" width="4.935" height="4.935"/><rect x="81.731" y="63.902" width="4.935" height="4.935"/><rect x="79.263" y="61.434" width="4.935" height="4.935"/></g></g></svg>