<svg xmlns="http://www.w3.org/2000/svg" viewBox="0 0 215 215"><defs><style>.cls-1{opacity:0.41;}.cls-2{fill:#292a3c;}.cls-3{fill:#283358;}.cls-4{fill:#fdf4f0;}.cls-5{fill:#bdbdbd;}.cls-10,.cls-6{fill:#e5720a;}.cls-7{fill:#f49549;}.cls-8{fill:#ffb776;}.cls-10,.cls-9{opacity:0.64;}.cls-11{fill:#f7d0b0;}.cls-12{fill:#332e5a;}.cls-13{fill:#78d1d5;}.cls-14{fill:#3b2646;}.cls-15{fill:#584562;}.cls-16{fill:#1c042b;}.cls-17{fill:#4d4d4d;}.cls-18{fill:none;}</style></defs><g id="Layer_2" data-name="Layer 2"><g id="Layer_1-2" data-name="Layer 1"><g class="cls-1"><path class="cls-2" d="M70.5,186.291h66.922c.032,0,.033-4.345,0-4.345H70.5c-.031,0-.033,4.345,0,4.345Z"/></g><g class="cls-1"><path class="cls-2" d="M85.072,182.017h61.515c.032,0,.034-4.345,0-4.345H146.1c-.032,0-.033,4.345,0,4.345h.482c.032,0,.034-4.345,0-4.345H85.072c-.032,0-.033,4.345,0,4.345Z"/></g><rect class="cls-3" x="82.836" y="137.059" width="10.742" height="27.043"/><rect class="cls-3" x="108.208" y="137.059" width="11.14" height="27.043"/><rect class="cls-4" x="76.202" y="164.103" width="17.375" height="7.639"/><rect class="cls-4" x="69.346" y="167.922" width="24.232" height="7.639"/><rect class="cls-4" x="69.346" y="172.173" width="24.232" height="7.639"/><rect class="cls-4" x="108.5" y="164.103" width="17.375" height="7.639" transform="translate(234.376 335.845) rotate(-180)"/><rect class="cls-4" x="108.5" y="167.923" width="24.246" height="7.639" transform="translate(241.246 343.484) rotate(-180)"/><rect class="cls-4" x="108.5" y="172.173" width="24.246" height="7.639" transform="translate(241.246 351.985) rotate(-180)"/><path class="cls-5" d="M76.021,170.361h9.14c.03,0,.031-3.979,0-3.979h-.153c-.029,0-.03,3.979,0,3.979h.153c.03,0,.031-3.979,0-3.979h-9.14c-.029,0-.03,3.979,0,3.979Z"/><path class="cls-5" d="M108.71,169.912H117.4c.029,0,.031-3.979,0-3.979h-.153c-.029,0-.03,3.979,0,3.979h.153c.029,0,.031-3.979,0-3.979H108.71c-.029,0-.03,3.979,0,3.979Z"/><path class="cls-5" d="M126.011,165.708h-2.7c-.03,0-.031,3.979,0,3.979h2.7c.029,0,.03-3.979,0-3.979Z"/><path d="M82.836,149.155H92.988c.059,0,.061-7.957,0-7.957h-.443c-.059,0-.061,7.957,0,7.957h.443c.059,0,.061-7.957,0-7.957H82.836c-.059,0-.061,7.957,0,7.957Z"/><path d="M110.362,147.168H119.9V140.03c-.2.13-.06.583-.264.714a5.962,5.962,0,0,0-.025,1.045c-.009.841-.011,1.683-.011,2.524s0,1.682.011,2.524a6.074,6.074,0,0,1,.025,1.045c.2-.13.06-.584.264-.714a6.062,6.062,0,0,0,.025-1.045c.009-.841.011-1.683.011-2.524,0-.26.006-3.569-.036-3.569h-9.536c-.052,0-.054,7.138,0,7.138Z"/><path d="M108.261,150.017h6.291c.058,0,.061-7.958,0-7.958h-6.291c-.059,0-.061,7.958,0,7.958Z"/><polygon class="cls-6" points="148.407 58.186 142.662 58.186 142.662 52.442 136.918 52.442 136.918 46.698 131.174 46.698 131.174 40.954 124.469 40.954 124.469 35.209 73.017 35.209 73.017 40.954 67.273 40.954 67.273 46.698 61.528 46.698 61.528 52.442 55.784 52.442 55.784 58.186 50.04 58.186 50.04 110.53 55.784 110.53 55.784 114.184 61.528 114.184 61.528 119.928 67.273 119.928 67.273 125.673 73.977 125.673 73.977 131.417 125.43 131.417 125.43 125.673 131.174 125.673 131.174 119.928 136.918 119.928 136.918 114.184 142.662 114.184 142.662 110.53 148.407 110.53 148.407 58.186"/><polygon class="cls-7" points="148.407 69.118 142.662 69.118 142.662 63.374 136.918 63.374 136.918 57.629 131.174 57.629 131.174 51.885 124.469 51.885 124.469 46.141 73.017 46.141 73.017 51.885 67.273 51.885 67.273 57.629 61.528 57.629 61.528 63.374 55.784 63.374 55.784 69.118 50.04 69.118 50.04 121.462 55.784 121.462 55.784 125.116 61.528 125.116 61.528 130.86 67.273 130.86 67.273 136.604 73.977 136.604 73.977 142.349 125.43 142.349 125.43 136.604 131.174 136.604 131.174 130.86 136.918 130.86 136.918 125.116 142.662 125.116 142.662 121.462 148.407 121.462 148.407 69.118"/><path class="cls-8" d="M80.315,49.562h39.994c.026,0,.027-3.569,0-3.569h-1.027c-.026,0-.027,3.569,0,3.569h1.027c.026,0,.027-3.569,0-3.569H80.315c-.027,0-.028,3.569,0,3.569Z"/><path class="cls-8" d="M78.5,51.98h43.6c.026,0,.027-3.569,0-3.569h-.4c-.026,0-.027,3.569,0,3.569h.4c.026,0,.027-3.569,0-3.569H78.5c-.027,0-.028,3.569,0,3.569Z"/><path class="cls-8" d="M76.687,52.556H121.7c.052,0,.054-7.139,0-7.139H76.687c-.053,0-.055,7.139,0,7.139Z"/><path class="cls-8" d="M63.989,64.649h12.7c.052,0,.054-7.138,0-7.138h-12.7c-.053,0-.055,7.138,0,7.138Z"/><path class="cls-8" d="M57.942,68.881h13.3c.052,0,.054-7.138,0-7.138h-13.3c-.052,0-.054,7.138,0,7.138Z"/><path class="cls-8" d="M122.91,63.44h10.884c.053,0,.054-7.139,0-7.139H122.91c-.052,0-.054,7.139,0,7.139Z"/><path class="cls-8" d="M128.352,69.486h12.093c.053,0,.055-7.138,0-7.138H128.352c-.052,0-.054,7.138,0,7.138Z"/><path class="cls-8" d="M83.943,126.929h32.921c.052,0,.054-7.139,0-7.139H83.943c-.053,0-.055,7.139,0,7.139Z"/><path class="cls-8" d="M115.05,120.277H121.7c.052,0,.054-7.138,0-7.138H115.05c-.053,0-.055,7.138,0,7.138Z"/><path class="cls-8" d="M77.9,120.277H88.78c.052,0,.054-7.138,0-7.138H77.9c-.052,0-.054,7.138,0,7.138Z"/><g class="cls-9"><path class="cls-6" d="M75.041,142.65h48.267c.053,0,.055-7.139,0-7.139h-.4c-.052,0-.054,7.139,0,7.139h.4c.053,0,.055-7.139,0-7.139H75.041c-.053,0-.055,7.139,0,7.139Z"/></g><g class="cls-9"><path class="cls-6" d="M123.515,137.208h7.256c.052,0,.054-7.139,0-7.139h-7.256c-.053,0-.055,7.139,0,7.139Z"/></g><g class="cls-9"><path class="cls-6" d="M131.375,131.766h5.442c.053,0,.055-7.139,0-7.139h-5.442c-.052,0-.054,7.139,0,7.139Z"/></g><g class="cls-9"><path class="cls-6" d="M68.221,139.022H79.105c.053,0,.055-7.139,0-7.139H68.221c-.052,0-.054,7.139,0,7.139Z"/></g><g class="cls-9"><path class="cls-6" d="M59.756,131.161h9.675c.052,0,.054-7.138,0-7.138H59.756c-.052,0-.054,7.138,0,7.138Z"/></g><g class="cls-9"><path class="cls-6" d="M83.338,59.812h33.319c.053,0,.055-7.139,0-7.139h-.4c-.052,0-.054,7.139,0,7.139h.4c.053,0,.055-7.139,0-7.139H83.338c-.053,0-.055,7.139,0,7.139Z"/></g><rect class="cls-10" x="64.594" y="76.105" width="6.651" height="36.279"/><rect class="cls-10" x="126.673" y="76.105" width="6.651" height="36.279"/><path class="cls-11" d="M89.989,52.556h22.457c.053,0,.055-7.139,0-7.139h-1.024c-.053,0-.055,7.139,0,7.139h1.024c.053,0,.055-7.139,0-7.139H89.989c-.052,0-.054,7.139,0,7.139Z"/><path class="cls-11" d="M61.57,65.858h5.442c.053,0,.055-7.138,0-7.138H61.57c-.052,0-.054,7.138,0,7.138Z"/><path class="cls-11" d="M125.934,63.44H134.4c.052,0,.054-7.139,0-7.139h-8.465c-.053,0-.055,7.139,0,7.139Z"/><path class="cls-11" d="M88.78,126.929h25.665c.052,0,.054-7.139,0-7.139H88.78c-.053,0-.055,7.139,0,7.139Z"/><rect class="cls-12" x="94.758" y="110.252" width="5.062" height="5.062"/><rect class="cls-12" x="99.82" y="110.252" width="5.062" height="5.062"/><rect class="cls-12" x="103.923" y="107.721" width="5.062" height="5.062"/><rect class="cls-4" x="70.087" y="81.668" width="21.564" height="21.564"/><rect class="cls-4" x="70.087" y="103.232" width="18.148" height="3.203"/><rect class="cls-3" x="66.671" y="86.04" width="10.675" height="15.215"/><rect class="cls-3" x="75.211" y="88.714" width="5.765" height="10.889"/><rect x="108.984" y="78.465" width="21.014" height="7.574"/><rect x="105.355" y="86.04" width="27.969" height="9.719"/><rect x="106.84" y="94.636" width="23.485" height="4.966"/><rect x="108.984" y="95.759" width="18.575" height="7.473"/><rect x="104.705" y="83.124" width="13.878" height="12.635"/><rect x="109.091" y="93.731" width="6.832" height="5.444"/><rect class="cls-13" x="69.346" y="175.992" width="24.232" height="3.82"/><rect class="cls-13" x="108.5" y="175.993" width="24.246" height="3.82" transform="translate(241.246 355.805) rotate(-180)"/><rect class="cls-6" x="48.628" y="69.531" width="5.818" height="53.828"/><rect class="cls-6" x="143.679" y="68.501" width="5.818" height="53.828"/><rect class="cls-14" x="50.04" y="63.079" width="99.456" height="5.675"/><rect class="cls-14" x="50.04" y="56.242" width="99.456" height="7.496" transform="translate(199.536 119.981) rotate(180)"/><rect class="cls-14" x="54.445" y="48.987" width="90.646" height="7.496" transform="translate(199.536 105.469) rotate(180)"/><rect class="cls-14" x="60.515" y="42.954" width="78.507" height="7.496" transform="translate(199.536 93.404) rotate(180)"/><rect class="cls-14" x="62.618" y="35.458" width="74.3" height="7.496" transform="translate(199.536 78.412) rotate(180)"/><rect class="cls-14" x="72.393" y="30.882" width="54.75" height="7.496" transform="translate(199.536 69.259) rotate(180)"/><rect class="cls-15" x="145.091" y="67.195" width="9.658" height="9.658"/><rect class="cls-14" x="154.749" y="67.195" width="9.658" height="9.658"/><rect class="cls-14" x="154.749" y="76.839" width="9.658" height="9.658"/><rect class="cls-14" x="162.861" y="81.668" width="9.658" height="9.658"/><rect class="cls-14" x="170.715" y="81.668" width="9.658" height="9.658"/><rect class="cls-15" x="145.091" y="76.839" width="9.658" height="9.658"/><rect class="cls-15" x="154.749" y="86.071" width="9.658" height="9.658"/><rect class="cls-15" x="154.749" y="94.346" width="9.658" height="9.658"/><path class="cls-15" d="M86.681,67.443H139.65c.037,0,.039-5.151,0-5.151h-1.482c-.038,0-.039,5.151,0,5.151h1.482c.037,0,.039-5.151,0-5.151H86.681c-.038,0-.039,5.151,0,5.151Z"/><path class="cls-15" d="M77.082,62.207h43.332c.037,0,.039-5.151,0-5.151h-.572c-.038,0-.039,5.151,0,5.151h.572c.037,0,.039-5.151,0-5.151H77.082c-.038,0-.04,5.151,0,5.151Z"/><path class="cls-16" d="M77.079,37.205h44.506c.038,0,.039-5.151,0-5.151H77.079c-.038,0-.039,5.151,0,5.151Z"/><path class="cls-16" d="M57.01,50.863H91.044c.038,0,.039-5.152,0-5.152H57.01c-.038,0-.039,5.152,0,5.152Z"/><path class="cls-16" d="M109.37,40.391h24.435c.038,0,.039-5.151,0-5.151H109.37c-.038,0-.039,5.151,0,5.151Z"/><path class="cls-16" d="M53.52,67.443H88.426c.038,0,.039-5.151,0-5.151H53.52c-.038,0-.04,5.151,0,5.151Z"/><rect x="104.387" y="76.105" width="7.019" height="7.019"/><rect x="100.095" y="71.813" width="7.019" height="7.019"/><rect x="133.308" y="94.158" width="7.019" height="7.019"/><rect x="139.022" y="96.093" width="7.019" height="7.019"/><rect x="142.531" y="99.602" width="7.019" height="7.019"/><rect x="95.99" y="67.708" width="7.019" height="7.019"/><path class="cls-17" d="M120.008,84.244h9.309c.038,0,.039-5.152,0-5.152h-9.309c-.037,0-.039,5.152,0,5.152Z"/><path class="cls-17" d="M125.242,87.217h6.2c.038,0,.04-5.152,0-5.152h-6.2c-.038,0-.039,5.152,0,5.152Z"/><rect class="cls-18" width="215" height="215"/></g></g></svg>