<svg xmlns="http://www.w3.org/2000/svg" viewBox="0 0 215 215"><defs><style>.cls-1{fill:none;}.cls-2{opacity:0.41;}.cls-3{fill:#292a3c;}.cls-4{fill:#283358;}.cls-5{fill:#fdf4f0;}.cls-6{fill:#bdbdbd;}.cls-11,.cls-7{fill:#e5720a;}.cls-8{fill:#f49549;}.cls-9{fill:#ffb776;}.cls-10,.cls-11{opacity:0.64;}.cls-12{fill:#f7d0b0;}.cls-13{fill:#78d1d5;}.cls-14{fill:#3b2646;}.cls-15{fill:#584562;}.cls-16{fill:#1c042b;}</style></defs><g id="Layer_2" data-name="Layer 2"><g id="Layer_1-2" data-name="Layer 1"><rect class="cls-1" width="215" height="215"/><g class="cls-2"><path class="cls-3" d="M76.593,186.511h66.922c.032,0,.033-4.345,0-4.345H76.593c-.032,0-.033,4.345,0,4.345Z"/></g><g class="cls-2"><path class="cls-3" d="M91.164,182.238h61.515v-4.345H152.2c-.032,0-.033,4.345,0,4.345h.482c.032,0,.034-4.345,0-4.345H91.164c-.032,0-.033,4.345,0,4.345Z"/></g><rect class="cls-4" x="117.603" y="137.28" width="10.742" height="27.043" transform="translate(245.948 301.604) rotate(-180)"/><rect class="cls-4" x="91.833" y="137.28" width="11.14" height="27.043" transform="translate(194.806 301.604) rotate(-180)"/><rect class="cls-5" x="117.603" y="164.323" width="17.375" height="7.639" transform="translate(252.582 336.286) rotate(-180)"/><rect class="cls-5" x="117.603" y="168.143" width="24.232" height="7.639" transform="translate(259.439 343.925) rotate(-180)"/><rect class="cls-5" x="117.603" y="172.393" width="24.232" height="7.639" transform="translate(259.439 352.426) rotate(-180)"/><rect class="cls-5" x="85.305" y="164.323" width="17.375" height="7.639"/><rect class="cls-5" x="78.435" y="168.143" width="24.246" height="7.639"/><rect class="cls-5" x="78.435" y="172.393" width="24.246" height="7.639"/><path class="cls-6" d="M135.16,166.6h-9.141v3.979h.154c.029,0,.03-3.979,0-3.979h-.154c-.029,0-.03,3.979,0,3.979h9.141c.029,0,.03-3.979,0-3.979Z"/><path class="cls-6" d="M102.471,166.154H93.78c-.03,0-.031,3.978,0,3.978h.153c.029,0,.03-3.978,0-3.978H93.78v3.978h8.691c.029,0,.03-3.978,0-3.978Z"/><path class="cls-6" d="M85.17,169.908h2.7c.03,0,.031-3.979,0-3.979h-2.7c-.029,0-.03,3.979,0,3.979Z"/><path d="M128.345,141.418H118.193c-.059,0-.061,7.958,0,7.958h.443c.059,0,.061-7.958,0-7.958h-.443v7.958h10.152c.058,0,.061-7.958,0-7.958Z"/><path d="M100.818,140.25H91.283c-.042,0-.036,3.3-.036,3.57,0,.841,0,1.682.011,2.523,0,.148-.072.983.025,1.046.2.13.06.583.264.714-.025-.017.027-1.187.025-1.046.009-.841.011-1.682.011-2.524s0-1.682-.011-2.523c0-.148.073-.984-.025-1.046-.2-.13-.06-.583-.264-.714v7.139h9.535c.053,0,.055-7.139,0-7.139Z"/><path d="M102.92,142.28H96.629c-.059,0-.061,7.957,0,7.957h6.291c.058,0,.061-7.957,0-7.957Z"/><polygon class="cls-7" points="62.774 58.407 68.519 58.407 68.519 52.663 74.263 52.663 74.263 46.918 80.007 46.918 80.007 41.174 86.712 41.174 86.712 35.43 138.164 35.43 138.164 41.174 143.908 41.174 143.908 46.918 149.653 46.918 149.653 52.663 155.397 52.663 155.397 58.407 161.141 58.407 161.141 110.751 155.397 110.751 155.397 114.405 149.653 114.405 149.653 120.149 143.908 120.149 143.908 125.893 137.204 125.893 137.204 131.638 85.751 131.638 85.751 125.893 80.007 125.893 80.007 120.149 74.263 120.149 74.263 114.405 68.519 114.405 68.519 110.751 62.774 110.751 62.774 58.407"/><polygon class="cls-8" points="62.774 69.339 68.519 69.339 68.519 63.594 74.263 63.594 74.263 57.85 80.007 57.85 80.007 52.106 86.712 52.106 86.712 46.362 138.164 46.362 138.164 52.106 143.908 52.106 143.908 57.85 149.653 57.85 149.653 63.594 155.397 63.594 155.397 69.339 161.141 69.339 161.141 121.682 155.397 121.682 155.397 125.336 149.653 125.336 149.653 131.081 143.908 131.081 143.908 136.825 137.204 136.825 137.204 142.569 85.751 142.569 85.751 136.825 80.007 136.825 80.007 131.081 74.263 131.081 74.263 125.336 68.519 125.336 68.519 121.682 62.774 121.682 62.774 69.339"/><path class="cls-9" d="M130.866,46.213H90.872v3.569H91.9c.026,0,.027-3.569,0-3.569H90.872c-.026,0-.027,3.569,0,3.569h39.994c.026,0,.027-3.569,0-3.569Z"/><path class="cls-9" d="M132.68,48.632h-43.6c-.026,0-.027,3.569,0,3.569h.4c.026,0,.027-3.569,0-3.569h-.4V52.2h43.6c.026,0,.027-3.569,0-3.569Z"/><path class="cls-9" d="M134.494,45.638H89.48c-.053,0-.054,7.138,0,7.138h45.014c.053,0,.055-7.138,0-7.138Z"/><path class="cls-9" d="M147.192,57.731h-12.7c-.052,0-.054,7.139,0,7.139h12.7c.052,0,.054-7.139,0-7.139Z"/><path class="cls-9" d="M153.239,61.964h-13.3c-.052,0-.054,7.138,0,7.138h13.3c.052,0,.054-7.138,0-7.138Z"/><path class="cls-9" d="M88.271,56.522H77.387c-.053,0-.055,7.138,0,7.138H88.271c.052,0,.054-7.138,0-7.138Z"/><path class="cls-9" d="M82.829,62.568H70.736c-.053,0-.055,7.139,0,7.139H82.829c.052,0,.054-7.139,0-7.139Z"/><path class="cls-9" d="M127.238,120.011H94.317c-.052,0-.054,7.138,0,7.138h32.921c.053,0,.055-7.138,0-7.138Z"/><path class="cls-9" d="M96.131,113.36H89.48c-.053,0-.054,7.138,0,7.138h6.651c.053,0,.055-7.138,0-7.138Z"/><path class="cls-9" d="M133.285,113.36H122.4c-.052,0-.054,7.138,0,7.138h10.884c.052,0,.054-7.138,0-7.138Z"/><g class="cls-10"><path class="cls-7" d="M136.14,135.732H87.873c-.053,0-.055,7.138,0,7.138h.4c.052,0,.054-7.138,0-7.138h-.4v7.138H136.14c.053,0,.055-7.138,0-7.138Z"/></g><g class="cls-10"><path class="cls-7" d="M87.666,130.29H80.41c-.052,0-.054,7.138,0,7.138h7.256c.052,0,.054-7.138,0-7.138Z"/></g><g class="cls-10"><path class="cls-7" d="M79.805,124.848H74.364c-.053,0-.055,7.138,0,7.138h5.441c.053,0,.055-7.138,0-7.138Z"/></g><g class="cls-10"><path class="cls-7" d="M142.959,132.1H132.076c-.053,0-.055,7.138,0,7.138h10.883c.053,0,.055-7.138,0-7.138Z"/></g><g class="cls-10"><path class="cls-7" d="M151.425,124.243H141.75c-.052,0-.054,7.139,0,7.139h9.675c.052,0,.054-7.139,0-7.139Z"/></g><g class="cls-10"><path class="cls-7" d="M127.843,52.894H94.524c-.053,0-.055,7.138,0,7.138h.4c.052,0,.054-7.138,0-7.138h-.4v7.138h33.319c.052,0,.054-7.138,0-7.138Z"/></g><rect class="cls-11" x="139.936" y="76.326" width="6.651" height="36.279" transform="translate(286.523 188.931) rotate(-180)"/><rect class="cls-11" x="77.857" y="76.326" width="6.651" height="36.279" transform="translate(162.365 188.931) rotate(-180)"/><path class="cls-12" d="M121.192,45.638H98.735c-.053,0-.055,7.138,0,7.138h1.024c.053,0,.055-7.138,0-7.138H98.735v7.138h22.457c.052,0,.054-7.138,0-7.138Z"/><path class="cls-12" d="M149.611,58.94h-5.442c-.053,0-.055,7.139,0,7.139h5.442c.052,0,.054-7.139,0-7.139Z"/><path class="cls-12" d="M85.247,56.522H76.782c-.052,0-.054,7.138,0,7.138h8.465c.053,0,.055-7.138,0-7.138Z"/><path class="cls-12" d="M122.4,120.011H96.736c-.053,0-.055,7.138,0,7.138H122.4c.053,0,.054-7.138,0-7.138Z"/><rect class="cls-13" x="117.603" y="176.213" width="24.232" height="3.82" transform="translate(259.439 356.246) rotate(-180)"/><rect class="cls-13" x="78.435" y="176.213" width="24.246" height="3.82"/><rect class="cls-7" x="156.736" y="69.752" width="5.818" height="53.828" transform="translate(319.289 193.332) rotate(-180)"/><rect class="cls-7" x="61.685" y="68.721" width="5.818" height="53.828" transform="translate(129.187 191.271) rotate(-180)"/><rect class="cls-14" x="61.685" y="63.3" width="99.456" height="5.675" transform="translate(222.826 132.275) rotate(-180)"/><rect class="cls-14" x="61.685" y="56.463" width="99.456" height="7.496"/><rect class="cls-14" x="66.09" y="49.207" width="90.646" height="7.496"/><rect class="cls-14" x="72.159" y="43.174" width="78.507" height="7.496"/><rect class="cls-14" x="74.263" y="35.679" width="74.3" height="7.496"/><rect class="cls-14" x="84.038" y="31.102" width="54.75" height="7.496"/><rect class="cls-15" x="56.432" y="67.415" width="9.658" height="9.658" transform="translate(122.522 144.489) rotate(-180)"/><rect class="cls-14" x="46.774" y="67.415" width="9.658" height="9.658" transform="translate(103.206 144.489) rotate(-180)"/><rect class="cls-14" x="46.774" y="77.06" width="9.658" height="9.658" transform="translate(103.206 163.777) rotate(-180)"/><rect class="cls-14" x="38.662" y="81.889" width="9.658" height="9.658" transform="translate(86.983 173.435) rotate(-180)"/><rect class="cls-14" x="30.808" y="81.889" width="9.658" height="9.658" transform="translate(71.275 173.435) rotate(-180)"/><rect class="cls-15" x="56.432" y="77.06" width="9.658" height="9.658" transform="translate(122.522 163.777) rotate(-180)"/><rect class="cls-15" x="46.774" y="86.291" width="9.658" height="9.658" transform="translate(103.206 182.24) rotate(-180)"/><rect class="cls-15" x="46.774" y="94.567" width="9.658" height="9.658" transform="translate(103.206 198.792) rotate(-180)"/><path class="cls-15" d="M124.5,62.513H71.531v5.151h1.482c.038,0,.039-5.151,0-5.151H71.531c-.038,0-.039,5.151,0,5.151H124.5c.038,0,.039-5.151,0-5.151Z"/><path class="cls-15" d="M132.443,57H89.111v5.151h.571c.038,0,.04-5.151,0-5.151h-.571c-.038,0-.039,5.151,0,5.151h43.332c.038,0,.039-5.151,0-5.151Z"/><path class="cls-16" d="M134.1,32.275H89.6c-.038,0-.039,5.151,0,5.151H134.1c.038,0,.039-5.151,0-5.151Z"/><path class="cls-16" d="M154.171,45.932H120.137c-.038,0-.04,5.151,0,5.151h34.034c.037,0,.039-5.151,0-5.151Z"/><path class="cls-16" d="M101.811,35.46H77.376c-.038,0-.039,5.151,0,5.151h24.435c.038,0,.039-5.151,0-5.151Z"/><path class="cls-16" d="M157.661,62.513H122.755c-.038,0-.04,5.151,0,5.151h34.906c.038,0,.04-5.151,0-5.151Z"/><rect x="99.774" y="76.326" width="7.019" height="7.019" transform="translate(206.568 159.67) rotate(-180)"/><rect x="96.063" y="80.037" width="7.019" height="7.019" transform="translate(199.146 167.093) rotate(-180)"/><rect x="92.352" y="83.748" width="7.019" height="7.019" transform="translate(191.723 174.515) rotate(-180)"/><rect x="88.641" y="87.459" width="7.019" height="7.019" transform="translate(184.301 181.937) rotate(-180)"/><rect x="84.93" y="91.17" width="7.019" height="7.019" transform="translate(176.879 189.36) rotate(-180)"/><rect x="81.219" y="94.881" width="7.019" height="7.019" transform="translate(169.457 196.782) rotate(-180)"/><rect x="104.067" y="72.033" width="7.019" height="7.019" transform="translate(215.153 151.085) rotate(-180)"/><rect x="75.654" y="97.888" width="7.019" height="7.019" transform="translate(158.327 202.795) rotate(-180)"/><rect x="68.65" y="99.823" width="7.019" height="7.019" transform="translate(144.319 206.665) rotate(-180)"/><rect x="61.631" y="99.823" width="7.019" height="7.019" transform="translate(130.281 206.665) rotate(-180)"/><rect x="108.172" y="67.929" width="7.019" height="7.019" transform="translate(223.362 142.876) rotate(-180)"/></g></g></svg>