<svg xmlns="http://www.w3.org/2000/svg" viewBox="0 0 215 215"><defs><style>.cls-1{fill:#292a3c;}.cls-1,.cls-4{opacity:0.39;}.cls-2{fill:#a879fc;}.cls-3{fill:#8f7cf6;opacity:0.69;}.cls-4{fill:#a0f3f7;}.cls-5{fill:#afb9ff;}.cls-6,.cls-8{fill:#fff;}.cls-6,.cls-7{opacity:0.74;}.cls-9{fill:#d5fdff;}.cls-10{fill:#8bbcff;}.cls-11{fill:#ecd7ff;}.cls-12{fill:#a2f3f6;}.cls-13{fill:#f49e49;}.cls-14{fill:none;}</style></defs><g id="Layer_2" data-name="Layer 2"><g id="Layer_1-2" data-name="Layer 1"><path class="cls-1" d="M167.916,155.176H146.9c.007-1.057,0-2.789-.017-2.789H120.107c-.019,0-.025,1.732-.018,2.789h-1.656c-.022,0-.026,2.552-.01,3.346H116.76c-.022,0-.026,2.553-.01,3.347h-8.914c-.026,0-.027,3.585,0,3.585h33.622c.022,0,.026-2.552.011-3.346h21.415c.022,0,.026-2.552.01-3.346h5.022C167.943,158.762,167.944,155.176,167.916,155.176Z"/><polygon class="cls-2" points="168.709 80.784 167.969 76.531 162.524 77.479 161.576 72.033 156.13 72.981 155.182 67.536 149.737 68.484 148.789 63.038 143.343 63.986 142.395 58.541 136.95 59.489 136.002 54.043 130.556 54.991 129.608 49.546 123.072 50.684 118.717 51.442 73.998 59.227 63.107 61.123 64.055 66.568 58.61 67.516 59.558 72.962 54.112 73.91 55.06 79.355 49.615 80.303 50.563 85.749 45.117 86.697 46.065 92.142 40.62 93.09 41.568 98.536 36.122 99.484 38.018 110.374 42.271 109.634 43.012 113.887 48.892 112.863 49.916 118.744 55.797 117.72 56.82 123.601 62.701 122.577 63.725 128.458 69.605 127.434 70.629 133.314 76.509 132.291 77.533 138.171 83.414 137.147 84.437 143.028 90.318 142.004 91.342 147.885 97.222 146.861 98.246 152.742 104.127 151.718 105.15 157.599 110.161 156.726 111.184 162.607 112.055 162.455 122.075 160.711 122.946 160.559 121.922 154.679 126.932 153.807 125.908 147.926 131.789 146.902 130.765 141.022 136.646 139.998 135.622 134.117 141.503 133.094 140.479 127.213 146.36 126.189 145.336 120.309 151.216 119.285 150.193 113.404 156.073 112.381 155.049 106.5 160.93 105.476 159.906 99.596 165.787 98.572 164.763 92.692 166.352 92.415 170.644 91.668 168.748 80.777 168.709 80.784"/><polygon class="cls-3" points="168.709 80.784 167.969 76.531 162.524 77.479 161.576 72.033 156.13 72.981 155.182 67.536 149.737 68.484 148.789 63.038 143.343 63.986 142.395 58.541 136.95 59.489 136.002 54.043 130.556 54.991 129.608 49.546 123.072 50.684 118.717 51.442 109.863 52.983 110.811 58.429 116.256 57.481 117.204 62.926 122.65 61.978 123.598 67.424 129.043 66.476 129.991 71.921 135.437 70.973 136.385 76.418 141.83 75.471 142.778 80.916 148.223 79.968 148.964 84.221 149.002 84.214 150.898 95.105 146.607 95.852 145.017 96.129 146.041 102.01 140.161 103.033 141.184 108.914 135.304 109.938 136.328 115.818 130.447 116.842 131.471 122.722 125.59 123.746 126.614 129.627 120.733 130.651 121.757 136.531 115.877 137.555 116.9 143.435 111.02 144.459 112.044 150.34 106.163 151.363 107.187 157.244 110.161 156.726 111.184 162.607 112.055 162.455 122.075 160.711 122.946 160.559 121.922 154.679 126.932 153.807 125.909 147.926 131.789 146.902 130.765 141.022 136.646 139.998 135.622 134.117 141.503 133.094 140.479 127.213 146.36 126.189 145.336 120.309 151.217 119.285 150.193 113.404 156.073 112.381 155.05 106.5 160.93 105.476 159.906 99.596 165.787 98.572 164.763 92.692 166.352 92.415 170.644 91.668 168.748 80.777 168.709 80.784"/><polygon class="cls-4" points="117.088 143.403 111.208 144.426 110.184 138.546 104.303 139.57 103.28 133.689 97.399 134.713 96.375 128.832 90.495 129.856 89.471 123.975 83.591 124.999 82.567 119.119 76.686 120.142 75.663 114.262 69.782 115.285 68.758 109.405 62.878 110.429 62.371 107.518 42.505 110.977 43.012 113.887 48.892 112.863 49.916 118.744 55.797 117.72 56.82 123.601 62.701 122.577 63.725 128.457 69.605 127.434 70.629 133.314 76.509 132.291 77.533 138.171 83.414 137.147 84.437 143.028 90.318 142.004 91.342 147.885 97.222 146.861 98.246 152.742 104.127 151.718 105.15 157.599 110.161 156.726 111.184 162.607 112.055 162.455 122.075 160.711 122.946 160.559 121.922 154.679 125.016 154.14 123.993 148.26 118.112 149.283 117.088 143.403"/><path class="cls-5" d="M36.888,103.033l14.443-2.515c.209-.036-.161-3.264,0-3.292l-.523.091c-.208.037.161,3.264,0,3.292l.523-.091V97.226L36.888,99.741c-.208.036.161,3.264,0,3.292Z"/><path class="cls-5" d="M52.179,104.145l5.128-.893a14.714,14.714,0,0,0,.017-1.646c0-.124-.049-1.64-.017-1.646l-5.128.893a14.714,14.714,0,0,0-.017,1.646c0,.124.049,1.64.017,1.646Z"/><path class="cls-5" d="M57.945,106.915l8.792-1.53a14.735,14.735,0,0,0,.016-1.646c0-.125-.049-1.641-.016-1.646l-8.792,1.53a14.717,14.717,0,0,0-.017,1.646c0,.125.049,1.641.017,1.646Z"/><path class="cls-5" d="M67.247,108.315l54.323-9.456L136.259,96.3c.209-.036-.161-3.264,0-3.292l-54.323,9.457-14.689,2.557c-.209.037.161,3.264,0,3.292Z"/><path class="cls-5" d="M135.494,91.905l5.632-.98a14.732,14.732,0,0,0,.016-1.646c0-.125-.048-1.641-.016-1.646l-5.632.98a14.717,14.717,0,0,0-.017,1.646c0,.125.049,1.641.017,1.646Z"/><path class="cls-5" d="M140.572,87.247l9.274-1.614V82.341l-.482.084a14.714,14.714,0,0,0-.017,1.646c0,.124.049,1.64.017,1.646l.482-.084a14.717,14.717,0,0,0,.017-1.646c0-.125-.049-1.641-.017-1.646l-9.274,1.614a14.732,14.732,0,0,0-.016,1.646c0,.125.048,1.641.016,1.646Z"/><path class="cls-5" d="M150.191,81.8l15.889-2.766c.209-.036-.161-3.264,0-3.292l-15.889,2.766c-.209.037.161,3.264,0,3.292Z"/><rect class="cls-6" x="69.074" y="97.738" width="5.378" height="20.956" transform="translate(-17.497 13.911) rotate(-9.876)"/><rect class="cls-6" x="77.467" y="117.547" width="4.498" height="10.649" transform="translate(-19.892 15.492) rotate(-9.876)"/><rect class="cls-6" x="83.865" y="127.27" width="4.321" height="12.27" transform="translate(-21.605 16.731) rotate(-9.876)"/><rect class="cls-6" x="92.616" y="138.217" width="3.859" height="9.042" transform="translate(-23.08 18.33) rotate(-9.876)"/><rect class="cls-6" x="142.302" y="84.989" width="5.378" height="20.956" transform="translate(304.208 164.653) rotate(170.124)"/><rect class="cls-6" x="140.21" y="106.624" width="4.498" height="10.649" transform="translate(302.008 197.805) rotate(170.124)"/><rect class="cls-6" x="137.92" y="117.859" width="4.321" height="12.27" transform="translate(299.351 222.127) rotate(170.124)"/><rect class="cls-6" x="133.285" y="131.137" width="3.859" height="9.042" transform="translate(291.693 246.116) rotate(170.124)"/><rect class="cls-6" x="94.945" y="119.797" width="5.325" height="5.325" transform="translate(-19.556 18.555) rotate(-9.876)"/><rect class="cls-6" x="103.588" y="125.877" width="5.325" height="5.325" transform="translate(-20.471 20.127) rotate(-9.876)"/><g class="cls-7"><path class="cls-8" d="M56.653,75.085l9.891-1.722c.023,0-.54-3.248-.565-3.244l-9.891,1.722c-.023,0,.54,3.248.565,3.244Z"/></g><g class="cls-7"><path class="cls-8" d="M67.858,77.663,77.2,76.037c.024,0-.54-3.248-.564-3.244L67.294,74.42c-.024,0,.54,3.247.564,3.243Z"/></g><g class="cls-7"><path class="cls-8" d="M77.773,79.334l34.453-6,9.867-1.718c.024,0-.54-3.248-.565-3.243l-.361.063c-.024,0,.539,3.247.564,3.243l.362-.063c.024,0-.54-3.248-.565-3.243l-34.453,6L77.209,76.09c-.024,0,.54,3.248.564,3.244Z"/></g><g class="cls-7"><path class="cls-8" d="M122.71,67.548a5.615,5.615,0,0,1,4.945-.861c-.008,0-.082-.546-.071-.477-.062-.383-.128-.765-.2-1.148s-.133-.764-.2-1.146a2.008,2.008,0,0,0-.094-.473,5.617,5.617,0,0,0-4.946.861,3.211,3.211,0,0,0,.072.477c.062.383.128.766.194,1.148s.134.764.2,1.146a3.927,3.927,0,0,1,.094.473Z"/></g><g class="cls-7"><path class="cls-8" d="M127.344,61.646l6.593-1.148c.024,0-.539-3.248-.564-3.243L126.779,58.4c-.024,0,.54,3.247.565,3.243Z"/></g><g class="cls-7"><path class="cls-8" d="M132.36,57.942,138.4,56.89c.024,0-.539-3.248-.564-3.244L131.8,54.7c-.024,0,.54,3.247.564,3.243Z"/></g><g class="cls-7"><path class="cls-8" d="M71.66,96.249l4.945-.861c.024,0-.54-3.247-.564-3.243l-4.946.861c-.023,0,.54,3.248.565,3.243Z"/></g><g class="cls-7"><path class="cls-8" d="M75.744,90.443l6.045-1.052c.023,0-.54-3.248-.565-3.243L75.18,87.2c-.024,0,.54,3.248.564,3.243Z"/></g><g class="cls-7"><path class="cls-8" d="M78.992,83.084l7.143-1.243c.024,0-.539-3.248-.564-3.244l-7.143,1.244c-.024,0,.54,3.248.564,3.243Z"/></g><g class="cls-7"><path class="cls-8" d="M119.558,75.456l5.869-1.022c.024,0-.54-3.247-.565-3.243l-.374.065c-.024,0,.54,3.248.564,3.244l.375-.066c.024,0-.54-3.247-.565-3.243l-5.869,1.022c-.024,0,.54,3.248.565,3.243Z"/></g><g class="cls-7"><path class="cls-8" d="M125.818,78.9l5.494-.956c.024,0-.539-3.248-.564-3.244l-5.495.957c-.024,0,.54,3.248.565,3.243Z"/></g><g class="cls-7"><path class="cls-8" d="M129.33,82.813l7.143-1.244c.024,0-.539-3.247-.564-3.243l-7.143,1.244c-.024,0,.54,3.247.564,3.243Z"/></g><g class="cls-7"><path class="cls-8" d="M135.137,86.9l6.044-1.052c.024,0-.54-3.248-.565-3.243l-6.044,1.052c-.024,0,.54,3.248.565,3.243Z"/></g><g class="cls-7"><path class="cls-8" d="M107.018,91.226l13.737-2.391c.023,0-.54-3.248-.565-3.244l-13.737,2.392c-.024,0,.54,3.248.565,3.243Z"/></g><g class="cls-7"><path class="cls-8" d="M92.754,84.085l5.494-.956c.024,0-.54-3.248-.564-3.244l-5.5.957c-.024,0,.54,3.248.565,3.243Z"/></g><g class="cls-7"><path class="cls-8" d="M76.648,63.112l7.692-1.339c.024,0-.54-3.248-.564-3.244l-7.693,1.339c-.024,0,.54,3.248.565,3.244Z"/></g><g class="cls-7"><path class="cls-8" d="M89.5,65.4l13.188-2.3c.024,0-.54-3.247-.565-3.243l-13.187,2.3c-.024,0,.54,3.248.564,3.243Z"/></g><path class="cls-9" d="M123.914,99.96l14.653-2.551c.209-.036-.161-3.264,0-3.292l-14.653,2.551c-.208.036.161,3.264,0,3.292Z"/><path class="cls-9" d="M152.134,79.951l12.455-2.169c.209-.036-.161-3.264,0-3.292l-12.455,2.168c-.209.037.161,3.265,0,3.293Z"/><path class="cls-9" d="M146.783,83.9l8.792-1.53a14.735,14.735,0,0,0,.016-1.646c0-.125-.049-1.641-.016-1.646l-8.792,1.53a14.735,14.735,0,0,0-.016,1.646c0,.125.048,1.641.016,1.646Z"/><path class="cls-9" d="M113.441,139.525l7.326-1.275a14.717,14.717,0,0,0,.017-1.646c0-.125-.049-1.641-.017-1.647l-7.326,1.276a14.5,14.5,0,0,0-.016,1.646c0,.124.048,1.64.016,1.646Z"/><path class="cls-9" d="M58.9,103.73l8.792-1.531a14.732,14.732,0,0,0,.016-1.646c0-.124-.049-1.64-.016-1.646L58.9,100.438a14.732,14.732,0,0,0-.016,1.646c0,.124.048,1.64.016,1.646Z"/><path class="cls-9" d="M131.783,106.138l3.664-.637c.014,0,.012-.554.011-.482,0-.388,0-.776,0-1.164s0-.776,0-1.164c0-.048-.013-.482-.011-.482l-3.664.637c-.014,0-.012.554-.011.482,0,.388,0,.776,0,1.164s0,.776,0,1.164c0,.048.014.482.011.482Z"/><path class="cls-9" d="M119.065,54.759l6.594-1.148a14.732,14.732,0,0,0,.016-1.646c0-.124-.049-1.64-.016-1.646l-6.594,1.148a14.717,14.717,0,0,0-.017,1.646c0,.125.049,1.641.017,1.646Z"/><path class="cls-10" d="M109.772,105.441l24.177-4.209c.209-.036-.161-3.264,0-3.292l-24.177,4.209c-.209.036.161,3.264,0,3.292Z"/><path class="cls-11" d="M79.191,103.217l14.653-2.551c.209-.036-.161-3.264,0-3.292L79.191,99.925c-.209.036.161,3.264,0,3.292Z"/><path class="cls-12" d="M64.978,64.93,76.7,62.889c.209-.036-.161-3.264,0-3.292L64.978,61.638c-.209.036.161,3.264,0,3.292Z"/><path class="cls-8" d="M67.7,88.775c-.137-.011-.273-.009-.409-.016.41-.913-.261-2.231-1.445-1.8a7.079,7.079,0,0,1-6.81-1.37,11.733,11.733,0,0,1-4.058-7.338,26.053,26.053,0,0,1-.4-4.745c.129-.865.246-1.732.367-2.6q.805-5.763,1.613-11.525a1.445,1.445,0,0,0-1.377-1.617V57.73c.07-1.663-2.514-1.659-2.584,0-.173,4.105-.358,8.21-.518,12.315C52.029,71.164,52,72.293,52,73.423a28.956,28.956,0,0,1-1.272,5.385,10.192,10.192,0,0,1-5.005,6.037,20.1,20.1,0,0,1-5.419,1.222,11.285,11.285,0,0,0-3.236-.1,1.433,1.433,0,0,0-1.12,1.981c-.162.886.477,1.889,1.52,1.468a14.008,14.008,0,0,1,2.567-.724,11.411,11.411,0,0,1,6.026,3.451,18.723,18.723,0,0,1,4.294,9.439,68.684,68.684,0,0,1,.835,10.484,22.224,22.224,0,0,0,.112,2.393c.044.8.1,1.6.175,2.39a2.53,2.53,0,0,0,.847,2.047c1.421,1,2.769-.637,2.143-2.029a.872.872,0,0,0-.157-.221,16.088,16.088,0,0,1-.436-2.355c-.046-.837-.077-1.674-.108-2.512a29.225,29.225,0,0,1,.4-4.2,49.953,49.953,0,0,1,2-8.808A11.287,11.287,0,0,1,67.7,91.359C69.354,91.49,69.345,88.905,67.7,88.775ZM53.615,95.621a5.516,5.516,0,0,1-.131.592.287.287,0,0,1-.039-.02c-.094-.361-.207-.717-.331-1.071a2.018,2.018,0,0,0,.5.261C53.613,95.462,53.624,95.542,53.615,95.621ZM50.739,85.186c-.187-.164-.377-.323-.573-.466q.246-.265.477-.546A4.47,4.47,0,0,0,50.739,85.186ZM59.2,88.751a9.761,9.761,0,0,0,2.47.966,13.836,13.836,0,0,0-1.574.751A4.45,4.45,0,0,0,59.2,88.751Zm-6.275-7.994c.029.1.069.193.1.29a1.334,1.334,0,0,0-.422-.031c.027-.058.058-.115.084-.173.057-.131.1-.264.157-.4C52.871,80.55,52.892,80.654,52.923,80.757Z"/><path class="cls-8" d="M34.472,87.211a7.066,7.066,0,0,0-1.986-.63,7.885,7.885,0,0,0-1.147-.1,8.019,8.019,0,0,0-1.178.1,1.093,1.093,0,0,0-.658.506A1.1,1.1,0,0,0,29.9,88.6a1.278,1.278,0,0,0,.832.113l-.215.029a5.173,5.173,0,0,1,2.811.36l.033.015a1.184,1.184,0,0,0,.849.111,1.1,1.1,0,0,0,.264-2.014Z"/><path class="cls-8" d="M74.665,87.529a6.371,6.371,0,0,0-1.975-.681,7.123,7.123,0,0,0-2.331.011,1.108,1.108,0,0,0-.659.506,1.132,1.132,0,0,0-.111.85,1.113,1.113,0,0,0,.507.658,1.238,1.238,0,0,0,.809.113l-.074.01a5.542,5.542,0,0,1,1.3-.01,5.646,5.646,0,0,1,1.14.312c.094.044.189.086.281.135a1.1,1.1,0,0,0,1.113-1.9Z"/><path class="cls-8" d="M53.484,122.2a1.12,1.12,0,0,0-1.356.77,10,10,0,0,0-.238,3.71,1.216,1.216,0,0,0,.323.78,1.1,1.1,0,0,0,1.559,0,1.063,1.063,0,0,0,.323-.78,9.2,9.2,0,0,1-.009-2.262c.045-.289.1-.578.167-.862A1.118,1.118,0,0,0,53.484,122.2Z"/><path class="cls-8" d="M55.092,54.6a1.112,1.112,0,0,0,.85-.111l.223-.172a1.108,1.108,0,0,0,.283-.486l.783-2.089a1.112,1.112,0,0,0-.111-.849,1.1,1.1,0,0,0-1.508-.4l-.223.172a1.1,1.1,0,0,0-.283.487l-.783,2.088a1.112,1.112,0,0,0,.111.849A1.124,1.124,0,0,0,55.092,54.6Z"/><rect class="cls-13" x="173.284" y="56.737" width="4.259" height="7.988"/><rect class="cls-13" x="179.525" y="62.86" width="4.259" height="7.988" transform="translate(248.508 -114.801) rotate(90)"/><rect class="cls-13" x="167.161" y="62.86" width="4.259" height="7.988" transform="translate(236.144 -102.437) rotate(90)"/><rect class="cls-13" x="173.284" y="68.983" width="4.447" height="11.61"/><rect class="cls-13" x="58.338" y="135.064" width="4.259" height="7.988"/><rect class="cls-13" x="64.58" y="141.187" width="4.259" height="7.988" transform="translate(211.89 78.472) rotate(90)"/><rect class="cls-13" x="52.215" y="141.187" width="4.259" height="7.988" transform="translate(199.526 90.836) rotate(90)"/><rect class="cls-13" x="58.338" y="147.311" width="4.447" height="11.61"/><rect class="cls-14" width="215" height="215"/></g></g></svg>