<svg xmlns="http://www.w3.org/2000/svg" viewBox="0 0 659.4 110.73"><g id="Layer_2" data-name="Layer 2"><g id="Layer_1-2" data-name="Layer 1"><path d="M39.54,75.14l11.87-4,7.91-7.91,4-7.91,4,4L59.32,71.18,47.45,79.09H27.68L11.86,71.18,4,59.32,0,39.54,4,19.77,11.86,7.91,27.68,0H47.45L63.27,7.91l4,7.91-7.91,7.91H51.41V11.86L43.5,4H35.59L23.73,11.86,15.82,23.73V55.36l7.91,11.87Z"/><path d="M116.66,35.59V71.18l7.91-4v4l-7.91,7.91h-4l-4-7.91L96.88,79.09H89l-7.91-4L73.16,63.27l4-11.86,7.91-4,19.77-4V35.59l-4-4H92.93l-4,7.9-7.91-7.9,15.81-7.91,15.82,3.95ZM85,63.27l7.91,11.87,7.91-4,4-7.91V47.45L89,55.36Z"/><path d="M181.91,43.5V59.32L174,75.14l-11.87,4h-7.91l-7.91-4v27.68l7.91,7.91H126.54l7.91-7.91V35.59l-7.91-4,19.77-7.91-3.95,15.81,11.86-11.86,7.91-3.95L174,27.68Zm-35.6,19.77,4,7.91,7.91,4,7.91-4L170,51.41l-3.95-19.77h-7.91L146.31,43.5Z"/><path d="M219.47,27.68v4l-11.86,4V67.23l3.95,4,7.91-7.91,4,4-7.91,7.91-7.91,4h-4l-7.9-11.86V35.59l-7.91-4v-4l7.91-3.95,3.95-4,4-7.91h4V27.68Z"/><path d="M268.9,35.59V71.18l7.91-4v4l-7.91,7.91H265l-4-7.91-11.86,7.91h-7.91l-7.91-4L225.4,63.27l4-11.86,7.91-4,19.77-4V35.59l-4-4h-7.9l-4,7.9-7.91-7.9,15.82-7.91L265,27.68ZM237.27,63.27l7.91,11.87,7.9-4,4-7.91V47.45l-15.82,7.91Z"/><path d="M300.54,71.18l7.91,7.91H280.77l7.9-7.91V35.59l-7.9-4,19.77-7.91ZM284.72,7.91,288.67,0h4l7.91,4v4l-4,7.91h-3.95l-7.91-4Z"/><path d="M324.26,35.59l-7.91-4,19.78-7.91-4,15.81L344,27.68l7.9-3.95,15.82,3.95,4,7.91V71.18l7.91,7.91H351.94l7.91-7.91V35.59l-4-4H348L336.13,43.5V71.18L344,79.09H316.35l7.91-7.91Z"/><path d="M387.53,0h4l3.95,4v4l-7.91,11.86-3.95,4V4Z"/><path d="M428.07,31.64h-7.91l-4,4v3.95l23.73,15.82,4,7.91-4,11.87-7.91,4H420.16l-7.91-4-3.95,4-4-19.77h4l7.9,11.86,7.91,4,7.91-4V63.27L408.3,47.45l-4-7.91,4-11.86,15.81-3.95L432,27.68l4-3.95,3.95,19.77H436Z"/><path d="M489.36,71.18V7.91L481.45,0h27.68l-7.91,7.91V71.18l4,4H525l11.86-19.78h4l-4,27.68-7.9-4H481.45Z"/><path d="M588.22,27.68l7.91,15.82V59.32l-7.91,15.82-11.86,4h-7.91l-11.86-4-7.91-15.82V43.5l7.91-15.82,11.86-3.95h7.91ZM560.54,51.41l4,19.77,7.9,4,7.91-4,4-19.77-4-19.77-7.91-4-7.9,4Z"/><path d="M655.45,35.59l-7.91-4,4,7.9v7.91l-4,7.91-11.86,7.91-11.87,4,19.77,7.91L655.45,87v7.91l-7.91,11.86-11.86,4h-7.91l-15.82-4L604,94.91V87l15.82-11.86-7.91-4,3.95-4,7.91-4-11.86-4L604,47.45V39.54L612,27.68l11.86-3.95h7.91l11.86,3.95,11.87-3.95,3.95,11.86ZM615.9,43.5l4,11.86,7.91,4,7.91-4,4-11.86-4-11.86-7.91-4-7.91,4Zm0,51.41,7.91,7.91,11.87,4,7.9-7.91V91L635.68,83l-11.87-4L615.9,87Z"/></g></g></svg>