<svg xmlns="http://www.w3.org/2000/svg" viewBox="0 0 1935.17 481.52"><defs><style>.cls-1{fill:#f6d865;}.cls-2{fill:#dbbc65;}.cls-3{fill:#c79f4d;}.cls-3,.cls-5{opacity:0.72;}.cls-4{fill:#fdfd8e;}.cls-5,.cls-6{fill:#b5843c;}.cls-6{opacity:0.43;}.cls-10,.cls-7,.cls-8{fill:#8f501c;}.cls-7{opacity:0.13;}.cls-8,.cls-9{opacity:0.51;}</style></defs><g id="Layer_2" data-name="Layer 2"><g id="Layer_1-2" data-name="Layer 1"><polygon class="cls-1" points="1884.98 315.69 1884.98 297.13 1893.47 287.59 1890.37 284.48 1881.09 284.48 1898.11 267.46 1897.45 226.7 1889.62 185.95 1880.34 167.39 1898.16 148.83 1888.88 133.34 1888.88 92.58 1898.16 83.31 1902.09 62.93 1898.16 35.62 963.54 41.91 28.92 35.62 25 62.93 28.92 83.31 38.2 92.58 38.2 133.34 28.92 148.83 46.74 167.39 37.46 185.95 29.64 226.7 28.97 267.46 46 284.48 36.72 284.48 33.61 287.59 42.1 297.13 42.1 315.69 33.61 325.24 25 334.51 25 362.36 33.61 370.37 42.1 379.3 42.1 410.93 33.61 420.4 38.25 438.97 867.61 438.97 1059.47 438.97 1888.83 438.97 1893.47 420.4 1884.98 410.93 1884.98 379.3 1893.47 370.37 1902.09 362.36 1902.09 334.51 1893.47 325.24 1884.98 315.69"/><rect class="cls-1" x="7.85" y="14.05" width="45.57" height="14.45"/><rect class="cls-1" x="1881.76" y="14.05" width="45.57" height="14.45"/><rect class="cls-1" x="28.66" y="7.03" width="1877.58" height="28.5"/><rect class="cls-2" y="14.05" width="7.85" height="14.45"/><rect class="cls-2" x="21.08" y="14.05" width="7.85" height="14.45"/><rect class="cls-2" x="7.85" y="7.03" width="21.08" height="7.03"/><rect class="cls-2" x="28.92" width="1877.32" height="7.03"/><rect class="cls-2" x="7.85" y="28.5" width="21.08" height="7.03"/><rect class="cls-2" x="1927.32" y="14.05" width="7.85" height="14.45" transform="translate(3862.49 42.55) rotate(180)"/><rect class="cls-2" x="1906.24" y="14.05" width="7.85" height="14.45" transform="translate(3820.34 42.55) rotate(180)"/><rect class="cls-2" x="1906.24" y="28.5" width="21.08" height="7.03" transform="translate(3833.57 64.02) rotate(180)"/><rect class="cls-2" x="1906.24" y="7.03" width="21.08" height="7.03" transform="translate(3833.57 21.08) rotate(180)"/><rect class="cls-3" x="7.85" y="21.28" width="13.23" height="7.22"/><rect class="cls-3" x="42.1" y="21.28" width="13.23" height="7.22"/><rect class="cls-3" x="69.1" y="21.28" width="13.23" height="7.22"/><rect class="cls-3" x="96.1" y="21.28" width="13.23" height="7.22"/><rect class="cls-3" x="123.1" y="21.28" width="13.23" height="7.22"/><rect class="cls-3" x="150.1" y="21.28" width="13.23" height="7.22"/><rect class="cls-3" x="177.1" y="21.28" width="13.23" height="7.22"/><rect class="cls-3" x="204.1" y="21.28" width="13.23" height="7.22"/><rect class="cls-3" x="231.1" y="21.28" width="13.23" height="7.22"/><rect class="cls-3" x="258.1" y="21.28" width="13.23" height="7.22"/><rect class="cls-3" x="285.09" y="21.28" width="13.23" height="7.22"/><rect class="cls-3" x="312.09" y="21.28" width="13.23" height="7.22"/><rect class="cls-3" x="339.09" y="21.28" width="13.23" height="7.22"/><rect class="cls-3" x="366.09" y="21.28" width="13.23" height="7.22"/><rect class="cls-3" x="393.09" y="21.28" width="13.23" height="7.22"/><rect class="cls-3" x="420.09" y="21.28" width="13.23" height="7.22"/><rect class="cls-3" x="447.09" y="21.28" width="13.23" height="7.22"/><rect class="cls-3" x="474.09" y="21.28" width="13.23" height="7.22"/><rect class="cls-3" x="501.09" y="21.28" width="13.23" height="7.22"/><rect class="cls-3" x="528.08" y="21.28" width="13.23" height="7.22"/><rect class="cls-3" x="555.08" y="21.28" width="13.23" height="7.22"/><rect class="cls-3" x="582.08" y="21.28" width="13.23" height="7.22"/><rect class="cls-3" x="609.08" y="21.28" width="13.23" height="7.22"/><rect class="cls-3" x="636.08" y="21.28" width="13.23" height="7.22"/><rect class="cls-3" x="663.08" y="21.28" width="13.23" height="7.22"/><rect class="cls-3" x="690.08" y="21.28" width="13.23" height="7.22"/><rect class="cls-3" x="717.08" y="21.28" width="13.23" height="7.22"/><rect class="cls-3" x="744.08" y="21.28" width="13.23" height="7.22"/><rect class="cls-3" x="771.07" y="21.28" width="13.23" height="7.22"/><rect class="cls-3" x="798.07" y="21.28" width="13.23" height="7.22"/><rect class="cls-3" x="825.07" y="21.28" width="13.23" height="7.22"/><rect class="cls-3" x="852.07" y="21.28" width="13.23" height="7.22"/><rect class="cls-3" x="879.07" y="21.28" width="13.23" height="7.22"/><rect class="cls-3" x="906.07" y="21.28" width="13.23" height="7.22"/><rect class="cls-3" x="933.07" y="21.28" width="13.23" height="7.22"/><rect class="cls-3" x="960.07" y="21.28" width="13.23" height="7.22"/><rect class="cls-3" x="987.07" y="21.28" width="13.23" height="7.22"/><rect class="cls-3" x="1014.07" y="21.28" width="13.23" height="7.22"/><rect class="cls-3" x="1041.06" y="21.28" width="13.23" height="7.22"/><rect class="cls-3" x="1068.06" y="21.28" width="13.23" height="7.22"/><rect class="cls-3" x="1095.06" y="21.28" width="13.23" height="7.22"/><rect class="cls-3" x="1122.06" y="21.28" width="13.23" height="7.22"/><rect class="cls-3" x="1149.06" y="21.28" width="13.23" height="7.22"/><rect class="cls-3" x="1176.06" y="21.28" width="13.23" height="7.22"/><rect class="cls-3" x="1203.06" y="21.28" width="13.23" height="7.22"/><rect class="cls-3" x="1230.06" y="21.28" width="13.23" height="7.22"/><rect class="cls-3" x="1257.06" y="21.28" width="13.23" height="7.22"/><rect class="cls-3" x="1284.05" y="21.28" width="13.23" height="7.22"/><rect class="cls-3" x="1311.05" y="21.28" width="13.23" height="7.22"/><rect class="cls-3" x="1338.05" y="21.28" width="13.23" height="7.22"/><rect class="cls-3" x="1365.05" y="21.28" width="13.23" height="7.22"/><rect class="cls-3" x="1392.05" y="21.28" width="13.23" height="7.22"/><rect class="cls-3" x="1419.05" y="21.28" width="13.23" height="7.22"/><rect class="cls-3" x="1446.05" y="21.28" width="13.23" height="7.22"/><rect class="cls-3" x="1473.05" y="21.28" width="13.23" height="7.22"/><rect class="cls-3" x="1500.05" y="21.28" width="13.23" height="7.22"/><rect class="cls-3" x="1527.04" y="21.28" width="13.23" height="7.22"/><rect class="cls-3" x="1554.04" y="21.28" width="13.23" height="7.22"/><rect class="cls-3" x="1581.04" y="21.28" width="13.23" height="7.22"/><rect class="cls-3" x="1608.04" y="21.28" width="13.23" height="7.22"/><rect class="cls-3" x="1635.04" y="21.28" width="13.23" height="7.22"/><rect class="cls-3" x="1662.04" y="21.28" width="13.23" height="7.22"/><rect class="cls-3" x="1689.04" y="21.28" width="13.23" height="7.22"/><rect class="cls-3" x="1716.04" y="21.28" width="13.23" height="7.22"/><rect class="cls-3" x="1743.04" y="21.28" width="13.23" height="7.22"/><rect class="cls-3" x="1770.04" y="21.28" width="13.23" height="7.22"/><rect class="cls-3" x="1797.03" y="21.28" width="13.23" height="7.22"/><rect class="cls-3" x="1824.03" y="21.28" width="13.23" height="7.22"/><rect class="cls-3" x="1851.03" y="21.28" width="13.23" height="7.22"/><rect class="cls-3" x="1878.03" y="21.28" width="13.23" height="7.22"/><rect class="cls-3" x="28.92" y="28.5" width="1877.32" height="7.12"/><rect class="cls-4" x="28.92" y="6.46" width="1877.32" height="7.12"/><rect class="cls-3" x="1914.09" y="21.28" width="13.23" height="7.22"/><rect class="cls-1" x="7.85" y="453.02" width="45.57" height="14.45"/><rect class="cls-1" x="1881.76" y="453.02" width="45.57" height="14.45"/><rect class="cls-1" x="28.66" y="446" width="1877.58" height="28.5"/><rect class="cls-2" y="453.02" width="7.85" height="14.45"/><rect class="cls-2" x="21.08" y="453.02" width="7.85" height="14.45"/><rect class="cls-2" x="7.85" y="446" width="21.08" height="7.03"/><rect class="cls-5" x="28.92" y="438.97" width="1877.32" height="7.03"/><rect class="cls-2" x="28.92" y="474.49" width="1877.32" height="7.03"/><rect class="cls-2" x="7.85" y="467.47" width="21.08" height="7.03"/><rect class="cls-2" x="1927.32" y="453.02" width="7.85" height="14.45" transform="translate(3862.49 920.49) rotate(180)"/><rect class="cls-2" x="1906.24" y="453.02" width="7.85" height="14.45" transform="translate(3820.34 920.49) rotate(180)"/><rect class="cls-2" x="1906.24" y="467.47" width="21.08" height="7.03" transform="translate(3833.57 941.96) rotate(180)"/><rect class="cls-2" x="1906.24" y="446" width="21.08" height="7.03" transform="translate(3833.57 899.02) rotate(180)"/><rect class="cls-3" x="7.85" y="460.25" width="13.23" height="7.22"/><rect class="cls-3" x="42.1" y="460.25" width="13.23" height="7.22"/><rect class="cls-3" x="69.1" y="460.25" width="13.23" height="7.22"/><rect class="cls-3" x="96.1" y="460.25" width="13.23" height="7.22"/><rect class="cls-3" x="123.1" y="460.25" width="13.23" height="7.22"/><rect class="cls-3" x="150.1" y="460.25" width="13.23" height="7.22"/><rect class="cls-3" x="177.1" y="460.25" width="13.23" height="7.22"/><rect class="cls-3" x="204.1" y="460.25" width="13.23" height="7.22"/><rect class="cls-3" x="231.1" y="460.25" width="13.23" height="7.22"/><rect class="cls-3" x="258.1" y="460.25" width="13.23" height="7.22"/><rect class="cls-3" x="285.09" y="460.25" width="13.23" height="7.22"/><rect class="cls-3" x="312.09" y="460.25" width="13.23" height="7.22"/><rect class="cls-3" x="339.09" y="460.25" width="13.23" height="7.22"/><rect class="cls-3" x="366.09" y="460.25" width="13.23" height="7.22"/><rect class="cls-3" x="393.09" y="460.25" width="13.23" height="7.22"/><rect class="cls-3" x="420.09" y="460.25" width="13.23" height="7.22"/><rect class="cls-3" x="447.09" y="460.25" width="13.23" height="7.22"/><rect class="cls-3" x="474.09" y="460.25" width="13.23" height="7.22"/><rect class="cls-3" x="501.09" y="460.25" width="13.23" height="7.22"/><rect class="cls-3" x="528.08" y="460.25" width="13.23" height="7.22"/><rect class="cls-3" x="555.08" y="460.25" width="13.23" height="7.22"/><rect class="cls-3" x="582.08" y="460.25" width="13.23" height="7.22"/><rect class="cls-3" x="609.08" y="460.25" width="13.23" height="7.22"/><rect class="cls-3" x="636.08" y="460.25" width="13.23" height="7.22"/><rect class="cls-3" x="663.08" y="460.25" width="13.23" height="7.22"/><rect class="cls-3" x="690.08" y="460.25" width="13.23" height="7.22"/><rect class="cls-3" x="717.08" y="460.25" width="13.23" height="7.22"/><rect class="cls-3" x="744.08" y="460.25" width="13.23" height="7.22"/><rect class="cls-3" x="771.07" y="460.25" width="13.23" height="7.22"/><rect class="cls-3" x="798.07" y="460.25" width="13.23" height="7.22"/><rect class="cls-3" x="825.07" y="460.25" width="13.23" height="7.22"/><rect class="cls-3" x="852.07" y="460.25" width="13.23" height="7.22"/><rect class="cls-3" x="879.07" y="460.25" width="13.23" height="7.22"/><rect class="cls-3" x="906.07" y="460.25" width="13.23" height="7.22"/><rect class="cls-3" x="933.07" y="460.25" width="13.23" height="7.22"/><rect class="cls-3" x="960.07" y="460.25" width="13.23" height="7.22"/><rect class="cls-3" x="987.07" y="460.25" width="13.23" height="7.22"/><rect class="cls-3" x="1014.07" y="460.25" width="13.23" height="7.22"/><rect class="cls-3" x="1041.06" y="460.25" width="13.23" height="7.22"/><rect class="cls-3" x="1068.06" y="460.25" width="13.23" height="7.22"/><rect class="cls-3" x="1095.06" y="460.25" width="13.23" height="7.22"/><rect class="cls-3" x="1122.06" y="460.25" width="13.23" height="7.22"/><rect class="cls-3" x="1149.06" y="460.25" width="13.23" height="7.22"/><rect class="cls-3" x="1176.06" y="460.25" width="13.23" height="7.22"/><rect class="cls-3" x="1203.06" y="460.25" width="13.23" height="7.22"/><rect class="cls-3" x="1230.06" y="460.25" width="13.23" height="7.22"/><rect class="cls-3" x="1257.06" y="460.25" width="13.23" height="7.22"/><rect class="cls-3" x="1284.05" y="460.25" width="13.23" height="7.22"/><rect class="cls-3" x="1311.05" y="460.25" width="13.23" height="7.22"/><rect class="cls-3" x="1338.05" y="460.25" width="13.23" height="7.22"/><rect class="cls-3" x="1365.05" y="460.25" width="13.23" height="7.22"/><rect class="cls-3" x="1392.05" y="460.25" width="13.23" height="7.22"/><rect class="cls-3" x="1419.05" y="460.25" width="13.23" height="7.22"/><rect class="cls-3" x="1446.05" y="460.25" width="13.23" height="7.22"/><rect class="cls-3" x="1473.05" y="460.25" width="13.23" height="7.22"/><rect class="cls-3" x="1500.05" y="460.25" width="13.23" height="7.22"/><rect class="cls-3" x="1527.04" y="460.25" width="13.23" height="7.22"/><rect class="cls-3" x="1554.04" y="460.25" width="13.23" height="7.22"/><rect class="cls-3" x="1581.04" y="460.25" width="13.23" height="7.22"/><rect class="cls-3" x="1608.04" y="460.25" width="13.23" height="7.22"/><rect class="cls-3" x="1635.04" y="460.25" width="13.23" height="7.22"/><rect class="cls-3" x="1662.04" y="460.25" width="13.23" height="7.22"/><rect class="cls-3" x="1689.04" y="460.25" width="13.23" height="7.22"/><rect class="cls-3" x="1716.04" y="460.25" width="13.23" height="7.22"/><rect class="cls-3" x="1743.04" y="460.25" width="13.23" height="7.22"/><rect class="cls-3" x="1770.04" y="460.25" width="13.23" height="7.22"/><rect class="cls-3" x="1797.03" y="460.25" width="13.23" height="7.22"/><rect class="cls-3" x="1824.03" y="460.25" width="13.23" height="7.22"/><rect class="cls-3" x="1851.03" y="460.25" width="13.23" height="7.22"/><rect class="cls-3" x="1878.03" y="460.25" width="13.23" height="7.22"/><rect class="cls-3" x="28.92" y="467.47" width="1877.32" height="7.12"/><rect class="cls-6" x="28.92" y="445.43" width="1877.32" height="7.12"/><rect class="cls-3" x="1914.09" y="460.25" width="13.23" height="7.22"/><path class="cls-7" d="M80.75,159.54v-9.28H73v-6.21h7.74v-9.28h7.83V94H80.75V84.73H71.47V34.19H28.92L25,64.36l3.92,20.37L38.2,94v40.76L27.44,145.72l19.3,23.1-9.28,18.56L28.92,226.7l0,42.19,12.39,10.95-4.64,6.07L33.61,289l8.49,9.54v18.56L25,335.94v27.85l17.1,16.94v31.63l-8.49,9.47,4.64,18.57H80.8V417.19h7.78V376.44H80.8v-9.28H72.19V331.3H80.8V322l.07-.26h8.42V293.92H80l0-.26h.81v-7.75h7.75v-9.28H80.8v-7.74H71.52v.65l-.92-.65h.87V231.18l.72-3.05H80V187.38h9.25V159.54Zm-.74.58-.59-.58H80Zm.72,217.27-1-.95h1Z"/><path class="cls-7" d="M1842.12,159.54v27.84h9.26v40.75h7.85l.71,3.05v37.71h.87l-.92.65v-.65h-9.28v7.74h-7.74v9.28h7.74v7.75h.81l0,.26h-9.28v27.84h8.42l.07.26v9.28h8.62v35.86h-8.62v9.28h-7.77v40.75h7.77V440.4h42.55l4.64-18.57-8.49-9.47V380.73l17.11-16.94V335.94l-17.11-18.82V298.56l8.49-9.54-3.1-3.11-4.64-6.07,12.38-10.95,0-42.19L1894,187.38l-9.28-18.56,19.31-23.1-10.77-10.95V94l9.28-9.28,3.93-20.37-3.93-30.17h-42.55V84.73h-9.28V94h-7.82v40.76h7.82v9.28h7.75v6.21h-7.75v9.28Zm9.28,0h.6l-.6.58Zm-.71,216.9h1l-1,.95Z"/><rect class="cls-8" x="28.92" y="35.52" width="1877.32" height="7.67"/><rect class="cls-2" x="21.08" y="42.55" width="7.85" height="40.75"/><rect class="cls-2" x="21.08" y="226.7" width="7.85" height="40.75"/><rect class="cls-2" x="38.18" y="92.59" width="7.85" height="40.75"/><rect class="cls-2" x="38.18" y="375.01" width="7.85" height="40.75"/><rect class="cls-2" x="29.64" y="185.95" width="7.85" height="40.75"/><rect class="cls-2" x="28.92" y="83.3" width="9.28" height="9.28"/><rect class="cls-2" x="28.92" y="133.34" width="9.28" height="9.28"/><rect class="cls-2" x="21.18" y="141.08" width="9.28" height="9.28"/><rect class="cls-2" x="28.92" y="148.83" width="9.28" height="9.28"/><rect class="cls-2" x="28.97" y="282.95" width="9.28" height="9.28" transform="translate(67.23 575.18) rotate(180)"/><rect class="cls-2" x="28.97" y="415.76" width="9.28" height="9.28" transform="translate(67.23 840.81) rotate(180)"/><rect class="cls-2" x="28.97" y="422.73" width="9.28" height="9.28" transform="translate(67.23 854.73) rotate(180)"/><rect class="cls-2" x="28.97" y="429.69" width="9.28" height="9.28" transform="translate(67.23 868.66) rotate(180)"/><rect class="cls-2" x="36.72" y="275.2" width="9.28" height="9.28" transform="translate(82.72 559.69) rotate(180)"/><rect class="cls-2" x="28.97" y="267.46" width="9.28" height="9.28" transform="translate(67.23 544.2) rotate(180)"/><rect class="cls-2" x="37.46" y="158.11" width="9.28" height="9.28"/><rect class="cls-2" x="37.46" y="167.39" width="9.28" height="9.28"/><rect class="cls-2" x="37.46" y="176.67" width="9.28" height="9.28"/><rect class="cls-2" x="37.46" y="292.49" width="9.28" height="9.28"/><rect class="cls-2" x="37.46" y="301.77" width="9.28" height="9.28"/><rect class="cls-2" x="37.46" y="311.05" width="9.28" height="9.28"/><rect class="cls-2" x="28.97" y="320.59" width="9.28" height="9.28"/><rect class="cls-2" x="20.36" y="329.88" width="9.28" height="9.28"/><rect class="cls-2" x="20.36" y="339.16" width="9.28" height="9.28"/><rect class="cls-2" x="20.36" y="348.44" width="9.28" height="9.28"/><rect class="cls-2" x="20.36" y="357.72" width="9.28" height="9.28"/><rect class="cls-2" x="28.97" y="365.73" width="9.28" height="9.28"/><rect class="cls-2" x="1897.85" y="42.55" width="7.85" height="40.75" transform="translate(3803.55 125.86) rotate(-180)"/><rect class="cls-2" x="1897.85" y="226.7" width="7.85" height="40.75" transform="translate(3803.55 494.16) rotate(-180)"/><rect class="cls-2" x="1880.75" y="92.59" width="7.85" height="40.75" transform="translate(3769.35 225.92) rotate(-180)"/><rect class="cls-2" x="1880.75" y="375.01" width="7.85" height="40.75" transform="translate(3769.35 790.78) rotate(-180)"/><rect class="cls-2" x="1889.29" y="185.95" width="7.85" height="40.75" transform="translate(3786.43 412.65) rotate(-180)"/><rect class="cls-2" x="1888.57" y="83.3" width="9.28" height="9.28" transform="translate(3786.43 175.89) rotate(-180)"/><rect class="cls-2" x="1888.57" y="133.34" width="9.28" height="9.28" transform="translate(3786.43 275.96) rotate(-180)"/><rect class="cls-2" x="1896.32" y="141.08" width="9.28" height="9.28" transform="translate(3801.92 291.45) rotate(-180)"/><rect class="cls-2" x="1888.57" y="148.83" width="9.28" height="9.28" transform="translate(3786.43 306.94) rotate(-180)"/><rect class="cls-2" x="1888.52" y="282.95" width="9.28" height="9.28"/><rect class="cls-2" x="1888.52" y="415.76" width="9.28" height="9.28"/><rect class="cls-2" x="1888.52" y="422.73" width="9.28" height="9.28"/><rect class="cls-2" x="1888.52" y="429.69" width="9.28" height="9.28"/><rect class="cls-2" x="1880.78" y="275.2" width="9.28" height="9.28"/><rect class="cls-2" x="1888.52" y="267.46" width="9.28" height="9.28"/><rect class="cls-2" x="1880.03" y="158.11" width="9.28" height="9.28" transform="translate(3769.35 325.5) rotate(-180)"/><rect class="cls-2" x="1880.03" y="167.39" width="9.28" height="9.28" transform="translate(3769.35 344.06) rotate(-180)"/><rect class="cls-2" x="1880.03" y="176.67" width="9.28" height="9.28" transform="translate(3769.35 362.62) rotate(-180)"/><rect class="cls-2" x="1880.03" y="292.49" width="9.28" height="9.28" transform="translate(3769.35 594.26) rotate(-180)"/><rect class="cls-2" x="1880.03" y="301.77" width="9.28" height="9.28" transform="translate(3769.35 612.82) rotate(-180)"/><rect class="cls-2" x="1880.03" y="311.05" width="9.28" height="9.28" transform="translate(3769.35 631.38) rotate(-180)"/><rect class="cls-2" x="1888.52" y="320.59" width="9.28" height="9.28" transform="translate(3786.33 650.47) rotate(-180)"/><rect class="cls-2" x="1897.14" y="329.88" width="9.28" height="9.28" transform="translate(3803.55 669.03) rotate(-180)"/><rect class="cls-2" x="1897.14" y="339.16" width="9.28" height="9.28" transform="translate(3803.55 687.59) rotate(-180)"/><rect class="cls-2" x="1897.14" y="348.44" width="9.28" height="9.28" transform="translate(3803.55 706.15) rotate(-180)"/><rect class="cls-2" x="1897.14" y="357.72" width="9.28" height="9.28" transform="translate(3803.55 724.71) rotate(-180)"/><rect class="cls-2" x="1888.52" y="365.73" width="9.28" height="9.28" transform="translate(3786.33 740.74) rotate(-180)"/><path class="cls-4" d="M1015.39,360h13.55s0-5,0-5h-13.55s0,5,0,5Z"/><path class="cls-4" d="M1033.46,348.68h31.62s0-5,0-5h-31.62s0,5,0,5Z"/><path class="cls-4" d="M1659.15,100.2h20.33s0-5,0-5h-20.33s0,5,0,5Z"/><path class="cls-4" d="M1837.6,235.25h-36.14s0,5,0,5h36.14s0-5,0-5Z"/><path class="cls-4" d="M1778.87,397.89h-38.4s0,5,0,5h38.4s0-5,0-5Z"/><path class="cls-4" d="M577.18,70.84h33.88s0-5,0-5H577.18s0,5,0,5Z"/><path class="cls-4" d="M123.15,416.44H148s0-5,0-5H123.15s0,5,0,5Z"/><path class="cls-4" d="M633.65,269.62H647.2s0-5,0-5H633.65s0,5,0,5Z"/><path class="cls-4" d="M565.88,233H547.81s0,5,0,5h18.07s0-5,0-5Z"/><path class="cls-4" d="M629.13,248.8h-9s0,5,0,5h9s0-5,0-5Z"/><path class="cls-4" d="M857.27,409.18h-6.78s0,5,0,5h6.78s0-5,0-5Z"/><path class="cls-4" d="M884.38,402.89h6.77s0-5,0-5h-6.77s0,5,0,5Z"/><path class="cls-4" d="M974.73,154.42h33.88s0-5,0-5H974.73s0,5,0,5Z"/><path class="cls-4" d="M213.51,271.39h-11.3s0,5,0,5h11.3s0-5,0-5Z"/><path class="cls-4" d="M220.28,262.84h22.59s0-5,0-5H220.28s0,5,0,5Z"/><path class="cls-4" d="M1632.05,140.38h-4.52s0,5,0,5h4.52s0-5,0-5Z"/><g class="cls-9"><path class="cls-10" d="M1695.29,409.18h-9s0,5,0,5h9s0-5,0-5Z"/></g><g class="cls-9"><path class="cls-10" d="M1853.41,102h-24.85s0,5,0,5h24.85s0-5,0-5Z"/></g><g class="cls-9"><path class="cls-10" d="M66.68,136.35H87s0-5,0-5H66.68s0,5,0,5Z"/></g><g class="cls-9"><path class="cls-10" d="M118.64,77.13H100.57s0,5,0,5h18.07s0-5,0-5Z"/></g><g class="cls-9"><path class="cls-10" d="M563.62,425.47H584s0-5,0-5H563.62s0,5,0,5Z"/></g><g class="cls-9"><path class="cls-10" d="M1713.36,195.08s0-5,0-5,0,5,0,5Z"/></g><g class="cls-9"><path class="cls-10" d="M1756.28,280.43h-38.4s0,5,0,5h38.4s0-5,0-5Z"/></g><g class="cls-9"><path class="cls-10" d="M1607.2,400.15h-20.33s0,5,0,5h20.33s0-5,0-5Z"/></g></g></g></svg>