<svg xmlns="http://www.w3.org/2000/svg" viewBox="0 0 1259.153 481.521"><defs><style>.cls-1{fill:#f6d865;}.cls-2{fill:#dbbc65;}.cls-3{fill:#c79f4d;}.cls-3,.cls-5{opacity:0.72;}.cls-4{fill:#fdfd8e;}.cls-5,.cls-6{fill:#b5843c;}.cls-6{opacity:0.43;}.cls-10,.cls-7,.cls-8{fill:#8f501c;}.cls-7{opacity:0.13;}.cls-8,.cls-9{opacity:0.51;}</style></defs><g id="Layer_2" data-name="Layer 2"><g id="Layer_1-2" data-name="Layer 1"><polygon class="cls-1" points="1208.968 315.692 1208.968 297.132 1217.458 287.589 1214.353 284.484 1205.073 284.484 1222.098 267.458 1221.431 226.704 1213.608 185.951 1204.328 167.39 1222.148 148.83 1212.868 133.339 1212.868 92.585 1222.148 83.305 1226.071 62.928 1222.148 35.623 963.544 41.906 28.924 35.623 25.001 62.928 28.924 83.305 38.204 92.585 38.204 133.339 28.924 148.83 46.744 167.39 37.464 185.951 29.641 226.704 28.974 267.458 45.999 284.484 36.719 284.484 33.614 287.589 42.104 297.132 42.104 315.692 33.614 325.235 25.001 334.515 25.001 362.356 33.614 370.371 42.104 379.304 42.104 410.928 33.614 420.405 38.254 438.97 867.613 438.97 1059.475 438.97 1212.818 438.97 1217.458 420.405 1208.968 410.928 1208.968 379.304 1217.458 370.371 1226.071 362.356 1226.071 334.515 1217.458 325.235 1208.968 315.692"/><rect class="cls-1" x="7.845" y="14.052" width="45.569" height="14.446"/><rect class="cls-1" x="1205.739" y="14.052" width="45.569" height="14.446"/><rect class="cls-1" x="28.661" y="7.026" width="1201.568" height="28.499"/><rect class="cls-2" y="14.052" width="7.845" height="14.446"/><rect class="cls-2" x="21.079" y="14.052" width="7.845" height="14.446"/><rect class="cls-2" x="7.845" y="7.026" width="21.079" height="7.026"/><rect class="cls-2" x="28.924" width="1201.305" height="7.026"/><rect class="cls-2" x="7.845" y="28.499" width="21.079" height="7.026"/><rect class="cls-2" x="1251.308" y="14.052" width="7.845" height="14.446" transform="translate(2510.461 42.551) rotate(180)"/><rect class="cls-2" x="1230.229" y="14.052" width="7.845" height="14.446" transform="translate(2468.304 42.551) rotate(180)"/><rect class="cls-2" x="1230.229" y="28.499" width="21.079" height="7.026" transform="translate(2481.537 64.024) rotate(180)"/><rect class="cls-2" x="1230.229" y="7.026" width="21.079" height="7.026" transform="translate(2481.537 21.079) rotate(180)"/><rect class="cls-3" x="7.845" y="21.276" width="13.233" height="7.223"/><rect class="cls-3" x="42.104" y="21.276" width="13.233" height="7.223"/><rect class="cls-3" x="69.103" y="21.276" width="13.233" height="7.223"/><rect class="cls-3" x="96.102" y="21.276" width="13.233" height="7.223"/><rect class="cls-3" x="123.101" y="21.276" width="13.233" height="7.223"/><rect class="cls-3" x="150.1" y="21.276" width="13.233" height="7.223"/><rect class="cls-3" x="177.099" y="21.276" width="13.233" height="7.223"/><rect class="cls-3" x="204.098" y="21.276" width="13.233" height="7.223"/><rect class="cls-3" x="231.096" y="21.276" width="13.233" height="7.223"/><rect class="cls-3" x="258.095" y="21.276" width="13.233" height="7.223"/><rect class="cls-3" x="285.094" y="21.276" width="13.233" height="7.223"/><rect class="cls-3" x="312.093" y="21.276" width="13.233" height="7.223"/><rect class="cls-3" x="339.092" y="21.276" width="13.233" height="7.223"/><rect class="cls-3" x="366.091" y="21.276" width="13.233" height="7.223"/><rect class="cls-3" x="393.09" y="21.276" width="13.233" height="7.223"/><rect class="cls-3" x="420.089" y="21.276" width="13.233" height="7.223"/><rect class="cls-3" x="447.088" y="21.276" width="13.233" height="7.223"/><rect class="cls-3" x="474.087" y="21.276" width="13.233" height="7.223"/><rect class="cls-3" x="501.086" y="21.276" width="13.233" height="7.223"/><rect class="cls-3" x="528.085" y="21.276" width="13.233" height="7.223"/><rect class="cls-3" x="555.084" y="21.276" width="13.233" height="7.223"/><rect class="cls-3" x="582.082" y="21.276" width="13.233" height="7.223"/><rect class="cls-3" x="609.081" y="21.276" width="13.233" height="7.223"/><rect class="cls-3" x="636.08" y="21.276" width="13.233" height="7.223"/><rect class="cls-3" x="663.079" y="21.276" width="13.233" height="7.223"/><rect class="cls-3" x="690.078" y="21.276" width="13.233" height="7.223"/><rect class="cls-3" x="717.077" y="21.276" width="13.233" height="7.223"/><rect class="cls-3" x="744.076" y="21.276" width="13.233" height="7.223"/><rect class="cls-3" x="771.075" y="21.276" width="13.233" height="7.223"/><rect class="cls-3" x="798.074" y="21.276" width="13.233" height="7.223"/><rect class="cls-3" x="825.073" y="21.276" width="13.233" height="7.223"/><rect class="cls-3" x="852.072" y="21.276" width="13.233" height="7.223"/><rect class="cls-3" x="879.071" y="21.276" width="13.233" height="7.223"/><rect class="cls-3" x="906.07" y="21.276" width="13.233" height="7.223"/><rect class="cls-3" x="933.068" y="21.276" width="13.233" height="7.223"/><rect class="cls-3" x="960.067" y="21.276" width="13.233" height="7.223"/><rect class="cls-3" x="987.066" y="21.276" width="13.233" height="7.223"/><rect class="cls-3" x="1014.065" y="21.276" width="13.233" height="7.223"/><rect class="cls-3" x="1041.064" y="21.276" width="13.233" height="7.223"/><rect class="cls-3" x="1068.063" y="21.276" width="13.233" height="7.223"/><rect class="cls-3" x="419.046" y="21.276" width="13.233" height="7.223"/><rect class="cls-3" x="446.045" y="21.276" width="13.233" height="7.223"/><rect class="cls-3" x="473.044" y="21.276" width="13.233" height="7.223"/><rect class="cls-3" x="500.043" y="21.276" width="13.233" height="7.223"/><rect class="cls-3" x="527.042" y="21.276" width="13.233" height="7.223"/><rect class="cls-3" x="554.041" y="21.276" width="13.233" height="7.223"/><rect class="cls-3" x="581.04" y="21.276" width="13.233" height="7.223"/><rect class="cls-3" x="608.039" y="21.276" width="13.233" height="7.223"/><rect class="cls-3" x="635.038" y="21.276" width="13.233" height="7.223"/><rect class="cls-3" x="662.037" y="21.276" width="13.233" height="7.223"/><rect class="cls-3" x="689.036" y="21.276" width="13.233" height="7.223"/><rect class="cls-3" x="716.034" y="21.276" width="13.233" height="7.223"/><rect class="cls-3" x="743.033" y="21.276" width="13.233" height="7.223"/><rect class="cls-3" x="770.032" y="21.276" width="13.233" height="7.223"/><rect class="cls-3" x="797.031" y="21.276" width="13.233" height="7.223"/><rect class="cls-3" x="824.03" y="21.276" width="13.233" height="7.223"/><rect class="cls-3" x="851.029" y="21.276" width="13.233" height="7.223"/><rect class="cls-3" x="878.028" y="21.276" width="13.233" height="7.223"/><rect class="cls-3" x="905.027" y="21.276" width="13.233" height="7.223"/><rect class="cls-3" x="932.026" y="21.276" width="13.233" height="7.223"/><rect class="cls-3" x="959.025" y="21.276" width="13.233" height="7.223"/><rect class="cls-3" x="986.024" y="21.276" width="13.233" height="7.223"/><rect class="cls-3" x="1013.023" y="21.276" width="13.233" height="7.223"/><rect class="cls-3" x="1040.022" y="21.276" width="13.233" height="7.223"/><rect class="cls-3" x="1067.02" y="21.276" width="13.233" height="7.223"/><rect class="cls-3" x="1094.019" y="21.276" width="13.233" height="7.223"/><rect class="cls-3" x="1121.018" y="21.276" width="13.233" height="7.223"/><rect class="cls-3" x="1148.017" y="21.276" width="13.233" height="7.223"/><rect class="cls-3" x="1175.016" y="21.276" width="13.233" height="7.223"/><rect class="cls-3" x="1202.015" y="21.276" width="13.233" height="7.223"/><rect class="cls-3" x="28.924" y="28.499" width="1201.305" height="7.125"/><rect class="cls-4" x="28.924" y="6.464" width="1201.305" height="7.125"/><rect class="cls-3" x="1238.075" y="21.276" width="13.233" height="7.223"/><rect class="cls-1" x="7.845" y="453.022" width="45.569" height="14.446"/><rect class="cls-1" x="1205.739" y="453.022" width="45.569" height="14.446"/><rect class="cls-1" x="28.661" y="445.996" width="1201.568" height="28.499"/><rect class="cls-2" y="453.022" width="7.845" height="14.446"/><rect class="cls-2" x="21.079" y="453.022" width="7.845" height="14.446"/><rect class="cls-2" x="7.845" y="445.996" width="21.079" height="7.026"/><rect class="cls-5" x="28.924" y="438.97" width="1201.305" height="7.026"/><rect class="cls-2" x="28.924" y="474.495" width="1201.305" height="7.026"/><rect class="cls-2" x="7.845" y="467.469" width="21.079" height="7.026"/><rect class="cls-2" x="1251.308" y="453.022" width="7.845" height="14.446" transform="translate(2510.461 920.491) rotate(180)"/><rect class="cls-2" x="1230.229" y="453.022" width="7.845" height="14.446" transform="translate(2468.304 920.491) rotate(180)"/><rect class="cls-2" x="1230.229" y="467.469" width="21.079" height="7.026" transform="translate(2481.537 941.963) rotate(180)"/><rect class="cls-2" x="1230.229" y="445.996" width="21.079" height="7.026" transform="translate(2481.537 899.018) rotate(180)"/><rect class="cls-3" x="7.845" y="460.245" width="13.233" height="7.223"/><rect class="cls-3" x="42.104" y="460.245" width="13.233" height="7.223"/><rect class="cls-3" x="69.103" y="460.245" width="13.233" height="7.223"/><rect class="cls-3" x="96.102" y="460.245" width="13.233" height="7.223"/><rect class="cls-3" x="123.101" y="460.245" width="13.233" height="7.223"/><rect class="cls-3" x="150.1" y="460.245" width="13.233" height="7.223"/><rect class="cls-3" x="177.099" y="460.245" width="13.233" height="7.223"/><rect class="cls-3" x="204.098" y="460.245" width="13.233" height="7.223"/><rect class="cls-3" x="231.096" y="460.245" width="13.233" height="7.223"/><rect class="cls-3" x="258.095" y="460.245" width="13.233" height="7.223"/><rect class="cls-3" x="285.094" y="460.245" width="13.233" height="7.223"/><rect class="cls-3" x="312.093" y="460.245" width="13.233" height="7.223"/><rect class="cls-3" x="339.092" y="460.245" width="13.233" height="7.223"/><rect class="cls-3" x="366.091" y="460.245" width="13.233" height="7.223"/><rect class="cls-3" x="393.09" y="460.245" width="13.233" height="7.223"/><rect class="cls-3" x="420.089" y="460.245" width="13.233" height="7.223"/><rect class="cls-3" x="447.088" y="460.245" width="13.233" height="7.223"/><rect class="cls-3" x="474.087" y="460.245" width="13.233" height="7.223"/><rect class="cls-3" x="501.086" y="460.245" width="13.233" height="7.223"/><rect class="cls-3" x="528.085" y="460.245" width="13.233" height="7.223"/><rect class="cls-3" x="555.084" y="460.245" width="13.233" height="7.223"/><rect class="cls-3" x="582.082" y="460.245" width="13.233" height="7.223"/><rect class="cls-3" x="609.081" y="460.245" width="13.233" height="7.223"/><rect class="cls-3" x="636.08" y="460.245" width="13.233" height="7.223"/><rect class="cls-3" x="663.079" y="460.245" width="13.233" height="7.223"/><rect class="cls-3" x="690.078" y="460.245" width="13.233" height="7.223"/><rect class="cls-3" x="717.077" y="460.245" width="13.233" height="7.223"/><rect class="cls-3" x="744.076" y="460.245" width="13.233" height="7.223"/><rect class="cls-3" x="771.075" y="460.245" width="13.233" height="7.223"/><rect class="cls-3" x="798.074" y="460.245" width="13.233" height="7.223"/><rect class="cls-3" x="825.073" y="460.245" width="13.233" height="7.223"/><rect class="cls-3" x="852.072" y="460.245" width="13.233" height="7.223"/><rect class="cls-3" x="879.071" y="460.245" width="13.233" height="7.223"/><rect class="cls-3" x="906.07" y="460.245" width="13.233" height="7.223"/><rect class="cls-3" x="933.068" y="460.245" width="13.233" height="7.223"/><rect class="cls-3" x="960.067" y="460.245" width="13.233" height="7.223"/><rect class="cls-3" x="987.066" y="460.245" width="13.233" height="7.223"/><rect class="cls-3" x="1014.065" y="460.245" width="13.233" height="7.223"/><rect class="cls-3" x="1041.064" y="460.245" width="13.233" height="7.223"/><rect class="cls-3" x="1068.063" y="460.245" width="13.233" height="7.223"/><rect class="cls-3" x="419.046" y="460.245" width="13.233" height="7.223"/><rect class="cls-3" x="446.045" y="460.245" width="13.233" height="7.223"/><rect class="cls-3" x="473.044" y="460.245" width="13.233" height="7.223"/><rect class="cls-3" x="500.043" y="460.245" width="13.233" height="7.223"/><rect class="cls-3" x="527.042" y="460.245" width="13.233" height="7.223"/><rect class="cls-3" x="554.041" y="460.245" width="13.233" height="7.223"/><rect class="cls-3" x="581.04" y="460.245" width="13.233" height="7.223"/><rect class="cls-3" x="608.039" y="460.245" width="13.233" height="7.223"/><rect class="cls-3" x="635.038" y="460.245" width="13.233" height="7.223"/><rect class="cls-3" x="662.037" y="460.245" width="13.233" height="7.223"/><rect class="cls-3" x="689.036" y="460.245" width="13.233" height="7.223"/><rect class="cls-3" x="716.034" y="460.245" width="13.233" height="7.223"/><rect class="cls-3" x="743.033" y="460.245" width="13.233" height="7.223"/><rect class="cls-3" x="770.032" y="460.245" width="13.233" height="7.223"/><rect class="cls-3" x="797.031" y="460.245" width="13.233" height="7.223"/><rect class="cls-3" x="824.03" y="460.245" width="13.233" height="7.223"/><rect class="cls-3" x="851.029" y="460.245" width="13.233" height="7.223"/><rect class="cls-3" x="878.028" y="460.245" width="13.233" height="7.223"/><rect class="cls-3" x="905.027" y="460.245" width="13.233" height="7.223"/><rect class="cls-3" x="932.026" y="460.245" width="13.233" height="7.223"/><rect class="cls-3" x="959.025" y="460.245" width="13.233" height="7.223"/><rect class="cls-3" x="986.024" y="460.245" width="13.233" height="7.223"/><rect class="cls-3" x="1013.023" y="460.245" width="13.233" height="7.223"/><rect class="cls-3" x="1040.022" y="460.245" width="13.233" height="7.223"/><rect class="cls-3" x="1067.02" y="460.245" width="13.233" height="7.223"/><rect class="cls-3" x="1094.019" y="460.245" width="13.233" height="7.223"/><rect class="cls-3" x="1121.018" y="460.245" width="13.233" height="7.223"/><rect class="cls-3" x="1148.017" y="460.245" width="13.233" height="7.223"/><rect class="cls-3" x="1175.016" y="460.245" width="13.233" height="7.223"/><rect class="cls-3" x="1202.015" y="460.245" width="13.233" height="7.223"/><rect class="cls-3" x="28.924" y="467.469" width="1201.305" height="7.125"/><rect class="cls-6" x="28.924" y="445.434" width="1201.305" height="7.125"/><rect class="cls-3" x="1238.075" y="460.245" width="13.233" height="7.223"/><path class="cls-7" d="M80.753,159.54v-9.281H73.008v-6.21h7.745v-9.28h7.823V94.015H80.753v-9.28h-9.28V34.194H28.924L25,64.358l3.923,20.377,9.28,9.28v40.754L27.437,145.724l19.307,23.1-9.28,18.56L28.924,226.7l.05,42.184,12.385,10.956-4.64,6.069-3.105,3.106,8.49,9.542v18.561L25,335.945v27.84l17.1,16.949v31.624l-8.49,9.477,4.64,18.565H80.8V417.194h7.773V376.441H80.8V367.16H72.191V331.305H80.8v-9.28l.072-.263h8.418V293.921h-9.28l-.02-.262h.81v-7.745h7.746v-9.281H80.8v-7.745h-9.28v.65l-.92-.65h.87V231.177l.718-3.043h7.845V187.38h9.257V159.54Zm-.74.578-.593-.578h.593Zm.718,217.274-.977-.951h.977Z"/><path class="cls-7" d="M1166.109,159.54v27.84h9.257v40.754h7.845l.718,3.043v37.711h.87l-.92.65v-.65h-9.28v7.745h-7.746v9.281h7.746v7.745h.81l-.02.262h-9.28v27.841h8.418l.072.263v9.28h8.612V367.16H1174.6v9.281h-7.773v40.753h7.773V440.4h42.549l4.64-18.565-8.49-9.477V380.734l17.1-16.949v-27.84l-17.1-18.823V298.561l8.49-9.542-3.105-3.106-4.64-6.069,12.385-10.956.05-42.184-8.54-39.324-9.28-18.56,19.306-23.1L1217.2,134.769V94.015l9.28-9.28,3.923-20.377-3.923-30.164h-42.549V84.735h-9.281v9.28h-7.822v40.754h7.822v9.28h7.746v6.21h-7.746v9.281Zm9.28,0h.593l-.593.578Zm-.718,216.9h.977l-.977.951Z"/><rect class="cls-8" x="28.924" y="35.525" width="1201.305" height="7.667"/><rect class="cls-2" x="21.079" y="42.551" width="7.845" height="40.754"/><rect class="cls-2" x="21.079" y="226.704" width="7.845" height="40.754"/><rect class="cls-2" x="38.181" y="92.585" width="7.845" height="40.754"/><rect class="cls-2" x="38.181" y="375.011" width="7.845" height="40.754"/><rect class="cls-2" x="29.641" y="185.951" width="7.845" height="40.754"/><rect class="cls-2" x="28.924" y="83.305" width="9.28" height="9.28"/><rect class="cls-2" x="28.924" y="133.339" width="9.28" height="9.28"/><rect class="cls-2" x="21.179" y="141.084" width="9.28" height="9.28"/><rect class="cls-2" x="28.924" y="148.83" width="9.28" height="9.28"/><rect class="cls-2" x="28.974" y="282.949" width="9.28" height="9.28" transform="translate(67.228 575.178) rotate(180)"/><rect class="cls-2" x="28.974" y="415.765" width="9.28" height="9.28" transform="translate(67.228 840.81) rotate(180)"/><rect class="cls-2" x="28.974" y="422.727" width="9.28" height="9.28" transform="translate(67.228 854.735) rotate(180)"/><rect class="cls-2" x="28.974" y="429.69" width="9.28" height="9.28" transform="translate(67.228 868.659) rotate(180)"/><rect class="cls-2" x="36.719" y="275.204" width="9.28" height="9.28" transform="translate(82.719 559.687) rotate(180)"/><rect class="cls-2" x="28.974" y="267.458" width="9.28" height="9.28" transform="translate(67.228 544.197) rotate(180)"/><rect class="cls-2" x="37.464" y="158.11" width="9.28" height="9.28"/><rect class="cls-2" x="37.464" y="167.39" width="9.28" height="9.28"/><rect class="cls-2" x="37.464" y="176.67" width="9.28" height="9.28"/><rect class="cls-2" x="37.464" y="292.492" width="9.28" height="9.28"/><rect class="cls-2" x="37.464" y="301.772" width="9.28" height="9.28"/><rect class="cls-2" x="37.464" y="311.052" width="9.28" height="9.28"/><rect class="cls-2" x="28.974" y="320.595" width="9.28" height="9.28"/><rect class="cls-2" x="20.361" y="329.875" width="9.28" height="9.28"/><rect class="cls-2" x="20.361" y="339.155" width="9.28" height="9.28"/><rect class="cls-2" x="20.361" y="348.436" width="9.28" height="9.28"/><rect class="cls-2" x="20.361" y="357.716" width="9.28" height="9.28"/><rect class="cls-2" x="28.974" y="365.731" width="9.28" height="9.28"/><rect class="cls-2" x="1221.838" y="42.551" width="7.845" height="40.754" transform="translate(2451.521 125.856) rotate(-180)"/><rect class="cls-2" x="1221.838" y="226.704" width="7.845" height="40.754" transform="translate(2451.521 494.163) rotate(-180)"/><rect class="cls-2" x="1204.735" y="92.585" width="7.845" height="40.754" transform="translate(2417.315 225.924) rotate(-180)"/><rect class="cls-2" x="1204.735" y="375.011" width="7.845" height="40.754" transform="translate(2417.315 790.776) rotate(-180)"/><rect class="cls-2" x="1213.275" y="185.951" width="7.845" height="40.754" transform="translate(2434.395 412.655) rotate(-180)"/><rect class="cls-2" x="1212.558" y="83.305" width="9.28" height="9.28" transform="translate(2434.395 175.89) rotate(-180)"/><rect class="cls-2" x="1212.558" y="133.339" width="9.28" height="9.28" transform="translate(2434.395 275.958) rotate(-180)"/><rect class="cls-2" x="1220.303" y="141.084" width="9.28" height="9.28" transform="translate(2449.886 291.449) rotate(-180)"/><rect class="cls-2" x="1212.558" y="148.83" width="9.28" height="9.28" transform="translate(2434.395 306.939) rotate(-180)"/><rect class="cls-2" x="1212.508" y="282.949" width="9.28" height="9.28"/><rect class="cls-2" x="1212.508" y="415.765" width="9.28" height="9.28"/><rect class="cls-2" x="1212.508" y="422.727" width="9.28" height="9.28"/><rect class="cls-2" x="1212.508" y="429.69" width="9.28" height="9.28"/><rect class="cls-2" x="1204.762" y="275.204" width="9.28" height="9.28"/><rect class="cls-2" x="1212.508" y="267.458" width="9.28" height="9.28"/><rect class="cls-2" x="1204.018" y="158.11" width="9.28" height="9.28" transform="translate(2417.315 325.5) rotate(-180)"/><rect class="cls-2" x="1204.018" y="167.39" width="9.28" height="9.28" transform="translate(2417.315 344.06) rotate(-180)"/><rect class="cls-2" x="1204.018" y="176.67" width="9.28" height="9.28" transform="translate(2417.315 362.621) rotate(-180)"/><rect class="cls-2" x="1204.018" y="292.492" width="9.28" height="9.28" transform="translate(2417.315 594.263) rotate(-180)"/><rect class="cls-2" x="1204.018" y="301.772" width="9.28" height="9.28" transform="translate(2417.315 612.824) rotate(-180)"/><rect class="cls-2" x="1204.018" y="311.052" width="9.28" height="9.28" transform="translate(2417.315 631.384) rotate(-180)"/><rect class="cls-2" x="1212.508" y="320.595" width="9.28" height="9.28" transform="translate(2434.295 650.47) rotate(-180)"/><rect class="cls-2" x="1221.12" y="329.875" width="9.28" height="9.28" transform="translate(2451.521 669.03) rotate(-180)"/><rect class="cls-2" x="1221.12" y="339.155" width="9.28" height="9.28" transform="translate(2451.521 687.591) rotate(-180)"/><rect class="cls-2" x="1221.12" y="348.436" width="9.28" height="9.28" transform="translate(2451.521 706.151) rotate(-180)"/><rect class="cls-2" x="1221.12" y="357.716" width="9.28" height="9.28" transform="translate(2451.521 724.712) rotate(-180)"/><rect class="cls-2" x="1212.508" y="365.731" width="9.28" height="9.28" transform="translate(2434.295 740.742) rotate(-180)"/><path class="cls-4" d="M1015.388,359.969h13.553c.037,0,.038-5,0-5h-13.553c-.036,0-.038,5,0,5Z"/><path class="cls-4" d="M1033.459,348.675h31.623c.037,0,.038-5,0-5h-31.623c-.037,0-.038,5,0,5Z"/><path class="cls-4" d="M983.136,100.205h20.329c.037,0,.039-5,0-5H983.136c-.037,0-.038,5,0,5Z"/><path class="cls-4" d="M1161.583,235.252h-36.141c-.037,0-.038,5,0,5h36.141c.037,0,.038-5,0-5Z"/><path class="cls-4" d="M1102.853,397.887h-38.4c-.037,0-.039,5,0,5h38.4c.037,0,.039-5,0-5Z"/><path class="cls-4" d="M577.177,70.84H611.06c.036,0,.038-5,0-5H577.177c-.036,0-.038,5,0,5Z"/><path class="cls-4" d="M123.155,416.44H148c.037,0,.038-5,0-5H123.155c-.037,0-.038,5,0,5Z"/><path class="cls-4" d="M633.648,269.616H647.2c.037,0,.038-5,0-5H633.648c-.037,0-.038,5,0,5Z"/><path class="cls-4" d="M565.883,232.993h-18.07c-.037,0-.038,5,0,5h18.07c.037,0,.038-5,0-5Z"/><path class="cls-4" d="M629.13,248.805H620.1c-.037,0-.038,5,0,5h9.035c.037,0,.038-5,0-5Z"/><path class="cls-4" d="M857.271,409.181H850.5c-.037,0-.039,5,0,5h6.776c.037,0,.038-5,0-5Z"/><path class="cls-4" d="M884.377,402.887h6.776c.037,0,.038-5,0-5h-6.776c-.037,0-.038,5,0,5Z"/><path class="cls-4" d="M974.73,154.417h33.882c.037,0,.038-5,0-5H974.73c-.037,0-.039,5,0,5Z"/><path class="cls-4" d="M213.508,271.393h-11.3c-.036,0-.038,5,0,5h11.3c.036,0,.038-5,0-5Z"/><path class="cls-4" d="M220.284,262.84h22.588c.037,0,.038-5,0-5H220.284c-.037,0-.038,5,0,5Z"/><path class="cls-4" d="M956.03,140.381h-4.517c-.037,0-.038,5,0,5h4.517c.037,0,.038-5,0-5Z"/><g class="cls-9"><path class="cls-10" d="M1019.277,409.181h-9.035c-.037,0-.038,5,0,5h9.035c.037,0,.038-5,0-5Z"/></g><g class="cls-9"><path class="cls-10" d="M1177.4,101.981h-24.847c-.037,0-.039,5,0,5H1177.4c.036,0,.038-5,0-5Z"/></g><g class="cls-9"><path class="cls-10" d="M66.684,136.346h20.33c.036,0,.038-5,0-5H66.684c-.036,0-.038,5,0,5Z"/></g><g class="cls-9"><path class="cls-10" d="M118.637,77.134h-18.07c-.037,0-.038,5,0,5h18.07c.037,0,.038-5,0-5Z"/></g><g class="cls-9"><path class="cls-10" d="M563.625,425.475h20.329c.037,0,.038-5,0-5H563.625c-.037,0-.039,5,0,5Z"/></g><g class="cls-9"><path class="cls-10" d="M1037.348,195.075c.036,0,.038-5,0-5s-.038,5,0,5Z"/></g><g class="cls-9"><path class="cls-10" d="M1080.265,280.428h-38.4c-.036,0-.038,5,0,5h38.4c.037,0,.038-5,0-5Z"/></g><g class="cls-9"><path class="cls-10" d="M931.183,400.146H910.854c-.037,0-.038,5,0,5h20.329c.037,0,.038-5,0-5Z"/></g></g></g></svg>