<svg xmlns="http://www.w3.org/2000/svg" viewBox="0 0 302.94 111.81"><defs><style>.cls-1{fill:#f6d865;}.cls-2{fill:#2a2a3a;}</style></defs><g id="Layer_2" data-name="Layer 2"><g id="Layer_1-2" data-name="Layer 1"><rect class="cls-1" width="302.94" height="111.81" rx="12"/><path class="cls-2" d="M105,37.25V71.34H97.92l-9.5-25.91V71.34H83.55V37.25h7.07l9.49,25.91V37.25Z"/><path class="cls-2" d="M134.21,55.76V60H117.65v2.49a3.9,3.9,0,0,0,3.89,3.89h3.9a3.91,3.91,0,0,0,3.9-3.89V62h4.87v.49a8.8,8.8,0,0,1-8.77,8.81h-3.9a8.83,8.83,0,0,1-8.76-8.81V55.27a8.76,8.76,0,0,1,8.76-8.77h3.9a8.74,8.74,0,0,1,8.77,8.28Zm-4.87-.49a3.85,3.85,0,0,0-3.9-3.9h-3.9a3.88,3.88,0,0,0-3.89,3.9v.88h11.69Z"/><path class="cls-2" d="M155.59,58.92l7.84,12.42h-5.75l-5-7.89-5,7.89H142l7.84-12.42L142,46.5h5.75l5,7.89,5-7.89h5.75Z"/><path class="cls-2" d="M183.64,51.37v11.2a3.85,3.85,0,0,0,3.9,3.9h5.11v4.87h-5.11a8.74,8.74,0,0,1-8.77-8.77V51.37h-7.55V46.5h7.55V40.17h4.87V46.5h9v4.87Z"/><path class="cls-2" d="M235.91,64.77l6.81-5.8v-.1l-6.81-5.79h-2.59V48.21h4.39l9.74,8.28v4.87l-9.74,8.28h-4.39V64.77Z"/></g></g></svg>