<svg xmlns="http://www.w3.org/2000/svg" viewBox="0 0 302.94 111.81"><defs><style>.cls-1{fill:#f6d865;}.cls-2{fill:#2a2a3a;}</style></defs><g id="Layer_2" data-name="Layer 2"><g id="Layer_1-2" data-name="Layer 1"><rect class="cls-1" width="302.94" height="111.81" rx="12"/><path class="cls-2" d="M73.27,69.64H68.89l-9.74-8.28V56.49l9.74-8.28h4.38v4.87H70.69l-6.82,5.79V59l6.82,5.8h2.58Z"/><path class="cls-2" d="M135.37,46v2.93a8.73,8.73,0,0,1-8.77,8.76h-7.79V71.34h-4.87V37.25H126.6A8.73,8.73,0,0,1,135.37,46Zm-4.87,0a3.85,3.85,0,0,0-3.9-3.89h-7.79V52.83h7.79a3.85,3.85,0,0,0,3.9-3.89Z"/><path class="cls-2" d="M164.59,55.27v1.95h-4.87V55.27a3.91,3.91,0,0,0-3.89-3.9h-.49L148,56.29V71.34h-4.87V46.5H148v3.9l5.8-3.9h2A8.76,8.76,0,0,1,164.59,55.27Z"/><path class="cls-2" d="M193.82,55.76V60H177.26v2.49a3.9,3.9,0,0,0,3.89,3.89h3.9a3.91,3.91,0,0,0,3.9-3.89V62h4.87v.49a8.8,8.8,0,0,1-8.77,8.81h-3.9a8.83,8.83,0,0,1-8.76-8.81V55.27a8.76,8.76,0,0,1,8.76-8.77h3.9a8.74,8.74,0,0,1,8.77,8.28ZM189,55.27a3.85,3.85,0,0,0-3.9-3.9h-3.9a3.88,3.88,0,0,0-3.89,3.9v.88H189Z"/><path class="cls-2" d="M223,46.5V57.7l-8.28,13.64h-4.87L201.61,57.7V46.5h4.87v9.84l5.8,9.55h.09l5.8-9.55V46.5Z"/></g></g></svg>