<svg xmlns="http://www.w3.org/2000/svg" viewBox="0 0 222.94 124.24"><defs><style>.cls-1{fill:#456c93;}.cls-2{fill:#77b1d7;}.cls-3{fill:#2a2a3a;}</style></defs><g id="Layer_2" data-name="Layer 2"><g id="Layer_1-2" data-name="Layer 1"><rect class="cls-1" y="12.43" width="222.94" height="111.81" rx="12"/><rect class="cls-2" width="222.94" height="111.81" rx="12"/><path class="cls-3" d="M84.77,57.36l6.38,14H85.79L79.61,57.7h-5V71.34H69.72V37.25H82.38A8.73,8.73,0,0,1,91.15,46v2.93A8.69,8.69,0,0,1,84.77,57.36ZM86.28,46a3.85,3.85,0,0,0-3.9-3.89H74.59V52.83h7.79a3.85,3.85,0,0,0,3.9-3.89Z"/><path class="cls-3" d="M120.37,46.5V71.34H115.5V68.61l-4,2.73h-3.75a8.76,8.76,0,0,1-8.77-8.77V46.5h4.87V62.57a3.91,3.91,0,0,0,3.9,3.9H110l5.55-3.75V46.5Z"/><path class="cls-3" d="M149.6,55.27V71.34h-4.87V55.27a3.92,3.92,0,0,0-3.9-3.9h-2.24L133,55.12V71.34h-4.87V46.5H133v2.73l4-2.73h3.75A8.77,8.77,0,0,1,149.6,55.27Z"/></g></g></svg>