<svg xmlns="http://www.w3.org/2000/svg" viewBox="0 0 559.886 122.501"><defs><style>.cls-1{fill:#324193;}.cls-2{fill:#455093;}.cls-3{fill:#fffeff;}</style></defs><g id="Layer_2" data-name="Layer 2"><g id="Layer_1-2" data-name="Layer 1"><rect class="cls-1" y="12.375" width="559.886" height="110.125" rx="11.819"/><rect class="cls-2" width="559.886" height="110.125" rx="11.819"/><path class="cls-3" d="M66.012,59.469V61.4a4.192,4.192,0,0,0,4.16,4.16h3.241c2.466,0,4.208-1.548,4.208-3.677,0-6.675-15.962-8.126-15.962-17.316,0-4.741,3.724-8.03,9-8.03h2.273a9.021,9.021,0,0,1,9.045,9V46.99H77.137V45.538a4.171,4.171,0,0,0-4.208-4.16H70.656c-2.613,0-4.16,1.21-4.16,3.193,0,5.127,15.961,7.11,15.961,17.316,0,4.837-3.917,8.514-9.044,8.514H70.172a8.98,8.98,0,0,1-9-9V59.469Z"/><path class="cls-3" d="M111.479,45.732V70.4h-4.837V67.692L102.627,70.4H98.9A8.732,8.732,0,0,1,90.2,61.694V54.438A8.7,8.7,0,0,1,98.9,45.732h3.724l4.015,2.709V45.732Zm-4.837,16.107V54.293l-5.515-3.724H98.9a3.881,3.881,0,0,0-3.87,3.869v7.256a3.881,3.881,0,0,0,3.87,3.87h2.224Z"/><path class="cls-3" d="M140.5,65.564V70.4H119.216V65.564H127.2V50.569h-7.982V45.732h12.819V65.564Zm-8.464-24.186h-5.321V36.541h5.321Z"/><path class="cls-3" d="M169.52,65.564V70.4H148.238V65.564h7.98V40.9h-7.98V36.058h12.818V65.564Z"/><path class="cls-3" d="M185.965,70.4a8.63,8.63,0,0,1-8.707-8.659v-7.3a8.67,8.67,0,0,1,8.707-8.706h3.869a8.67,8.67,0,0,1,8.707,8.706v7.3a8.63,8.63,0,0,1-8.707,8.659Zm7.74-8.659v-7.3a3.821,3.821,0,0,0-3.871-3.869h-3.869a3.821,3.821,0,0,0-3.87,3.869v7.3a3.811,3.811,0,0,0,3.87,3.822h3.869A3.781,3.781,0,0,0,193.705,61.742Z"/><path class="cls-3" d="M227.562,54.438v1.935h-4.837V54.438a3.881,3.881,0,0,0-3.87-3.869h-.483l-7.256,4.885V70.4h-4.837V45.732h4.837V49.6l5.757-3.869h1.982A8.7,8.7,0,0,1,227.562,54.438Z"/><path class="cls-3" d="M285.6,36.541V70.4h-4.837V47.183l-4.5,9.577h-2.611l-4.5-9.577V70.4h-4.837V36.541h4.837l5.8,12.625,5.805-12.625Z"/><path class="cls-3" d="M314.624,45.732V70.4h-4.836V67.692L305.773,70.4h-3.725a8.732,8.732,0,0,1-8.706-8.707V54.438a8.7,8.7,0,0,1,8.706-8.706h3.725l4.015,2.709V45.732Zm-4.836,16.107V54.293l-5.514-3.724h-2.226a3.88,3.88,0,0,0-3.869,3.869v7.256a3.881,3.881,0,0,0,3.869,3.87h2.226Z"/><path class="cls-3" d="M343.645,54.438V70.4h-4.837V54.438a3.88,3.88,0,0,0-3.869-3.869h-2.226L327.2,54.293V70.4h-4.837V45.732H327.2v2.709l4.014-2.709h3.725A8.7,8.7,0,0,1,343.645,54.438Z"/><path class="cls-3" d="M372.666,45.732V70.4H367.83V67.692L363.815,70.4H360.09a8.7,8.7,0,0,1-8.707-8.707V45.732h4.837V61.694a3.881,3.881,0,0,0,3.87,3.87h2.225l5.515-3.725V45.732Z"/><path class="cls-3" d="M401.687,45.732V70.4H396.85V67.692L392.835,70.4h-3.724a8.732,8.732,0,0,1-8.706-8.707V54.438a8.7,8.7,0,0,1,8.706-8.706h3.724l4.015,2.709V45.732ZM396.85,61.839V54.293l-5.514-3.724h-2.225a3.88,3.88,0,0,0-3.869,3.869v7.256a3.881,3.881,0,0,0,3.869,3.87h2.225Z"/><path class="cls-3" d="M430.707,65.564V70.4H409.425V65.564h7.981V40.9h-7.981V36.058h12.819V65.564Z"/><path class="cls-3" d="M495.258,45.511l-1.281,15.922-3.9,3.9-4.27-4.331,2.257-2.257.549-6.589-15.8,15.74-4.27-4.271,15.739-15.8-6.588.549L475.432,50.7,471.1,46.365l3.9-3.9,15.922-1.282Z"/></g></g></svg>