<svg xmlns="http://www.w3.org/2000/svg" viewBox="0 0 215 215"><defs><style>.cls-1{fill:#324193;}.cls-2{fill:#f6d865;}.cls-3{fill:#dbbc65;}.cls-4{fill:#fdfd8e;}</style></defs><g id="Layer_2" data-name="Layer 2"><g id="Layer_1-2" data-name="Layer 1"><rect class="cls-1" width="215" height="215"/><rect class="cls-2" x="2.5" y="2.5" width="210" height="210" rx="24.099"/><rect class="cls-3" x="105.33" y="126.598" width="4.375" height="4.375"/><rect class="cls-3" x="100.92" y="126.598" width="4.375" height="4.375"/><rect class="cls-3" x="109.705" y="126.598" width="4.375" height="4.375"/><rect class="cls-3" x="114.08" y="126.598" width="4.375" height="4.375"/><rect class="cls-3" x="122.83" y="130.973" width="4.375" height="4.375"/><rect class="cls-3" x="127.205" y="130.973" width="4.375" height="4.375"/><rect class="cls-3" x="131.58" y="130.973" width="4.375" height="4.375"/><rect class="cls-3" x="42.928" y="171.357" width="4.375" height="4.375"/><rect class="cls-3" x="47.303" y="171.357" width="4.375" height="4.375"/><rect class="cls-3" x="51.678" y="171.357" width="4.375" height="4.375"/><rect class="cls-3" x="56.053" y="171.357" width="4.375" height="4.375"/><rect class="cls-3" x="60.429" y="171.357" width="4.375" height="4.375"/><rect class="cls-3" x="64.803" y="166.982" width="4.375" height="4.375"/><rect class="cls-3" x="60.428" y="166.982" width="4.375" height="4.375"/><rect class="cls-3" x="56.053" y="166.982" width="4.375" height="4.375"/><rect class="cls-3" x="42.928" y="175.732" width="4.375" height="4.375"/><rect class="cls-3" x="47.303" y="175.732" width="4.375" height="4.375"/><rect class="cls-3" x="38.553" y="175.732" width="4.375" height="4.375"/><rect class="cls-3" x="34.178" y="175.732" width="4.375" height="4.375"/><rect class="cls-3" x="42.928" y="166.982" width="4.375" height="4.375"/><rect class="cls-3" x="47.303" y="166.982" width="4.375" height="4.375"/><rect class="cls-3" x="51.678" y="166.982" width="4.375" height="4.375"/><rect class="cls-3" x="56.053" y="166.982" width="4.375" height="4.375"/><rect class="cls-3" x="60.429" y="166.982" width="4.375" height="4.375"/><rect class="cls-3" x="42.928" y="171.357" width="4.375" height="4.375"/><rect class="cls-3" x="47.303" y="171.357" width="4.375" height="4.375"/><rect class="cls-3" x="38.553" y="171.357" width="4.375" height="4.375"/><rect class="cls-3" x="162.187" y="84.027" width="4.375" height="4.375"/><rect class="cls-3" x="166.562" y="84.027" width="4.375" height="4.375"/><rect class="cls-3" x="184.063" y="79.652" width="4.375" height="4.375"/><rect class="cls-3" x="179.687" y="79.652" width="4.375" height="4.375"/><rect class="cls-3" x="175.313" y="79.652" width="4.375" height="4.375"/><rect class="cls-3" x="162.187" y="88.402" width="4.375" height="4.375"/><rect class="cls-3" x="157.812" y="88.402" width="4.375" height="4.375"/><rect class="cls-3" x="153.437" y="88.402" width="4.375" height="4.375"/><rect class="cls-3" x="162.187" y="79.652" width="4.375" height="4.375"/><rect class="cls-3" x="166.562" y="79.652" width="4.375" height="4.375"/><rect class="cls-3" x="170.938" y="79.652" width="4.375" height="4.375"/><rect class="cls-3" x="175.313" y="79.652" width="4.375" height="4.375"/><rect class="cls-3" x="179.688" y="79.652" width="4.375" height="4.375"/><rect class="cls-3" x="162.187" y="84.027" width="4.375" height="4.375"/><rect class="cls-3" x="166.562" y="84.027" width="4.375" height="4.375"/><rect class="cls-3" x="157.812" y="84.027" width="4.375" height="4.375"/><rect class="cls-4" x="41.857" y="58.343" width="4.375" height="4.375"/><rect class="cls-4" x="46.232" y="58.343" width="4.375" height="4.375"/><rect class="cls-4" x="50.607" y="58.343" width="4.375" height="4.375"/><rect class="cls-4" x="54.982" y="58.343" width="4.375" height="4.375"/><rect class="cls-4" x="46.268" y="54.003" width="4.375" height="4.375"/><rect class="cls-4" x="50.643" y="54.003" width="4.375" height="4.375"/><rect class="cls-4" x="55.018" y="54.003" width="4.375" height="4.375"/><rect class="cls-4" x="59.393" y="54.003" width="4.375" height="4.375"/><rect class="cls-4" x="63.768" y="58.378" width="4.375" height="4.375"/><rect class="cls-4" x="41.857" y="62.718" width="4.375" height="4.375"/><rect class="cls-4" x="46.232" y="62.718" width="4.375" height="4.375"/><rect class="cls-4" x="63.768" y="62.753" width="4.375" height="4.375"/><rect class="cls-4" x="153.438" y="164.795" width="4.375" height="4.375"/><rect class="cls-4" x="153.438" y="160.42" width="4.375" height="4.375"/><rect class="cls-4" x="157.813" y="160.42" width="4.375" height="4.375"/><rect class="cls-4" x="149.063" y="173.545" width="4.375" height="4.375"/><rect class="cls-4" x="144.688" y="169.17" width="4.375" height="4.375"/><rect class="cls-4" x="149.063" y="169.17" width="4.375" height="4.375"/><rect class="cls-4" x="38.553" y="119.84" width="8.75" height="8.75"/><rect class="cls-3" x="138.125" y="41.455" width="8.75" height="8.75"/></g></g></svg>