<svg xmlns="http://www.w3.org/2000/svg" viewBox="0 0 215 215"><defs><style>.cls-1{fill:#324193;}.cls-2{fill:#f6d865;}.cls-3{fill:#dbbc65;}.cls-4{fill:#fdfd8e;}</style></defs><g id="Layer_2" data-name="Layer 2"><g id="Layer_1-2" data-name="Layer 1"><rect class="cls-1" width="215" height="215"/><rect class="cls-2" x="2.5" y="2.5" width="210" height="210" rx="24.099"/><rect class="cls-3" x="52.83" y="177.92" width="4.375" height="4.375"/><rect class="cls-3" x="48.42" y="177.92" width="4.375" height="4.375"/><rect class="cls-3" x="57.205" y="177.92" width="4.375" height="4.375"/><rect class="cls-3" x="61.58" y="177.92" width="4.375" height="4.375"/><rect class="cls-3" x="70.33" y="182.295" width="4.375" height="4.375"/><rect class="cls-3" x="74.705" y="182.295" width="4.375" height="4.375"/><rect class="cls-3" x="79.08" y="182.295" width="4.375" height="4.375"/><rect class="cls-3" x="79.08" y="177.92" width="4.375" height="4.375"/><rect class="cls-3" x="74.705" y="177.92" width="4.375" height="4.375"/><rect class="cls-3" x="70.33" y="177.92" width="4.375" height="4.375"/><rect class="cls-3" x="74.705" y="177.92" width="4.375" height="4.375"/><rect class="cls-3" x="79.08" y="177.92" width="4.375" height="4.375"/><rect class="cls-3" x="83.455" y="177.92" width="4.375" height="4.375"/><rect class="cls-3" x="149.993" y="152.295" width="4.375" height="4.375"/><rect class="cls-3" x="154.368" y="152.295" width="4.375" height="4.375"/><rect class="cls-3" x="158.743" y="152.295" width="4.375" height="4.375"/><rect class="cls-3" x="163.118" y="152.295" width="4.375" height="4.375"/><rect class="cls-3" x="154.404" y="147.955" width="4.375" height="4.375"/><rect class="cls-3" x="158.779" y="147.955" width="4.375" height="4.375"/><rect class="cls-3" x="163.154" y="147.955" width="4.375" height="4.375"/><rect class="cls-3" x="167.529" y="147.955" width="4.375" height="4.375"/><rect class="cls-3" x="171.904" y="152.33" width="4.375" height="4.375"/><rect class="cls-3" x="149.993" y="156.67" width="4.375" height="4.375"/><rect class="cls-3" x="154.368" y="156.67" width="4.375" height="4.375"/><rect class="cls-3" x="171.904" y="156.705" width="4.375" height="4.375"/><rect class="cls-4" x="74.687" y="98.161" width="4.375" height="4.375" transform="translate(177.223 23.473) rotate(90)"/><rect class="cls-4" x="79.063" y="98.161" width="4.375" height="4.375" transform="translate(181.598 19.098) rotate(90)"/><rect class="cls-4" x="79.063" y="102.536" width="4.375" height="4.375" transform="translate(185.973 23.473) rotate(90)"/><rect class="cls-4" x="65.937" y="93.786" width="4.375" height="4.375" transform="translate(164.098 27.848) rotate(90)"/><rect class="cls-4" x="70.312" y="89.411" width="4.375" height="4.375" transform="translate(164.098 19.098) rotate(90)"/><rect class="cls-4" x="70.312" y="93.786" width="4.375" height="4.375" transform="translate(168.473 23.473) rotate(90)"/><rect class="cls-4" x="79.063" y="98.161" width="4.375" height="4.375" transform="translate(181.598 19.098) rotate(90)"/><rect class="cls-4" x="83.438" y="98.161" width="4.375" height="4.375" transform="translate(185.973 14.723) rotate(90)"/><rect class="cls-4" x="83.438" y="102.536" width="4.375" height="4.375" transform="translate(190.348 19.098) rotate(90)"/><rect class="cls-4" x="70.312" y="93.786" width="4.375" height="4.375" transform="translate(168.473 23.473) rotate(90)"/><rect class="cls-4" x="74.687" y="89.411" width="4.375" height="4.375" transform="translate(168.473 14.723) rotate(90)"/><rect class="cls-4" x="74.687" y="93.786" width="4.375" height="4.375" transform="translate(172.848 19.098) rotate(90)"/><rect class="cls-3" x="92.187" y="44.319" width="4.375" height="4.375"/><rect class="cls-3" x="96.562" y="44.319" width="4.375" height="4.375"/><rect class="cls-3" x="100.938" y="39.944" width="4.375" height="4.375"/><rect class="cls-3" x="105.312" y="39.944" width="4.375" height="4.375"/><rect class="cls-3" x="109.687" y="39.944" width="4.375" height="4.375"/><rect class="cls-3" x="114.062" y="44.319" width="4.375" height="4.375"/><rect class="cls-3" x="118.437" y="44.319" width="4.375" height="4.375"/><rect class="cls-4" x="37.5" y="48.694" width="8.75" height="8.75"/><rect class="cls-3" x="173.125" y="103.125" width="8.75" height="8.75"/></g></g></svg>