<svg xmlns="http://www.w3.org/2000/svg" viewBox="0 0 215 215"><defs><style>.cls-1{fill:#324193;}.cls-2{fill:#814d3f;}.cls-3{fill:#5e3127;}</style></defs><g id="Layer_2" data-name="Layer 2"><g id="Layer_1-2" data-name="Layer 1"><rect class="cls-1" width="215" height="215"/><rect class="cls-2" x="2.5" y="2.5" width="210" height="210" rx="24.099"/><rect class="cls-3" x="85.045" y="38.38" width="40" height="4.375" transform="translate(145.612 -64.477) rotate(90)"/><rect class="cls-3" x="100.513" y="69.858" width="9.062" height="4.375" transform="translate(177.09 -32.999) rotate(90)"/><rect class="cls-3" x="140.29" y="116.385" width="9.062" height="4.375" transform="matrix(0, -1, 1, 0, 26.248, 263.394)"/><rect class="cls-3" x="49.072" y="172.245" width="40" height="4.375" transform="translate(-105.361 243.504) rotate(-90)"/><rect class="cls-3" x="64.54" y="140.767" width="9.062" height="4.375" transform="matrix(0, -1, 1, 0, -73.883, 212.026)"/><rect class="cls-3" x="49.072" y="83.104" width="40" height="4.375" transform="translate(-16.22 154.363) rotate(-90)"/><rect class="cls-3" x="64.54" y="51.626" width="9.062" height="4.375" transform="matrix(0, -1, 1, 0, 15.258, 122.885)"/><rect class="cls-3" x="164.116" y="171.407" width="40" height="4.375" transform="translate(10.521 357.711) rotate(-90)"/><rect class="cls-3" x="179.585" y="139.929" width="9.062" height="4.375" transform="matrix(0, -1, 1, 0, 41.999, 326.233)"/><rect class="cls-3" x="100.513" y="83.227" width="9.062" height="4.375" transform="translate(190.46 -19.63) rotate(90)"/><rect class="cls-3" x="10.884" y="82.894" width="40" height="4.375" transform="translate(115.966 54.198) rotate(90)"/><rect class="cls-3" x="26.353" y="114.372" width="9.062" height="4.375" transform="translate(147.444 85.676) rotate(90)"/><rect class="cls-3" x="26.353" y="127.742" width="9.062" height="4.375" transform="translate(160.813 99.045) rotate(90)"/><rect class="cls-3" x="163.977" y="68.382" width="40" height="4.375" transform="translate(113.407 254.546) rotate(-90)"/><rect class="cls-3" x="179.446" y="36.904" width="9.062" height="4.375" transform="matrix(0, -1, 1, 0, 144.885, 223.068)"/><rect class="cls-3" x="179.446" y="23.534" width="9.062" height="4.375" transform="matrix(0, -1, 1, 0, 158.255, 209.699)"/></g></g></svg>