<svg xmlns="http://www.w3.org/2000/svg" viewBox="0 0 215 215"><defs><style>.cls-1{fill:#324193;}.cls-2{fill:#814d3f;}.cls-3{fill:#5e3127;}</style></defs><g id="Layer_2" data-name="Layer 2"><g id="Layer_1-2" data-name="Layer 1"><rect class="cls-1" width="215" height="215"/><rect class="cls-2" x="2.5" y="2.5" width="210" height="210" rx="24.099"/><rect class="cls-3" x="89.955" y="172.245" width="40" height="4.375" transform="translate(-64.477 284.388) rotate(-90)"/><rect class="cls-3" x="105.424" y="140.767" width="9.062" height="4.375" transform="translate(-32.999 252.91) rotate(-90)"/><rect class="cls-3" x="65.647" y="94.24" width="9.062" height="4.375" transform="translate(166.606 26.249) rotate(90)"/><rect class="cls-3" x="125.928" y="38.38" width="40" height="4.375" transform="translate(186.496 -105.361) rotate(90)"/><rect class="cls-3" x="141.397" y="69.858" width="9.062" height="4.375" transform="translate(217.974 -73.883) rotate(90)"/><rect class="cls-3" x="125.928" y="127.521" width="40" height="4.375" transform="translate(275.637 -16.22) rotate(90)"/><rect class="cls-3" x="141.397" y="158.999" width="9.062" height="4.375" transform="translate(307.115 15.258) rotate(90)"/><rect class="cls-3" x="10.884" y="39.218" width="40" height="4.375" transform="translate(72.289 10.521) rotate(90)"/><rect class="cls-3" x="26.353" y="70.696" width="9.062" height="4.375" transform="translate(103.767 41.999) rotate(90)"/><rect class="cls-3" x="105.424" y="127.398" width="9.062" height="4.375" transform="translate(-19.63 239.54) rotate(-90)"/><rect class="cls-3" x="164.116" y="127.731" width="40" height="4.375" transform="translate(54.198 314.034) rotate(-90)"/><rect class="cls-3" x="179.585" y="96.253" width="9.062" height="4.375" transform="translate(85.676 282.556) rotate(-90)"/><rect class="cls-3" x="179.585" y="82.883" width="9.062" height="4.375" transform="translate(99.045 269.187) rotate(-90)"/><rect class="cls-3" x="11.023" y="142.243" width="40" height="4.375" transform="translate(175.454 113.408) rotate(90)"/><rect class="cls-3" x="26.492" y="173.721" width="9.062" height="4.375" transform="translate(206.932 144.886) rotate(90)"/><rect class="cls-3" x="26.492" y="187.091" width="9.062" height="4.375" transform="translate(220.301 158.255) rotate(90)"/></g></g></svg>