<svg xmlns="http://www.w3.org/2000/svg" viewBox="0 0 215 215"><defs><style>.cls-1{fill:#324193;}.cls-2{fill:#456c93;}.cls-3{fill:#455093;}.cls-4{fill:#77b1d7;}</style></defs><g id="Layer_2" data-name="Layer 2"><g id="Layer_1-2" data-name="Layer 1"><rect class="cls-1" width="215" height="215"/><rect class="cls-2" x="2.5" y="2.5" width="210" height="210" rx="24.099"/><rect class="cls-3" x="2.5" y="28.33" width="4.375" height="4.375"/><rect class="cls-3" x="6.875" y="28.33" width="4.375" height="4.375"/><rect class="cls-3" x="11.25" y="28.33" width="4.375" height="4.375"/><rect class="cls-3" x="15.625" y="32.705" width="4.375" height="4.375"/><rect class="cls-3" x="20" y="32.705" width="4.375" height="4.375"/><rect class="cls-3" x="46.25" y="32.705" width="4.375" height="4.375"/><rect class="cls-3" x="50.625" y="32.705" width="4.375" height="4.375"/><rect class="cls-3" x="24.375" y="37.08" width="4.375" height="4.375"/><rect class="cls-3" x="41.875" y="37.08" width="4.375" height="4.375"/><rect class="cls-3" x="28.75" y="41.455" width="4.375" height="4.375"/><rect class="cls-3" x="33.125" y="41.455" width="4.375" height="4.375"/><rect class="cls-3" x="37.5" y="41.455" width="4.375" height="4.375"/><rect class="cls-3" x="55" y="28.33" width="4.375" height="4.375"/><rect class="cls-3" x="59.375" y="28.33" width="4.375" height="4.375"/><rect class="cls-3" x="63.75" y="28.33" width="4.375" height="4.375"/><rect class="cls-3" x="68.125" y="32.705" width="4.375" height="4.375"/><rect class="cls-3" x="72.5" y="32.705" width="4.375" height="4.375"/><rect class="cls-3" x="98.75" y="32.705" width="4.375" height="4.375"/><rect class="cls-3" x="103.125" y="32.705" width="4.375" height="4.375"/><rect class="cls-3" x="76.875" y="37.08" width="4.375" height="4.375"/><rect class="cls-3" x="94.375" y="37.08" width="4.375" height="4.375"/><rect class="cls-3" x="81.25" y="41.455" width="4.375" height="4.375"/><rect class="cls-3" x="85.625" y="41.455" width="4.375" height="4.375"/><rect class="cls-3" x="90" y="41.455" width="4.375" height="4.375"/><rect class="cls-3" x="107.5" y="28.33" width="4.375" height="4.375"/><rect class="cls-3" x="111.875" y="28.33" width="4.375" height="4.375"/><rect class="cls-3" x="116.25" y="28.33" width="4.375" height="4.375"/><rect class="cls-3" x="120.625" y="32.705" width="4.375" height="4.375"/><rect class="cls-3" x="125" y="32.705" width="4.375" height="4.375"/><rect class="cls-3" x="151.25" y="32.705" width="4.375" height="4.375"/><rect class="cls-3" x="155.625" y="32.705" width="4.375" height="4.375"/><rect class="cls-3" x="129.375" y="37.08" width="4.375" height="4.375"/><rect class="cls-3" x="146.875" y="37.08" width="4.375" height="4.375"/><rect class="cls-3" x="133.75" y="41.455" width="4.375" height="4.375"/><rect class="cls-3" x="138.125" y="41.455" width="4.375" height="4.375"/><rect class="cls-3" x="142.5" y="41.455" width="4.375" height="4.375"/><rect class="cls-3" x="160" y="28.33" width="4.375" height="4.375"/><rect class="cls-3" x="164.375" y="28.33" width="4.375" height="4.375"/><rect class="cls-3" x="168.75" y="28.33" width="4.375" height="4.375"/><rect class="cls-3" x="173.125" y="32.705" width="4.375" height="4.375"/><rect class="cls-3" x="177.5" y="32.705" width="4.375" height="4.375"/><rect class="cls-3" x="203.75" y="32.705" width="4.375" height="4.375"/><rect class="cls-3" x="208.125" y="32.705" width="4.375" height="4.375"/><rect class="cls-3" x="181.875" y="37.08" width="4.375" height="4.375"/><rect class="cls-3" x="199.375" y="37.08" width="4.375" height="4.375"/><rect class="cls-3" x="186.25" y="41.455" width="4.375" height="4.375"/><rect class="cls-3" x="190.625" y="41.455" width="4.375" height="4.375"/><rect class="cls-3" x="195" y="41.455" width="4.375" height="4.375"/><rect class="cls-3" x="2.5" y="75.277" width="4.375" height="4.375"/><rect class="cls-3" x="6.875" y="75.277" width="4.375" height="4.375"/><rect class="cls-3" x="11.25" y="75.277" width="4.375" height="4.375"/><rect class="cls-3" x="15.625" y="79.652" width="4.375" height="4.375"/><rect class="cls-3" x="20" y="79.652" width="4.375" height="4.375"/><rect class="cls-3" x="46.25" y="79.652" width="4.375" height="4.375"/><rect class="cls-3" x="50.625" y="79.652" width="4.375" height="4.375"/><rect class="cls-3" x="24.375" y="84.027" width="4.375" height="4.375"/><rect class="cls-3" x="41.875" y="84.027" width="4.375" height="4.375"/><rect class="cls-3" x="28.75" y="88.402" width="4.375" height="4.375"/><rect class="cls-3" x="33.125" y="88.402" width="4.375" height="4.375"/><rect class="cls-3" x="37.5" y="88.402" width="4.375" height="4.375"/><rect class="cls-3" x="55" y="75.277" width="4.375" height="4.375"/><rect class="cls-3" x="59.375" y="75.277" width="4.375" height="4.375"/><rect class="cls-3" x="63.75" y="75.277" width="4.375" height="4.375"/><rect class="cls-3" x="68.125" y="79.652" width="4.375" height="4.375"/><rect class="cls-3" x="72.5" y="79.652" width="4.375" height="4.375"/><rect class="cls-3" x="98.75" y="79.652" width="4.375" height="4.375"/><rect class="cls-3" x="103.125" y="79.652" width="4.375" height="4.375"/><rect class="cls-3" x="76.875" y="84.027" width="4.375" height="4.375"/><rect class="cls-3" x="94.375" y="84.027" width="4.375" height="4.375"/><rect class="cls-3" x="81.25" y="88.402" width="4.375" height="4.375"/><rect class="cls-3" x="85.625" y="88.402" width="4.375" height="4.375"/><rect class="cls-3" x="90" y="88.402" width="4.375" height="4.375"/><rect class="cls-3" x="107.5" y="75.277" width="4.375" height="4.375"/><rect class="cls-3" x="111.875" y="75.277" width="4.375" height="4.375"/><rect class="cls-3" x="116.25" y="75.277" width="4.375" height="4.375"/><rect class="cls-3" x="120.625" y="79.652" width="4.375" height="4.375"/><rect class="cls-3" x="125" y="79.652" width="4.375" height="4.375"/><rect class="cls-3" x="151.25" y="79.652" width="4.375" height="4.375"/><rect class="cls-3" x="155.625" y="79.652" width="4.375" height="4.375"/><rect class="cls-3" x="129.375" y="84.027" width="4.375" height="4.375"/><rect class="cls-3" x="146.875" y="84.027" width="4.375" height="4.375"/><rect class="cls-3" x="133.75" y="88.402" width="4.375" height="4.375"/><rect class="cls-3" x="138.125" y="88.402" width="4.375" height="4.375"/><rect class="cls-3" x="142.5" y="88.402" width="4.375" height="4.375"/><rect class="cls-3" x="160" y="75.277" width="4.375" height="4.375"/><rect class="cls-3" x="164.375" y="75.277" width="4.375" height="4.375"/><rect class="cls-3" x="168.75" y="75.277" width="4.375" height="4.375"/><rect class="cls-3" x="173.125" y="79.652" width="4.375" height="4.375"/><rect class="cls-3" x="177.5" y="79.652" width="4.375" height="4.375"/><rect class="cls-3" x="203.75" y="79.652" width="4.375" height="4.375"/><rect class="cls-3" x="208.125" y="79.652" width="4.375" height="4.375"/><rect class="cls-3" x="181.875" y="84.027" width="4.375" height="4.375"/><rect class="cls-3" x="199.375" y="84.027" width="4.375" height="4.375"/><rect class="cls-3" x="186.25" y="88.402" width="4.375" height="4.375"/><rect class="cls-3" x="190.625" y="88.402" width="4.375" height="4.375"/><rect class="cls-3" x="195" y="88.402" width="4.375" height="4.375"/><rect class="cls-3" x="2.5" y="122.223" width="4.375" height="4.375"/><rect class="cls-3" x="6.875" y="122.223" width="4.375" height="4.375"/><rect class="cls-3" x="11.25" y="122.223" width="4.375" height="4.375"/><rect class="cls-3" x="15.625" y="126.598" width="4.375" height="4.375"/><rect class="cls-3" x="20" y="126.598" width="4.375" height="4.375"/><rect class="cls-3" x="46.25" y="126.598" width="4.375" height="4.375"/><rect class="cls-3" x="50.625" y="126.598" width="4.375" height="4.375"/><rect class="cls-3" x="24.375" y="130.973" width="4.375" height="4.375"/><rect class="cls-3" x="41.875" y="130.973" width="4.375" height="4.375"/><rect class="cls-3" x="28.75" y="135.348" width="4.375" height="4.375"/><rect class="cls-3" x="33.125" y="135.348" width="4.375" height="4.375"/><rect class="cls-3" x="37.5" y="135.348" width="4.375" height="4.375"/><rect class="cls-3" x="55" y="122.223" width="4.375" height="4.375"/><rect class="cls-3" x="59.375" y="122.223" width="4.375" height="4.375"/><rect class="cls-3" x="63.75" y="122.223" width="4.375" height="4.375"/><rect class="cls-3" x="68.125" y="126.598" width="4.375" height="4.375"/><rect class="cls-3" x="72.5" y="126.598" width="4.375" height="4.375"/><rect class="cls-3" x="98.75" y="126.598" width="4.375" height="4.375"/><rect class="cls-3" x="103.125" y="126.598" width="4.375" height="4.375"/><rect class="cls-3" x="76.875" y="130.973" width="4.375" height="4.375"/><rect class="cls-3" x="94.375" y="130.973" width="4.375" height="4.375"/><rect class="cls-3" x="81.25" y="135.348" width="4.375" height="4.375"/><rect class="cls-3" x="85.625" y="135.348" width="4.375" height="4.375"/><rect class="cls-3" x="90" y="135.348" width="4.375" height="4.375"/><rect class="cls-3" x="107.5" y="122.223" width="4.375" height="4.375"/><rect class="cls-3" x="111.875" y="122.223" width="4.375" height="4.375"/><rect class="cls-3" x="116.25" y="122.223" width="4.375" height="4.375"/><rect class="cls-3" x="120.625" y="126.598" width="4.375" height="4.375"/><rect class="cls-3" x="125" y="126.598" width="4.375" height="4.375"/><rect class="cls-3" x="151.25" y="126.598" width="4.375" height="4.375"/><rect class="cls-3" x="155.625" y="126.598" width="4.375" height="4.375"/><rect class="cls-3" x="129.375" y="130.973" width="4.375" height="4.375"/><rect class="cls-3" x="146.875" y="130.973" width="4.375" height="4.375"/><rect class="cls-3" x="133.75" y="135.348" width="4.375" height="4.375"/><rect class="cls-3" x="138.125" y="135.348" width="4.375" height="4.375"/><rect class="cls-3" x="142.5" y="135.348" width="4.375" height="4.375"/><rect class="cls-3" x="160" y="122.223" width="4.375" height="4.375"/><rect class="cls-3" x="164.375" y="122.223" width="4.375" height="4.375"/><rect class="cls-3" x="168.75" y="122.223" width="4.375" height="4.375"/><rect class="cls-3" x="173.125" y="126.598" width="4.375" height="4.375"/><rect class="cls-3" x="177.5" y="126.598" width="4.375" height="4.375"/><rect class="cls-3" x="203.75" y="126.598" width="4.375" height="4.375"/><rect class="cls-3" x="208.125" y="126.598" width="4.375" height="4.375"/><rect class="cls-3" x="181.875" y="130.973" width="4.375" height="4.375"/><rect class="cls-3" x="199.375" y="130.973" width="4.375" height="4.375"/><rect class="cls-3" x="186.25" y="135.348" width="4.375" height="4.375"/><rect class="cls-3" x="190.625" y="135.348" width="4.375" height="4.375"/><rect class="cls-3" x="195" y="135.348" width="4.375" height="4.375"/><rect class="cls-3" x="2.5" y="169.17" width="4.375" height="4.375"/><rect class="cls-3" x="6.875" y="169.17" width="4.375" height="4.375"/><rect class="cls-3" x="11.25" y="169.17" width="4.375" height="4.375"/><rect class="cls-3" x="15.625" y="173.545" width="4.375" height="4.375"/><rect class="cls-3" x="20" y="173.545" width="4.375" height="4.375"/><rect class="cls-3" x="46.25" y="173.545" width="4.375" height="4.375"/><rect class="cls-3" x="50.625" y="173.545" width="4.375" height="4.375"/><rect class="cls-3" x="24.375" y="177.92" width="4.375" height="4.375"/><rect class="cls-3" x="41.875" y="177.92" width="4.375" height="4.375"/><rect class="cls-3" x="28.75" y="182.295" width="4.375" height="4.375"/><rect class="cls-3" x="33.125" y="182.295" width="4.375" height="4.375"/><rect class="cls-3" x="37.5" y="182.295" width="4.375" height="4.375"/><rect class="cls-3" x="55" y="169.17" width="4.375" height="4.375"/><rect class="cls-3" x="59.375" y="169.17" width="4.375" height="4.375"/><rect class="cls-3" x="63.75" y="169.17" width="4.375" height="4.375"/><rect class="cls-3" x="68.125" y="173.545" width="4.375" height="4.375"/><rect class="cls-3" x="72.5" y="173.545" width="4.375" height="4.375"/><rect class="cls-3" x="98.75" y="173.545" width="4.375" height="4.375"/><rect class="cls-3" x="103.125" y="173.545" width="4.375" height="4.375"/><rect class="cls-3" x="76.875" y="177.92" width="4.375" height="4.375"/><rect class="cls-3" x="94.375" y="177.92" width="4.375" height="4.375"/><rect class="cls-3" x="81.25" y="182.295" width="4.375" height="4.375"/><rect class="cls-3" x="85.625" y="182.295" width="4.375" height="4.375"/><rect class="cls-3" x="90" y="182.295" width="4.375" height="4.375"/><rect class="cls-3" x="107.5" y="169.17" width="4.375" height="4.375"/><rect class="cls-3" x="111.875" y="169.17" width="4.375" height="4.375"/><rect class="cls-3" x="116.25" y="169.17" width="4.375" height="4.375"/><rect class="cls-3" x="120.625" y="173.545" width="4.375" height="4.375"/><rect class="cls-3" x="125" y="173.545" width="4.375" height="4.375"/><rect class="cls-3" x="151.25" y="173.545" width="4.375" height="4.375"/><rect class="cls-3" x="155.625" y="173.545" width="4.375" height="4.375"/><rect class="cls-3" x="129.375" y="177.92" width="4.375" height="4.375"/><rect class="cls-3" x="146.875" y="177.92" width="4.375" height="4.375"/><rect class="cls-3" x="133.75" y="182.295" width="4.375" height="4.375"/><rect class="cls-3" x="138.125" y="182.295" width="4.375" height="4.375"/><rect class="cls-3" x="142.5" y="182.295" width="4.375" height="4.375"/><rect class="cls-3" x="160" y="169.17" width="4.375" height="4.375"/><rect class="cls-3" x="164.375" y="169.17" width="4.375" height="4.375"/><rect class="cls-3" x="168.75" y="169.17" width="4.375" height="4.375"/><rect class="cls-3" x="173.125" y="173.545" width="4.375" height="4.375"/><rect class="cls-3" x="177.5" y="173.545" width="4.375" height="4.375"/><rect class="cls-3" x="203.75" y="173.545" width="4.375" height="4.375"/><rect class="cls-3" x="208.125" y="173.545" width="4.375" height="4.375"/><rect class="cls-3" x="181.875" y="177.92" width="4.375" height="4.375"/><rect class="cls-3" x="199.375" y="177.92" width="4.375" height="4.375"/><rect class="cls-3" x="186.25" y="182.295" width="4.375" height="4.375"/><rect class="cls-3" x="190.625" y="182.295" width="4.375" height="4.375"/><rect class="cls-3" x="195" y="182.295" width="4.375" height="4.375"/><rect class="cls-4" x="44.438" y="64.339" width="8.75" height="8.75"/><rect class="cls-4" x="44.438" y="73.089" width="8.75" height="8.75"/><rect class="cls-4" x="53.188" y="73.089" width="8.75" height="8.75"/><rect class="cls-4" x="48.813" y="68.714" width="8.75" height="8.75"/><rect class="cls-4" x="48.813" y="77.464" width="8.75" height="8.75"/><rect class="cls-4" x="40.062" y="68.714" width="8.75" height="8.75"/><rect class="cls-4" x="40.062" y="77.464" width="8.75" height="8.75"/><rect class="cls-4" x="35.688" y="73.089" width="8.75" height="8.75"/><rect class="cls-4" x="44.438" y="81.839" width="8.75" height="8.75"/><rect class="cls-4" x="155.625" y="94.617" width="4.375" height="4.375"/><rect class="cls-4" x="155.625" y="98.992" width="4.375" height="4.375"/><rect class="cls-4" x="155.625" y="103.367" width="4.375" height="4.375"/><rect class="cls-4" x="173.125" y="94.617" width="4.375" height="4.375"/><rect class="cls-4" x="173.125" y="98.992" width="4.375" height="4.375"/><rect class="cls-4" x="173.125" y="103.367" width="4.375" height="4.375"/><rect class="cls-4" x="168.75" y="90.242" width="4.375" height="4.375" transform="translate(263.367 -78.508) rotate(90)"/><rect class="cls-4" x="164.375" y="90.242" width="4.375" height="4.375" transform="translate(258.992 -74.133) rotate(90)"/><rect class="cls-4" x="160" y="90.242" width="4.375" height="4.375" transform="translate(254.617 -69.758) rotate(90)"/><rect class="cls-4" x="168.75" y="107.742" width="4.375" height="4.375" transform="translate(280.867 -61.008) rotate(90)"/><rect class="cls-4" x="164.375" y="107.742" width="4.375" height="4.375" transform="translate(276.492 -56.633) rotate(90)"/><rect class="cls-4" x="160" y="107.742" width="4.375" height="4.375" transform="translate(272.117 -52.258) rotate(90)"/><rect class="cls-4" x="108.626" y="45.253" width="4.375" height="4.375" transform="translate(158.255 -63.373) rotate(90)"/><rect class="cls-4" x="108.626" y="49.628" width="4.375" height="4.375" transform="translate(162.63 -58.998) rotate(90)"/><rect class="cls-4" x="113.001" y="54.003" width="4.375" height="4.375" transform="translate(171.38 -58.998) rotate(90)"/><rect class="cls-4" x="117.311" y="54.003" width="4.375" height="4.375" transform="translate(175.689 -63.308) rotate(90)"/><rect class="cls-4" x="121.686" y="58.378" width="4.375" height="4.375" transform="translate(184.439 -63.308) rotate(90)"/><rect class="cls-4" x="126.061" y="58.378" width="4.375" height="4.375" transform="translate(188.814 -67.683) rotate(90)"/><rect class="cls-4" x="132.624" y="51.816" width="4.375" height="4.375" transform="translate(188.814 -80.808) rotate(90)"/><rect class="cls-4" x="63.75" y="156.045" width="4.375" height="4.375" transform="translate(224.17 92.295) rotate(90)"/><rect class="cls-4" x="68.125" y="156.045" width="4.375" height="4.375" transform="translate(228.545 87.92) rotate(90)"/><rect class="cls-4" x="72.5" y="160.42" width="4.375" height="4.375" transform="translate(237.295 87.92) rotate(90)"/><rect class="cls-4" x="76.875" y="160.42" width="4.375" height="4.375" transform="translate(241.67 83.545) rotate(90)"/><rect class="cls-4" x="81.25" y="164.795" width="4.375" height="4.375" transform="translate(250.42 83.545) rotate(90)"/><rect class="cls-4" x="81.25" y="169.17" width="4.375" height="4.375" transform="translate(254.795 87.92) rotate(90)"/><rect class="cls-4" x="81.25" y="173.545" width="4.375" height="4.375" transform="translate(259.17 92.295) rotate(90)"/><rect class="cls-4" x="76.875" y="177.92" width="4.375" height="4.375" transform="translate(259.17 101.045) rotate(90)"/><rect class="cls-4" x="72.5" y="182.295" width="4.375" height="4.375" transform="translate(259.17 109.795) rotate(90)"/><rect class="cls-4" x="68.125" y="182.295" width="4.375" height="4.375" transform="translate(254.795 114.17) rotate(90)"/><rect class="cls-4" x="63.75" y="182.295" width="4.375" height="4.375" transform="translate(250.42 118.545) rotate(90)"/><rect class="cls-4" x="59.375" y="177.92" width="4.375" height="4.375" transform="translate(241.67 118.545) rotate(90)"/><rect class="cls-4" x="55" y="173.545" width="4.375" height="4.375" transform="translate(232.92 118.545) rotate(90)"/><rect class="cls-4" x="55" y="169.17" width="4.375" height="4.375" transform="translate(228.545 114.17) rotate(90)"/><rect class="cls-4" x="55" y="164.795" width="4.375" height="4.375" transform="translate(224.17 109.795) rotate(90)"/><rect class="cls-4" x="59.375" y="160.42" width="4.375" height="4.375" transform="translate(224.17 101.045) rotate(90)"/></g></g></svg>