<svg xmlns="http://www.w3.org/2000/svg" viewBox="0 0 215 215"><defs><style>.cls-1{fill:#324193;}.cls-2{fill:#456c93;}.cls-3{fill:#455093;}.cls-4{fill:#77b1d7;}</style></defs><g id="Layer_2" data-name="Layer 2"><g id="Layer_1-2" data-name="Layer 1"><rect class="cls-1" width="215" height="215"/><rect class="cls-2" x="2.5" y="2.5" width="210" height="210" rx="24.099"/><rect class="cls-3" x="2.5" y="28.33" width="4.375" height="4.375"/><rect class="cls-3" x="6.875" y="28.33" width="4.375" height="4.375"/><rect class="cls-3" x="11.25" y="28.33" width="4.375" height="4.375"/><rect class="cls-3" x="15.625" y="32.705" width="4.375" height="4.375"/><rect class="cls-3" x="20" y="32.705" width="4.375" height="4.375"/><rect class="cls-3" x="46.25" y="32.705" width="4.375" height="4.375"/><rect class="cls-3" x="50.625" y="32.705" width="4.375" height="4.375"/><rect class="cls-3" x="24.375" y="37.08" width="4.375" height="4.375"/><rect class="cls-3" x="41.875" y="37.08" width="4.375" height="4.375"/><rect class="cls-3" x="28.75" y="41.455" width="4.375" height="4.375"/><rect class="cls-3" x="33.125" y="41.455" width="4.375" height="4.375"/><rect class="cls-3" x="37.5" y="41.455" width="4.375" height="4.375"/><rect class="cls-3" x="55" y="28.33" width="4.375" height="4.375"/><rect class="cls-3" x="59.375" y="28.33" width="4.375" height="4.375"/><rect class="cls-3" x="63.75" y="28.33" width="4.375" height="4.375"/><rect class="cls-3" x="68.125" y="32.705" width="4.375" height="4.375"/><rect class="cls-3" x="72.5" y="32.705" width="4.375" height="4.375"/><rect class="cls-3" x="98.75" y="32.705" width="4.375" height="4.375"/><rect class="cls-3" x="103.125" y="32.705" width="4.375" height="4.375"/><rect class="cls-3" x="76.875" y="37.08" width="4.375" height="4.375"/><rect class="cls-3" x="94.375" y="37.08" width="4.375" height="4.375"/><rect class="cls-3" x="81.25" y="41.455" width="4.375" height="4.375"/><rect class="cls-3" x="85.625" y="41.455" width="4.375" height="4.375"/><rect class="cls-3" x="90" y="41.455" width="4.375" height="4.375"/><rect class="cls-3" x="107.5" y="28.33" width="4.375" height="4.375"/><rect class="cls-3" x="111.875" y="28.33" width="4.375" height="4.375"/><rect class="cls-3" x="116.25" y="28.33" width="4.375" height="4.375"/><rect class="cls-3" x="120.625" y="32.705" width="4.375" height="4.375"/><rect class="cls-3" x="125" y="32.705" width="4.375" height="4.375"/><rect class="cls-3" x="151.25" y="32.705" width="4.375" height="4.375"/><rect class="cls-3" x="155.625" y="32.705" width="4.375" height="4.375"/><rect class="cls-3" x="129.375" y="37.08" width="4.375" height="4.375"/><rect class="cls-3" x="146.875" y="37.08" width="4.375" height="4.375"/><rect class="cls-3" x="133.75" y="41.455" width="4.375" height="4.375"/><rect class="cls-3" x="138.125" y="41.455" width="4.375" height="4.375"/><rect class="cls-3" x="142.5" y="41.455" width="4.375" height="4.375"/><rect class="cls-3" x="160" y="28.33" width="4.375" height="4.375"/><rect class="cls-3" x="164.375" y="28.33" width="4.375" height="4.375"/><rect class="cls-3" x="168.75" y="28.33" width="4.375" height="4.375"/><rect class="cls-3" x="173.125" y="32.705" width="4.375" height="4.375"/><rect class="cls-3" x="177.5" y="32.705" width="4.375" height="4.375"/><rect class="cls-3" x="203.75" y="32.705" width="4.375" height="4.375"/><rect class="cls-3" x="208.125" y="32.705" width="4.375" height="4.375"/><rect class="cls-3" x="181.875" y="37.08" width="4.375" height="4.375"/><rect class="cls-3" x="199.375" y="37.08" width="4.375" height="4.375"/><rect class="cls-3" x="186.25" y="41.455" width="4.375" height="4.375"/><rect class="cls-3" x="190.625" y="41.455" width="4.375" height="4.375"/><rect class="cls-3" x="195" y="41.455" width="4.375" height="4.375"/><rect class="cls-3" x="2.5" y="75.277" width="4.375" height="4.375"/><rect class="cls-3" x="6.875" y="75.277" width="4.375" height="4.375"/><rect class="cls-3" x="11.25" y="75.277" width="4.375" height="4.375"/><rect class="cls-3" x="15.625" y="79.652" width="4.375" height="4.375"/><rect class="cls-3" x="20" y="79.652" width="4.375" height="4.375"/><rect class="cls-3" x="46.25" y="79.652" width="4.375" height="4.375"/><rect class="cls-3" x="50.625" y="79.652" width="4.375" height="4.375"/><rect class="cls-3" x="24.375" y="84.027" width="4.375" height="4.375"/><rect class="cls-3" x="41.875" y="84.027" width="4.375" height="4.375"/><rect class="cls-3" x="28.75" y="88.402" width="4.375" height="4.375"/><rect class="cls-3" x="33.125" y="88.402" width="4.375" height="4.375"/><rect class="cls-3" x="37.5" y="88.402" width="4.375" height="4.375"/><rect class="cls-3" x="55" y="75.277" width="4.375" height="4.375"/><rect class="cls-3" x="59.375" y="75.277" width="4.375" height="4.375"/><rect class="cls-3" x="63.75" y="75.277" width="4.375" height="4.375"/><rect class="cls-3" x="68.125" y="79.652" width="4.375" height="4.375"/><rect class="cls-3" x="72.5" y="79.652" width="4.375" height="4.375"/><rect class="cls-3" x="98.75" y="79.652" width="4.375" height="4.375"/><rect class="cls-3" x="103.125" y="79.652" width="4.375" height="4.375"/><rect class="cls-3" x="76.875" y="84.027" width="4.375" height="4.375"/><rect class="cls-3" x="94.375" y="84.027" width="4.375" height="4.375"/><rect class="cls-3" x="81.25" y="88.402" width="4.375" height="4.375"/><rect class="cls-3" x="85.625" y="88.402" width="4.375" height="4.375"/><rect class="cls-3" x="90" y="88.402" width="4.375" height="4.375"/><rect class="cls-3" x="107.5" y="75.277" width="4.375" height="4.375"/><rect class="cls-3" x="111.875" y="75.277" width="4.375" height="4.375"/><rect class="cls-3" x="116.25" y="75.277" width="4.375" height="4.375"/><rect class="cls-3" x="120.625" y="79.652" width="4.375" height="4.375"/><rect class="cls-3" x="125" y="79.652" width="4.375" height="4.375"/><rect class="cls-3" x="151.25" y="79.652" width="4.375" height="4.375"/><rect class="cls-3" x="155.625" y="79.652" width="4.375" height="4.375"/><rect class="cls-3" x="129.375" y="84.027" width="4.375" height="4.375"/><rect class="cls-3" x="146.875" y="84.027" width="4.375" height="4.375"/><rect class="cls-3" x="133.75" y="88.402" width="4.375" height="4.375"/><rect class="cls-3" x="138.125" y="88.402" width="4.375" height="4.375"/><rect class="cls-3" x="142.5" y="88.402" width="4.375" height="4.375"/><rect class="cls-3" x="160" y="75.277" width="4.375" height="4.375"/><rect class="cls-3" x="164.375" y="75.277" width="4.375" height="4.375"/><rect class="cls-3" x="168.75" y="75.277" width="4.375" height="4.375"/><rect class="cls-3" x="173.125" y="79.652" width="4.375" height="4.375"/><rect class="cls-3" x="177.5" y="79.652" width="4.375" height="4.375"/><rect class="cls-3" x="203.75" y="79.652" width="4.375" height="4.375"/><rect class="cls-3" x="208.125" y="79.652" width="4.375" height="4.375"/><rect class="cls-3" x="181.875" y="84.027" width="4.375" height="4.375"/><rect class="cls-3" x="199.375" y="84.027" width="4.375" height="4.375"/><rect class="cls-3" x="186.25" y="88.402" width="4.375" height="4.375"/><rect class="cls-3" x="190.625" y="88.402" width="4.375" height="4.375"/><rect class="cls-3" x="195" y="88.402" width="4.375" height="4.375"/><rect class="cls-3" x="2.5" y="122.223" width="4.375" height="4.375"/><rect class="cls-3" x="6.875" y="122.223" width="4.375" height="4.375"/><rect class="cls-3" x="11.25" y="122.223" width="4.375" height="4.375"/><rect class="cls-3" x="15.625" y="126.598" width="4.375" height="4.375"/><rect class="cls-3" x="20" y="126.598" width="4.375" height="4.375"/><rect class="cls-3" x="46.25" y="126.598" width="4.375" height="4.375"/><rect class="cls-3" x="50.625" y="126.598" width="4.375" height="4.375"/><rect class="cls-3" x="24.375" y="130.973" width="4.375" height="4.375"/><rect class="cls-3" x="41.875" y="130.973" width="4.375" height="4.375"/><rect class="cls-3" x="28.75" y="135.348" width="4.375" height="4.375"/><rect class="cls-3" x="33.125" y="135.348" width="4.375" height="4.375"/><rect class="cls-3" x="37.5" y="135.348" width="4.375" height="4.375"/><rect class="cls-3" x="55" y="122.223" width="4.375" height="4.375"/><rect class="cls-3" x="59.375" y="122.223" width="4.375" height="4.375"/><rect class="cls-3" x="63.75" y="122.223" width="4.375" height="4.375"/><rect class="cls-3" x="68.125" y="126.598" width="4.375" height="4.375"/><rect class="cls-3" x="72.5" y="126.598" width="4.375" height="4.375"/><rect class="cls-3" x="98.75" y="126.598" width="4.375" height="4.375"/><rect class="cls-3" x="103.125" y="126.598" width="4.375" height="4.375"/><rect class="cls-3" x="76.875" y="130.973" width="4.375" height="4.375"/><rect class="cls-3" x="94.375" y="130.973" width="4.375" height="4.375"/><rect class="cls-3" x="81.25" y="135.348" width="4.375" height="4.375"/><rect class="cls-3" x="85.625" y="135.348" width="4.375" height="4.375"/><rect class="cls-3" x="90" y="135.348" width="4.375" height="4.375"/><rect class="cls-3" x="107.5" y="122.223" width="4.375" height="4.375"/><rect class="cls-3" x="111.875" y="122.223" width="4.375" height="4.375"/><rect class="cls-3" x="116.25" y="122.223" width="4.375" height="4.375"/><rect class="cls-3" x="120.625" y="126.598" width="4.375" height="4.375"/><rect class="cls-3" x="125" y="126.598" width="4.375" height="4.375"/><rect class="cls-3" x="151.25" y="126.598" width="4.375" height="4.375"/><rect class="cls-3" x="155.625" y="126.598" width="4.375" height="4.375"/><rect class="cls-3" x="129.375" y="130.973" width="4.375" height="4.375"/><rect class="cls-3" x="146.875" y="130.973" width="4.375" height="4.375"/><rect class="cls-3" x="133.75" y="135.348" width="4.375" height="4.375"/><rect class="cls-3" x="138.125" y="135.348" width="4.375" height="4.375"/><rect class="cls-3" x="142.5" y="135.348" width="4.375" height="4.375"/><rect class="cls-3" x="160" y="122.223" width="4.375" height="4.375"/><rect class="cls-3" x="164.375" y="122.223" width="4.375" height="4.375"/><rect class="cls-3" x="168.75" y="122.223" width="4.375" height="4.375"/><rect class="cls-3" x="173.125" y="126.598" width="4.375" height="4.375"/><rect class="cls-3" x="177.5" y="126.598" width="4.375" height="4.375"/><rect class="cls-3" x="203.75" y="126.598" width="4.375" height="4.375"/><rect class="cls-3" x="208.125" y="126.598" width="4.375" height="4.375"/><rect class="cls-3" x="181.875" y="130.973" width="4.375" height="4.375"/><rect class="cls-3" x="199.375" y="130.973" width="4.375" height="4.375"/><rect class="cls-3" x="186.25" y="135.348" width="4.375" height="4.375"/><rect class="cls-3" x="190.625" y="135.348" width="4.375" height="4.375"/><rect class="cls-3" x="195" y="135.348" width="4.375" height="4.375"/><rect class="cls-3" x="2.5" y="169.17" width="4.375" height="4.375"/><rect class="cls-3" x="6.875" y="169.17" width="4.375" height="4.375"/><rect class="cls-3" x="11.25" y="169.17" width="4.375" height="4.375"/><rect class="cls-3" x="15.625" y="173.545" width="4.375" height="4.375"/><rect class="cls-3" x="20" y="173.545" width="4.375" height="4.375"/><rect class="cls-3" x="46.25" y="173.545" width="4.375" height="4.375"/><rect class="cls-3" x="50.625" y="173.545" width="4.375" height="4.375"/><rect class="cls-3" x="24.375" y="177.92" width="4.375" height="4.375"/><rect class="cls-3" x="41.875" y="177.92" width="4.375" height="4.375"/><rect class="cls-3" x="28.75" y="182.295" width="4.375" height="4.375"/><rect class="cls-3" x="33.125" y="182.295" width="4.375" height="4.375"/><rect class="cls-3" x="37.5" y="182.295" width="4.375" height="4.375"/><rect class="cls-3" x="55" y="169.17" width="4.375" height="4.375"/><rect class="cls-3" x="59.375" y="169.17" width="4.375" height="4.375"/><rect class="cls-3" x="63.75" y="169.17" width="4.375" height="4.375"/><rect class="cls-3" x="68.125" y="173.545" width="4.375" height="4.375"/><rect class="cls-3" x="72.5" y="173.545" width="4.375" height="4.375"/><rect class="cls-3" x="98.75" y="173.545" width="4.375" height="4.375"/><rect class="cls-3" x="103.125" y="173.545" width="4.375" height="4.375"/><rect class="cls-3" x="76.875" y="177.92" width="4.375" height="4.375"/><rect class="cls-3" x="94.375" y="177.92" width="4.375" height="4.375"/><rect class="cls-3" x="81.25" y="182.295" width="4.375" height="4.375"/><rect class="cls-3" x="85.625" y="182.295" width="4.375" height="4.375"/><rect class="cls-3" x="90" y="182.295" width="4.375" height="4.375"/><rect class="cls-3" x="107.5" y="169.17" width="4.375" height="4.375"/><rect class="cls-3" x="111.875" y="169.17" width="4.375" height="4.375"/><rect class="cls-3" x="116.25" y="169.17" width="4.375" height="4.375"/><rect class="cls-3" x="120.625" y="173.545" width="4.375" height="4.375"/><rect class="cls-3" x="125" y="173.545" width="4.375" height="4.375"/><rect class="cls-3" x="151.25" y="173.545" width="4.375" height="4.375"/><rect class="cls-3" x="155.625" y="173.545" width="4.375" height="4.375"/><rect class="cls-3" x="129.375" y="177.92" width="4.375" height="4.375"/><rect class="cls-3" x="146.875" y="177.92" width="4.375" height="4.375"/><rect class="cls-3" x="133.75" y="182.295" width="4.375" height="4.375"/><rect class="cls-3" x="138.125" y="182.295" width="4.375" height="4.375"/><rect class="cls-3" x="142.5" y="182.295" width="4.375" height="4.375"/><rect class="cls-3" x="160" y="169.17" width="4.375" height="4.375"/><rect class="cls-3" x="164.375" y="169.17" width="4.375" height="4.375"/><rect class="cls-3" x="168.75" y="169.17" width="4.375" height="4.375"/><rect class="cls-3" x="173.125" y="173.545" width="4.375" height="4.375"/><rect class="cls-3" x="177.5" y="173.545" width="4.375" height="4.375"/><rect class="cls-3" x="203.75" y="173.545" width="4.375" height="4.375"/><rect class="cls-3" x="208.125" y="173.545" width="4.375" height="4.375"/><rect class="cls-3" x="181.875" y="177.92" width="4.375" height="4.375"/><rect class="cls-3" x="199.375" y="177.92" width="4.375" height="4.375"/><rect class="cls-3" x="186.25" y="182.295" width="4.375" height="4.375"/><rect class="cls-3" x="190.625" y="182.295" width="4.375" height="4.375"/><rect class="cls-3" x="195" y="182.295" width="4.375" height="4.375"/><rect class="cls-4" x="163.75" y="54.003" width="4.375" height="4.375" transform="translate(222.128 -109.747) rotate(90)"/><rect class="cls-4" x="168.125" y="54.003" width="4.375" height="4.375" transform="translate(226.503 -114.122) rotate(90)"/><rect class="cls-4" x="172.5" y="58.378" width="4.375" height="4.375" transform="translate(235.253 -114.122) rotate(90)"/><rect class="cls-4" x="176.875" y="58.378" width="4.375" height="4.375" transform="translate(239.628 -118.497) rotate(90)"/><rect class="cls-4" x="181.25" y="62.753" width="4.375" height="4.375" transform="translate(248.378 -118.497) rotate(90)"/><rect class="cls-4" x="181.25" y="67.128" width="4.375" height="4.375" transform="translate(252.753 -114.122) rotate(90)"/><rect class="cls-4" x="181.25" y="71.503" width="4.375" height="4.375" transform="translate(257.128 -109.747) rotate(90)"/><rect class="cls-4" x="176.875" y="75.878" width="4.375" height="4.375" transform="translate(257.128 -100.997) rotate(90)"/><rect class="cls-4" x="172.5" y="80.253" width="4.375" height="4.375" transform="translate(257.128 -92.247) rotate(90)"/><rect class="cls-4" x="168.125" y="80.253" width="4.375" height="4.375" transform="translate(252.753 -87.872) rotate(90)"/><rect class="cls-4" x="163.75" y="80.253" width="4.375" height="4.375" transform="translate(248.378 -83.497) rotate(90)"/><rect class="cls-4" x="159.375" y="75.878" width="4.375" height="4.375" transform="translate(239.628 -83.497) rotate(90)"/><rect class="cls-4" x="155" y="71.503" width="4.375" height="4.375" transform="translate(230.878 -83.497) rotate(90)"/><rect class="cls-4" x="155" y="67.128" width="4.375" height="4.375" transform="translate(226.503 -87.872) rotate(90)"/><rect class="cls-4" x="155" y="62.753" width="4.375" height="4.375" transform="translate(222.128 -92.247) rotate(90)"/><rect class="cls-4" x="159.375" y="58.378" width="4.375" height="4.375" transform="translate(222.128 -100.997) rotate(90)"/><rect class="cls-4" x="48.438" y="122.223" width="4.375" height="4.375" transform="translate(175.036 73.786) rotate(90)"/><rect class="cls-4" x="52.813" y="122.223" width="4.375" height="4.375" transform="translate(179.411 69.411) rotate(90)"/><rect class="cls-4" x="57.188" y="122.223" width="4.375" height="4.375" transform="translate(183.786 65.036) rotate(90)"/><rect class="cls-4" x="61.563" y="126.598" width="4.375" height="4.375" transform="translate(192.536 65.036) rotate(90)"/><rect class="cls-4" x="65.938" y="130.973" width="4.375" height="4.375" transform="translate(201.286 65.036) rotate(90)"/><rect class="cls-4" x="65.938" y="135.348" width="4.375" height="4.375" transform="translate(205.661 69.411) rotate(90)"/><rect class="cls-4" x="65.938" y="139.723" width="4.375" height="4.375" transform="translate(210.036 73.786) rotate(90)"/><rect class="cls-4" x="61.563" y="144.098" width="4.375" height="4.375" transform="translate(210.036 82.536) rotate(90)"/><rect class="cls-4" x="57.188" y="144.098" width="4.375" height="4.375" transform="translate(205.661 86.911) rotate(90)"/><rect class="cls-4" x="52.813" y="144.098" width="4.375" height="4.375" transform="translate(201.286 91.286) rotate(90)"/><rect class="cls-4" x="48.437" y="144.098" width="4.375" height="4.375" transform="translate(196.911 95.661) rotate(90)"/><rect class="cls-4" x="44.062" y="139.723" width="4.375" height="4.375" transform="translate(188.161 95.661) rotate(90)"/><rect class="cls-4" x="44.062" y="135.348" width="4.375" height="4.375" transform="translate(183.786 91.286) rotate(90)"/><rect class="cls-4" x="44.062" y="130.973" width="4.375" height="4.375" transform="translate(179.411 86.911) rotate(90)"/><rect class="cls-4" x="44.062" y="126.598" width="4.375" height="4.375" transform="translate(175.036 82.536) rotate(90)"/></g></g></svg>