<svg width="24" height="24" viewBox="0 0 24 24" fill="none" xmlns="http://www.w3.org/2000/svg">
<path d="M6.8137 12.508C6.8137 13.332 6.9657 14.176 7.2697 15.04C7.5817 15.904 8.0417 16.688 8.6497 17.392L8.2777 17.74C7.3577 16.988 6.6937 16.152 6.2857 15.232C5.8857 14.304 5.6857 13.396 5.6857 12.508C5.6857 10.572 6.5497 8.9 8.2777 7.492L8.6497 7.828C7.4257 9.268 6.8137 10.828 6.8137 12.508ZM11.5832 12.508C11.5832 13.332 11.7352 14.176 12.0392 15.04C12.3512 15.904 12.8112 16.688 13.4192 17.392L13.0472 17.74C12.1272 16.988 11.4632 16.152 11.0552 15.232C10.6552 14.304 10.4552 13.396 10.4552 12.508C10.4552 10.572 11.3192 8.9 13.0472 7.492L13.4192 7.828C12.1952 9.268 11.5832 10.828 11.5832 12.508ZM16.3528 12.508C16.3528 13.332 16.5048 14.176 16.8088 15.04C17.1208 15.904 17.5808 16.688 18.1888 17.392L17.8168 17.74C16.8968 16.988 16.2328 16.152 15.8248 15.232C15.4248 14.304 15.2248 13.396 15.2248 12.508C15.2248 10.572 16.0888 8.9 17.8168 7.492L18.1888 7.828C16.9648 9.268 16.3528 10.828 16.3528 12.508Z" fill="white"/>
</svg>
